%TF.GenerationSoftware,Altium Limited,Altium Designer,19.0.11 (319)*%
G04 Layer_Physical_Order=2*
G04 Layer_Color=16711680*
%FSLAX26Y26*%
%MOIN*%
%TF.FileFunction,Copper,L2,Bot,Signal*%
%TF.Part,Single*%
G01*
G75*
%TA.AperFunction,SMDPad,CuDef*%
%ADD29R,0.035433X0.027559*%
%ADD30R,0.027559X0.035433*%
%ADD32R,0.038433X0.030000*%
%ADD33R,0.030000X0.038433*%
%TA.AperFunction,Conductor*%
%ADD38C,0.007874*%
%ADD39C,0.019685*%
%ADD40C,0.009842*%
%ADD41C,0.011811*%
%ADD42C,0.047244*%
%ADD43C,0.015748*%
%ADD44C,0.012992*%
%TA.AperFunction,ComponentPad*%
%ADD47O,0.059055X0.062992*%
%ADD48R,0.051181X0.068898*%
%ADD49R,0.059055X0.059055*%
%ADD50C,0.059055*%
%ADD51R,0.040000X0.031496*%
%ADD52O,0.040000X0.031496*%
%TA.AperFunction,SMDPad,CuDef*%
%ADD53C,0.015000*%
%TA.AperFunction,ComponentPad*%
%ADD54O,0.031496X0.040000*%
%ADD55R,0.031496X0.040000*%
%ADD56O,0.035433X0.076772*%
%ADD57O,0.041339X0.061024*%
%TA.AperFunction,ViaPad*%
%ADD58C,0.157480*%
%ADD59C,0.015748*%
%ADD60C,0.023622*%
%TA.AperFunction,TestPad*%
%ADD61C,0.023622*%
%ADD62C,0.039370*%
%TA.AperFunction,ViaPad*%
%ADD63C,0.017716*%
%TA.AperFunction,SMDPad,CuDef*%
%ADD64R,0.031496X0.039370*%
%ADD65R,0.039370X0.031496*%
%ADD66R,0.102362X0.059055*%
%TA.AperFunction,Conductor*%
%ADD67C,0.013780*%
G36*
X831693Y1172244D02*
X1520669D01*
Y802165D01*
X1730724D01*
X1731038Y802452D01*
X1904528Y802165D01*
Y636811D01*
Y206719D01*
X1904530Y206715D01*
X1904531Y206716D01*
X1904534Y45296D01*
X1904528Y45289D01*
Y4921D01*
X1736220D01*
Y41500D01*
X1736018Y215292D01*
X1736220Y215474D01*
Y240157D01*
X1332677D01*
Y4921D01*
X109429D01*
X106754Y4385D01*
X86126Y3844D01*
X78770Y4921D01*
X4921D01*
Y42921D01*
X4635Y43236D01*
X4635D01*
Y204796D01*
X4921Y205110D01*
Y628362D01*
X4635Y628676D01*
X4921Y802165D01*
X388779D01*
Y1195866D01*
X831693D01*
Y1172244D01*
D02*
G37*
%LPC*%
G36*
X1210630Y902678D02*
X1201072Y901420D01*
X1192165Y897730D01*
X1188285Y894753D01*
X1154235D01*
X1150355Y897730D01*
X1141448Y901420D01*
X1131890Y902678D01*
X1122332Y901420D01*
X1113425Y897730D01*
X1105776Y891861D01*
X1099907Y884213D01*
X1096218Y875306D01*
X1094960Y865748D01*
Y861811D01*
X1096218Y852253D01*
X1099907Y843346D01*
X1105776Y835697D01*
X1113425Y829829D01*
X1122332Y826139D01*
X1131890Y824881D01*
X1141448Y826139D01*
X1150355Y829829D01*
X1154235Y832806D01*
X1188285D01*
X1192165Y829829D01*
X1201072Y826139D01*
X1210630Y824881D01*
X1220188Y826139D01*
X1229095Y829829D01*
X1236743Y835697D01*
X1242612Y843346D01*
X1246302Y852253D01*
X1247560Y861811D01*
Y865748D01*
X1246302Y875306D01*
X1242612Y884213D01*
X1236743Y891861D01*
X1229095Y897730D01*
X1220188Y901420D01*
X1210630Y902678D01*
D02*
G37*
G36*
X1033465D02*
X1023907Y901420D01*
X1015000Y897730D01*
X1007352Y891861D01*
X1001483Y884213D01*
X997793Y875306D01*
X996535Y865748D01*
Y861811D01*
X997793Y852253D01*
X1001483Y843346D01*
X1007352Y835697D01*
X1015000Y829829D01*
X1023907Y826139D01*
X1033465Y824881D01*
X1043023Y826139D01*
X1051930Y829829D01*
X1059579Y835697D01*
X1065447Y843346D01*
X1069137Y852253D01*
X1070395Y861811D01*
Y865748D01*
X1069137Y875306D01*
X1065447Y884213D01*
X1059579Y891861D01*
X1051930Y897730D01*
X1043023Y901420D01*
X1033465Y902678D01*
D02*
G37*
G36*
X1631398Y780054D02*
X1624409Y779134D01*
X1617897Y776437D01*
X1612304Y772145D01*
X1609848Y768945D01*
X1430315D01*
Y775197D01*
X1380709D01*
Y768108D01*
X1196063D01*
Y772244D01*
X1146457D01*
Y766632D01*
X958858D01*
Y772244D01*
X909252D01*
Y767124D01*
X722638D01*
Y773228D01*
X673032D01*
Y731496D01*
X722638D01*
Y736616D01*
X774652D01*
X778346Y733464D01*
Y660236D01*
X894882D01*
Y677324D01*
X909252D01*
Y668701D01*
X909252D01*
X911145Y664130D01*
X901854Y654839D01*
X898982Y650542D01*
X897974Y645472D01*
X897974Y645472D01*
Y619074D01*
X894882Y615354D01*
X778346D01*
Y566377D01*
X741338D01*
Y579921D01*
X695669D01*
Y532912D01*
X647638D01*
X642953Y531980D01*
X638981Y529326D01*
X616976Y507322D01*
X547554D01*
X547008Y512311D01*
X550980Y514965D01*
X562791Y526776D01*
X565445Y530748D01*
X566377Y535433D01*
Y542126D01*
X658661D01*
Y615354D01*
X575218D01*
X573122Y620300D01*
X575235Y622611D01*
X575816Y622496D01*
X583189Y623962D01*
X589440Y628139D01*
X593617Y634390D01*
X595083Y641764D01*
X593617Y649137D01*
X589541Y655236D01*
X589719Y656163D01*
X591184Y660236D01*
X658661D01*
Y678308D01*
X673032D01*
Y669685D01*
X722638D01*
Y711417D01*
X673032D01*
Y702794D01*
X658661D01*
Y733465D01*
X542126D01*
Y660236D01*
X560447D01*
X561912Y656163D01*
X562090Y655236D01*
X558014Y649137D01*
X556548Y641764D01*
X556872Y640134D01*
X547091Y630353D01*
X541339D01*
X536653Y629421D01*
X532682Y626767D01*
X527996Y622082D01*
X525342Y618110D01*
X524410Y613425D01*
Y572282D01*
X489173D01*
X484488Y571351D01*
X480516Y568697D01*
X474611Y562791D01*
X471957Y558819D01*
X471025Y554134D01*
Y537205D01*
X470079Y536259D01*
X404382D01*
X399696Y535327D01*
X395724Y532673D01*
X375822Y512771D01*
X335252D01*
X322093Y525930D01*
X322417Y527559D01*
X320951Y534933D01*
X316774Y541183D01*
X310523Y545360D01*
X303150Y546827D01*
X296574Y545519D01*
X291574Y547912D01*
Y608604D01*
X301964Y618994D01*
X304618Y622966D01*
X305550Y627651D01*
Y712815D01*
X306932Y713738D01*
X311108Y719989D01*
X312575Y727362D01*
X311108Y734736D01*
X306932Y740987D01*
X300681Y745163D01*
X293307Y746630D01*
X285934Y745163D01*
X279683Y740987D01*
X275506Y734736D01*
X274039Y727362D01*
X275506Y719989D01*
X279683Y713738D01*
X281064Y712815D01*
Y632723D01*
X271180Y622838D01*
X269079Y623139D01*
X266180Y624607D01*
Y733268D01*
X265248Y737953D01*
X262594Y741925D01*
X253196Y751323D01*
X253520Y752953D01*
X252053Y760326D01*
X247876Y766577D01*
X241625Y770754D01*
X234252Y772221D01*
X226879Y770754D01*
X220628Y766577D01*
X216451Y760326D01*
X214984Y752953D01*
X216451Y745579D01*
X220628Y739328D01*
X226879Y735152D01*
X234252Y733685D01*
X235881Y734009D01*
X241694Y728197D01*
Y509350D01*
X242626Y504665D01*
X245280Y500693D01*
X289079Y456894D01*
X293051Y454240D01*
X297736Y453308D01*
X401394D01*
X406079Y454240D01*
X410051Y456894D01*
X417838Y464681D01*
X421260Y464000D01*
X428633Y465467D01*
X434884Y469643D01*
X439061Y475894D01*
X439635Y478779D01*
X443134Y482836D01*
X445152Y482836D01*
X622047D01*
X626732Y483768D01*
X630704Y486422D01*
X652709Y508426D01*
X863849D01*
X865073Y502272D01*
X869250Y496021D01*
X875500Y491844D01*
X882874Y490378D01*
X890247Y491844D01*
X892974Y493666D01*
X897974Y490994D01*
Y470079D01*
X897974Y470079D01*
X898982Y465009D01*
X901854Y460712D01*
X918773Y443793D01*
X916860Y439173D01*
X897442D01*
X896260Y439408D01*
X873739D01*
X873523Y441044D01*
X870826Y447556D01*
X866535Y453149D01*
X860942Y457440D01*
X854430Y460138D01*
X847441Y461058D01*
X840452Y460138D01*
X833940Y457440D01*
X828347Y453149D01*
X824056Y447556D01*
X821358Y441044D01*
X820438Y434055D01*
X821358Y427066D01*
X824056Y420554D01*
X828347Y414961D01*
X833940Y410670D01*
X840452Y407973D01*
X847441Y407053D01*
X854430Y407973D01*
X860942Y410670D01*
X866535Y414961D01*
X866602Y415050D01*
X867242Y414922D01*
X884252D01*
Y389567D01*
X896222D01*
Y367126D01*
X896457Y365944D01*
Y305906D01*
X1012992D01*
Y361348D01*
X1017611Y363261D01*
X1034924Y345949D01*
X1034925Y345948D01*
X1037039Y344535D01*
X1037992Y343110D01*
X1043591Y339368D01*
X1050197Y338054D01*
X1174937D01*
X1187464Y325528D01*
Y175177D01*
X1186043Y173757D01*
X1137516D01*
X1130910Y172443D01*
X1125310Y168701D01*
X1113779Y157170D01*
X1110037Y151570D01*
X1108724Y144965D01*
Y128657D01*
X1109463Y124941D01*
X1109167Y124499D01*
X1107920Y118231D01*
X1044352Y54662D01*
X659688D01*
X656869Y57481D01*
X651269Y61223D01*
X644664Y62536D01*
X542920D01*
X542427Y67537D01*
X542768Y67604D01*
X550321Y72651D01*
X555368Y80204D01*
X557140Y89114D01*
Y97618D01*
X555368Y106528D01*
X550321Y114081D01*
X549506Y114626D01*
Y131631D01*
X548345Y137468D01*
X545038Y142417D01*
X540089Y145723D01*
X539659Y145809D01*
X532912Y152555D01*
Y162205D01*
X560235D01*
X561417Y161970D01*
X585063D01*
X594756Y152276D01*
X598728Y149622D01*
X603413Y148690D01*
X923563D01*
X934256Y137996D01*
X938228Y135342D01*
X942913Y134411D01*
X999850D01*
X1014521Y119740D01*
X1014197Y118110D01*
X1015663Y110737D01*
X1019840Y104486D01*
X1026091Y100309D01*
X1033465Y98842D01*
X1040838Y100309D01*
X1047089Y104486D01*
X1051266Y110737D01*
X1052732Y118110D01*
X1051266Y125484D01*
X1047089Y131735D01*
X1040838Y135911D01*
X1033465Y137378D01*
X1031835Y137054D01*
X1013578Y155311D01*
X1009606Y157965D01*
X1004921Y158897D01*
X987617D01*
X985260Y163306D01*
X986305Y164871D01*
X987772Y172244D01*
X986305Y179618D01*
X984182Y182795D01*
X986854Y187795D01*
X1012992D01*
Y261024D01*
X896457D01*
Y243542D01*
X877165D01*
Y254134D01*
X824251D01*
Y285039D01*
X823319Y289724D01*
X820665Y293696D01*
X730779Y383583D01*
X732850Y388583D01*
X770275D01*
Y438189D01*
X761652D01*
Y443701D01*
X778740D01*
Y497244D01*
X733071D01*
Y443701D01*
X737166D01*
Y438189D01*
X728543D01*
Y392889D01*
X723543Y390818D01*
X708465Y405897D01*
Y438189D01*
X666732D01*
Y388583D01*
X691150D01*
X799765Y279968D01*
Y216043D01*
X800697Y211358D01*
X803351Y207386D01*
X832561Y178176D01*
X831836Y175010D01*
X830642Y173176D01*
X794488D01*
Y216732D01*
X740945D01*
Y212637D01*
X699016D01*
Y220041D01*
X700787D01*
X705473Y220972D01*
X709444Y223626D01*
X732082Y246264D01*
X734736Y250236D01*
X735668Y254921D01*
Y274606D01*
X734736Y279291D01*
X732082Y283263D01*
X703539Y311807D01*
X699567Y314461D01*
X694882Y315393D01*
X566685D01*
X528626Y353452D01*
X530540Y358071D01*
X564567D01*
Y407677D01*
X555944D01*
Y414173D01*
X572047D01*
Y467717D01*
X526378D01*
Y414173D01*
X531458D01*
Y407677D01*
X522835D01*
Y365776D01*
X518215Y363863D01*
X503342Y378736D01*
X502756Y379128D01*
Y407677D01*
X461024D01*
Y358071D01*
X489378D01*
X552957Y294493D01*
X556929Y291839D01*
X561614Y290907D01*
X689711D01*
X692519Y287489D01*
X690625Y283071D01*
X649409D01*
Y274448D01*
X566339D01*
X561653Y273516D01*
X557682Y270862D01*
X512012Y225192D01*
X509358Y221221D01*
X508426Y216535D01*
Y211811D01*
X469882D01*
Y162205D01*
X475494D01*
Y151988D01*
X473466Y149959D01*
X470159Y145011D01*
X468998Y139173D01*
Y115152D01*
X467395Y114081D01*
X462349Y106528D01*
X461693Y103232D01*
X456693Y103724D01*
Y120453D01*
X436438D01*
X394611Y162280D01*
X389011Y166022D01*
X382406Y167336D01*
X360858D01*
X356755Y172336D01*
X356926Y173197D01*
Y209239D01*
X357466Y210048D01*
X358933Y217421D01*
X357466Y224795D01*
X353290Y231046D01*
X347039Y235222D01*
X339665Y236689D01*
X332292Y235222D01*
X331483Y234682D01*
X247996D01*
X219685Y262993D01*
Y280315D01*
X170079D01*
Y238583D01*
X195275D01*
X228641Y205216D01*
X234241Y201474D01*
X240846Y200161D01*
X322405D01*
Y185752D01*
X308047D01*
Y133146D01*
X333624D01*
X335291Y132814D01*
X375256D01*
X411024Y97046D01*
Y66279D01*
X422503D01*
Y60118D01*
X423817Y53513D01*
X427559Y47913D01*
X442401Y33071D01*
X448001Y29329D01*
X454606Y28015D01*
X637514D01*
X640333Y25196D01*
X645933Y21455D01*
X652538Y20141D01*
X1047244D01*
X1053850Y21455D01*
X1059449Y25196D01*
X1063191Y30796D01*
X1063787Y33792D01*
X1128073Y98078D01*
X1134342Y99325D01*
X1140593Y103502D01*
X1144770Y109752D01*
X1146236Y117126D01*
X1144770Y124499D01*
X1142957Y127212D01*
X1143245Y128657D01*
Y137815D01*
X1144665Y139235D01*
X1193193D01*
X1197777Y140147D01*
X1202777Y136984D01*
Y131067D01*
X1197777Y128394D01*
X1195366Y130006D01*
X1187992Y131472D01*
X1180619Y130006D01*
X1174368Y125829D01*
X1170191Y119578D01*
X1168724Y112205D01*
X1170191Y104831D01*
X1174368Y98580D01*
X1180619Y94404D01*
X1187992Y92937D01*
X1195366Y94404D01*
X1197777Y96015D01*
X1202777Y93343D01*
Y76919D01*
X1201687Y75287D01*
X1200220Y67913D01*
X1201687Y60540D01*
X1205864Y54289D01*
X1212115Y50112D01*
X1219488Y48646D01*
X1226862Y50112D01*
X1233113Y54289D01*
X1237289Y60540D01*
X1238756Y67913D01*
X1237299Y75238D01*
Y152714D01*
X1235985Y159319D01*
X1232243Y164919D01*
X1221985Y175177D01*
Y244294D01*
X1222913Y248910D01*
X1222914Y248910D01*
Y248910D01*
X1226985Y249311D01*
X1227099Y248741D01*
X1228032Y244049D01*
X1232209Y237798D01*
X1238460Y233621D01*
X1245833Y232155D01*
X1253207Y233621D01*
X1259457Y237798D01*
X1263634Y244049D01*
X1264655Y249179D01*
X1275460Y259984D01*
X1310752D01*
Y304157D01*
X1269989D01*
X1267918Y309157D01*
X1282556Y323795D01*
X1310752D01*
Y332353D01*
X1316677D01*
Y327043D01*
X1336440D01*
X1368602Y294881D01*
X1374202Y291140D01*
X1380807Y289826D01*
X1456693D01*
X1463298Y291140D01*
X1468898Y294881D01*
X1478606Y304590D01*
X1618886D01*
X1625492Y305904D01*
X1631091Y309645D01*
X1633779Y313668D01*
X1638779Y312151D01*
Y268307D01*
X1736614Y268307D01*
X1736614Y366142D01*
X1680836Y366142D01*
X1678332Y371142D01*
X1679569Y372797D01*
X1763189D01*
Y360195D01*
X1804921D01*
Y409801D01*
X1763189D01*
Y399290D01*
X1678216D01*
X1676144Y404290D01*
X1698295Y426440D01*
X1731650D01*
X1732712Y423876D01*
X1732712Y423876D01*
X1732713Y423875D01*
X1733500Y422697D01*
X1734278Y421532D01*
X1734279Y421532D01*
X1734279Y421531D01*
X1736494Y419317D01*
X1738839Y417750D01*
X1741734Y416552D01*
X1741734Y416552D01*
X1741735Y416551D01*
X1743060Y416288D01*
X1744499Y416002D01*
X1744499Y416002D01*
X1744500Y416002D01*
X1746066Y416003D01*
X1860236Y416003D01*
X1861181Y416191D01*
X1862142Y416259D01*
X1866633Y417487D01*
X1867043Y417692D01*
X1867492Y417781D01*
X1868293Y418316D01*
X1869155Y418747D01*
X1869455Y419093D01*
X1869836Y419348D01*
X1872021Y421532D01*
X1872021Y421532D01*
X1872021Y421533D01*
X1872995Y422990D01*
X1873587Y423876D01*
Y423876D01*
X1873587Y423877D01*
X1874786Y426771D01*
X1874786Y426772D01*
X1874786Y426772D01*
X1875062Y428162D01*
X1875335Y429536D01*
X1875335Y429537D01*
X1875335Y429537D01*
X1875335Y431103D01*
X1875336Y506200D01*
X1875336Y506200D01*
X1875336Y506201D01*
X1875335Y510827D01*
X1875169Y511661D01*
X1875136Y512511D01*
X1874019Y517167D01*
X1873780Y517686D01*
X1873669Y518247D01*
X1873288Y519166D01*
X1871722Y521510D01*
X1868953Y524279D01*
X1866610Y525846D01*
X1866609Y525846D01*
X1862992Y527344D01*
X1862991Y527344D01*
X1862991Y527345D01*
X1861977Y527546D01*
X1860227Y527894D01*
X1860226Y527894D01*
X1860226Y527894D01*
X1858268Y527894D01*
X1746062Y527893D01*
X1746061Y527893D01*
X1744497Y527893D01*
X1744496Y527893D01*
X1744496Y527893D01*
X1743319Y527659D01*
X1741732Y527344D01*
X1741731Y527343D01*
X1741731Y527343D01*
X1738837Y526145D01*
X1736493Y524579D01*
X1734279Y522364D01*
X1734278Y522364D01*
X1732712Y520020D01*
X1731513Y517126D01*
X1731212Y515612D01*
X1730964Y514361D01*
X1730964Y512795D01*
X1730964Y460962D01*
X1691145D01*
X1684540Y459648D01*
X1678940Y455906D01*
X1611145Y388112D01*
X1607262Y391299D01*
X1607368Y391458D01*
X1608835Y398832D01*
X1608511Y400461D01*
X1623815Y415765D01*
X1626469Y419737D01*
X1627400Y424422D01*
Y461831D01*
X1628782Y462754D01*
X1632959Y469005D01*
X1634425Y476378D01*
X1632959Y483752D01*
X1629598Y488781D01*
X1629099Y492126D01*
X1629598Y495471D01*
X1632959Y500500D01*
X1634425Y507874D01*
X1632959Y515247D01*
X1628782Y521498D01*
X1622531Y525675D01*
X1615158Y527142D01*
X1607784Y525675D01*
X1601533Y521498D01*
X1597356Y515247D01*
X1595948Y508168D01*
X1532938Y445158D01*
X1531969Y445300D01*
X1528088Y447378D01*
Y468196D01*
X1528628Y469005D01*
X1530095Y476378D01*
X1528628Y483752D01*
X1524451Y490002D01*
X1518200Y494179D01*
X1510827Y495646D01*
X1505197Y494526D01*
X1500997Y497073D01*
X1500197Y498017D01*
Y546457D01*
X1454527D01*
Y540063D01*
X1449527Y537991D01*
X1416789Y570731D01*
X1418999Y575591D01*
X1421350Y575591D01*
X1462795D01*
Y629134D01*
X1417126D01*
Y615590D01*
X1333661D01*
X1332479Y615354D01*
X1250787D01*
Y542126D01*
X1367323D01*
Y567089D01*
X1372323Y568606D01*
X1374655Y565116D01*
X1380906Y560939D01*
X1388279Y559472D01*
X1392565Y560325D01*
X1430670Y522220D01*
Y489370D01*
X1391142D01*
Y464015D01*
X1333358D01*
X1328673Y463083D01*
X1324701Y460429D01*
X1323606Y458789D01*
X1321966Y457694D01*
X1279066Y414794D01*
X1276412Y410822D01*
X1275480Y406137D01*
Y400971D01*
X1243034Y368526D01*
X1242187Y368694D01*
X1234813Y367228D01*
X1228562Y363051D01*
X1224386Y356800D01*
X1222919Y349426D01*
X1224385Y342053D01*
X1220038Y340230D01*
X1216930Y344882D01*
X1194292Y367520D01*
X1188692Y371262D01*
X1182087Y372576D01*
X1153294D01*
Y386043D01*
X1154676Y386966D01*
X1158852Y393217D01*
X1160319Y400591D01*
X1158852Y407964D01*
X1154676Y414215D01*
X1148425Y418392D01*
X1141051Y419858D01*
X1133678Y418392D01*
X1127427Y414215D01*
X1123250Y407964D01*
X1121783Y400591D01*
X1123250Y393217D01*
X1127427Y386966D01*
X1128808Y386043D01*
Y372576D01*
X1050197D01*
X1046499Y371840D01*
X1042636Y375704D01*
X1044088Y380488D01*
X1045759Y380821D01*
X1052010Y384998D01*
X1055146Y389691D01*
X1056436Y389947D01*
X1060408Y392601D01*
X1087984Y420177D01*
X1120275D01*
Y425768D01*
X1169822D01*
X1171415Y423384D01*
X1177666Y419207D01*
X1185039Y417740D01*
X1192413Y419207D01*
X1198664Y423384D01*
X1202841Y429634D01*
X1204307Y437008D01*
X1203832Y439397D01*
X1208074Y443701D01*
X1229303D01*
X1231216Y439082D01*
X1227563Y435429D01*
X1224909Y431457D01*
X1224465Y429223D01*
X1222656Y428015D01*
X1218480Y421764D01*
X1217013Y414390D01*
X1218480Y407017D01*
X1222656Y400766D01*
X1228907Y396589D01*
X1236281Y395123D01*
X1243654Y396589D01*
X1249905Y400766D01*
X1254082Y407017D01*
X1255549Y414390D01*
X1254082Y421764D01*
X1251857Y425094D01*
X1273421Y446658D01*
X1276075Y450630D01*
X1277007Y455315D01*
Y484252D01*
X1276075Y488937D01*
X1273421Y492909D01*
X1230747Y535583D01*
Y599285D01*
X1231751Y604331D01*
X1230742Y609400D01*
X1227871Y613697D01*
X1202250Y639318D01*
X1202339Y639764D01*
X1200872Y647137D01*
X1196695Y653388D01*
X1190444Y657565D01*
X1183071Y659032D01*
X1175697Y657565D01*
X1171885Y655018D01*
X1074903D01*
X1074747Y655236D01*
X1077327Y660236D01*
X1131102D01*
Y677324D01*
X1146457D01*
Y668701D01*
X1196063D01*
Y710433D01*
X1146457D01*
Y701810D01*
X1131102D01*
Y733464D01*
X1135001Y736124D01*
X1146457D01*
Y730512D01*
X1196063D01*
Y737601D01*
X1248702D01*
X1250787Y733465D01*
X1250787Y732601D01*
Y660236D01*
X1367323D01*
Y680277D01*
X1380709D01*
Y671654D01*
X1430315D01*
Y679470D01*
X1556517D01*
X1556541Y679412D01*
X1560832Y673820D01*
X1566424Y669528D01*
X1572937Y666831D01*
X1579926Y665911D01*
X1586914Y666831D01*
X1593427Y669528D01*
X1599019Y673820D01*
X1603311Y679412D01*
X1606008Y685924D01*
X1606928Y692913D01*
X1606008Y699902D01*
X1603311Y706415D01*
X1599019Y712007D01*
X1593427Y716298D01*
X1586914Y718996D01*
X1579926Y719916D01*
X1572937Y718996D01*
X1566424Y716298D01*
X1560832Y712007D01*
X1556541Y706415D01*
X1556354Y705963D01*
X1430315D01*
Y713386D01*
X1380709D01*
Y704763D01*
X1367323D01*
Y732601D01*
X1367323Y733465D01*
X1369409Y737601D01*
X1380709D01*
Y733465D01*
X1430315D01*
Y738438D01*
X1608867D01*
X1612304Y733958D01*
X1617897Y729667D01*
X1624409Y726969D01*
X1631398Y726049D01*
X1638387Y726969D01*
X1644899Y729667D01*
X1650492Y733958D01*
X1654783Y739551D01*
X1657480Y746063D01*
X1658400Y753052D01*
X1657480Y760041D01*
X1654783Y766553D01*
X1650492Y772145D01*
X1644899Y776437D01*
X1638387Y779134D01*
X1631398Y780054D01*
D02*
G37*
G36*
X619095Y1001551D02*
X611721Y1000085D01*
X605470Y995908D01*
X601293Y989657D01*
X599827Y982284D01*
X596290Y978685D01*
X590067Y977447D01*
X583817Y973270D01*
X579640Y967019D01*
X578173Y959646D01*
X579640Y952272D01*
X583817Y946021D01*
X586201Y944428D01*
Y922963D01*
X434321Y771082D01*
X397638D01*
X393337Y770226D01*
X389690Y767790D01*
X375911Y754011D01*
X373474Y750364D01*
X372619Y746063D01*
Y741269D01*
X369250Y739018D01*
X365073Y732767D01*
X363606Y725394D01*
X365073Y718020D01*
X369250Y711769D01*
X375500Y707593D01*
X382874Y706126D01*
X390248Y707593D01*
X395958Y711408D01*
X397783Y711942D01*
X400445D01*
X402271Y711408D01*
X407981Y707593D01*
X415354Y706126D01*
X422728Y707593D01*
X428979Y711769D01*
X430572Y714154D01*
X458661D01*
X462963Y715010D01*
X466609Y717446D01*
X628223Y879060D01*
X630659Y882707D01*
X631515Y887008D01*
Y967855D01*
X632719Y968659D01*
X636896Y974910D01*
X638362Y982284D01*
X636896Y989657D01*
X632719Y995908D01*
X626468Y1000085D01*
X619095Y1001551D01*
D02*
G37*
G36*
X71555Y407656D02*
X68695Y407087D01*
X52638D01*
Y361417D01*
X106811D01*
Y407087D01*
X74415D01*
X71555Y407656D01*
D02*
G37*
G36*
X192913Y415921D02*
X185540Y414455D01*
X179289Y410278D01*
X175112Y404027D01*
X173646Y396654D01*
X175112Y389280D01*
X179289Y383029D01*
X179648Y382789D01*
Y342126D01*
X170079D01*
Y300394D01*
X219685D01*
Y342126D01*
X208148D01*
Y385439D01*
X210714Y389280D01*
X212181Y396654D01*
X210714Y404027D01*
X206538Y410278D01*
X200287Y414455D01*
X192913Y415921D01*
D02*
G37*
%LPD*%
G36*
X1175697Y621963D02*
X1183071Y620496D01*
X1183516Y620585D01*
X1206261Y597840D01*
Y579921D01*
X1168110D01*
Y566377D01*
X1131102D01*
Y615354D01*
X1014567D01*
Y542126D01*
X1096258D01*
X1097441Y541891D01*
X1168110D01*
Y526378D01*
X1207083D01*
X1207193Y525827D01*
X1209847Y521855D01*
X1227909Y503793D01*
X1226100Y498531D01*
X1223305Y498184D01*
X1208186Y513304D01*
X1203888Y516175D01*
X1198819Y517184D01*
X1198818Y517184D01*
X1120275D01*
Y523720D01*
X1070669D01*
Y481988D01*
X1120275D01*
Y490690D01*
X1193332D01*
X1205512Y478511D01*
Y449383D01*
X1200512Y447867D01*
X1198664Y450632D01*
X1192413Y454809D01*
X1185039Y456276D01*
X1177666Y454809D01*
X1171415Y450632D01*
X1169822Y448248D01*
X1120275D01*
Y461909D01*
X1070669D01*
Y437491D01*
X1048062Y414884D01*
X1045759Y416423D01*
X1038386Y417890D01*
X1031012Y416423D01*
X1024761Y412246D01*
X1022692Y409149D01*
X1016678D01*
X1014609Y412246D01*
X1008358Y416423D01*
X1000984Y417890D01*
X993611Y416423D01*
X992205Y415484D01*
X987795Y417841D01*
Y439173D01*
X960860D01*
X924467Y475566D01*
Y582128D01*
X929467Y584482D01*
X935275Y580026D01*
X944182Y576336D01*
X953740Y575078D01*
X963298Y576336D01*
X972205Y580026D01*
X979854Y585894D01*
X985722Y593543D01*
X989412Y602450D01*
X990670Y612008D01*
X990043Y616774D01*
X997778Y624510D01*
X1047862D01*
X1048729Y623931D01*
X1056102Y622465D01*
X1063476Y623931D01*
X1064342Y624510D01*
X1171885D01*
X1175697Y621963D01*
D02*
G37*
G36*
X1863844Y519170D02*
X1866612Y516401D01*
X1866993Y515482D01*
X1868110Y510826D01*
X1868110Y506200D01*
X1868110Y431102D01*
X1868110Y429536D01*
X1866911Y426641D01*
X1864727Y424457D01*
X1860236Y423228D01*
X1746064Y423228D01*
X1744498Y423228D01*
X1741603Y424426D01*
X1739388Y426641D01*
X1738189Y429535D01*
X1738189Y431102D01*
X1738189Y512795D01*
X1738189Y514361D01*
X1739388Y517255D01*
X1741602Y519469D01*
X1744496Y520668D01*
X1746062Y520668D01*
X1746062Y520668D01*
X1858268Y520669D01*
X1860226Y520669D01*
X1863844Y519170D01*
D02*
G37*
G36*
X1423646Y436024D02*
X1425112Y428650D01*
X1429289Y422399D01*
X1435540Y418223D01*
X1442913Y416756D01*
X1450287Y418223D01*
X1454550Y421071D01*
X1457738Y417188D01*
X1444488Y403938D01*
X1440746Y398338D01*
X1439432Y391732D01*
Y343504D01*
Y324347D01*
X1387957D01*
X1360850Y351454D01*
Y379649D01*
X1360851D01*
Y384130D01*
X1360850D01*
Y436736D01*
X1364694Y439529D01*
X1403150D01*
X1404332Y439764D01*
X1420576D01*
X1423646Y436024D01*
D02*
G37*
D29*
X194882Y259449D02*
D03*
Y321260D02*
D03*
X1095472Y441043D02*
D03*
Y502854D02*
D03*
X674213Y200394D02*
D03*
Y262205D02*
D03*
X1405512Y754331D02*
D03*
Y692520D02*
D03*
X1171260Y689567D02*
D03*
Y751378D02*
D03*
X934055D02*
D03*
Y689567D02*
D03*
X697835Y690551D02*
D03*
Y752362D02*
D03*
D30*
X1784055Y384998D02*
D03*
X1845866D02*
D03*
X552559Y187008D02*
D03*
X490748D02*
D03*
X1473819Y464567D02*
D03*
X1412008D02*
D03*
X749409Y413386D02*
D03*
X687598D02*
D03*
X481890Y382874D02*
D03*
X543701D02*
D03*
X966929Y414370D02*
D03*
X905118D02*
D03*
D32*
X1284449Y282071D02*
D03*
Y345882D02*
D03*
D33*
X1402575Y410433D02*
D03*
X1338764D02*
D03*
X1402575Y353346D02*
D03*
X1338764D02*
D03*
X266323Y159449D02*
D03*
X330134D02*
D03*
D38*
X393701Y35433D02*
X415558D01*
X77756Y582677D02*
Y703740D01*
X1479331Y790354D02*
X1683289D01*
X1091535Y441043D02*
X1095571Y437008D01*
X1091535Y441043D02*
X1095472D01*
X1095571Y437008D02*
X1185039D01*
X1153543Y468504D02*
Y470473D01*
X995276D02*
X1153543D01*
X953740Y512008D02*
X995276Y470473D01*
X1373099Y425218D02*
X1386790D01*
X1401575Y410433D01*
Y353346D02*
Y410433D01*
X1462599Y790354D02*
X1479331D01*
X183736Y35433D02*
X393701D01*
X77756Y531496D02*
Y582677D01*
X438904Y12087D02*
X1319882D01*
X415558Y35433D02*
X438904Y12087D01*
X95154Y124016D02*
X183736Y35433D01*
X587992Y66142D02*
X995981D01*
X584252Y69882D02*
X587992Y66142D01*
X995981D02*
X999725Y69885D01*
X1003986D01*
X809055Y398622D02*
Y498032D01*
X773622Y363189D02*
X809055Y398622D01*
X1683289Y790354D02*
X1759076Y714567D01*
X1423228Y829725D02*
X1462599Y790354D01*
X1759076Y714567D02*
X1763114D01*
X1502997Y585894D02*
X1658691D01*
X1458970Y629921D02*
X1502997Y585894D01*
X1658691D02*
X1763114Y690317D01*
Y714567D01*
X1239173Y556778D02*
Y600702D01*
X1268392Y629921D01*
X1458970D01*
X28543Y335630D02*
Y422244D01*
Y245845D02*
Y335630D01*
X29921Y334252D01*
X79724D01*
X28543Y245845D02*
X88583Y185806D01*
Y124016D02*
Y185806D01*
X28543Y422244D02*
X77756Y471457D01*
Y531496D01*
Y703740D02*
X88583Y714567D01*
X77756Y531496D02*
X168307Y440945D01*
X70079Y342126D02*
X72835D01*
X383858Y653543D02*
Y676181D01*
X322835Y737205D02*
X383858Y676181D01*
X322835Y737205D02*
Y781496D01*
X378937D01*
X205390D02*
X322835D01*
X597441Y918307D02*
Y959646D01*
X438976Y759842D02*
X597441Y918307D01*
X397638Y759842D02*
X438976D01*
X378937Y781496D02*
X419291Y821850D01*
Y947835D01*
X478346Y1006890D01*
X138461Y714567D02*
X205390Y781496D01*
X620275Y887008D02*
Y981102D01*
X458661Y725394D02*
X620275Y887008D01*
X415354Y725394D02*
X458661D01*
X478346Y1016767D02*
Y1019685D01*
Y1006890D02*
Y1016767D01*
X383858Y726378D02*
Y746063D01*
X382874Y725394D02*
X383858Y726378D01*
Y746063D02*
X397638Y759842D01*
X88583Y714567D02*
X138461D01*
X889764Y1053543D02*
X1452756D01*
X1431102Y1031890D02*
X1452756Y1053543D01*
X1431102Y846457D02*
Y1031890D01*
X1423228Y838583D02*
X1431102Y846457D01*
X1763114Y714567D02*
X1820866D01*
X1423228Y829725D02*
Y838583D01*
X1239173Y556778D02*
X1254612Y541339D01*
X1255975D01*
X1268770Y528543D01*
X1273032D01*
X1393701D02*
X1402559Y519685D01*
X1273032Y528543D02*
X1393701D01*
X88583Y124016D02*
X108736Y144169D01*
X255260D01*
X267323Y156232D01*
Y159449D01*
X887795Y285433D02*
X1059055D01*
X1062008Y288386D01*
X810039Y363189D02*
X887795Y285433D01*
X773622Y363189D02*
X810039D01*
X708661Y498032D02*
X809055D01*
X696850Y486221D02*
X708661Y498032D01*
X692913Y486221D02*
X696850D01*
X681102Y474409D02*
X692913Y486221D01*
X681102Y470473D02*
Y474409D01*
X624016Y408465D02*
X763780Y268701D01*
X624016Y408465D02*
Y473425D01*
X678150D01*
X502952D02*
X624016D01*
X763780Y268701D02*
X767717D01*
X678150Y473425D02*
X681102Y470473D01*
X474409Y444882D02*
X502952Y473425D01*
X474409Y440945D02*
Y444882D01*
X168307Y440945D02*
X474409D01*
X88583Y124016D02*
X95154D01*
X619095Y982284D02*
X620275Y981102D01*
D39*
X1619639Y372195D02*
X1691145Y443701D01*
X1619639Y339336D02*
Y372195D01*
X1618886Y338583D02*
X1619639Y339336D01*
X1691145Y443701D02*
X1758661D01*
X1510827Y445866D02*
Y476378D01*
X1456693Y391732D02*
X1510827Y445866D01*
X1456693Y343504D02*
Y391732D01*
X1618886Y321851D02*
Y338583D01*
X1471457Y321851D02*
X1618886D01*
X1456693Y307087D02*
X1471457Y321851D01*
X382406Y150075D02*
X439764Y92716D01*
Y60118D02*
X454606Y45276D01*
X439764Y60118D02*
Y92716D01*
X652538Y37402D02*
X1047244D01*
X644664Y45276D02*
X652538Y37402D01*
X335291Y150075D02*
X382406D01*
X454606Y45276D02*
X644664D01*
X1219488Y67913D02*
X1220038Y68463D01*
Y152714D01*
X1204724Y168027D02*
X1220038Y152714D01*
X1193193Y156496D02*
X1204724Y168027D01*
X1758661Y443701D02*
X1759842Y444882D01*
X1246286Y311936D02*
X1279232Y344882D01*
X1456693Y307087D02*
Y343504D01*
X960866Y612008D02*
X988621Y639764D01*
X1336032Y349614D02*
X1339764Y353346D01*
X1289181Y349614D02*
X1336032D01*
X1284449Y344882D02*
X1289181Y349614D01*
X1338764Y367299D02*
Y409433D01*
X1216256Y312023D02*
X1248092D01*
X1204724Y323554D02*
X1216256Y312023D01*
X1141732Y355315D02*
X1182087D01*
X1050197D02*
X1141732D01*
X1095472Y502854D02*
X1096555Y503937D01*
X1228346Y470473D02*
Y474409D01*
X1204724Y323554D02*
Y332677D01*
X1182087Y355315D02*
X1204724Y332677D01*
X198819Y259449D02*
X240846Y217421D01*
X194882Y259449D02*
X198819D01*
X240846Y217421D02*
X339665D01*
Y173197D02*
Y217421D01*
X329134Y162665D02*
X339665Y173197D01*
X329134Y159449D02*
Y162665D01*
Y156232D02*
Y159449D01*
Y156232D02*
X335291Y150075D01*
X1125984Y144965D02*
X1137516Y156496D01*
X1125984Y128657D02*
Y144965D01*
X1137516Y156496D02*
X1193193D01*
X1204724Y168027D02*
Y323554D01*
X1279232Y344882D02*
X1284449D01*
X1380807Y307087D02*
X1456693D01*
X1338764Y409433D02*
X1339764Y410433D01*
Y348130D02*
X1380807Y307087D01*
X1339764Y348130D02*
Y353346D01*
D40*
X1236281Y414390D02*
Y426711D01*
X1333358Y451772D02*
X1403150D01*
X1412008Y460630D01*
Y464567D01*
X1287723Y406137D02*
X1330623Y449036D01*
X1287723Y395900D02*
Y406137D01*
X1242187Y350364D02*
X1287723Y395900D01*
X1242187Y349426D02*
Y350364D01*
X1309055Y578740D02*
X1333661Y603346D01*
X1438976D01*
X1439961Y602362D01*
X1389872Y580333D02*
X1442913Y527291D01*
X1615158Y424422D02*
Y476378D01*
X1556877Y366142D02*
X1615158Y424422D01*
X1500984Y366142D02*
X1556877D01*
X1505906Y397638D02*
Y400811D01*
Y397638D02*
X1506086D01*
X530512Y560039D02*
X536654Y566181D01*
X489173Y560039D02*
X530512D01*
X483268Y554134D02*
X489173Y560039D01*
X483268Y532134D02*
Y554134D01*
X536654Y566181D02*
Y613425D01*
X541339Y618110D01*
X552162D01*
X443134Y495079D02*
X622047D01*
X475150Y524016D02*
X483268Y532134D01*
X404382Y524016D02*
X475150D01*
X330181Y500528D02*
X380894D01*
X303150Y527559D02*
X330181Y500528D01*
X313425Y483599D02*
X387906D01*
X279331Y517693D02*
X313425Y483599D01*
X387906D02*
X411394Y507087D01*
X297736Y465551D02*
X401394D01*
X419111Y483268D02*
X421260D01*
X401394Y465551D02*
X419111Y483268D01*
X253937Y509350D02*
X297736Y465551D01*
X411394Y507087D02*
X431126D01*
X380894Y500528D02*
X404382Y524016D01*
X431126Y507087D02*
X443134Y495079D01*
X622047D02*
X647638Y520669D01*
X552162Y618110D02*
X575816Y641764D01*
X279331Y517693D02*
Y613675D01*
X293307Y627651D01*
Y727362D01*
X812008Y216043D02*
X842028Y186024D01*
X927485D01*
X941264Y172244D01*
X968504D01*
X928634Y160933D02*
X942913Y146654D01*
X603413Y160933D02*
X928634D01*
X590134Y174213D02*
X603413Y160933D01*
X812008Y216043D02*
Y285039D01*
X561417Y174213D02*
X590134D01*
X847441Y434055D02*
X860352D01*
X867242Y427165D01*
X896260D01*
X905118Y418307D01*
Y414370D02*
Y418307D01*
X234252Y752953D02*
X253937Y733268D01*
X1218504Y530512D02*
X1264764Y484252D01*
Y455315D02*
Y484252D01*
X1236220Y426772D02*
X1264764Y455315D01*
X1236220Y426772D02*
X1236281Y426711D01*
X253937Y509350D02*
Y733268D01*
X1218504Y530512D02*
Y604331D01*
X647638Y520669D02*
X871850D01*
X882874Y509646D01*
X1456693Y343504D02*
X1479420D01*
X1480387Y342536D01*
X953740Y612008D02*
X960866D01*
X1245833Y247672D02*
X1281232Y283071D01*
X843898Y689567D02*
X934055D01*
X542323Y523622D02*
X554134Y535433D01*
X511811Y523622D02*
X542323D01*
X1141051Y355996D02*
X1141732Y355315D01*
X1141051Y355996D02*
Y400591D01*
X554134Y554134D02*
X578740Y578740D01*
X554134Y535433D02*
Y554134D01*
X578740Y578740D02*
X600394D01*
X1281232Y283071D02*
X1284449D01*
X1313386Y692520D02*
X1405512D01*
X1309055Y696850D02*
X1313386Y692520D01*
X1429134Y591535D02*
X1439961Y602362D01*
X1072835Y578740D02*
X1097441Y554134D01*
X1189961D01*
X1190945Y553150D01*
X1072835Y696850D02*
X1080118Y689567D01*
X1171260D01*
X836614Y696850D02*
X843898Y689567D01*
X749409Y413386D02*
Y463976D01*
X755905Y470473D01*
X812008Y554134D02*
X836614Y578740D01*
X719488Y554134D02*
X812008D01*
X718504Y553150D02*
X719488Y554134D01*
X606693Y690551D02*
X697835D01*
X600394Y696850D02*
X606693Y690551D01*
X543701Y435433D02*
X549212Y440945D01*
X543701Y382874D02*
Y435433D01*
X687598Y409449D02*
X812008Y285039D01*
X687598Y409449D02*
Y413386D01*
X933071Y342520D02*
X954724D01*
X908465Y367126D02*
X933071Y342520D01*
X908465Y367126D02*
Y411024D01*
X905118Y414370D02*
X908465Y411024D01*
X1038386Y398622D02*
X1041022Y401259D01*
X1051751D01*
X1091535Y441043D01*
X767717Y193898D02*
X777559D01*
X761221Y200394D02*
X767717Y193898D01*
X674213Y200394D02*
X761221D01*
X1221850Y463976D02*
X1228346Y470473D01*
X1473819Y464567D02*
Y516142D01*
X1477362Y519685D01*
X947835Y231299D02*
X954724Y224410D01*
X860236Y231299D02*
X947835D01*
X494685Y370079D02*
X561614Y303150D01*
X490748Y370079D02*
X494685D01*
X481890Y378937D02*
X490748Y370079D01*
X481890Y378937D02*
Y382874D01*
X561614Y303150D02*
X694882D01*
X723425Y274606D01*
Y254921D02*
Y274606D01*
X700787Y232284D02*
X723425Y254921D01*
X647342Y232284D02*
X700787D01*
X614862Y199803D02*
X647342Y232284D01*
X561417Y199803D02*
X614862D01*
X552559Y190945D02*
X561417Y199803D01*
X552559Y187008D02*
Y190945D01*
X520669Y216535D02*
X566339Y262205D01*
X674213D01*
X520669Y145213D02*
Y216535D01*
X552559Y183071D02*
X561417Y174213D01*
X552559Y183071D02*
Y187008D01*
X942913Y146654D02*
X1004921D01*
X1033465Y118110D01*
X1505906Y400811D02*
X1612968Y507874D01*
X1442913Y436024D02*
Y527291D01*
X1612968Y507874D02*
X1615158D01*
D41*
X1671620Y386043D02*
X1783009D01*
X1784055Y384998D01*
X1655674Y370097D02*
X1671620Y386043D01*
X1654608Y370097D02*
X1655674D01*
X1361408Y478346D02*
X1363668Y480606D01*
X1367417D01*
X1402559Y515748D01*
Y519685D01*
X1579729Y692716D02*
X1579926Y692913D01*
X1405709Y692716D02*
X1579729D01*
X1405512Y692520D02*
X1405709Y692716D01*
X1183071Y639764D02*
X1218504Y604331D01*
X1003986Y69885D02*
X1020317D01*
X1086614Y136183D01*
Y202756D01*
X1245833Y247672D02*
Y251422D01*
X911221Y470079D02*
X966929Y414370D01*
X911221Y470079D02*
Y645472D01*
X963583Y660433D02*
X979471Y676321D01*
X926181Y660433D02*
X963583D01*
X911221Y645472D02*
X926181Y660433D01*
X979471Y676321D02*
Y749549D01*
X981299Y751378D01*
X1044291Y355315D02*
X1050197D01*
X1000984Y398622D02*
X1044291Y355315D01*
X1096555Y503937D02*
X1198819D01*
X1228346Y474409D01*
D42*
X1131890Y863779D02*
X1210630D01*
D43*
X483285Y1011828D02*
X490168Y1004946D01*
X478346Y1016767D02*
X483285Y1011828D01*
X534252Y93366D02*
Y131631D01*
X484252Y93366D02*
Y139173D01*
X1630758Y753691D02*
X1631398Y753052D01*
X1406151Y753691D02*
X1630758D01*
X1405512Y754331D02*
X1406151Y753691D01*
X478346Y1019685D02*
Y1033110D01*
X448819Y1062637D02*
X478346Y1033110D01*
X448819Y1062637D02*
Y1138780D01*
X512795Y985236D02*
X559055D01*
X493085Y1004946D02*
X512795Y985236D01*
X490168Y1004946D02*
X493085D01*
X559055Y985236D02*
Y1066929D01*
X606299Y1019685D01*
X761811D01*
Y1033110D01*
X791339Y1062637D01*
Y1138780D01*
X919291Y846063D02*
Y847441D01*
X761811Y1004921D02*
X919291Y847441D01*
X761811Y1004921D02*
Y1019685D01*
X919291Y846063D02*
X937008Y863780D01*
X981299Y751378D02*
X1171260D01*
X889764Y1053543D02*
X907480Y1035827D01*
Y991733D02*
Y1035827D01*
X490748Y145669D02*
Y187008D01*
X484252Y139173D02*
X490748Y145669D01*
X988621Y639764D02*
X1183071D01*
X934055Y751378D02*
X981299D01*
X697835Y752362D02*
X698327Y751870D01*
X933563D01*
X934055Y751378D01*
X1171260D02*
X1172736Y752854D01*
X1404035D01*
X1405512Y754331D01*
D44*
X520669Y145213D02*
X534252Y131631D01*
D47*
X1309055Y863779D02*
D03*
X1210630D02*
D03*
X1131890D02*
D03*
X1033465D02*
D03*
D48*
X1423228Y838583D02*
D03*
X919291D02*
D03*
X889764Y1053543D02*
D03*
X1452756D02*
D03*
D49*
X953740Y512008D02*
D03*
D50*
Y612008D02*
D03*
D51*
X79724Y384252D02*
D03*
D52*
Y334252D02*
D03*
D53*
X1187992Y112205D02*
D03*
D54*
X583858Y93366D02*
D03*
X533858D02*
D03*
X483858D02*
D03*
D55*
X433858D02*
D03*
D56*
X448819Y1138780D02*
D03*
X791339D02*
D03*
D57*
X478346Y1019685D02*
D03*
X761811D02*
D03*
D58*
X1820866Y124016D02*
D03*
Y714567D02*
D03*
X88583Y124016D02*
D03*
Y714567D02*
D03*
D59*
X1654608Y370097D02*
D03*
D60*
X1589567Y398832D02*
D03*
X1185039Y437008D02*
D03*
X1188976Y467520D02*
D03*
X1236281Y414390D02*
D03*
X1373099Y425218D02*
D03*
X1361408Y478346D02*
D03*
X1388279Y578740D02*
D03*
X1505906Y397638D02*
D03*
X1539787Y781496D02*
D03*
X1618886Y338583D02*
D03*
X1500984Y366142D02*
D03*
X1873032Y288976D02*
D03*
X484105Y234765D02*
D03*
X1802165Y316929D02*
D03*
X644685Y774606D02*
D03*
X1584646Y285433D02*
D03*
X1541339D02*
D03*
X1501968Y288976D02*
D03*
X1350471Y288386D02*
D03*
X1873032Y263779D02*
D03*
X1745079Y629921D02*
D03*
X1705709Y740158D02*
D03*
X208661Y644685D02*
D03*
X881890Y67537D02*
D03*
X1183071Y639764D02*
D03*
X1056102Y641732D02*
D03*
X1222441Y716535D02*
D03*
X1024606Y508858D02*
D03*
X765748Y579724D02*
D03*
X748010Y701810D02*
D03*
X816929Y110433D02*
D03*
X658465Y100394D02*
D03*
X265748Y48894D02*
D03*
X322835Y105315D02*
D03*
X223425Y123031D02*
D03*
X126969Y251969D02*
D03*
X50197D02*
D03*
X257874Y348641D02*
D03*
X483268Y337402D02*
D03*
X166339Y582677D02*
D03*
X165354Y482284D02*
D03*
X69882D02*
D03*
X70866Y582677D02*
D03*
X808071Y865158D02*
D03*
Y832677D02*
D03*
Y927165D02*
D03*
Y894685D02*
D03*
X746251Y802165D02*
D03*
X778731D02*
D03*
X780512Y956693D02*
D03*
X748032D02*
D03*
X1510827Y781496D02*
D03*
X1479331Y783780D02*
D03*
X1568898Y652559D02*
D03*
X1514764Y619803D02*
D03*
X1545687Y632819D02*
D03*
X1474409D02*
D03*
X1176181Y602206D02*
D03*
X421260Y483268D02*
D03*
X433071Y651575D02*
D03*
Y625984D02*
D03*
Y573819D02*
D03*
Y599409D02*
D03*
X407284Y651575D02*
D03*
Y625984D02*
D03*
Y573819D02*
D03*
Y599409D02*
D03*
X381693D02*
D03*
Y573819D02*
D03*
Y625984D02*
D03*
Y651575D02*
D03*
X355315Y573819D02*
D03*
Y599409D02*
D03*
Y625984D02*
D03*
Y651575D02*
D03*
X1171260Y315493D02*
D03*
X1050748D02*
D03*
Y194882D02*
D03*
X1171260D02*
D03*
X393701Y40354D02*
D03*
X1003986Y69885D02*
D03*
X1089567Y26952D02*
D03*
X1249529Y136811D02*
D03*
X1249016Y106299D02*
D03*
X1296059Y94488D02*
D03*
X1271653Y98425D02*
D03*
X1323819Y240347D02*
D03*
X1302165Y235448D02*
D03*
X1321850Y192913D02*
D03*
X1322308Y217421D02*
D03*
X1275845Y236220D02*
D03*
X1219488Y67913D02*
D03*
X1126968Y117126D02*
D03*
X234252Y752953D02*
D03*
X293307Y727362D02*
D03*
X1111220Y220472D02*
D03*
X192913Y396654D02*
D03*
X1246286Y311936D02*
D03*
X1850099Y569882D02*
D03*
X1749016Y38386D02*
D03*
Y63977D02*
D03*
Y12796D02*
D03*
Y89567D02*
D03*
Y191929D02*
D03*
Y217520D02*
D03*
Y166339D02*
D03*
X1624015Y252953D02*
D03*
X1598425D02*
D03*
X1649606Y251969D02*
D03*
X1547244Y252953D02*
D03*
X1521653D02*
D03*
X1572834D02*
D03*
X1470472D02*
D03*
X1444882D02*
D03*
X1496063D02*
D03*
X1419291D02*
D03*
X1368110D02*
D03*
X1342520D02*
D03*
X1393701D02*
D03*
X1319882Y40354D02*
D03*
Y91535D02*
D03*
Y65945D02*
D03*
Y14764D02*
D03*
X559055Y985236D02*
D03*
X773622Y363189D02*
D03*
X1273032Y528543D02*
D03*
X1480387Y342536D02*
D03*
X1245833Y251422D02*
D03*
X1510827Y476378D02*
D03*
X1442913Y436024D02*
D03*
X303150Y527559D02*
D03*
X575816Y641764D02*
D03*
X882874Y509646D02*
D03*
X597441Y959646D02*
D03*
X619095Y982284D02*
D03*
X382874Y725394D02*
D03*
X968504Y172244D02*
D03*
X1141051Y400591D02*
D03*
X1038386Y398622D02*
D03*
X1000984D02*
D03*
X1086614Y306103D02*
D03*
X1033465Y118110D02*
D03*
X1062008Y253937D02*
D03*
X1086614Y237205D02*
D03*
X1062008Y288386D02*
D03*
X1086614Y271654D02*
D03*
X1111220Y289370D02*
D03*
Y254921D02*
D03*
X1160433Y290354D02*
D03*
Y255906D02*
D03*
X339665Y217421D02*
D03*
X1086614Y202756D02*
D03*
X1062008Y219488D02*
D03*
X1160433Y221457D02*
D03*
X1135827Y203740D02*
D03*
Y238189D02*
D03*
Y272638D02*
D03*
Y307087D02*
D03*
X1848425Y444882D02*
D03*
Y472441D02*
D03*
Y500000D02*
D03*
X1818898Y444882D02*
D03*
Y472441D02*
D03*
Y500000D02*
D03*
X1789370D02*
D03*
Y472441D02*
D03*
Y444882D02*
D03*
X1759842D02*
D03*
Y472441D02*
D03*
Y500000D02*
D03*
X1615158Y507874D02*
D03*
Y476378D02*
D03*
X415354Y725394D02*
D03*
D61*
X1187992Y112205D02*
D03*
X1242187Y349426D02*
D03*
D62*
X847441Y434055D02*
D03*
X1579926Y692913D02*
D03*
X1631398Y753052D02*
D03*
D63*
X1745669Y115158D02*
D03*
Y140748D02*
D03*
D64*
X1477362Y519685D02*
D03*
X1402559D02*
D03*
X1439961Y602362D02*
D03*
X1228346Y470473D02*
D03*
X1153543D02*
D03*
X1190945Y553150D02*
D03*
X755905Y470473D02*
D03*
X681102D02*
D03*
X718504Y553150D02*
D03*
X549212Y440945D02*
D03*
X474409D02*
D03*
X511811Y523622D02*
D03*
D65*
X767717Y193898D02*
D03*
Y268701D02*
D03*
X850394Y231299D02*
D03*
D66*
X1309055Y578740D02*
D03*
Y696850D02*
D03*
X1072835D02*
D03*
Y578740D02*
D03*
X836614D02*
D03*
Y696850D02*
D03*
X600394D02*
D03*
Y578740D02*
D03*
X954724Y224410D02*
D03*
Y342520D02*
D03*
D67*
X1047244Y37402D02*
X1126968Y117126D01*
X192913Y396654D02*
X193898Y395669D01*
Y322244D02*
Y395669D01*
Y322244D02*
X194882Y321260D01*
X71555Y393406D02*
X72835Y392126D01*
%TF.MD5,0cb864cc0179ca341e92ca05d11414a6*%
M02*
