%TF.GenerationSoftware,Altium Limited,Altium Designer,19.0.11 (319)*%
G04 Layer_Color=8388736*
%FSLAX26Y26*%
%MOIN*%
%TF.FileFunction,Soldermask,Top*%
%TF.Part,Single*%
G01*
G75*
%TA.AperFunction,SMDPad,CuDef*%
%ADD74R,0.035559X0.043433*%
%ADD78R,0.043433X0.035559*%
%ADD79R,0.046433X0.038000*%
%ADD80R,0.038000X0.046433*%
%TA.AperFunction,ComponentPad*%
%ADD81O,0.067055X0.070992*%
%ADD82R,0.059181X0.076898*%
%ADD83R,0.067055X0.067055*%
%ADD84C,0.067055*%
%ADD85R,0.048000X0.039496*%
%ADD86O,0.048000X0.039496*%
%TA.AperFunction,SMDPad,CuDef*%
%ADD87C,0.023000*%
%TA.AperFunction,ComponentPad*%
%ADD88O,0.039496X0.048000*%
%ADD89R,0.039496X0.048000*%
%ADD90O,0.043433X0.084772*%
%ADD91O,0.049339X0.069024*%
%TA.AperFunction,ViaPad*%
%ADD92C,0.165480*%
%TA.AperFunction,TestPad*%
%ADD93C,0.031622*%
%ADD94C,0.047370*%
%TA.AperFunction,ViaPad*%
%ADD95C,0.025716*%
%TA.AperFunction,SMDPad,CuDef*%
%ADD114R,0.019527X0.016378*%
%ADD115R,0.016378X0.019527*%
%ADD116R,0.132016X0.132016*%
%ADD117R,0.016323X0.036614*%
%ADD118R,0.036614X0.016323*%
%TA.AperFunction,ConnectorPad*%
%ADD119R,0.047370X0.086740*%
%ADD120R,0.118236X0.035559*%
%TA.AperFunction,SMDPad,CuDef*%
%ADD121R,0.068000X0.029000*%
%ADD122R,0.049087X0.023622*%
%ADD123R,0.035953X0.023866*%
%ADD124R,0.123622X0.092126*%
%ADD125R,0.017323X0.025197*%
%ADD126R,0.017716X0.031496*%
%ADD127R,0.111417X0.111417*%
%ADD128R,0.034252X0.015354*%
%ADD129R,0.015354X0.034252*%
%ADD130R,0.056819X0.118630*%
%ADD131R,0.165480X0.067055*%
%ADD132R,0.063118X0.047370*%
G04:AMPARAMS|DCode=133|XSize=29.654mil|YSize=29.654mil|CornerRadius=9.413mil|HoleSize=0mil|Usage=FLASHONLY|Rotation=0.000|XOffset=0mil|YOffset=0mil|HoleType=Round|Shape=RoundedRectangle|*
%AMROUNDEDRECTD133*
21,1,0.029654,0.010827,0,0,0.0*
21,1,0.010827,0.029654,0,0,0.0*
1,1,0.018827,0.005413,-0.005413*
1,1,0.018827,-0.005413,-0.005413*
1,1,0.018827,-0.005413,0.005413*
1,1,0.018827,0.005413,0.005413*
%
%ADD133ROUNDEDRECTD133*%
%ADD134R,0.029654X0.029654*%
%ADD135R,0.051307X0.046583*%
%TA.AperFunction,ConnectorPad*%
%ADD136R,0.029921X0.049606*%
%ADD137R,0.022047X0.049606*%
G36*
X1904534Y806174D02*
X1904786Y806157D01*
X1905051Y806140D01*
X1905054Y806139D01*
X1905057Y806139D01*
X1905310Y806088D01*
X1905565Y806037D01*
X1905568Y806036D01*
X1905572Y806036D01*
X1905831Y805947D01*
X1906062Y805869D01*
X1906064Y805867D01*
X1906068Y805866D01*
X1906308Y805748D01*
X1906532Y805637D01*
X1906535Y805635D01*
X1906538Y805634D01*
X1906752Y805490D01*
X1906968Y805346D01*
X1906970Y805343D01*
X1906973Y805342D01*
X1907167Y805171D01*
X1907362Y805000D01*
X1907364Y804997D01*
X1907367Y804995D01*
X1907530Y804809D01*
X1907708Y804606D01*
X1907710Y804603D01*
X1907712Y804600D01*
X1907850Y804393D01*
X1907999Y804170D01*
X1908001Y804167D01*
X1908002Y804164D01*
X1908116Y803934D01*
X1908231Y803699D01*
X1908232Y803696D01*
X1908234Y803693D01*
X1908313Y803457D01*
X1908400Y803203D01*
X1908400Y803200D01*
X1908401Y803197D01*
X1908453Y802935D01*
X1908502Y802689D01*
X1908502Y802686D01*
X1908503Y802682D01*
X1908520Y802410D01*
X1908536Y802165D01*
Y636811D01*
X1908531Y636734D01*
X1908533Y636658D01*
X1908514Y636476D01*
X1908502Y636288D01*
X1908487Y636211D01*
X1908479Y636137D01*
X1908437Y635959D01*
X1908400Y635774D01*
X1908375Y635700D01*
X1908357Y635627D01*
X1908292Y635456D01*
X1908231Y635277D01*
X1908197Y635207D01*
X1908170Y635137D01*
X1908082Y634975D01*
X1907999Y634807D01*
X1907956Y634743D01*
X1907920Y634676D01*
X1907812Y634526D01*
X1907708Y634371D01*
X1907657Y634313D01*
X1907612Y634251D01*
X1901301Y626646D01*
X1901255Y626597D01*
X1901215Y626545D01*
X1901076Y626408D01*
X1900941Y626265D01*
X1900889Y626223D01*
X1900842Y626176D01*
X1885905Y613231D01*
X1885852Y613190D01*
X1885803Y613145D01*
X1885643Y613032D01*
X1885487Y612914D01*
X1885430Y612881D01*
X1885375Y612842D01*
X1868525Y602510D01*
X1868466Y602479D01*
X1868411Y602442D01*
X1868234Y602357D01*
X1868061Y602266D01*
X1867999Y602243D01*
X1867939Y602213D01*
X1849627Y594771D01*
X1849564Y594750D01*
X1849504Y594723D01*
X1849315Y594668D01*
X1849130Y594606D01*
X1849064Y594593D01*
X1849001Y594575D01*
X1829720Y590223D01*
X1829654Y590212D01*
X1829590Y590196D01*
X1829396Y590172D01*
X1829202Y590141D01*
X1829135Y590139D01*
X1829069Y590131D01*
X1809336Y588986D01*
X1809270Y588987D01*
X1809204Y588981D01*
X1809006Y588989D01*
X1808812Y588990D01*
X1808747Y589000D01*
X1808680Y589002D01*
X1789025Y591095D01*
X1788959Y591107D01*
X1788893Y591112D01*
X1788703Y591151D01*
X1788508Y591185D01*
X1788444Y591205D01*
X1788380Y591218D01*
X1769330Y596493D01*
X1769267Y596515D01*
X1769203Y596531D01*
X1769021Y596601D01*
X1768835Y596666D01*
X1768776Y596696D01*
X1768714Y596720D01*
X1750782Y605034D01*
X1750723Y605066D01*
X1750662Y605092D01*
X1750494Y605192D01*
X1750322Y605285D01*
X1750268Y605325D01*
X1750211Y605359D01*
X1733877Y616490D01*
X1733825Y616531D01*
X1733769Y616567D01*
X1733619Y616692D01*
X1733464Y616813D01*
X1733417Y616861D01*
X1733367Y616903D01*
X1719070Y630553D01*
X1719025Y630602D01*
X1718976Y630646D01*
X1718847Y630796D01*
X1718715Y630939D01*
X1718677Y630993D01*
X1718634Y631044D01*
X1706758Y646845D01*
X1706722Y646901D01*
X1706680Y646952D01*
X1706579Y647119D01*
X1706472Y647284D01*
X1706443Y647343D01*
X1706408Y647400D01*
X1697273Y664929D01*
X1697245Y664990D01*
X1697213Y665048D01*
X1697141Y665228D01*
X1697061Y665409D01*
X1697043Y665473D01*
X1697018Y665534D01*
X1690867Y684319D01*
X1690851Y684384D01*
X1690828Y684446D01*
X1690786Y684637D01*
X1690737Y684827D01*
X1690729Y684893D01*
X1690715Y684958D01*
X1687715Y704495D01*
X1687709Y704562D01*
X1687697Y704627D01*
X1687686Y704820D01*
X1687669Y705017D01*
X1687672Y705084D01*
X1687669Y705150D01*
X1687899Y724915D01*
X1687904Y724981D01*
X1687903Y725048D01*
X1687925Y725244D01*
X1687940Y725438D01*
X1687953Y725502D01*
X1687961Y725569D01*
X1691416Y745030D01*
X1691432Y745095D01*
X1691441Y745161D01*
X1691494Y745349D01*
X1691541Y745539D01*
X1691565Y745601D01*
X1691583Y745665D01*
X1698170Y764302D01*
X1698197Y764363D01*
X1698217Y764426D01*
X1698300Y764603D01*
X1698377Y764784D01*
X1698411Y764840D01*
X1698439Y764901D01*
X1707981Y782211D01*
X1708017Y782268D01*
X1708047Y782326D01*
X1708158Y782488D01*
X1708264Y782653D01*
X1708307Y782703D01*
X1708345Y782759D01*
X1720585Y798278D01*
X1720630Y798328D01*
X1720669Y798381D01*
X1720805Y798522D01*
X1720936Y798668D01*
X1720987Y798711D01*
X1721033Y798759D01*
X1728339Y805415D01*
X1728474Y805523D01*
X1728603Y805636D01*
X1728678Y805685D01*
X1728748Y805742D01*
X1728898Y805832D01*
X1729040Y805927D01*
X1729120Y805966D01*
X1729198Y806013D01*
X1729356Y806082D01*
X1729511Y806158D01*
X1729596Y806187D01*
X1729678Y806222D01*
X1729843Y806270D01*
X1730007Y806325D01*
X1730096Y806343D01*
X1730182Y806368D01*
X1730351Y806393D01*
X1730522Y806427D01*
X1730612Y806433D01*
X1730700Y806446D01*
X1730872Y806449D01*
X1731045Y806460D01*
X1904534Y806174D01*
D02*
G37*
G36*
X170353Y806169D02*
X170428Y806171D01*
X170610Y806152D01*
X170799Y806140D01*
X170875Y806124D01*
X170950Y806117D01*
X171127Y806074D01*
X171313Y806037D01*
X171387Y806012D01*
X171460Y805995D01*
X171630Y805930D01*
X171810Y805869D01*
X171880Y805834D01*
X171950Y805808D01*
X172111Y805720D01*
X172280Y805637D01*
X172344Y805594D01*
X172411Y805558D01*
X172559Y805450D01*
X172716Y805346D01*
X172774Y805294D01*
X172835Y805250D01*
X180441Y798939D01*
X180490Y798893D01*
X180542Y798853D01*
X180679Y798714D01*
X180822Y798579D01*
X180864Y798527D01*
X180910Y798480D01*
X193856Y783543D01*
X193896Y783490D01*
X193941Y783441D01*
X194055Y783281D01*
X194173Y783125D01*
X194205Y783068D01*
X194244Y783013D01*
X204577Y766163D01*
X204608Y766104D01*
X204644Y766048D01*
X204730Y765872D01*
X204821Y765699D01*
X204844Y765637D01*
X204873Y765577D01*
X212315Y747265D01*
X212336Y747202D01*
X212363Y747141D01*
X212419Y746953D01*
X212481Y746768D01*
X212493Y746702D01*
X212512Y746638D01*
X216864Y727357D01*
X216874Y727292D01*
X216891Y727227D01*
X216915Y727034D01*
X216946Y726840D01*
X216947Y726773D01*
X216956Y726707D01*
X218100Y706974D01*
X218100Y706908D01*
X218106Y706841D01*
X218098Y706644D01*
X218096Y706450D01*
X218087Y706385D01*
X218084Y706317D01*
X215991Y686663D01*
X215980Y686597D01*
X215975Y686531D01*
X215935Y686340D01*
X215902Y686146D01*
X215882Y686082D01*
X215868Y686017D01*
X210594Y666968D01*
X210572Y666905D01*
X210556Y666841D01*
X210486Y666659D01*
X210421Y666473D01*
X210391Y666414D01*
X210367Y666352D01*
X202052Y648420D01*
X202020Y648361D01*
X201994Y648300D01*
X201895Y648131D01*
X201801Y647959D01*
X201762Y647906D01*
X201728Y647848D01*
X190596Y631515D01*
X190555Y631462D01*
X190520Y631406D01*
X190394Y631257D01*
X190273Y631102D01*
X190226Y631055D01*
X190183Y631004D01*
X176534Y616708D01*
X176485Y616663D01*
X176440Y616613D01*
X176291Y616485D01*
X176148Y616353D01*
X176093Y616315D01*
X176043Y616272D01*
X160242Y604396D01*
X160185Y604359D01*
X160134Y604318D01*
X159968Y604217D01*
X159803Y604109D01*
X159743Y604081D01*
X159686Y604046D01*
X142158Y594910D01*
X142096Y594883D01*
X142039Y594851D01*
X141859Y594779D01*
X141678Y594699D01*
X141614Y594680D01*
X141552Y594656D01*
X122768Y588505D01*
X122703Y588489D01*
X122641Y588466D01*
X122449Y588424D01*
X122260Y588375D01*
X122194Y588367D01*
X122129Y588353D01*
X102592Y585352D01*
X102525Y585347D01*
X102460Y585335D01*
X102267Y585324D01*
X102069Y585307D01*
X102002Y585310D01*
X101936Y585306D01*
X82172Y585537D01*
X82106Y585542D01*
X82039Y585541D01*
X81843Y585562D01*
X81649Y585577D01*
X81585Y585591D01*
X81518Y585598D01*
X62056Y589054D01*
X61992Y589070D01*
X61926Y589079D01*
X61738Y589132D01*
X61547Y589179D01*
X61485Y589203D01*
X61421Y589221D01*
X42785Y595808D01*
X42723Y595835D01*
X42660Y595855D01*
X42483Y595938D01*
X42303Y596015D01*
X42246Y596049D01*
X42186Y596077D01*
X24875Y605619D01*
X24819Y605655D01*
X24760Y605685D01*
X24599Y605796D01*
X24434Y605902D01*
X24383Y605944D01*
X24328Y605982D01*
X8809Y618223D01*
X8759Y618268D01*
X8706Y618307D01*
X8565Y618443D01*
X8419Y618574D01*
X8376Y618625D01*
X8328Y618671D01*
X1672Y625976D01*
X1564Y626111D01*
X1451Y626241D01*
X1401Y626315D01*
X1345Y626386D01*
X1255Y626535D01*
X1160Y626678D01*
X1121Y626758D01*
X1074Y626835D01*
X1005Y626994D01*
X929Y627148D01*
X900Y627234D01*
X864Y627316D01*
X816Y627481D01*
X761Y627645D01*
X744Y627734D01*
X719Y627820D01*
X693Y627989D01*
X660Y628160D01*
X654Y628250D01*
X641Y628338D01*
X637Y628510D01*
X626Y628683D01*
X913Y802172D01*
X930Y802423D01*
X947Y802689D01*
X948Y802692D01*
X948Y802695D01*
X999Y802948D01*
X1049Y803203D01*
X1050Y803206D01*
X1051Y803209D01*
X1140Y803469D01*
X1218Y803699D01*
X1219Y803702D01*
X1220Y803706D01*
X1339Y803945D01*
X1450Y804170D01*
X1452Y804173D01*
X1453Y804175D01*
X1597Y804389D01*
X1741Y804606D01*
X1743Y804608D01*
X1745Y804611D01*
X1916Y804805D01*
X2087Y805000D01*
X2089Y805002D01*
X2091Y805005D01*
X2278Y805167D01*
X2481Y805346D01*
X2484Y805348D01*
X2486Y805350D01*
X2693Y805487D01*
X2917Y805637D01*
X2920Y805638D01*
X2923Y805640D01*
X3153Y805753D01*
X3387Y805869D01*
X3391Y805870D01*
X3393Y805871D01*
X3630Y805951D01*
X3884Y806037D01*
X3887Y806038D01*
X3890Y806039D01*
X4152Y806091D01*
X4398Y806140D01*
X4401Y806140D01*
X4405Y806141D01*
X4676Y806158D01*
X4921Y806174D01*
X170276D01*
X170353Y806169D01*
D02*
G37*
G36*
X1830048Y249297D02*
X1830294Y249268D01*
X1830566Y249236D01*
X1845930Y246423D01*
X1846203Y246355D01*
X1846436Y246296D01*
X1846439Y246295D01*
D01*
D01*
X1861305Y241513D01*
X1861533Y241423D01*
X1861790Y241321D01*
X1875913Y234648D01*
X1876179Y234501D01*
X1876369Y234395D01*
X1876371Y234394D01*
X1876372D01*
X1876372Y234394D01*
X1889506Y225946D01*
X1889716Y225791D01*
X1889926Y225636D01*
X1901852Y215555D01*
X1901853Y215555D01*
X1901853Y215554D01*
X1901855Y215553D01*
X1902023Y215391D01*
X1902231Y215191D01*
X1907490Y209418D01*
X1907591Y209291D01*
X1907708Y209159D01*
X1907762Y209078D01*
X1907817Y209008D01*
X1907901Y208869D01*
X1907902Y208868D01*
X1907999Y208723D01*
X1908042Y208636D01*
X1908088Y208559D01*
X1908153Y208411D01*
X1908231Y208253D01*
X1908262Y208161D01*
X1908298Y208079D01*
X1908343Y207922D01*
X1908399Y207756D01*
X1908418Y207661D01*
X1908443Y207575D01*
X1908468Y207413D01*
X1908502Y207242D01*
X1908508Y207146D01*
X1908522Y207056D01*
X1908525Y206893D01*
X1908536Y206719D01*
X1908539Y45299D01*
X1908528Y45130D01*
X1908525Y44961D01*
X1908511Y44869D01*
X1908505Y44776D01*
X1908472Y44609D01*
X1908447Y44442D01*
X1908421Y44352D01*
X1908403Y44261D01*
X1908348Y44101D01*
X1908301Y43938D01*
X1908264Y43853D01*
X1908234Y43765D01*
X1908159Y43613D01*
X1908091Y43458D01*
X1908043Y43377D01*
X1908002Y43294D01*
X1907909Y43155D01*
X1907821Y43009D01*
X1907762Y42935D01*
X1907711Y42858D01*
X1907600Y42732D01*
X1907494Y42599D01*
X1902244Y36837D01*
X1902244Y36837D01*
X1902244Y36837D01*
X1902242Y36834D01*
X1902081Y36680D01*
X1901867Y36473D01*
X1889957Y26402D01*
X1889759Y26256D01*
X1889539Y26093D01*
X1876424Y17651D01*
X1876176Y17513D01*
X1875969Y17398D01*
X1875966Y17397D01*
X1875966Y17396D01*
X1875965Y17396D01*
X1861874Y10728D01*
X1861874Y10728D01*
X1861874D01*
X1861871Y10727D01*
X1861614Y10625D01*
X1861387Y10535D01*
X1861384Y10534D01*
X1861383Y10534D01*
X1861383Y10534D01*
X1846543Y5747D01*
X1846271Y5678D01*
X1846038Y5620D01*
X1846035Y5619D01*
X1846035Y5619D01*
X1846034Y5619D01*
X1830699Y2796D01*
X1830476Y2769D01*
X1830182Y2735D01*
X1814607Y1923D01*
X1814348Y1926D01*
X1814086Y1929D01*
X1798537Y3142D01*
X1798189Y3193D01*
X1798021Y3217D01*
X1798019Y3217D01*
X1798018Y3217D01*
X1798017Y3218D01*
X1782764Y6434D01*
X1782764Y6434D01*
X1782763Y6434D01*
X1782760Y6435D01*
X1782564Y6490D01*
X1782259Y6575D01*
X1767543Y11744D01*
X1767289Y11852D01*
X1767065Y11948D01*
X1753147Y18978D01*
X1753146Y18978D01*
X1753146Y18979D01*
X1753143Y18980D01*
X1752952Y19093D01*
X1752695Y19244D01*
X1739802Y28022D01*
X1739595Y28183D01*
X1739392Y28342D01*
X1735236Y32043D01*
Y0D01*
X1333661D01*
Y239173D01*
X1735236D01*
Y219978D01*
X1739172Y223501D01*
X1739419Y223695D01*
X1739583Y223823D01*
X1739584Y223824D01*
X1739585Y223825D01*
X1739586Y223825D01*
X1752473Y232639D01*
X1752473Y232639D01*
X1752474Y232640D01*
X1752475Y232641D01*
X1752666Y232754D01*
X1752924Y232907D01*
X1766852Y239977D01*
X1767163Y240110D01*
X1767332Y240182D01*
X1767334Y240183D01*
X1767334Y240183D01*
X1767335Y240183D01*
X1782060Y245385D01*
X1782358Y245468D01*
X1782561Y245526D01*
X1782563Y245526D01*
X1782564Y245527D01*
X1782565Y245527D01*
X1797840Y248773D01*
X1798080Y248808D01*
X1798356Y248848D01*
X1813924Y250084D01*
X1813924Y250084D01*
X1813925D01*
X1813927Y250084D01*
X1814133Y250087D01*
X1814448Y250092D01*
X1830048Y249297D01*
D02*
G37*
G36*
X86150Y248191D02*
X86231Y248194D01*
X106859Y247653D01*
X106941Y247646D01*
X107022Y247646D01*
X107202Y247622D01*
X107382Y247605D01*
X107461Y247587D01*
X107542Y247577D01*
X127775Y243521D01*
X127853Y243500D01*
X127934Y243485D01*
X128108Y243431D01*
X128281Y243384D01*
X128356Y243353D01*
X128435Y243328D01*
X147677Y235877D01*
X147751Y235843D01*
X147828Y235815D01*
X147989Y235732D01*
X148153Y235656D01*
X148222Y235612D01*
X148294Y235575D01*
X165982Y224946D01*
X166048Y224900D01*
X166120Y224859D01*
X166265Y224750D01*
X166412Y224648D01*
X166473Y224593D01*
X166538Y224543D01*
X182151Y211050D01*
X182209Y210993D01*
X182272Y210941D01*
X182396Y210809D01*
X182524Y210682D01*
X182574Y210618D01*
X182630Y210558D01*
X195709Y194597D01*
X195756Y194531D01*
X195810Y194469D01*
X195909Y194318D01*
X196014Y194171D01*
X196053Y194099D01*
X196097Y194030D01*
X206258Y176070D01*
X206294Y175997D01*
X206336Y175927D01*
X206408Y175761D01*
X206486Y175598D01*
X206512Y175521D01*
X206544Y175446D01*
X213489Y156014D01*
X213511Y155936D01*
X213541Y155859D01*
X213583Y155683D01*
X213632Y155510D01*
X213644Y155430D01*
X213664Y155350D01*
X217188Y135018D01*
X217196Y134936D01*
X217212Y134856D01*
X217224Y134677D01*
X217243Y134496D01*
X217241Y134415D01*
X217247Y134333D01*
X217246Y113698D01*
X217241Y113617D01*
X217243Y113535D01*
X217224Y113355D01*
X217212Y113175D01*
X217196Y113095D01*
X217188Y113013D01*
X213664Y92682D01*
X213644Y92603D01*
X213632Y92521D01*
X213583Y92347D01*
X213541Y92172D01*
X213511Y92096D01*
X213489Y92017D01*
X206544Y72586D01*
X206512Y72510D01*
X206486Y72433D01*
X206408Y72270D01*
X206336Y72105D01*
X206294Y72035D01*
X206258Y71961D01*
X196097Y54001D01*
X196053Y53933D01*
X196014Y53860D01*
X195908Y53712D01*
X195810Y53562D01*
X195757Y53501D01*
X195709Y53434D01*
X182630Y37473D01*
X182574Y37413D01*
X182524Y37349D01*
X182395Y37222D01*
X182272Y37090D01*
X182209Y37038D01*
X182151Y36981D01*
X166538Y23488D01*
X166473Y23439D01*
X166412Y23384D01*
X166263Y23280D01*
X166120Y23172D01*
X166049Y23132D01*
X165982Y23085D01*
X148294Y12457D01*
X148221Y12419D01*
X148153Y12375D01*
X147990Y12300D01*
X147828Y12216D01*
X147751Y12188D01*
X147677Y12154D01*
X128434Y4703D01*
X128356Y4678D01*
X128281Y4647D01*
X128107Y4600D01*
X127934Y4546D01*
X127853Y4532D01*
X127775Y4511D01*
X107542Y455D01*
X107461Y444D01*
X107382Y426D01*
X107202Y409D01*
X107022Y386D01*
X106941Y385D01*
X106859Y378D01*
X86231Y-163D01*
X86150Y-160D01*
X86068Y-164D01*
X85888Y-150D01*
X85707Y-143D01*
X85626Y-129D01*
X85545Y-122D01*
X65128Y2868D01*
X65049Y2885D01*
X64967Y2894D01*
X64793Y2939D01*
X64615Y2977D01*
X64538Y3005D01*
X64459Y3025D01*
X44852Y9458D01*
X44777Y9488D01*
X44698Y9512D01*
X44533Y9586D01*
X44366Y9653D01*
X44295Y9693D01*
X44220Y9727D01*
X26000Y19414D01*
X25930Y19457D01*
X25858Y19493D01*
X25708Y19594D01*
X25554Y19689D01*
X25491Y19741D01*
X25423Y19787D01*
X9125Y32443D01*
X9064Y32497D01*
X8998Y32546D01*
X8868Y32671D01*
X8733Y32791D01*
X8679Y32852D01*
X8620Y32909D01*
X1672Y40536D01*
X1566Y40669D01*
X1454Y40795D01*
X1403Y40873D01*
X1344Y40946D01*
X1257Y41092D01*
X1163Y41231D01*
X1122Y41315D01*
X1074Y41395D01*
X1006Y41550D01*
X931Y41702D01*
X901Y41790D01*
X864Y41876D01*
X817Y42038D01*
X763Y42198D01*
X744Y42290D01*
X719Y42379D01*
X694Y42546D01*
X660Y42713D01*
X654Y42806D01*
X640Y42898D01*
X637Y43067D01*
X626Y43236D01*
X626Y43237D01*
Y204796D01*
X637Y204964D01*
X640Y205134D01*
X654Y205226D01*
X660Y205319D01*
X694Y205485D01*
X719Y205652D01*
X745Y205741D01*
X763Y205833D01*
X817Y205993D01*
X864Y206156D01*
X901Y206242D01*
X931Y206330D01*
X1006Y206482D01*
X1074Y206636D01*
X1122Y206716D01*
X1163Y206800D01*
X1257Y206940D01*
X1345Y207085D01*
X1403Y207159D01*
X1455Y207236D01*
X1566Y207363D01*
X1672Y207495D01*
X8620Y215122D01*
X8679Y215178D01*
X8733Y215240D01*
X8869Y215361D01*
X8998Y215486D01*
X9064Y215534D01*
X9125Y215588D01*
X25423Y228244D01*
X25491Y228290D01*
X25554Y228342D01*
X25708Y228437D01*
X25858Y228538D01*
X25930Y228575D01*
X26000Y228618D01*
X44220Y238304D01*
X44294Y238338D01*
X44366Y238378D01*
X44535Y238446D01*
X44699Y238520D01*
X44777Y238543D01*
X44852Y238574D01*
X64459Y245006D01*
X64539Y245027D01*
X64615Y245054D01*
X64792Y245092D01*
X64967Y245137D01*
X65049Y245147D01*
X65128Y245164D01*
X85546Y248154D01*
X85627Y248160D01*
X85707Y248174D01*
X85888Y248181D01*
X86068Y248195D01*
X86150Y248191D01*
D02*
G37*
D74*
X1346063Y337599D02*
D03*
X1407874D02*
D03*
X1177559Y61031D02*
D03*
X1115748D02*
D03*
X1081299Y442913D02*
D03*
X1143110D02*
D03*
X197441Y588583D02*
D03*
X259252D02*
D03*
X271260Y765748D02*
D03*
X333071D02*
D03*
X227559Y480279D02*
D03*
X289370D02*
D03*
X259252Y534431D02*
D03*
X197441D02*
D03*
X1406890Y426181D02*
D03*
X1345079D02*
D03*
X1691339Y398778D02*
D03*
X1629528D02*
D03*
D78*
X1289352Y404921D02*
D03*
Y343110D02*
D03*
X819882Y210236D02*
D03*
Y272047D02*
D03*
X255905Y649606D02*
D03*
Y711417D02*
D03*
X1400591Y477895D02*
D03*
Y539706D02*
D03*
X1545276Y382874D02*
D03*
Y321063D02*
D03*
D79*
X1767716Y339976D02*
D03*
Y276165D02*
D03*
X530512Y556087D02*
D03*
Y619898D02*
D03*
X866142Y627543D02*
D03*
Y691354D02*
D03*
X526575Y694472D02*
D03*
Y758284D02*
D03*
X1832677Y286761D02*
D03*
Y350572D02*
D03*
X721457Y111433D02*
D03*
Y47622D02*
D03*
X949621Y51165D02*
D03*
Y114976D02*
D03*
D80*
X448244Y766732D02*
D03*
X384433D02*
D03*
X1609827Y630905D02*
D03*
X1673638D02*
D03*
X651000Y736221D02*
D03*
X587189D02*
D03*
D81*
X1309055Y863779D02*
D03*
X1210630D02*
D03*
X1131890D02*
D03*
X1033465D02*
D03*
D82*
X1423228Y838583D02*
D03*
X919291D02*
D03*
X889764Y1053543D02*
D03*
X1452756D02*
D03*
D83*
X953740Y512008D02*
D03*
D84*
Y612008D02*
D03*
D85*
X79724Y384252D02*
D03*
D86*
Y334252D02*
D03*
D87*
X1187992Y112205D02*
D03*
D88*
X583858Y93366D02*
D03*
X533858D02*
D03*
X483858D02*
D03*
D89*
X433858D02*
D03*
D90*
X448819Y1138780D02*
D03*
X791339D02*
D03*
D91*
X478346Y1019685D02*
D03*
X761811D02*
D03*
D92*
X1820866Y124016D02*
D03*
Y714567D02*
D03*
X88583Y124016D02*
D03*
Y714567D02*
D03*
D93*
X1187992Y112205D02*
D03*
X1242187Y349426D02*
D03*
D94*
X847441Y434055D02*
D03*
X1579926Y692913D02*
D03*
X1631398Y753052D02*
D03*
D95*
X1745669Y115158D02*
D03*
Y140748D02*
D03*
D114*
X1656693Y347997D02*
D03*
Y328312D02*
D03*
Y308627D02*
D03*
Y288941D02*
D03*
X1715354D02*
D03*
Y308627D02*
D03*
Y328312D02*
D03*
Y347997D02*
D03*
D115*
X1676181Y289138D02*
D03*
X1695866D02*
D03*
Y347800D02*
D03*
X1676181D02*
D03*
D116*
X1111220Y254921D02*
D03*
D117*
X1180118Y156496D02*
D03*
X1160433D02*
D03*
X1140748D02*
D03*
X1121063D02*
D03*
X1101378D02*
D03*
X1081693D02*
D03*
X1062008D02*
D03*
X1042323D02*
D03*
Y353346D02*
D03*
X1062008D02*
D03*
X1081693D02*
D03*
X1101378D02*
D03*
X1121063D02*
D03*
X1140748D02*
D03*
X1160433D02*
D03*
X1180118D02*
D03*
D118*
X1012795Y186024D02*
D03*
Y205709D02*
D03*
Y225394D02*
D03*
Y245079D02*
D03*
Y264764D02*
D03*
Y284449D02*
D03*
Y304134D02*
D03*
Y323819D02*
D03*
X1209646D02*
D03*
Y304134D02*
D03*
Y284449D02*
D03*
Y264764D02*
D03*
Y245079D02*
D03*
Y225394D02*
D03*
Y205709D02*
D03*
Y186024D02*
D03*
D119*
X1416339Y123031D02*
D03*
X1621063D02*
D03*
D120*
X1518701Y87598D02*
D03*
X1517716Y154528D02*
D03*
D121*
X688134Y211417D02*
D03*
Y261417D02*
D03*
Y311417D02*
D03*
Y361417D02*
D03*
X386669D02*
D03*
Y311417D02*
D03*
Y261417D02*
D03*
Y211417D02*
D03*
D122*
X1557087Y561220D02*
D03*
X1556890Y535630D02*
D03*
X1557087Y510039D02*
D03*
Y484449D02*
D03*
X1657087D02*
D03*
Y510039D02*
D03*
Y535630D02*
D03*
Y561220D02*
D03*
D123*
X508858Y852362D02*
D03*
X430118D02*
D03*
D124*
X1803150Y472441D02*
D03*
D125*
X1755906Y407480D02*
D03*
X1787402D02*
D03*
X1818898D02*
D03*
X1850394D02*
D03*
X1755906Y537402D02*
D03*
X1787402D02*
D03*
X1818898D02*
D03*
X1850394D02*
D03*
D126*
X1336614Y563386D02*
D03*
X1316929D02*
D03*
X1297244D02*
D03*
Y505512D02*
D03*
X1316929D02*
D03*
X1336614D02*
D03*
D127*
X394685Y612205D02*
D03*
D128*
X470276Y661417D02*
D03*
Y641732D02*
D03*
Y622047D02*
D03*
Y602362D02*
D03*
Y582677D02*
D03*
Y562992D02*
D03*
X319094D02*
D03*
Y582677D02*
D03*
Y602362D02*
D03*
Y622047D02*
D03*
Y641732D02*
D03*
Y661417D02*
D03*
D129*
X443898Y536614D02*
D03*
X424213D02*
D03*
X404528D02*
D03*
X384843D02*
D03*
X365158D02*
D03*
X345473D02*
D03*
Y687795D02*
D03*
X365158D02*
D03*
X384843D02*
D03*
X404528D02*
D03*
X424213D02*
D03*
X443898D02*
D03*
D130*
X759252Y878937D02*
D03*
X642323D02*
D03*
X1392323Y691929D02*
D03*
X1509252D02*
D03*
D131*
X674213Y502953D02*
D03*
Y648622D02*
D03*
X1157480Y521654D02*
D03*
Y667323D02*
D03*
D132*
X1470506Y580905D02*
D03*
Y515551D02*
D03*
D133*
X1266717Y164370D02*
D03*
X1304150D02*
D03*
X1259827Y205709D02*
D03*
X1311039Y123031D02*
D03*
D134*
X1297260Y205709D02*
D03*
X1273606Y123031D02*
D03*
D135*
X794291Y53150D02*
D03*
X880905D02*
D03*
Y120079D02*
D03*
X794291D02*
D03*
D136*
X559055Y1025591D02*
D03*
X681102D02*
D03*
D137*
X594488D02*
D03*
X620079D02*
D03*
X645669D02*
D03*
%TF.MD5,0a14f2ca0a36eeebc3869c9e7cb230bd*%
M02*
