%TF.GenerationSoftware,Altium Limited,Altium Designer,20.2.4 (192)*%
G04 Layer_Physical_Order=2*
G04 Layer_Color=16711680*
%FSLAX26Y26*%
%MOIN*%
%TF.SameCoordinates,97307457-8CCF-4A7E-BA0C-C77F47F2EFA4*%
%TF.FilePolarity,Positive*%
%TF.FileFunction,Copper,L2,Bot,Signal*%
%TF.Part,Single*%
G01*
G75*
%TA.AperFunction,SMDPad,CuDef*%
%ADD14R,0.048819X0.110630*%
%ADD15R,0.035433X0.027559*%
%ADD16R,0.038433X0.030000*%
%ADD20R,0.048819X0.068000*%
%ADD27R,0.027559X0.035433*%
%ADD28R,0.030000X0.038433*%
%TA.AperFunction,Conductor*%
%ADD29C,0.027559*%
%ADD30C,0.023622*%
%ADD31C,0.011811*%
%ADD32C,0.019685*%
%ADD34C,0.009842*%
%ADD35C,0.015748*%
%ADD36C,0.007874*%
%ADD37C,0.035433*%
%TA.AperFunction,SMDPad,CuDef*%
%ADD38C,0.015000*%
%TA.AperFunction,ComponentPad*%
%ADD39O,0.035433X0.076772*%
%ADD40O,0.041339X0.061024*%
%ADD41O,0.082677X0.078740*%
%ADD42C,0.059055*%
%ADD43R,0.059055X0.059055*%
%ADD44O,0.059055X0.062992*%
%ADD45R,0.051181X0.068898*%
%TA.AperFunction,ViaPad*%
%ADD46C,0.157480*%
%TA.AperFunction,ComponentPad*%
%ADD47R,0.031496X0.040000*%
%ADD48O,0.031496X0.040000*%
%ADD49O,0.040000X0.031496*%
%ADD50R,0.040000X0.031496*%
%TA.AperFunction,ViaPad*%
%ADD51C,0.023622*%
%TA.AperFunction,TestPad*%
%ADD52C,0.023622*%
%TA.AperFunction,ViaPad*%
%ADD53C,0.019685*%
%ADD54C,0.015748*%
%TA.AperFunction,SMDPad,CuDef*%
%ADD55R,0.039370X0.031496*%
%ADD56R,0.031496X0.039370*%
%ADD57R,0.068000X0.048819*%
%ADD58R,0.043307X0.023622*%
%ADD59R,0.090551X0.059055*%
G36*
X831290Y1172668D02*
X1520266D01*
Y852535D01*
X1727673D01*
X1731038Y855601D01*
X1904528Y855315D01*
Y689961D01*
X1904527D01*
X1904125Y689475D01*
Y205552D01*
X1904814Y204796D01*
X1904814Y43236D01*
X1904125Y42479D01*
Y5346D01*
X1833577D01*
X1823322Y3844D01*
X1802694Y4385D01*
X1797903Y5346D01*
X111546D01*
X106754Y4385D01*
X86126Y3844D01*
X75872Y5346D01*
X4518D01*
Y681639D01*
X4348Y681826D01*
X4518Y784744D01*
Y852535D01*
X4630D01*
X4635Y855315D01*
X169989D01*
X169989Y855315D01*
X173339Y852535D01*
X388377D01*
Y1196290D01*
X831290D01*
Y1172668D01*
D02*
G37*
%LPC*%
G36*
X682677Y1142913D02*
X640945D01*
Y1093307D01*
X640945Y1093307D01*
X640449Y1088512D01*
X635982Y1085527D01*
X634390Y1083144D01*
X629390D01*
X627798Y1085527D01*
X622714Y1088924D01*
X620866Y1093307D01*
X620866Y1093307D01*
X620866Y1093307D01*
Y1142913D01*
X579134D01*
Y1093307D01*
X593348D01*
Y1082678D01*
X593348Y1082677D01*
X594356Y1077608D01*
X595654Y1075666D01*
X594905Y1071903D01*
X596372Y1064529D01*
X600549Y1058278D01*
X606800Y1054102D01*
X614173Y1052635D01*
X621547Y1054102D01*
X627798Y1058278D01*
X629390Y1060661D01*
X634390D01*
X635982Y1058278D01*
X642233Y1054102D01*
X649606Y1052635D01*
X656980Y1054102D01*
X663231Y1058278D01*
X667407Y1064529D01*
X668874Y1071903D01*
X668125Y1075666D01*
X669423Y1077608D01*
X670431Y1082677D01*
X670431Y1082678D01*
Y1093307D01*
X682677D01*
Y1142913D01*
D02*
G37*
G36*
X1223031Y971654D02*
X1181299D01*
Y948905D01*
X1180890Y946850D01*
Y942913D01*
X1181299Y940858D01*
Y922047D01*
X1189355D01*
Y895574D01*
X1184516Y891861D01*
X1178648Y884213D01*
X1174958Y875306D01*
X1173833Y866756D01*
X1173700Y865748D01*
X1168820D01*
X1168687Y866756D01*
X1167561Y875306D01*
X1163872Y884213D01*
X1161629Y887136D01*
Y934841D01*
X1161629Y934841D01*
Y946850D01*
X1161220Y948905D01*
Y971654D01*
X1119488D01*
Y948905D01*
X1119079Y946850D01*
Y934842D01*
X1119079Y934841D01*
Y900072D01*
X1113425Y897730D01*
X1105776Y891861D01*
X1099907Y884213D01*
X1096218Y875306D01*
X1094960Y865748D01*
Y861811D01*
X1096218Y852253D01*
X1099907Y843346D01*
X1105776Y835697D01*
X1113425Y829829D01*
X1122332Y826139D01*
X1131890Y824881D01*
X1141448Y826139D01*
X1150355Y829829D01*
X1158003Y835697D01*
X1163872Y843346D01*
X1167561Y852253D01*
X1168687Y860803D01*
X1168820Y861811D01*
X1173700D01*
X1173833Y860803D01*
X1174958Y852253D01*
X1178648Y843346D01*
X1184516Y835697D01*
X1192165Y829829D01*
X1201072Y826139D01*
X1210630Y824881D01*
X1220188Y826139D01*
X1229095Y829829D01*
X1236743Y835697D01*
X1242612Y843346D01*
X1246302Y852253D01*
X1247560Y861811D01*
Y865748D01*
X1246302Y875306D01*
X1242612Y884213D01*
X1236743Y891861D01*
X1231905Y895574D01*
Y934449D01*
X1230285Y942590D01*
X1225674Y949492D01*
X1223031Y952135D01*
Y971654D01*
D02*
G37*
G36*
X992716Y1030905D02*
X929724D01*
Y906102D01*
X956952D01*
X996625Y866430D01*
X996535Y865748D01*
Y861811D01*
X997793Y852253D01*
X1001483Y843346D01*
X1007352Y835697D01*
X1015000Y829829D01*
X1023907Y826139D01*
X1033465Y824881D01*
X1043023Y826139D01*
X1051930Y829829D01*
X1059579Y835697D01*
X1065447Y843346D01*
X1069137Y852253D01*
X1070395Y861811D01*
Y865748D01*
X1069137Y875306D01*
X1065447Y884213D01*
X1059579Y891861D01*
X1051930Y897730D01*
X1043023Y901420D01*
X1033465Y902678D01*
X1032086Y902496D01*
X992716Y941866D01*
Y1030905D01*
D02*
G37*
G36*
X844488Y963559D02*
X837115Y962092D01*
X830864Y957916D01*
X826687Y951665D01*
X825220Y944291D01*
X826687Y936918D01*
X829235Y933105D01*
Y767124D01*
X722638D01*
Y773228D01*
X673032D01*
Y731496D01*
X722638D01*
Y736616D01*
X780558D01*
X784252Y733465D01*
X784252Y731616D01*
Y660236D01*
X888976D01*
Y674313D01*
X909252D01*
Y668701D01*
X958858D01*
Y710433D01*
X909252D01*
Y704821D01*
X888976D01*
Y731616D01*
X888976Y733465D01*
X892671Y736616D01*
X909252D01*
Y730512D01*
X958858D01*
Y736124D01*
X1016574D01*
X1020472Y733464D01*
X1020472Y731124D01*
Y660236D01*
X1125197D01*
Y674313D01*
X1146457D01*
Y668701D01*
X1196063D01*
Y710433D01*
X1146457D01*
Y704821D01*
X1125197D01*
Y731124D01*
X1125197Y733464D01*
X1129095Y736124D01*
X1146457D01*
Y730512D01*
X1196063D01*
Y737601D01*
X1254607D01*
X1256693Y733465D01*
X1256693Y732601D01*
Y660236D01*
X1361417D01*
Y677266D01*
X1380709D01*
Y671654D01*
X1430315D01*
Y713386D01*
X1380709D01*
Y707773D01*
X1361417D01*
Y732601D01*
X1361417Y733465D01*
X1363503Y737601D01*
X1380709D01*
Y733465D01*
X1430315D01*
Y737305D01*
X1455682D01*
X1489668Y703320D01*
Y529191D01*
X1488189Y524803D01*
X1484668Y524803D01*
X1442520D01*
Y471260D01*
X1448427D01*
Y455906D01*
X1441142D01*
Y406299D01*
X1482874D01*
Y455906D01*
X1478935D01*
Y467724D01*
X1482470Y471260D01*
X1488189Y471260D01*
X1489668Y466873D01*
Y392637D01*
X1429214Y332183D01*
X1212334D01*
X1209661Y337183D01*
X1210931Y339083D01*
X1211750Y343202D01*
X1215719Y346277D01*
X1217057Y346204D01*
X1223292Y344964D01*
X1230665Y346431D01*
X1236916Y350608D01*
X1241093Y356859D01*
X1242559Y364232D01*
X1242549Y364284D01*
X1292044Y413780D01*
X1316142D01*
Y455512D01*
X1266535D01*
Y431415D01*
X1217461Y382340D01*
X1217332Y382315D01*
X1214750Y383859D01*
X1213506Y384815D01*
X1212617Y385841D01*
X1211309Y392413D01*
X1207132Y398664D01*
X1200882Y402841D01*
X1193508Y404307D01*
X1187495Y403111D01*
X1181275D01*
X1142498Y441888D01*
X1137549Y445195D01*
X1131712Y446356D01*
X1091386D01*
X1090894Y451356D01*
X1094856Y452144D01*
X1098828Y454798D01*
X1119681Y475651D01*
X1122335Y479623D01*
X1123267Y484308D01*
Y503758D01*
X1150725Y531216D01*
X1157993Y532662D01*
X1164244Y536839D01*
X1168421Y543090D01*
X1169888Y550463D01*
X1172739Y553937D01*
X1213780D01*
Y607480D01*
X1168110D01*
Y595962D01*
X1125197D01*
Y615354D01*
X1020472D01*
Y542126D01*
X1096258D01*
X1097441Y541891D01*
X1098623Y542126D01*
X1119935D01*
X1122006Y537126D01*
X1102367Y517486D01*
X1099713Y513514D01*
X1098781Y508829D01*
Y489379D01*
X1085100Y475698D01*
X1079921D01*
Y517323D01*
X1030315D01*
Y512498D01*
X1014961D01*
Y524803D01*
X969291D01*
Y471260D01*
X1014961D01*
Y481990D01*
X1026239D01*
X1029618Y476990D01*
X1029142Y475124D01*
X1027346Y474767D01*
X1026023Y473882D01*
X1026023Y473882D01*
X1024739Y473025D01*
X1023374Y472112D01*
X1000512Y449251D01*
X922566D01*
X917880Y448319D01*
X913909Y445665D01*
X866417Y398174D01*
X861417Y400245D01*
Y403122D01*
X811811D01*
Y395923D01*
X798228D01*
Y408484D01*
X756496D01*
Y358877D01*
X798228D01*
Y371438D01*
X811811D01*
Y361390D01*
X861417D01*
Y371438D01*
X869238D01*
X873923Y372369D01*
X877895Y375023D01*
X927637Y424765D01*
X965480D01*
X966996Y419765D01*
X965846Y418996D01*
X961669Y412745D01*
X960203Y405372D01*
X961669Y397998D01*
X965846Y391748D01*
X972097Y387571D01*
X979471Y386104D01*
X986844Y387571D01*
X990657Y390118D01*
X1105456D01*
X1123632Y371942D01*
X1121718Y367323D01*
X1090158D01*
Y317717D01*
X1114255D01*
X1125828Y306143D01*
X1127055Y305323D01*
X1125538Y300323D01*
X1110039D01*
Y254654D01*
X1163582D01*
Y261986D01*
X1177362D01*
Y256125D01*
X1226968D01*
Y296675D01*
X1226968Y297857D01*
X1229821Y301675D01*
X1435532D01*
X1441369Y302837D01*
X1446318Y306143D01*
X1515707Y375533D01*
X1517187Y377746D01*
X1522187Y376229D01*
Y360237D01*
X1522186Y360236D01*
X1523195Y355167D01*
X1526066Y350869D01*
X1547720Y329216D01*
X1547720Y329216D01*
X1552017Y326344D01*
X1557087Y325336D01*
X1557087Y325336D01*
X1601625D01*
Y271799D01*
X1601085Y270990D01*
X1599618Y263617D01*
X1601085Y256243D01*
X1602375Y254312D01*
X1602939Y251477D01*
X1606681Y245877D01*
X1652031Y200528D01*
Y76758D01*
X1650610Y75338D01*
X1616653D01*
Y78346D01*
X1599925D01*
X1599433Y83346D01*
X1602728Y84002D01*
X1610282Y89049D01*
X1615329Y96602D01*
X1617101Y105512D01*
X1615329Y114421D01*
X1610282Y121975D01*
X1602728Y127022D01*
X1597997Y127963D01*
Y133061D01*
X1602728Y134002D01*
X1610282Y139049D01*
X1615329Y146602D01*
X1617101Y155512D01*
X1615329Y164421D01*
X1610282Y171975D01*
X1602728Y177022D01*
X1593819Y178794D01*
X1585315D01*
X1576405Y177022D01*
X1573050Y174780D01*
X1522745D01*
X1509803Y187721D01*
X1503553Y191898D01*
X1496179Y193364D01*
X1231575D01*
X1226968Y194314D01*
Y236046D01*
X1177362D01*
Y194314D01*
X1186911D01*
Y185283D01*
X1184364Y181470D01*
X1182897Y174097D01*
X1184364Y166723D01*
X1188541Y160472D01*
X1194792Y156296D01*
X1202165Y154829D01*
X1231271D01*
X1233923Y149829D01*
X1231215Y145775D01*
X1229748Y138402D01*
X1231215Y131028D01*
X1235392Y124777D01*
X1241642Y120601D01*
X1249016Y119134D01*
X1402847D01*
X1430094Y91887D01*
X1436345Y87711D01*
X1443718Y86244D01*
X1573050D01*
X1576405Y84002D01*
X1579701Y83346D01*
X1579209Y78346D01*
X1562480D01*
Y74780D01*
X982221D01*
Y119696D01*
X985827D01*
Y169302D01*
X944095D01*
Y119696D01*
X947700D01*
Y74780D01*
X824910D01*
X788177Y111513D01*
Y141990D01*
X799606D01*
Y224163D01*
X788177D01*
Y231780D01*
X793486D01*
Y284386D01*
X788177D01*
Y310747D01*
X786710Y318121D01*
X782533Y324372D01*
X776282Y328548D01*
X768909Y330015D01*
X761535Y328548D01*
X755284Y324372D01*
X751108Y318121D01*
X749641Y310747D01*
Y284386D01*
X749313D01*
Y231780D01*
X749641D01*
Y224163D01*
X736614D01*
Y141990D01*
X749641D01*
Y122800D01*
X634055D01*
Y128335D01*
X592323D01*
Y78729D01*
X634055D01*
Y84264D01*
X760928D01*
X803305Y41887D01*
X809556Y37711D01*
X816929Y36244D01*
X1562480D01*
Y32677D01*
X1616653D01*
Y40816D01*
X1657760D01*
X1664365Y42130D01*
X1669965Y45872D01*
X1681496Y57403D01*
X1685238Y63003D01*
X1686552Y69608D01*
Y207678D01*
X1685238Y214283D01*
X1681496Y219883D01*
X1638089Y263290D01*
X1638154Y263617D01*
X1636687Y270990D01*
X1636147Y271799D01*
Y330401D01*
X1636687Y331209D01*
X1638154Y338583D01*
X1636687Y345956D01*
X1636147Y346765D01*
Y362302D01*
X1637719Y363874D01*
X1643883Y363282D01*
X1644836Y361913D01*
X1644685Y361220D01*
X1644685D01*
X1644685Y277130D01*
X1727362Y277130D01*
X1727362Y361220D01*
X1673990Y361220D01*
X1671318Y366221D01*
X1672638Y368197D01*
X1673027Y370151D01*
X1675673Y372797D01*
X1763189D01*
Y360195D01*
X1763189Y360195D01*
X1763189D01*
X1760312Y356540D01*
X1755122Y351350D01*
X1752468Y347378D01*
X1751536Y342693D01*
Y274683D01*
X1713327Y236474D01*
X1711698Y236798D01*
X1704324Y235331D01*
X1698073Y231155D01*
X1693897Y224904D01*
X1692430Y217530D01*
X1693897Y210157D01*
X1698073Y203906D01*
X1704324Y199729D01*
X1711698Y198262D01*
X1719071Y199729D01*
X1725322Y203906D01*
X1729499Y210157D01*
X1730966Y217530D01*
X1730641Y219160D01*
X1772437Y260955D01*
X1775091Y264927D01*
X1776023Y269612D01*
Y337622D01*
X1791119Y352719D01*
X1793773Y356690D01*
X1794470Y360195D01*
X1804921D01*
Y409801D01*
X1763189D01*
Y399290D01*
X1736538D01*
X1736493Y404271D01*
X1743098Y405585D01*
X1748698Y409327D01*
X1755374Y416003D01*
X1860236Y416003D01*
X1861181Y416191D01*
X1862142Y416259D01*
X1866633Y417487D01*
X1867043Y417692D01*
X1867492Y417781D01*
X1868293Y418316D01*
X1869155Y418747D01*
X1869455Y419093D01*
X1869836Y419348D01*
X1872021Y421532D01*
X1872021Y421532D01*
X1872021Y421533D01*
X1872995Y422990D01*
X1873587Y423876D01*
Y423876D01*
X1873587Y423877D01*
X1874786Y426771D01*
X1874786Y426772D01*
X1874786Y426772D01*
X1875062Y428162D01*
X1875335Y429536D01*
X1875335Y429537D01*
X1875335Y429537D01*
X1875335Y431103D01*
X1875336Y506200D01*
X1875336Y506200D01*
X1875336Y506201D01*
X1875335Y510827D01*
X1875169Y511661D01*
X1875136Y512511D01*
X1874019Y517167D01*
X1873780Y517686D01*
X1873669Y518247D01*
X1873288Y519166D01*
X1871722Y521510D01*
X1868953Y524279D01*
X1866610Y525846D01*
X1866609Y525846D01*
X1862992Y527344D01*
X1862991Y527344D01*
X1862991Y527345D01*
X1861977Y527546D01*
X1860227Y527894D01*
X1860226Y527894D01*
X1860226Y527894D01*
X1858268Y527894D01*
X1746062Y527893D01*
X1746061Y527893D01*
X1744497Y527893D01*
X1744496Y527893D01*
X1744496Y527893D01*
X1743319Y527659D01*
X1741732Y527344D01*
X1741731Y527343D01*
X1741731Y527343D01*
X1738837Y526145D01*
X1736493Y524579D01*
X1734279Y522364D01*
X1734278Y522364D01*
X1732712Y520020D01*
X1731513Y517126D01*
X1731212Y515612D01*
X1730964Y514361D01*
X1730964Y512795D01*
X1730963Y440413D01*
X1729343Y438793D01*
X1670967D01*
X1664361Y437479D01*
X1658761Y433737D01*
X1611140Y386116D01*
X1606140Y388187D01*
Y401791D01*
X1607521Y402714D01*
X1611698Y408965D01*
X1613112Y416073D01*
X1700193Y503154D01*
X1702847Y507126D01*
X1703779Y511811D01*
Y513583D01*
X1720276D01*
Y551378D01*
X1662795D01*
Y513583D01*
X1669460D01*
X1671374Y508963D01*
X1597333Y434923D01*
X1593897Y435606D01*
X1586632Y434161D01*
X1585728Y433992D01*
X1581632Y436842D01*
Y446894D01*
X1651672Y516933D01*
X1654326Y520905D01*
X1655258Y525591D01*
Y594215D01*
X1656084Y595040D01*
X1662795D01*
Y588386D01*
X1720276D01*
Y626181D01*
X1662795D01*
Y619527D01*
X1651012D01*
X1646327Y618595D01*
X1642355Y615941D01*
X1634358Y607943D01*
X1631704Y603971D01*
X1630772Y599286D01*
Y530662D01*
X1615040Y514930D01*
X1610040Y517001D01*
Y551378D01*
X1552559D01*
Y513583D01*
X1568053D01*
Y507455D01*
X1526066Y465469D01*
X1525175Y464135D01*
X1520175Y465652D01*
Y709638D01*
X1519014Y715476D01*
X1515707Y720424D01*
X1472787Y763345D01*
X1467838Y766652D01*
X1462001Y767813D01*
X1430315D01*
Y775197D01*
X1380709D01*
Y768108D01*
X1196063D01*
Y772244D01*
X1146457D01*
Y766632D01*
X958858D01*
Y772244D01*
X909252D01*
Y767124D01*
X859742D01*
Y933105D01*
X862289Y936918D01*
X863756Y944291D01*
X862289Y951665D01*
X858113Y957916D01*
X851862Y962092D01*
X844488Y963559D01*
D02*
G37*
G36*
X652756Y733465D02*
X548032D01*
Y660236D01*
X652756D01*
Y675298D01*
X673032D01*
Y669685D01*
X722638D01*
Y711417D01*
X673032D01*
Y705805D01*
X652756D01*
Y733465D01*
D02*
G37*
G36*
X1610040Y626181D02*
X1552559D01*
Y588386D01*
X1610040D01*
Y626181D01*
D02*
G37*
G36*
X1361417Y615354D02*
X1256693D01*
Y542126D01*
X1361417D01*
Y565455D01*
X1405118D01*
Y553937D01*
X1450787D01*
Y607480D01*
X1405118D01*
Y595962D01*
X1361417D01*
Y615354D01*
D02*
G37*
G36*
X888976D02*
X784252D01*
Y542126D01*
X810825D01*
X812008Y541891D01*
X813190Y542126D01*
X888976D01*
Y565455D01*
X931890D01*
Y553937D01*
X977559D01*
Y607480D01*
X931890D01*
Y595962D01*
X888976D01*
Y615354D01*
D02*
G37*
G36*
X652756D02*
X548032D01*
Y565283D01*
X543622Y562926D01*
X542807Y563471D01*
X535433Y564938D01*
X528060Y563471D01*
X521809Y559294D01*
X517632Y553043D01*
X516165Y545670D01*
X517632Y538296D01*
X521809Y532045D01*
X528060Y527869D01*
X535433Y526402D01*
X542807Y527869D01*
X549058Y532045D01*
X553234Y538296D01*
X553996Y542126D01*
X652756D01*
Y565455D01*
X695866D01*
Y553937D01*
X741535D01*
Y607480D01*
X695866D01*
Y595962D01*
X652756D01*
Y615354D01*
D02*
G37*
G36*
X1251181Y524803D02*
X1205512D01*
Y471260D01*
X1251181D01*
Y481990D01*
X1266535D01*
Y475591D01*
X1316142D01*
Y517323D01*
X1266535D01*
Y512498D01*
X1251181D01*
Y524803D01*
D02*
G37*
G36*
X778937D02*
X733268D01*
Y471260D01*
X778937D01*
Y481990D01*
X792126D01*
Y475591D01*
X841732D01*
Y517323D01*
X792126D01*
Y512498D01*
X778937D01*
Y524803D01*
D02*
G37*
G36*
X224760Y623347D02*
X215202Y622089D01*
X206295Y618400D01*
X198647Y612531D01*
X192778Y604882D01*
X189089Y595976D01*
X187830Y586417D01*
X189089Y576859D01*
X192778Y567952D01*
X197093Y562329D01*
Y524748D01*
X190886D01*
Y442575D01*
X253878D01*
Y524748D01*
X247671D01*
Y557846D01*
X250874Y560304D01*
X256743Y567952D01*
X260432Y576859D01*
X261690Y586417D01*
X260432Y595976D01*
X256743Y604882D01*
X250874Y612531D01*
X243225Y618400D01*
X234318Y622089D01*
X224760Y623347D01*
D02*
G37*
G36*
X557149Y518511D02*
X553212D01*
X541085Y516915D01*
X529784Y512234D01*
X520079Y504787D01*
X512633Y495082D01*
X511740Y492928D01*
X453937D01*
X445796Y491309D01*
X438893Y486697D01*
X422949Y470752D01*
X418337Y463850D01*
X417030Y457283D01*
X395921D01*
Y394291D01*
X415733D01*
Y371906D01*
X410705D01*
Y327732D01*
X436061D01*
X437008Y327544D01*
X437954Y327732D01*
X463311D01*
Y371906D01*
X458283D01*
Y394291D01*
X478094D01*
Y450379D01*
X511740D01*
X512633Y448225D01*
X520079Y438520D01*
X529784Y431074D01*
X541085Y426393D01*
X553212Y424796D01*
X557149D01*
X569277Y426393D01*
X580578Y431074D01*
X590283Y438520D01*
X597729Y448225D01*
X602410Y459526D01*
X604007Y471654D01*
X602410Y483781D01*
X597729Y495082D01*
X590283Y504787D01*
X580578Y512234D01*
X569277Y516915D01*
X557149Y518511D01*
D02*
G37*
G36*
X841732Y455512D02*
X792126D01*
Y413780D01*
X841732D01*
Y419392D01*
X849050D01*
X852863Y416845D01*
X860236Y415378D01*
X867610Y416845D01*
X873861Y421021D01*
X878037Y427272D01*
X879504Y434646D01*
X878037Y442019D01*
X873861Y448270D01*
X867610Y452447D01*
X860236Y453913D01*
X852863Y452447D01*
X849050Y449899D01*
X841732D01*
Y455512D01*
D02*
G37*
G36*
X1363422Y468776D02*
X1356049Y467309D01*
X1349798Y463132D01*
X1345621Y456881D01*
X1344155Y449508D01*
X1345621Y442134D01*
X1349798Y435884D01*
X1356049Y431707D01*
X1363206Y430283D01*
X1363330Y430159D01*
X1368278Y426852D01*
X1374116Y425691D01*
X1379331D01*
Y406299D01*
X1421063D01*
Y455906D01*
X1395765D01*
X1394291Y456199D01*
X1381359D01*
X1381223Y456881D01*
X1377047Y463132D01*
X1370796Y467309D01*
X1363422Y468776D01*
D02*
G37*
G36*
X681496Y445951D02*
X674122Y444484D01*
X667871Y440307D01*
X663695Y434056D01*
X662228Y426683D01*
X663695Y419309D01*
X667871Y413058D01*
X674122Y408882D01*
X678619Y407987D01*
X694392Y392215D01*
Y389586D01*
X694685Y388112D01*
Y358877D01*
X736417D01*
Y408484D01*
X720990D01*
X720432Y409319D01*
X700192Y429559D01*
X699297Y434056D01*
X695120Y440307D01*
X688869Y444484D01*
X681496Y445951D01*
D02*
G37*
G36*
X557149Y418511D02*
X553212D01*
X541085Y416915D01*
X529784Y412233D01*
X520079Y404787D01*
X512633Y395082D01*
X507951Y383781D01*
X506355Y371654D01*
X507951Y359526D01*
X512633Y348225D01*
X520079Y338520D01*
X529784Y331074D01*
X541085Y326393D01*
X553212Y324796D01*
X557149D01*
X569277Y326393D01*
X580578Y331074D01*
X590283Y338520D01*
X597729Y348225D01*
X602410Y359526D01*
X604007Y371654D01*
X602410Y383781D01*
X597729Y395082D01*
X590283Y404787D01*
X580578Y412233D01*
X569277Y416915D01*
X557149Y418511D01*
D02*
G37*
G36*
X1007087Y379134D02*
X902362D01*
Y305906D01*
X1007087D01*
Y327266D01*
X1028347D01*
Y317717D01*
X1070079D01*
Y367323D01*
X1028347D01*
Y357773D01*
X1007087D01*
Y379134D01*
D02*
G37*
G36*
X1080905Y262922D02*
X1027362D01*
Y255341D01*
X1007087D01*
Y261024D01*
X902362D01*
Y187795D01*
X1007087D01*
Y224834D01*
X1027362D01*
Y217253D01*
X1080905D01*
Y262922D01*
D02*
G37*
G36*
X557149Y318511D02*
X553212D01*
X541085Y316915D01*
X529784Y312233D01*
X520079Y304787D01*
X512633Y295082D01*
X507951Y283781D01*
X506355Y271654D01*
X507951Y259526D01*
X512633Y248225D01*
X520079Y238520D01*
X529784Y231074D01*
X541085Y226393D01*
X553212Y224796D01*
X557149D01*
X569277Y226393D01*
X580578Y231074D01*
X590283Y238520D01*
X597729Y248225D01*
X602410Y259526D01*
X604007Y271654D01*
X602410Y283781D01*
X597729Y295082D01*
X590283Y304787D01*
X580578Y312233D01*
X569277Y316915D01*
X557149Y318511D01*
D02*
G37*
G36*
X924016Y169302D02*
X882284D01*
Y161595D01*
X868395D01*
X861790Y160281D01*
X856190Y156539D01*
X853063Y153413D01*
X852110Y153223D01*
X845859Y149046D01*
X841682Y142795D01*
X840215Y135422D01*
X841682Y128048D01*
X845859Y121797D01*
X852110Y117621D01*
X859483Y116154D01*
X866856Y117621D01*
X873107Y121797D01*
X876633Y127073D01*
X882284D01*
Y119696D01*
X924016D01*
Y169302D01*
D02*
G37*
G36*
X501575Y130433D02*
X455906D01*
Y76260D01*
X501575D01*
Y84171D01*
X530512D01*
Y78729D01*
X572244D01*
Y128335D01*
X530512D01*
Y122707D01*
X501575D01*
Y130433D01*
D02*
G37*
%LPD*%
G36*
X1863844Y519170D02*
X1866612Y516401D01*
X1866993Y515482D01*
X1868110Y510826D01*
X1868110Y506200D01*
X1868110Y431102D01*
X1868110Y429536D01*
X1866911Y426641D01*
X1864727Y424457D01*
X1860236Y423228D01*
X1746064Y423228D01*
X1744498Y423228D01*
X1741603Y424426D01*
X1739388Y426641D01*
X1738189Y429535D01*
X1738189Y431102D01*
X1738189Y512795D01*
X1738189Y514361D01*
X1739388Y517255D01*
X1741602Y519469D01*
X1744496Y520668D01*
X1746062Y520668D01*
X1746062Y520668D01*
X1858268Y520669D01*
X1860226Y520669D01*
X1863844Y519170D01*
D02*
G37*
G36*
X1501139Y141887D02*
X1507390Y137711D01*
X1514764Y136244D01*
X1573050D01*
X1576405Y134002D01*
X1581137Y133061D01*
Y127963D01*
X1576405Y127022D01*
X1573050Y124780D01*
X1451699D01*
X1426650Y149829D01*
X1428721Y154829D01*
X1488198D01*
X1501139Y141887D01*
D02*
G37*
D14*
X1078150Y968504D02*
D03*
X961220D02*
D03*
D15*
X816929Y496457D02*
D03*
Y434646D02*
D03*
X836614Y320445D02*
D03*
Y382256D02*
D03*
X1055118Y496457D02*
D03*
Y434646D02*
D03*
X1291339D02*
D03*
Y496457D02*
D03*
X1202165Y276991D02*
D03*
Y215180D02*
D03*
X1405512Y754331D02*
D03*
Y692520D02*
D03*
X1171260Y689567D02*
D03*
Y751378D02*
D03*
X934055D02*
D03*
Y689567D02*
D03*
X697835Y690551D02*
D03*
Y752362D02*
D03*
D16*
X437008Y349819D02*
D03*
Y286008D02*
D03*
D20*
X768110Y183077D02*
D03*
X651181D02*
D03*
X105453Y483661D02*
D03*
X222382D02*
D03*
D27*
X964961Y144499D02*
D03*
X903150D02*
D03*
X600000Y1118110D02*
D03*
X661811D02*
D03*
X777362Y383680D02*
D03*
X715551D02*
D03*
X1140354Y946850D02*
D03*
X1202165D02*
D03*
X1784055Y384998D02*
D03*
X1845866D02*
D03*
X613189Y103532D02*
D03*
X551378D02*
D03*
X1462008Y431102D02*
D03*
X1400197D02*
D03*
X1111024Y342520D02*
D03*
X1049213D02*
D03*
D28*
X771399Y258083D02*
D03*
X835210D02*
D03*
D29*
X1131890Y863779D02*
X1140354Y872244D01*
Y934841D01*
X1140354Y934841D02*
Y946850D01*
X1140354Y934841D02*
X1140354Y934841D01*
X961220Y937598D02*
Y968504D01*
X1033465Y863779D02*
Y865354D01*
X437008Y348819D02*
Y425787D01*
X453937Y471654D02*
X555181D01*
X437992Y455709D02*
X453937Y471654D01*
X437992Y426772D02*
Y455709D01*
X1210630Y863779D02*
Y934449D01*
X1202165Y942913D02*
X1210630Y934449D01*
X1202165Y942913D02*
Y946850D01*
D30*
X551285Y103439D02*
X551378Y103532D01*
X478833Y103439D02*
X551285D01*
X478740Y103347D02*
X478833Y103439D01*
X768909Y103532D02*
Y310747D01*
X1249016Y138402D02*
X1410828D01*
X1443718Y105512D02*
X1589567D01*
X1410828Y138402D02*
X1443718Y105512D01*
X961220Y55512D02*
X1589567D01*
X816929D02*
X961220D01*
X613189Y103532D02*
X768909D01*
X816929Y55512D01*
X1514764Y155512D02*
X1589567D01*
X1496179Y174097D02*
X1514764Y155512D01*
X1202165Y174097D02*
X1496179D01*
D31*
X979471Y749549D02*
X981299Y751378D01*
X1670186Y386043D02*
X1783009D01*
X1581299Y501969D02*
Y532480D01*
X1535433Y360236D02*
Y456102D01*
X1581299Y501969D01*
X1535433Y360236D02*
X1557087Y338583D01*
X1618886D01*
X657185Y1113484D02*
X661811Y1118110D01*
X657185Y1082677D02*
Y1113484D01*
X649606Y1075099D02*
X657185Y1082677D01*
X649606Y1071903D02*
Y1075099D01*
X600000Y1118110D02*
X606595Y1111515D01*
Y1082677D02*
Y1111515D01*
Y1082677D02*
X614173Y1075099D01*
Y1071903D02*
Y1075099D01*
X1658545Y374034D02*
Y374403D01*
X1670186Y386043D01*
X1783009D02*
X1784055Y384998D01*
X1405512Y692520D02*
X1405709Y692716D01*
D32*
X1618886Y369452D02*
X1670967Y421532D01*
X1736493D02*
X1759842Y444882D01*
X1670967Y421532D02*
X1736493D01*
X868395Y144334D02*
X902985D01*
X859483Y135422D02*
X868395Y144334D01*
X1618886Y263617D02*
Y338583D01*
Y258083D02*
Y263617D01*
Y258083D02*
X1669291Y207678D01*
Y69608D02*
Y207678D01*
X1657760Y58077D02*
X1669291Y69608D01*
X1592132Y58077D02*
X1657760D01*
X1589567Y55512D02*
X1592132Y58077D01*
X902985Y144334D02*
X903150Y144499D01*
X964961Y59252D02*
Y144499D01*
X961220Y55512D02*
X964961Y59252D01*
X1618886Y338583D02*
Y369452D01*
X437008Y425787D02*
X437992Y426772D01*
D34*
X824910Y383680D02*
X869238D01*
X777362D02*
X824910D01*
X1711698Y217530D02*
X1763780Y269612D01*
X1711698Y217530D02*
Y217530D01*
X1763780Y269612D02*
Y342693D01*
X1782462Y361376D01*
Y383404D01*
X1784055Y384998D01*
X1687586Y528531D02*
X1691536Y532480D01*
X1586614Y371618D02*
X1593897Y378901D01*
X1586614Y367889D02*
Y371618D01*
X1569389Y394685D02*
Y451965D01*
X1643015Y525591D02*
Y599286D01*
X1651012Y607284D02*
X1691536D01*
X1643015Y599286D02*
X1651012Y607284D01*
X1569389Y451965D02*
X1643015Y525591D01*
X1687586Y528531D02*
X1688595D01*
X1691536Y525591D01*
Y511811D02*
Y525591D01*
X1593897Y416339D02*
X1596063D01*
X1691536Y511811D01*
X1593897Y378901D02*
Y416339D01*
X1150620Y548425D02*
Y550463D01*
X1111024Y508829D02*
X1150620Y548425D01*
X1111024Y484308D02*
Y508829D01*
X1090171Y463455D02*
X1111024Y484308D01*
X1005583Y437008D02*
X1032031Y463455D01*
X1090171D01*
X922566Y437008D02*
X1005583D01*
X869238Y383680D02*
X922566Y437008D01*
X1309055Y696850D02*
X1313386Y692520D01*
X1072835Y578740D02*
X1097441Y554134D01*
X1072835Y696850D02*
X1080118Y689567D01*
X836614Y696850D02*
X843898Y689567D01*
X812008Y554134D02*
X836614Y578740D01*
X600394Y696850D02*
X606693Y690551D01*
X947835Y231299D02*
X954724Y224410D01*
D35*
X840551Y751870D02*
X933563D01*
X698327D02*
X840551D01*
X844488Y755807D02*
Y944291D01*
X840551Y751870D02*
X844488Y755807D01*
X933563Y751870D02*
X934055Y751378D01*
X697835Y752362D02*
X698327Y751870D01*
X919291Y838583D02*
Y846920D01*
X901575Y864636D02*
X919291Y846920D01*
X883395Y864636D02*
X901575D01*
X761811Y1019685D02*
X765571Y1015925D01*
Y982461D02*
Y1015925D01*
X1407283Y752559D02*
X1462001D01*
X1504921Y386319D02*
Y709638D01*
X1462001Y752559D02*
X1504921Y709638D01*
X559055Y1071903D02*
Y1071903D01*
X934055Y751378D02*
X981299D01*
X1171260D01*
X681496Y426683D02*
Y426683D01*
X709645Y389586D02*
X715551Y383680D01*
X709645Y389586D02*
Y398533D01*
X681496Y426683D02*
X709645Y398533D01*
X954724Y342520D02*
X1049213D01*
X970402Y240087D02*
X1054134D01*
X954724Y224410D02*
X970402Y240087D01*
X1136811Y277489D02*
X1137060Y277240D01*
X1201916D01*
X1202165Y276991D01*
X600394Y578740D02*
X602362Y580709D01*
X718701D01*
X756102Y498032D02*
X756890Y497244D01*
X816142D01*
X816929Y496457D01*
X836614Y578740D02*
X838583Y580709D01*
X954724D01*
X1054331Y497244D02*
X1055118Y496457D01*
X992913Y497244D02*
X1054331D01*
X992126Y498032D02*
X992913Y497244D01*
X1074803Y580709D02*
X1190945D01*
X1072835Y578740D02*
X1074803Y580709D01*
X1228346Y498032D02*
X1229134Y497244D01*
X1290551D01*
X1291339Y496457D01*
X1462008Y431102D02*
X1463681Y432776D01*
Y496358D01*
X1465354Y498032D01*
X1309055Y578740D02*
X1311024Y580709D01*
X1427953D01*
X1435532Y316929D02*
X1504921Y386319D01*
X1174957Y387858D02*
X1190690D01*
X1193508Y385039D01*
X1363422Y449508D02*
X1365553D01*
X1400197Y431102D02*
Y435039D01*
X1394291Y440945D02*
X1400197Y435039D01*
X1374116Y440945D02*
X1394291D01*
X1365553Y449508D02*
X1374116Y440945D01*
X1152185Y364961D02*
X1174626D01*
X1193130Y346457D01*
X1223292Y364232D02*
Y366599D01*
X1291339Y434646D01*
X1058661Y431102D02*
X1131712D01*
X1174957Y387858D01*
X979471Y405372D02*
X1111774D01*
X1152185Y364961D01*
X1055118Y434646D02*
X1058661Y431102D01*
X1136614Y316929D02*
X1435532D01*
X1111024Y338583D02*
Y342520D01*
Y338583D02*
X1116929Y332677D01*
X1120866D01*
X1136614Y316929D01*
X1202165Y174097D02*
Y215180D01*
X816929Y434646D02*
X860236D01*
X1405512Y754331D02*
X1407283Y752559D01*
X1404035Y752854D02*
X1405512Y754331D01*
X478346Y1016767D02*
X487510Y1025931D01*
X513084D01*
X559055Y1071903D01*
Y1071903D02*
X611273Y1019685D01*
X761811D01*
X1313386Y692520D02*
X1405512D01*
X889764Y1053543D02*
X907480Y1035827D01*
X478346Y1019685D02*
Y1033110D01*
X448819Y1062637D02*
X478346Y1033110D01*
X448819Y1062637D02*
Y1138780D01*
X761811Y1019685D02*
Y1033110D01*
X791339Y1062637D01*
Y1138780D01*
X843898Y689567D02*
X934055D01*
X1171260Y751378D02*
X1172736Y752854D01*
X1404035D01*
X1080118Y689567D02*
X1171260D01*
X606693Y690551D02*
X697835D01*
D36*
X478346Y1006890D02*
Y1016767D01*
X1462599Y790354D02*
X1683289D01*
X1423228Y829725D02*
X1462599Y790354D01*
X1683289D02*
X1759076Y714567D01*
X1423228Y838583D02*
X1431102Y846457D01*
Y1031890D01*
X1452756Y1053543D01*
X889764D02*
X1452756D01*
X88583Y124016D02*
Y185806D01*
X205390Y781496D02*
X378937D01*
X419291Y821850D01*
Y947835D01*
X478346Y1006890D01*
X138461Y714567D02*
X205390Y781496D01*
X478346Y1016767D02*
Y1019685D01*
X88583Y714567D02*
X138461D01*
X1759076D02*
X1820866D01*
X1423228Y829725D02*
Y838583D01*
X88583Y124016D02*
X108736Y144169D01*
X88583Y124016D02*
X95154D01*
D37*
X961220Y937598D02*
X1033465Y865354D01*
X222382Y584039D02*
X224760Y586417D01*
X222382Y490677D02*
X222704Y490354D01*
X222382Y490677D02*
Y584039D01*
D38*
X535433Y548033D02*
D03*
D39*
X448819Y1138780D02*
D03*
X791339D02*
D03*
D40*
X478346Y1019685D02*
D03*
X761811D02*
D03*
D41*
X330181Y271654D02*
D03*
Y471654D02*
D03*
X555181Y271654D02*
D03*
Y371654D02*
D03*
X555181Y471654D02*
D03*
D42*
X224760Y586417D02*
D03*
D43*
X124760D02*
D03*
D44*
X1309055Y863779D02*
D03*
X1210630D02*
D03*
X1131890D02*
D03*
X1033465D02*
D03*
D45*
X1423228Y838583D02*
D03*
X919291D02*
D03*
X889764Y1053543D02*
D03*
X1452756D02*
D03*
D46*
X88583Y767716D02*
D03*
X1820866Y124016D02*
D03*
Y767716D02*
D03*
X88583Y124016D02*
D03*
D47*
X478740Y103347D02*
D03*
D48*
X428740D02*
D03*
D49*
X1589567Y205512D02*
D03*
Y155512D02*
D03*
Y105512D02*
D03*
D50*
Y55512D02*
D03*
D51*
X844488Y944291D02*
D03*
X1427953Y212422D02*
D03*
X1379331Y103347D02*
D03*
X681496Y426683D02*
D03*
X659646Y523538D02*
D03*
X768909Y310747D02*
D03*
X161513Y35609D02*
D03*
X211476Y103532D02*
D03*
X163917Y221510D02*
D03*
X55906Y237981D02*
D03*
X1441142Y783779D02*
D03*
X815975Y1009842D02*
D03*
X872047Y1128937D02*
D03*
X1494012Y983423D02*
D03*
X1495669Y1112205D02*
D03*
X424058Y1019685D02*
D03*
X417807Y1071903D02*
D03*
X291339Y531216D02*
D03*
X249016Y316962D02*
D03*
X742634Y796000D02*
D03*
Y838583D02*
D03*
X741255Y879921D02*
D03*
X549058Y863779D02*
D03*
X131595Y659699D02*
D03*
X193532Y695465D02*
D03*
X214208Y770134D02*
D03*
X191509Y834443D02*
D03*
X1685238Y29281D02*
D03*
X1759076Y38251D02*
D03*
X1715901Y93366D02*
D03*
X1711760Y161595D02*
D03*
X1802694Y243646D02*
D03*
X1861977Y646138D02*
D03*
X1767224D02*
D03*
X1700827Y719931D02*
D03*
X1687586Y816115D02*
D03*
X1472021Y580709D02*
D03*
X1408185Y632437D02*
D03*
X1550121Y700814D02*
D03*
X985827Y712598D02*
D03*
X872047Y224163D02*
D03*
X694685Y288291D02*
D03*
X542913Y55975D02*
D03*
X351906Y149046D02*
D03*
Y55975D02*
D03*
X234318D02*
D03*
Y149046D02*
D03*
X124760Y288291D02*
D03*
X44803D02*
D03*
X122202Y405372D02*
D03*
X44803D02*
D03*
X36992Y504787D02*
D03*
Y572186D02*
D03*
Y633195D02*
D03*
X515248Y1161417D02*
D03*
X627798D02*
D03*
X741255D02*
D03*
X721029Y1071903D02*
D03*
X1381394Y1112205D02*
D03*
X1328397Y1012602D02*
D03*
X1257066Y1112205D02*
D03*
X1193130Y1012602D02*
D03*
X1110803Y1112205D02*
D03*
X1024970Y1012602D02*
D03*
X986221Y1112205D02*
D03*
X1701950Y454798D02*
D03*
X1711698Y217530D02*
D03*
X859483Y135422D02*
D03*
X1395768Y476378D02*
D03*
X1472021Y138402D02*
D03*
X1680217Y570866D02*
D03*
X815975Y133061D02*
D03*
X1051578Y183077D02*
D03*
X1144685Y202194D02*
D03*
X1433140Y395082D02*
D03*
X1363422D02*
D03*
X1504921Y302918D02*
D03*
X1395768Y267543D02*
D03*
X1618886Y263617D02*
D03*
X1878051Y316929D02*
D03*
X1759547Y500000D02*
D03*
Y472441D02*
D03*
X1789370Y500000D02*
D03*
X1586614Y367889D02*
D03*
X1569389Y394685D02*
D03*
X1593897Y416339D02*
D03*
X1193508Y385039D02*
D03*
X1363422Y449508D02*
D03*
X1223292Y364232D02*
D03*
X1193130Y346457D02*
D03*
X1150620Y550463D02*
D03*
X1249016Y138402D02*
D03*
X1202165Y174097D02*
D03*
X979471Y405372D02*
D03*
X860236Y434646D02*
D03*
X559055Y1071903D02*
D03*
X649606D02*
D03*
X614173D02*
D03*
X1874308Y569882D02*
D03*
X403543Y646526D02*
D03*
X466535D02*
D03*
X435039Y646525D02*
D03*
X403543Y612476D02*
D03*
X435039D02*
D03*
X466535Y612471D02*
D03*
Y678543D02*
D03*
X435039Y678549D02*
D03*
X403543D02*
D03*
X435039Y712597D02*
D03*
X466535Y712598D02*
D03*
X403543D02*
D03*
X1618886Y338583D02*
D03*
X1802165Y316929D02*
D03*
X1878051Y256890D02*
D03*
X1848425Y444882D02*
D03*
Y472441D02*
D03*
Y500000D02*
D03*
X1818898Y444882D02*
D03*
Y472441D02*
D03*
Y500000D02*
D03*
X1789370Y472441D02*
D03*
Y444882D02*
D03*
X1759842D02*
D03*
D52*
X535433Y545670D02*
D03*
D53*
X1217323Y543090D02*
D03*
D54*
X1658545Y374034D02*
D03*
D55*
X1054134Y240087D02*
D03*
X1136811Y202686D02*
D03*
Y277489D02*
D03*
D56*
X1427953Y580709D02*
D03*
X1390551Y498032D02*
D03*
X1465354D02*
D03*
X1190945Y580709D02*
D03*
X1153543Y498032D02*
D03*
X1228346D02*
D03*
X954724Y580709D02*
D03*
X917323Y498032D02*
D03*
X992126D02*
D03*
X718701Y580709D02*
D03*
X681299Y498032D02*
D03*
X756102D02*
D03*
D57*
X437008Y542717D02*
D03*
Y425787D02*
D03*
D58*
X1581299Y532480D02*
D03*
Y607284D02*
D03*
X1691536Y532480D02*
D03*
Y569882D02*
D03*
Y607284D02*
D03*
D59*
X1309055Y696850D02*
D03*
Y578740D02*
D03*
X1072835D02*
D03*
Y696850D02*
D03*
X836614D02*
D03*
Y578740D02*
D03*
X600394D02*
D03*
Y696850D02*
D03*
X954724Y342520D02*
D03*
Y224410D02*
D03*
%TF.MD5,f3280197c96ce8670c1032fe61cf0624*%
M02*
