%TF.GenerationSoftware,Altium Limited,Altium Designer,19.0.11 (319)*%
G04 Layer_Color=16711935*
%FSLAX26Y26*%
%MOIN*%
%TF.FileFunction,Soldermask,Bot*%
%TF.Part,Single*%
G01*
G75*
%TA.AperFunction,SMDPad,CuDef*%
%ADD74R,0.035559X0.043433*%
%ADD75R,0.039496X0.047370*%
%ADD76R,0.047370X0.039496*%
%ADD77R,0.110362X0.067055*%
%ADD78R,0.043433X0.035559*%
%ADD79R,0.046433X0.038000*%
%ADD80R,0.038000X0.046433*%
%TA.AperFunction,ComponentPad*%
%ADD81R,0.067055X0.067055*%
%ADD82C,0.067055*%
%ADD83R,0.048000X0.039496*%
%ADD84O,0.048000X0.039496*%
%TA.AperFunction,SMDPad,CuDef*%
%ADD85C,0.023000*%
%TA.AperFunction,ComponentPad*%
%ADD86O,0.067055X0.070992*%
%ADD87R,0.059181X0.076898*%
%ADD88O,0.039496X0.048000*%
%ADD89R,0.039496X0.048000*%
%ADD90O,0.043433X0.084772*%
%ADD91O,0.049339X0.069024*%
%TA.AperFunction,ViaPad*%
%ADD92C,0.165480*%
%TA.AperFunction,TestPad*%
%ADD93C,0.031622*%
%ADD94C,0.047370*%
%TA.AperFunction,ViaPad*%
%ADD95C,0.025716*%
G36*
X1904534Y806174D02*
X1904786Y806157D01*
X1905051Y806140D01*
X1905054Y806139D01*
X1905057Y806139D01*
X1905310Y806088D01*
X1905565Y806037D01*
X1905568Y806036D01*
X1905572Y806036D01*
X1905831Y805947D01*
X1906062Y805869D01*
X1906064Y805867D01*
X1906068Y805866D01*
X1906308Y805748D01*
X1906532Y805637D01*
X1906535Y805635D01*
X1906538Y805634D01*
X1906752Y805490D01*
X1906968Y805346D01*
X1906970Y805343D01*
X1906973Y805342D01*
X1907167Y805171D01*
X1907362Y805000D01*
X1907364Y804997D01*
X1907367Y804995D01*
X1907530Y804809D01*
X1907708Y804606D01*
X1907710Y804603D01*
X1907712Y804600D01*
X1907850Y804393D01*
X1907999Y804170D01*
X1908001Y804167D01*
X1908002Y804164D01*
X1908116Y803934D01*
X1908231Y803699D01*
X1908232Y803696D01*
X1908234Y803693D01*
X1908313Y803457D01*
X1908400Y803203D01*
X1908400Y803200D01*
X1908401Y803197D01*
X1908453Y802935D01*
X1908502Y802689D01*
X1908502Y802686D01*
X1908503Y802682D01*
X1908520Y802410D01*
X1908536Y802165D01*
Y636811D01*
X1908531Y636734D01*
X1908533Y636658D01*
X1908514Y636476D01*
X1908502Y636288D01*
X1908487Y636211D01*
X1908479Y636137D01*
X1908437Y635959D01*
X1908400Y635774D01*
X1908375Y635700D01*
X1908357Y635627D01*
X1908292Y635456D01*
X1908231Y635277D01*
X1908197Y635207D01*
X1908170Y635137D01*
X1908082Y634975D01*
X1907999Y634807D01*
X1907956Y634743D01*
X1907920Y634676D01*
X1907812Y634526D01*
X1907708Y634371D01*
X1907657Y634313D01*
X1907612Y634251D01*
X1901301Y626646D01*
X1901255Y626597D01*
X1901215Y626545D01*
X1901076Y626408D01*
X1900941Y626265D01*
X1900889Y626223D01*
X1900842Y626176D01*
X1885905Y613231D01*
X1885852Y613190D01*
X1885803Y613145D01*
X1885643Y613032D01*
X1885487Y612914D01*
X1885430Y612881D01*
X1885375Y612842D01*
X1868525Y602510D01*
X1868466Y602479D01*
X1868411Y602442D01*
X1868234Y602357D01*
X1868061Y602266D01*
X1867999Y602243D01*
X1867939Y602213D01*
X1849627Y594771D01*
X1849564Y594750D01*
X1849504Y594723D01*
X1849315Y594668D01*
X1849130Y594606D01*
X1849064Y594593D01*
X1849001Y594575D01*
X1829720Y590223D01*
X1829654Y590212D01*
X1829590Y590196D01*
X1829396Y590172D01*
X1829202Y590141D01*
X1829135Y590139D01*
X1829069Y590131D01*
X1809336Y588986D01*
X1809270Y588987D01*
X1809204Y588981D01*
X1809006Y588989D01*
X1808812Y588990D01*
X1808747Y589000D01*
X1808680Y589002D01*
X1789025Y591095D01*
X1788959Y591107D01*
X1788893Y591112D01*
X1788703Y591151D01*
X1788508Y591185D01*
X1788444Y591205D01*
X1788380Y591218D01*
X1769330Y596493D01*
X1769267Y596515D01*
X1769203Y596531D01*
X1769021Y596601D01*
X1768835Y596666D01*
X1768776Y596696D01*
X1768714Y596720D01*
X1750782Y605034D01*
X1750723Y605066D01*
X1750662Y605092D01*
X1750494Y605192D01*
X1750322Y605285D01*
X1750268Y605325D01*
X1750211Y605359D01*
X1733877Y616490D01*
X1733825Y616531D01*
X1733769Y616567D01*
X1733619Y616692D01*
X1733464Y616813D01*
X1733417Y616861D01*
X1733367Y616903D01*
X1719070Y630553D01*
X1719025Y630602D01*
X1718976Y630646D01*
X1718847Y630796D01*
X1718715Y630939D01*
X1718677Y630993D01*
X1718634Y631044D01*
X1706758Y646845D01*
X1706722Y646901D01*
X1706680Y646952D01*
X1706579Y647119D01*
X1706472Y647284D01*
X1706443Y647343D01*
X1706408Y647400D01*
X1697273Y664929D01*
X1697245Y664990D01*
X1697213Y665048D01*
X1697141Y665228D01*
X1697061Y665409D01*
X1697043Y665473D01*
X1697018Y665534D01*
X1690867Y684319D01*
X1690851Y684384D01*
X1690828Y684446D01*
X1690786Y684637D01*
X1690737Y684827D01*
X1690729Y684893D01*
X1690715Y684958D01*
X1687715Y704495D01*
X1687709Y704562D01*
X1687697Y704627D01*
X1687686Y704820D01*
X1687669Y705017D01*
X1687672Y705084D01*
X1687669Y705150D01*
X1687899Y724915D01*
X1687904Y724981D01*
X1687903Y725048D01*
X1687925Y725244D01*
X1687940Y725438D01*
X1687953Y725502D01*
X1687961Y725569D01*
X1691416Y745030D01*
X1691432Y745095D01*
X1691441Y745161D01*
X1691494Y745349D01*
X1691541Y745539D01*
X1691565Y745601D01*
X1691583Y745665D01*
X1698170Y764302D01*
X1698197Y764363D01*
X1698217Y764426D01*
X1698300Y764603D01*
X1698377Y764784D01*
X1698411Y764840D01*
X1698439Y764901D01*
X1707981Y782211D01*
X1708017Y782268D01*
X1708047Y782326D01*
X1708158Y782488D01*
X1708264Y782653D01*
X1708307Y782703D01*
X1708345Y782759D01*
X1720585Y798278D01*
X1720630Y798328D01*
X1720669Y798381D01*
X1720805Y798522D01*
X1720936Y798668D01*
X1720987Y798711D01*
X1721033Y798759D01*
X1728339Y805415D01*
X1728474Y805523D01*
X1728603Y805636D01*
X1728678Y805685D01*
X1728748Y805742D01*
X1728898Y805832D01*
X1729040Y805927D01*
X1729120Y805966D01*
X1729198Y806013D01*
X1729356Y806082D01*
X1729511Y806158D01*
X1729596Y806187D01*
X1729678Y806222D01*
X1729843Y806270D01*
X1730007Y806325D01*
X1730096Y806343D01*
X1730182Y806368D01*
X1730351Y806393D01*
X1730522Y806427D01*
X1730612Y806433D01*
X1730700Y806446D01*
X1730872Y806449D01*
X1731045Y806460D01*
X1904534Y806174D01*
D02*
G37*
G36*
X170353Y806169D02*
X170428Y806171D01*
X170610Y806152D01*
X170799Y806140D01*
X170875Y806124D01*
X170950Y806117D01*
X171127Y806074D01*
X171313Y806037D01*
X171387Y806012D01*
X171460Y805995D01*
X171630Y805930D01*
X171810Y805869D01*
X171880Y805834D01*
X171950Y805808D01*
X172111Y805720D01*
X172280Y805637D01*
X172344Y805594D01*
X172411Y805558D01*
X172559Y805450D01*
X172716Y805346D01*
X172774Y805294D01*
X172835Y805250D01*
X180441Y798939D01*
X180490Y798893D01*
X180542Y798853D01*
X180679Y798714D01*
X180822Y798579D01*
X180864Y798527D01*
X180910Y798480D01*
X193856Y783543D01*
X193896Y783490D01*
X193941Y783441D01*
X194055Y783281D01*
X194173Y783125D01*
X194205Y783068D01*
X194244Y783013D01*
X204577Y766163D01*
X204608Y766104D01*
X204644Y766048D01*
X204730Y765872D01*
X204821Y765699D01*
X204844Y765637D01*
X204873Y765577D01*
X212315Y747265D01*
X212336Y747202D01*
X212363Y747141D01*
X212419Y746953D01*
X212481Y746768D01*
X212493Y746702D01*
X212512Y746638D01*
X216864Y727357D01*
X216874Y727292D01*
X216891Y727227D01*
X216915Y727034D01*
X216946Y726840D01*
X216947Y726773D01*
X216956Y726707D01*
X218100Y706974D01*
X218100Y706908D01*
X218106Y706841D01*
X218098Y706644D01*
X218096Y706450D01*
X218087Y706385D01*
X218084Y706317D01*
X215991Y686663D01*
X215980Y686597D01*
X215975Y686531D01*
X215935Y686340D01*
X215902Y686146D01*
X215882Y686082D01*
X215868Y686017D01*
X210594Y666968D01*
X210572Y666905D01*
X210556Y666841D01*
X210486Y666659D01*
X210421Y666473D01*
X210391Y666414D01*
X210367Y666352D01*
X202052Y648420D01*
X202020Y648361D01*
X201994Y648300D01*
X201895Y648131D01*
X201801Y647959D01*
X201762Y647906D01*
X201728Y647848D01*
X190596Y631515D01*
X190555Y631462D01*
X190520Y631406D01*
X190394Y631257D01*
X190273Y631102D01*
X190226Y631055D01*
X190183Y631004D01*
X176534Y616708D01*
X176485Y616663D01*
X176440Y616613D01*
X176291Y616485D01*
X176148Y616353D01*
X176093Y616315D01*
X176043Y616272D01*
X160242Y604396D01*
X160185Y604359D01*
X160134Y604318D01*
X159968Y604217D01*
X159803Y604109D01*
X159743Y604081D01*
X159686Y604046D01*
X142158Y594910D01*
X142096Y594883D01*
X142039Y594851D01*
X141859Y594779D01*
X141678Y594699D01*
X141614Y594680D01*
X141552Y594656D01*
X122768Y588505D01*
X122703Y588489D01*
X122641Y588466D01*
X122449Y588424D01*
X122260Y588375D01*
X122194Y588367D01*
X122129Y588353D01*
X102592Y585352D01*
X102525Y585347D01*
X102460Y585335D01*
X102267Y585324D01*
X102069Y585307D01*
X102002Y585310D01*
X101936Y585306D01*
X82172Y585537D01*
X82106Y585542D01*
X82039Y585541D01*
X81843Y585562D01*
X81649Y585577D01*
X81585Y585591D01*
X81518Y585598D01*
X62056Y589054D01*
X61992Y589070D01*
X61926Y589079D01*
X61738Y589132D01*
X61547Y589179D01*
X61485Y589203D01*
X61421Y589221D01*
X42785Y595808D01*
X42723Y595835D01*
X42660Y595855D01*
X42483Y595938D01*
X42303Y596015D01*
X42246Y596049D01*
X42186Y596077D01*
X24875Y605619D01*
X24819Y605655D01*
X24760Y605685D01*
X24599Y605796D01*
X24434Y605902D01*
X24383Y605944D01*
X24328Y605982D01*
X8809Y618223D01*
X8759Y618268D01*
X8706Y618307D01*
X8565Y618443D01*
X8419Y618574D01*
X8376Y618625D01*
X8328Y618671D01*
X1672Y625976D01*
X1564Y626111D01*
X1451Y626241D01*
X1401Y626315D01*
X1345Y626386D01*
X1255Y626535D01*
X1160Y626678D01*
X1121Y626758D01*
X1074Y626835D01*
X1005Y626994D01*
X929Y627148D01*
X900Y627234D01*
X864Y627316D01*
X816Y627481D01*
X761Y627645D01*
X744Y627734D01*
X719Y627820D01*
X693Y627989D01*
X660Y628160D01*
X654Y628250D01*
X641Y628338D01*
X637Y628510D01*
X626Y628683D01*
X913Y802172D01*
X930Y802423D01*
X947Y802689D01*
X948Y802692D01*
X948Y802695D01*
X999Y802948D01*
X1049Y803203D01*
X1050Y803206D01*
X1051Y803209D01*
X1140Y803469D01*
X1218Y803699D01*
X1219Y803702D01*
X1220Y803706D01*
X1339Y803945D01*
X1450Y804170D01*
X1452Y804173D01*
X1453Y804175D01*
X1597Y804389D01*
X1741Y804606D01*
X1743Y804608D01*
X1745Y804611D01*
X1916Y804805D01*
X2087Y805000D01*
X2089Y805002D01*
X2091Y805005D01*
X2278Y805167D01*
X2481Y805346D01*
X2484Y805348D01*
X2486Y805350D01*
X2693Y805487D01*
X2917Y805637D01*
X2920Y805638D01*
X2923Y805640D01*
X3153Y805753D01*
X3387Y805869D01*
X3391Y805870D01*
X3393Y805871D01*
X3630Y805951D01*
X3884Y806037D01*
X3887Y806038D01*
X3890Y806039D01*
X4152Y806091D01*
X4398Y806140D01*
X4401Y806140D01*
X4405Y806141D01*
X4676Y806158D01*
X4921Y806174D01*
X170276D01*
X170353Y806169D01*
D02*
G37*
G36*
X450787Y668307D02*
X450787Y556102D01*
X338582Y556102D01*
X338583Y668307D01*
X450787Y668307D01*
D02*
G37*
G36*
X1868110Y423228D02*
X1738189D01*
Y520668D01*
X1868110D01*
Y423228D01*
D02*
G37*
G36*
X1177165Y188780D02*
X1045276D01*
Y320866D01*
X1177165D01*
Y188780D01*
D02*
G37*
G36*
X1814445Y250089D02*
X1814446D01*
X1814446Y250089D01*
X1830040Y249295D01*
X1830041D01*
X1830042Y249295D01*
X1830044Y249295D01*
X1830281Y249267D01*
X1830562Y249234D01*
X1830564Y249234D01*
X1830565Y249234D01*
X1830565Y249234D01*
X1845928Y246422D01*
X1846185Y246357D01*
X1846433Y246295D01*
X1846436Y246294D01*
D01*
D01*
X1861304Y241512D01*
X1861544Y241417D01*
X1861789Y241320D01*
X1875913Y234647D01*
X1876130Y234527D01*
X1876369Y234394D01*
X1889508Y225944D01*
X1889741Y225772D01*
X1889927Y225634D01*
X1889929Y225633D01*
X1889929Y225632D01*
X1889930Y225632D01*
X1901855Y215553D01*
X1901855Y215552D01*
X1901856Y215552D01*
X1901858Y215550D01*
X1902026Y215388D01*
X1902233Y215189D01*
X1907494Y209415D01*
X1907595Y209288D01*
X1907711Y209156D01*
X1907765Y209076D01*
X1907821Y209005D01*
X1907905Y208866D01*
X1907906Y208865D01*
X1908002Y208720D01*
X1908045Y208632D01*
X1908091Y208556D01*
X1908156Y208408D01*
X1908234Y208250D01*
X1908265Y208158D01*
X1908301Y208076D01*
X1908347Y207919D01*
X1908403Y207753D01*
X1908421Y207658D01*
X1908446Y207572D01*
X1908471Y207411D01*
X1908505Y207239D01*
X1908511Y207143D01*
X1908525Y207053D01*
X1908528Y206889D01*
X1908539Y206716D01*
X1908542Y45296D01*
X1908531Y45127D01*
X1908528Y44958D01*
X1908514Y44866D01*
X1908508Y44773D01*
X1908475Y44606D01*
X1908450Y44439D01*
X1908424Y44350D01*
X1908406Y44258D01*
X1908352Y44099D01*
X1908304Y43935D01*
X1908267Y43849D01*
X1908237Y43762D01*
X1908163Y43611D01*
X1908095Y43455D01*
X1908046Y43375D01*
X1908005Y43291D01*
X1907912Y43152D01*
X1907824Y43006D01*
X1907765Y42932D01*
X1907714Y42855D01*
X1907603Y42729D01*
X1907497Y42596D01*
X1902244Y36831D01*
X1902032Y36627D01*
X1901869Y36470D01*
X1901867Y36468D01*
X1901867Y36467D01*
X1901866Y36467D01*
X1889958Y26398D01*
X1889768Y26258D01*
X1889540Y26089D01*
X1876428Y17649D01*
X1876427Y17648D01*
X1876426Y17648D01*
X1876424Y17646D01*
X1876227Y17537D01*
X1875969Y17393D01*
X1875966Y17392D01*
X1875966Y17392D01*
X1875965Y17392D01*
X1861874Y10724D01*
X1861873Y10723D01*
X1861872Y10723D01*
X1861870Y10722D01*
X1861675Y10645D01*
X1861386Y10530D01*
X1846541Y5742D01*
X1846294Y5681D01*
X1846036Y5615D01*
X1830695Y2792D01*
X1830416Y2759D01*
X1830178Y2731D01*
X1830175Y2731D01*
X1830175D01*
X1830174D01*
X1814601Y1920D01*
X1814343Y1923D01*
X1814081Y1927D01*
X1798534Y3141D01*
X1798534D01*
X1798533D01*
X1798530Y3141D01*
X1798306Y3173D01*
X1798015Y3215D01*
X1782753Y6435D01*
X1782460Y6517D01*
X1782251Y6575D01*
X1782248Y6576D01*
X1782248Y6576D01*
X1782247Y6577D01*
X1767539Y11744D01*
X1767539Y11745D01*
X1767538Y11745D01*
X1767535Y11746D01*
X1767322Y11836D01*
X1767056Y11950D01*
X1753138Y18982D01*
X1753138Y18983D01*
X1753137Y18983D01*
X1753134Y18984D01*
X1752870Y19140D01*
X1752686Y19249D01*
X1752684Y19250D01*
X1752683Y19251D01*
X1752682Y19252D01*
X1739793Y28028D01*
X1739579Y28196D01*
X1739383Y28349D01*
X1739380Y28351D01*
X1739380D01*
D01*
X1733560Y33537D01*
X1733480Y33618D01*
X1733395Y33692D01*
X1733393Y33694D01*
X1733392Y33695D01*
X1733295Y33805D01*
X1733192Y33910D01*
X1733124Y34001D01*
X1733049Y34086D01*
X1733047Y34088D01*
X1733046Y34089D01*
X1732965Y34211D01*
X1732876Y34329D01*
X1732820Y34427D01*
X1732757Y34521D01*
X1732756Y34523D01*
X1732755Y34525D01*
X1732690Y34657D01*
X1732617Y34785D01*
X1732575Y34890D01*
X1732525Y34991D01*
X1732524Y34993D01*
X1732523Y34996D01*
X1732475Y35136D01*
X1732420Y35271D01*
X1732392Y35380D01*
X1732355Y35488D01*
X1732355Y35490D01*
X1732354Y35492D01*
X1732326Y35636D01*
X1732289Y35779D01*
X1732275Y35891D01*
X1732253Y36002D01*
X1732252Y36004D01*
X1732252Y36006D01*
X1732242Y36154D01*
X1732224Y36299D01*
X1732225Y36411D01*
X1732218Y36525D01*
X1732009Y215288D01*
X1732016Y215401D01*
X1732015Y215514D01*
X1732033Y215662D01*
X1732043Y215811D01*
X1732065Y215922D01*
X1732078Y216034D01*
X1732115Y216178D01*
X1732145Y216326D01*
X1732181Y216433D01*
X1732209Y216542D01*
X1732264Y216680D01*
X1732312Y216822D01*
X1732362Y216924D01*
X1732405Y217029D01*
X1732478Y217160D01*
X1732544Y217293D01*
X1732606Y217386D01*
X1732662Y217485D01*
X1732752Y217605D01*
X1732835Y217729D01*
X1732909Y217814D01*
X1732977Y217905D01*
X1733081Y218011D01*
X1733180Y218124D01*
X1733265Y218198D01*
X1733344Y218279D01*
X1739163Y223489D01*
X1739410Y223682D01*
X1739574Y223810D01*
X1739575Y223812D01*
X1739576Y223812D01*
X1739577Y223813D01*
X1752466Y232631D01*
X1752707Y232773D01*
X1752915Y232897D01*
X1766844Y239969D01*
X1767097Y240077D01*
X1767323Y240174D01*
X1782052Y245379D01*
X1782299Y245448D01*
X1782554Y245520D01*
X1797833Y248769D01*
X1798092Y248806D01*
X1798349Y248844D01*
X1813918Y250081D01*
X1813918Y250081D01*
X1813919D01*
X1813921Y250081D01*
X1814197Y250085D01*
X1814443Y250089D01*
X1814445Y250089D01*
D02*
G37*
G36*
X86150Y248191D02*
X86231Y248194D01*
X106859Y247653D01*
X106941Y247646D01*
X107023Y247646D01*
X107202Y247622D01*
X107382Y247605D01*
X107461Y247587D01*
X107542Y247577D01*
X127775Y243521D01*
X127853Y243500D01*
X127934Y243485D01*
X128108Y243431D01*
X128281Y243384D01*
X128356Y243353D01*
X128435Y243328D01*
X147677Y235877D01*
X147751Y235843D01*
X147828Y235815D01*
X147989Y235732D01*
X148153Y235656D01*
X148222Y235612D01*
X148294Y235575D01*
X165982Y224946D01*
X166048Y224900D01*
X166120Y224859D01*
X166266Y224750D01*
X166413Y224648D01*
X166473Y224593D01*
X166538Y224543D01*
X182151Y211050D01*
X182209Y210993D01*
X182272Y210941D01*
X182396Y210809D01*
X182524Y210682D01*
X182574Y210618D01*
X182630Y210558D01*
X195709Y194597D01*
X195756Y194531D01*
X195810Y194469D01*
X195909Y194318D01*
X196014Y194171D01*
X196053Y194099D01*
X196097Y194030D01*
X206258Y176070D01*
X206294Y175997D01*
X206336Y175927D01*
X206408Y175761D01*
X206486Y175598D01*
X206512Y175521D01*
X206544Y175446D01*
X213489Y156014D01*
X213511Y155936D01*
X213541Y155859D01*
X213583Y155683D01*
X213632Y155510D01*
X213644Y155430D01*
X213664Y155350D01*
X217188Y135018D01*
X217196Y134936D01*
X217212Y134856D01*
X217224Y134677D01*
X217243Y134496D01*
X217241Y134415D01*
X217247Y134333D01*
X217247Y113698D01*
X217241Y113617D01*
X217243Y113535D01*
X217224Y113355D01*
X217212Y113175D01*
X217196Y113095D01*
X217188Y113013D01*
X213664Y92682D01*
X213645Y92603D01*
X213633Y92521D01*
X213583Y92347D01*
X213541Y92172D01*
X213511Y92096D01*
X213489Y92017D01*
X206544Y72586D01*
X206512Y72510D01*
X206486Y72433D01*
X206408Y72270D01*
X206336Y72105D01*
X206294Y72035D01*
X206258Y71961D01*
X196097Y54001D01*
X196053Y53933D01*
X196014Y53860D01*
X195908Y53712D01*
X195810Y53562D01*
X195757Y53501D01*
X195709Y53434D01*
X182630Y37473D01*
X182574Y37413D01*
X182524Y37349D01*
X182396Y37222D01*
X182272Y37090D01*
X182209Y37038D01*
X182151Y36981D01*
X166538Y23488D01*
X166473Y23439D01*
X166413Y23384D01*
X166263Y23280D01*
X166120Y23172D01*
X166049Y23132D01*
X165982Y23085D01*
X148294Y12457D01*
X148221Y12419D01*
X148153Y12375D01*
X147990Y12300D01*
X147828Y12216D01*
X147751Y12188D01*
X147677Y12154D01*
X128434Y4703D01*
X128356Y4678D01*
X128281Y4647D01*
X128107Y4600D01*
X127934Y4546D01*
X127853Y4532D01*
X127775Y4511D01*
X107542Y455D01*
X107461Y444D01*
X107382Y426D01*
X107202Y409D01*
X107023Y386D01*
X106941Y385D01*
X106859Y378D01*
X86231Y-163D01*
X86150Y-160D01*
X86068Y-164D01*
X85888Y-150D01*
X85707Y-143D01*
X85627Y-129D01*
X85546Y-122D01*
X65128Y2868D01*
X65049Y2885D01*
X64967Y2894D01*
X64793Y2939D01*
X64615Y2977D01*
X64538Y3005D01*
X64459Y3025D01*
X44852Y9458D01*
X44777Y9488D01*
X44698Y9512D01*
X44533Y9586D01*
X44366Y9653D01*
X44295Y9693D01*
X44220Y9727D01*
X26000Y19414D01*
X25930Y19457D01*
X25858Y19493D01*
X25709Y19594D01*
X25554Y19689D01*
X25491Y19741D01*
X25423Y19787D01*
X9125Y32443D01*
X9064Y32497D01*
X8998Y32546D01*
X8868Y32671D01*
X8733Y32791D01*
X8680Y32852D01*
X8620Y32909D01*
X1672Y40536D01*
X1566Y40669D01*
X1455Y40795D01*
X1403Y40873D01*
X1345Y40946D01*
X1257Y41092D01*
X1163Y41231D01*
X1122Y41315D01*
X1074Y41395D01*
X1006Y41550D01*
X931Y41702D01*
X901Y41790D01*
X864Y41876D01*
X817Y42038D01*
X763Y42198D01*
X745Y42290D01*
X719Y42379D01*
X694Y42546D01*
X660Y42713D01*
X654Y42806D01*
X640Y42898D01*
X637Y43067D01*
X626Y43236D01*
X626Y43237D01*
Y204796D01*
X637Y204964D01*
X641Y205134D01*
X654Y205226D01*
X661Y205319D01*
X694Y205485D01*
X719Y205652D01*
X745Y205741D01*
X763Y205833D01*
X817Y205993D01*
X864Y206156D01*
X902Y206242D01*
X931Y206330D01*
X1006Y206482D01*
X1074Y206636D01*
X1122Y206716D01*
X1163Y206800D01*
X1257Y206940D01*
X1345Y207085D01*
X1403Y207159D01*
X1455Y207236D01*
X1566Y207363D01*
X1672Y207495D01*
X8620Y215122D01*
X8679Y215178D01*
X8733Y215240D01*
X8869Y215361D01*
X8998Y215486D01*
X9064Y215534D01*
X9125Y215588D01*
X25423Y228244D01*
X25491Y228290D01*
X25554Y228342D01*
X25709Y228437D01*
X25858Y228538D01*
X25931Y228575D01*
X26000Y228618D01*
X44221Y238304D01*
X44295Y238338D01*
X44366Y238378D01*
X44535Y238446D01*
X44699Y238520D01*
X44777Y238543D01*
X44853Y238574D01*
X64459Y245006D01*
X64539Y245027D01*
X64615Y245054D01*
X64792Y245092D01*
X64967Y245137D01*
X65049Y245147D01*
X65128Y245164D01*
X85546Y248154D01*
X85627Y248160D01*
X85708Y248174D01*
X85888Y248181D01*
X86068Y248195D01*
X86150Y248191D01*
D02*
G37*
D74*
X1784055Y384998D02*
D03*
X1845866D02*
D03*
X552559Y187008D02*
D03*
X490748D02*
D03*
X1473819Y464567D02*
D03*
X1412008D02*
D03*
X749409Y413386D02*
D03*
X687598D02*
D03*
X481890Y382874D02*
D03*
X543701D02*
D03*
X966929Y414370D02*
D03*
X905118D02*
D03*
D75*
X1477362Y519685D02*
D03*
X1402559D02*
D03*
X1439961Y602362D02*
D03*
X1228346Y470473D02*
D03*
X1153543D02*
D03*
X1190945Y553150D02*
D03*
X755905Y470473D02*
D03*
X681102D02*
D03*
X718504Y553150D02*
D03*
X549212Y440945D02*
D03*
X474409D02*
D03*
X511811Y523622D02*
D03*
D76*
X767717Y193898D02*
D03*
Y268701D02*
D03*
X850394Y231299D02*
D03*
D77*
X1309055Y578740D02*
D03*
Y696850D02*
D03*
X1072835D02*
D03*
Y578740D02*
D03*
X836614D02*
D03*
Y696850D02*
D03*
X600394D02*
D03*
Y578740D02*
D03*
X954724Y224410D02*
D03*
Y342520D02*
D03*
D78*
X194882Y259449D02*
D03*
Y321260D02*
D03*
X1095472Y441043D02*
D03*
Y502854D02*
D03*
X674213Y200394D02*
D03*
Y262205D02*
D03*
X1405512Y754331D02*
D03*
Y692520D02*
D03*
X1171260Y689567D02*
D03*
Y751378D02*
D03*
X934055D02*
D03*
Y689567D02*
D03*
X697835Y690551D02*
D03*
Y752362D02*
D03*
D79*
X1284449Y282071D02*
D03*
Y345882D02*
D03*
D80*
X1402575Y410433D02*
D03*
X1338764D02*
D03*
X1402575Y353346D02*
D03*
X1338764D02*
D03*
X266323Y159449D02*
D03*
X330134D02*
D03*
D81*
X953740Y512008D02*
D03*
D82*
Y612008D02*
D03*
D83*
X79724Y384252D02*
D03*
D84*
Y334252D02*
D03*
D85*
X1187992Y112205D02*
D03*
D86*
X1309055Y863779D02*
D03*
X1210630D02*
D03*
X1131890D02*
D03*
X1033465D02*
D03*
D87*
X1423228Y838583D02*
D03*
X919291D02*
D03*
X889764Y1053543D02*
D03*
X1452756D02*
D03*
D88*
X583858Y93366D02*
D03*
X533858D02*
D03*
X483858D02*
D03*
D89*
X433858D02*
D03*
D90*
X448819Y1138780D02*
D03*
X791339D02*
D03*
D91*
X478346Y1019685D02*
D03*
X761811D02*
D03*
D92*
X1820866Y124016D02*
D03*
Y714567D02*
D03*
X88583Y124016D02*
D03*
Y714567D02*
D03*
D93*
X1187992Y112205D02*
D03*
X1242187Y349426D02*
D03*
D94*
X847441Y434055D02*
D03*
X1579926Y692913D02*
D03*
X1631398Y753052D02*
D03*
D95*
X1745669Y115158D02*
D03*
Y140748D02*
D03*
%TF.MD5,59322fc939f8ae0bbd23f6d5118f3258*%
M02*
