%TF.GenerationSoftware,Altium Limited,Altium Designer,19.0.11 (319)*%
G04 Layer_Color=65535*
%FSLAX26Y26*%
%MOIN*%
%TF.FileFunction,Legend,Top*%
%TF.Part,Single*%
G01*
G75*
%TA.AperFunction,NonConductor*%
%ADD70C,0.007874*%
%ADD71C,0.003000*%
%ADD72C,0.004000*%
%ADD73C,0.005906*%
%ADD74C,0.005000*%
%ADD75C,0.004331*%
%ADD99C,0.000000*%
%ADD100C,0.011811*%
%ADD101C,0.005118*%
%ADD102C,0.003300*%
%ADD103C,0.003543*%
%ADD104C,0.008000*%
%ADD105C,0.001968*%
%ADD106C,0.003150*%
%ADD107C,0.010000*%
%ADD108C,0.004016*%
%ADD109C,0.002000*%
%ADD110C,0.002756*%
%ADD111C,0.006000*%
%ADD112C,0.003228*%
%ADD113C,0.001181*%
%ADD114C,0.004724*%
%ADD115R,0.007874X0.017716*%
%ADD116R,0.039370X0.019685*%
G36*
X488189Y839567D02*
X482284D01*
Y865158D01*
X488189D01*
Y839567D01*
D02*
G37*
G36*
X1488222Y556102D02*
Y540354D01*
X1452789D01*
Y556102D01*
X1488222D01*
D02*
G37*
D70*
X1630906Y357839D02*
G03*
X1630906Y357839I-3937J0D01*
G01*
X834055Y783779D02*
Y1170866D01*
X1509055Y783779D02*
Y1170866D01*
X834055Y783779D02*
X1509055D01*
X439961Y182087D02*
X634842D01*
X439961D02*
Y390748D01*
X634842D01*
Y182087D02*
Y390748D01*
D71*
X607787Y813937D02*
Y943937D01*
Y813937D02*
X793787D01*
Y943937D01*
X607787D02*
X793787D01*
X1357787Y756929D02*
X1543787D01*
Y626929D02*
Y756929D01*
X1357787Y626929D02*
X1543787D01*
X1357787D02*
Y756929D01*
X1265730Y425197D02*
X1312974D01*
X1265730Y322835D02*
Y425197D01*
Y322835D02*
X1312974D01*
Y425197D01*
X1325787Y313976D02*
X1428150D01*
X1325787D02*
Y361221D01*
X1428150D01*
Y313976D02*
Y361221D01*
X1197835Y37409D02*
Y84653D01*
X1095472D02*
X1197835D01*
X1095472Y37409D02*
Y84653D01*
Y37409D02*
X1197835D01*
X843504Y189961D02*
Y292323D01*
X796260Y189961D02*
X843504D01*
X796260D02*
Y292323D01*
X843504D01*
X1061024Y419291D02*
Y466535D01*
Y419291D02*
X1163386D01*
Y466535D01*
X1061024D02*
X1163386D01*
X177165Y564961D02*
X279528D01*
X177165D02*
Y612205D01*
X279528D01*
Y564961D02*
Y612205D01*
X232284Y629331D02*
X279527D01*
Y731693D01*
X232284D02*
X279527D01*
X232284Y629331D02*
Y731693D01*
X250984Y742126D02*
X353346D01*
X250984D02*
Y789370D01*
X353346D01*
Y742126D02*
Y789370D01*
X207284Y456658D02*
Y503901D01*
Y456658D02*
X309646D01*
Y503901D01*
X207284D02*
X309646D01*
X177165Y558053D02*
X279528D01*
Y510809D02*
Y558053D01*
X177165Y510809D02*
X279528D01*
X177165D02*
Y558053D01*
X1376968Y457619D02*
X1424213D01*
Y559981D01*
X1376968D02*
X1424213D01*
X1376968Y457619D02*
Y559981D01*
X1324803Y449803D02*
X1427165D01*
Y402559D02*
Y449803D01*
X1324803Y402559D02*
X1427165D01*
X1324803D02*
Y449803D01*
X1711614Y375156D02*
Y422400D01*
X1609252D02*
X1711614D01*
X1609252Y375156D02*
Y422400D01*
Y375156D02*
X1711614D01*
X1521654Y300787D02*
Y403150D01*
X1568898D01*
Y300787D02*
Y403150D01*
X1521654Y300787D02*
X1568898D01*
X1742126Y254921D02*
Y361221D01*
X1793307D01*
Y254921D02*
Y361221D01*
X1742126Y254921D02*
X1793307D01*
X556102Y534842D02*
Y641142D01*
X504921Y534842D02*
X556102D01*
X504921D02*
Y641142D01*
X556102D01*
X363189Y792323D02*
X469488D01*
Y741142D02*
Y792323D01*
X363189Y741142D02*
X469488D01*
X363189D02*
Y792323D01*
X891732Y606299D02*
Y712598D01*
X840551Y606299D02*
X891732D01*
X840551D02*
Y712598D01*
X891732D01*
X552165Y673228D02*
Y779528D01*
X500984Y673228D02*
X552165D01*
X500984D02*
Y779528D01*
X552165D01*
X1588583Y605315D02*
X1694882D01*
X1588583D02*
Y656496D01*
X1694882D01*
Y605315D02*
Y656496D01*
X1858268Y265517D02*
Y371816D01*
X1807087Y265517D02*
X1858268D01*
X1807087D02*
Y371816D01*
X1858268D01*
X695866Y26378D02*
Y132677D01*
X747047D01*
Y26378D02*
Y132677D01*
X695866Y26378D02*
X747047D01*
X975212Y29921D02*
Y136221D01*
X924030Y29921D02*
X975212D01*
X924030D02*
Y136221D01*
X975212D01*
X565945Y761811D02*
X672244D01*
Y710630D02*
Y761811D01*
X565945Y710630D02*
X672244D01*
X565945D02*
Y761811D01*
X387863Y63366D02*
X401192D01*
X403858Y66032D01*
Y71364D01*
X401192Y74029D01*
X387863D01*
X403858Y79361D02*
X393195D01*
X387863Y84692D01*
X393195Y90024D01*
X403858D01*
X395861D01*
Y79361D01*
X403858Y95356D02*
X387863D01*
Y103353D01*
X390529Y106019D01*
X395861D01*
X398527Y103353D01*
Y95356D01*
Y100687D02*
X403858Y106019D01*
X387863Y111350D02*
Y122014D01*
Y116682D01*
X403858D01*
X418858Y154111D02*
X420858Y156110D01*
X424856D01*
X426856Y154111D01*
Y152112D01*
X424856Y150112D01*
X422857D01*
X424856D01*
X426856Y148113D01*
Y146113D01*
X424856Y144114D01*
X420858D01*
X418858Y146113D01*
X430854Y156110D02*
Y148113D01*
X434853Y144114D01*
X438852Y148113D01*
Y156110D01*
X442851Y154111D02*
X444850Y156110D01*
X448849D01*
X450848Y154111D01*
Y152112D01*
X448849Y150112D01*
X446849D01*
X448849D01*
X450848Y148113D01*
Y146113D01*
X448849Y144114D01*
X444850D01*
X442851Y146113D01*
X473858Y156110D02*
X481856D01*
X477857D01*
Y144114D01*
X485854Y152112D02*
X493852Y144114D01*
X489853Y148113D01*
X493852Y152112D01*
X485854Y144114D01*
X523858D02*
Y156110D01*
X529856D01*
X531856Y154111D01*
Y150112D01*
X529856Y148113D01*
X523858D01*
X527857D02*
X531856Y144114D01*
X535854Y152112D02*
X543852Y144114D01*
X539853Y148113D01*
X543852Y152112D01*
X535854Y144114D01*
X576856Y154111D02*
X574856Y156110D01*
X570858D01*
X568858Y154111D01*
Y146113D01*
X570858Y144114D01*
X574856D01*
X576856Y146113D01*
Y150112D01*
X572857D01*
X580854Y144114D02*
Y156110D01*
X588852Y144114D01*
Y156110D01*
X592851D02*
Y144114D01*
X598849D01*
X600848Y146113D01*
Y154111D01*
X598849Y156110D01*
X592851D01*
D72*
X1595087Y581835D02*
G03*
X1619087Y581835I12000J0D01*
G01*
X481425Y690945D02*
G03*
X481425Y690945I-8000J0D01*
G01*
X1656496Y62008D02*
Y180118D01*
X1380906D02*
X1656496D01*
X1380906Y62008D02*
Y180118D01*
Y62008D02*
X1656496D01*
X1619087Y581835D02*
X1624087D01*
X1595087D02*
X1619087D01*
X1590087D02*
X1595087D01*
X1575087Y462835D02*
X1639087D01*
X32480Y409252D02*
X126969D01*
Y359252D02*
Y409252D01*
X32480Y359252D02*
X126969D01*
X32480D02*
Y409252D01*
X126969Y309055D02*
Y341811D01*
X32480Y309055D02*
Y342323D01*
Y309055D02*
X126969D01*
X760598Y22614D02*
X913598D01*
Y150614D01*
X760598D02*
X913598D01*
X760598Y22614D02*
Y150614D01*
X408858Y123366D02*
X458858D01*
X408858Y63366D02*
Y123366D01*
Y63366D02*
X608858D01*
Y123366D01*
X408858D02*
X608858D01*
X458858Y63366D02*
Y123366D01*
X508858Y63366D02*
Y123366D01*
X558858Y63366D02*
Y123366D01*
X1038617Y603346D02*
X1023622D01*
Y595849D01*
X1026121Y593350D01*
X1028620D01*
X1031120Y595849D01*
Y603346D01*
Y595849D01*
X1033619Y593350D01*
X1036118D01*
X1038617Y595849D01*
Y603346D01*
X1033619Y585852D02*
Y580854D01*
X1031120Y578355D01*
X1023622D01*
Y585852D01*
X1026121Y588351D01*
X1028620Y585852D01*
Y578355D01*
X1036118Y570857D02*
X1033619D01*
Y573356D01*
Y568358D01*
Y570857D01*
X1026121D01*
X1023622Y568358D01*
X1036118Y558361D02*
X1033619D01*
Y560860D01*
Y555862D01*
Y558361D01*
X1026121D01*
X1023622Y555862D01*
Y540866D02*
Y545865D01*
X1026121Y548364D01*
X1031120D01*
X1033619Y545865D01*
Y540866D01*
X1031120Y538367D01*
X1028620D01*
Y548364D01*
X1033619Y533369D02*
X1023622D01*
X1028620D01*
X1031120Y530870D01*
X1033619Y528370D01*
Y525871D01*
Y518374D02*
X1026121D01*
X1023622Y515875D01*
Y508377D01*
X1021123D01*
X1018624Y510876D01*
Y513375D01*
X1023622Y508377D02*
X1033619D01*
D73*
X1724409Y393701D02*
Y551181D01*
X1881890Y393701D02*
Y551181D01*
X1870079D02*
X1881890D01*
X1870079Y393701D02*
X1881890D01*
X1724409Y551181D02*
X1736220D01*
X1724409Y393701D02*
X1736220D01*
X302945Y404992D02*
Y421260D01*
X290744D01*
Y413126D01*
Y421260D01*
X278543D01*
Y396858D02*
X302945D01*
Y384658D01*
X298878Y380591D01*
X290744D01*
X286677Y384658D01*
Y396858D01*
Y388724D02*
X278543Y380591D01*
X302945Y360256D02*
Y368390D01*
X298878Y372457D01*
X282610D01*
X278543Y368390D01*
Y360256D01*
X282610Y356189D01*
X298878D01*
X302945Y360256D01*
X298878Y331788D02*
X302945Y335854D01*
Y343988D01*
X298878Y348055D01*
X294811D01*
X290744Y343988D01*
Y335854D01*
X286677Y331788D01*
X282610D01*
X278543Y335854D01*
Y343988D01*
X282610Y348055D01*
X302945Y323654D02*
Y307386D01*
Y315520D01*
X278543D01*
X302945Y282985D02*
Y299252D01*
X290744D01*
X294811Y291118D01*
Y287051D01*
X290744Y282985D01*
X282610D01*
X278543Y287051D01*
Y295185D01*
X282610Y299252D01*
X298878Y274851D02*
X302945Y270784D01*
Y262650D01*
X298878Y258583D01*
X282610D01*
X278543Y262650D01*
Y270784D01*
X282610Y274851D01*
X298878D01*
Y250449D02*
X302945Y246382D01*
Y238249D01*
X298878Y234182D01*
X282610D01*
X278543Y238249D01*
Y246382D01*
X282610Y250449D01*
X298878D01*
Y226048D02*
X302945Y221981D01*
Y213847D01*
X298878Y209780D01*
X282610D01*
X278543Y213847D01*
Y221981D01*
X282610Y226048D01*
X298878D01*
X278543Y177245D02*
Y169111D01*
Y173178D01*
X302945D01*
X298878Y177245D01*
X278543Y156910D02*
X282610D01*
Y152843D01*
X278543D01*
Y156910D01*
X298878Y136576D02*
X302945Y132509D01*
Y124375D01*
X298878Y120308D01*
X294811D01*
X290744Y124375D01*
Y128442D01*
Y124375D01*
X286677Y120308D01*
X282610D01*
X278543Y124375D01*
Y132509D01*
X282610Y136576D01*
X302945Y112174D02*
X278543D01*
Y99973D01*
X282610Y95906D01*
X286677D01*
X290744Y99973D01*
Y112174D01*
Y99973D01*
X294811Y95906D01*
X298878D01*
X302945Y99973D01*
Y112174D01*
X278543Y75572D02*
Y83706D01*
X282610Y87773D01*
X290744D01*
X294811Y83706D01*
Y75572D01*
X290744Y71505D01*
X286677D01*
Y87773D01*
X298878Y59304D02*
X294811D01*
Y63371D01*
Y55237D01*
Y59304D01*
X282610D01*
X278543Y55237D01*
X294811Y38970D02*
Y30836D01*
X290744Y26769D01*
X278543D01*
Y38970D01*
X282610Y43036D01*
X286677Y38970D01*
Y26769D01*
D74*
X620717Y211614D02*
G03*
X620717Y211614I-12450J0D01*
G01*
X617071D02*
G03*
X617071Y211614I-8803J0D01*
G01*
X613835D02*
G03*
X613835Y211614I-5568J0D01*
G01*
X612205D02*
G03*
X612205Y211614I-3937J0D01*
G01*
Y215551D02*
G03*
X612205Y215551I-3937J0D01*
G01*
X687937Y184055D02*
G03*
X687937Y184055I-8803J0D01*
G01*
X679134D02*
G03*
X679134Y184055I-3937J0D01*
G01*
X683071D02*
G03*
X683071Y184055I-3937J0D01*
G01*
X763985Y22614D02*
G03*
X763985Y22614I-3387J0D01*
G01*
X834055Y1170866D02*
X1509055D01*
X1278543Y510827D02*
Y558071D01*
X1355315Y510827D02*
Y558071D01*
X315945Y690945D02*
X330512D01*
X315945Y676378D02*
Y690945D01*
Y533465D02*
Y548032D01*
Y533465D02*
X330512D01*
X458858D02*
X473425D01*
Y548032D01*
Y676378D02*
Y690945D01*
X458858D02*
X473425D01*
X679528Y823819D02*
X722047D01*
X679528Y934055D02*
X722047D01*
X1429528Y747047D02*
X1472047D01*
X1429528Y636811D02*
X1472047D01*
X772638Y477362D02*
Y674213D01*
X760827Y477362D02*
X772638D01*
X762795Y674213D02*
X772638D01*
X575787Y477362D02*
Y674213D01*
X587598D01*
X575787Y477362D02*
X585630D01*
X1255906Y496063D02*
Y692913D01*
X1244094Y496063D02*
X1255906D01*
X1246063Y692913D02*
X1255906D01*
X1059055Y496063D02*
Y692913D01*
X1070866D01*
X1059055Y496063D02*
X1068898D01*
X1507908Y486220D02*
Y610236D01*
X1433104D02*
X1507908D01*
X1433104Y486220D02*
Y610236D01*
Y486220D02*
X1507908D01*
X1783465Y299213D02*
Y316929D01*
X1751968Y299213D02*
Y316929D01*
X514764Y579134D02*
Y596850D01*
X546260Y579134D02*
Y596850D01*
X407480Y750984D02*
X425197D01*
X407480Y782480D02*
X425197D01*
X850394Y650591D02*
Y668307D01*
X881890Y650591D02*
Y668307D01*
X510827Y717520D02*
Y735236D01*
X542323Y717520D02*
Y735236D01*
X1632874Y646654D02*
X1650591D01*
X1632874Y615158D02*
X1650591D01*
X1816929Y309808D02*
Y327525D01*
X1848425Y309808D02*
Y327525D01*
X737205Y70669D02*
Y88386D01*
X705709Y70669D02*
Y88386D01*
X933873Y74213D02*
Y91929D01*
X965369Y74213D02*
Y91929D01*
X610236Y720472D02*
X627953D01*
X610236Y751968D02*
X627953D01*
D75*
X697501Y751645D02*
X700781Y754924D01*
Y761484D01*
X697501Y764764D01*
X684382D01*
X681102Y761484D01*
Y754924D01*
X684382Y751645D01*
X681102Y735246D02*
Y741805D01*
X684382Y745085D01*
X690942D01*
X694221Y741805D01*
Y735246D01*
X690942Y731966D01*
X687662D01*
Y745085D01*
X700781Y712288D02*
X697501Y718847D01*
X690942Y725407D01*
X684382D01*
X681102Y722127D01*
Y715567D01*
X684382Y712288D01*
X687662D01*
X690942Y715567D01*
Y725407D01*
X886811Y177159D02*
Y173879D01*
X893370Y167320D01*
X899930Y173879D01*
Y177159D01*
X893370Y167320D02*
Y157480D01*
X1731299Y581687D02*
Y565288D01*
X1734579Y562008D01*
X1741139D01*
X1744418Y565288D01*
Y581687D01*
X1750978D02*
X1764097D01*
Y578407D01*
X1750978Y565288D01*
Y562008D01*
X1277559Y604324D02*
Y587926D01*
X1280839Y584646D01*
X1287398D01*
X1290678Y587926D01*
Y604324D01*
X1310357D02*
X1303797Y601045D01*
X1297238Y594485D01*
Y587926D01*
X1300517Y584646D01*
X1307077D01*
X1310357Y587926D01*
Y591205D01*
X1307077Y594485D01*
X1297238D01*
X438976Y508852D02*
Y492453D01*
X442256Y489173D01*
X448816D01*
X452096Y492453D01*
Y508852D01*
X471774D02*
X458655D01*
Y499012D01*
X465214Y502292D01*
X468494D01*
X471774Y499012D01*
Y492453D01*
X468494Y489173D01*
X461935D01*
X458655Y492453D01*
X1605321Y275162D02*
X1621720D01*
X1625000Y278442D01*
Y285001D01*
X1621720Y288281D01*
X1605321D01*
X1625000Y304680D02*
X1605321D01*
X1615161Y294841D01*
Y307960D01*
X1540354Y600387D02*
Y583989D01*
X1543634Y580709D01*
X1550194D01*
X1553473Y583989D01*
Y600387D01*
X1560033Y597108D02*
X1563313Y600387D01*
X1569872D01*
X1573152Y597108D01*
Y593828D01*
X1569872Y590548D01*
X1566592D01*
X1569872D01*
X1573152Y587268D01*
Y583989D01*
X1569872Y580709D01*
X1563313D01*
X1560033Y583989D01*
X439961Y423222D02*
Y406823D01*
X443240Y403543D01*
X449800D01*
X453080Y406823D01*
Y423222D01*
X472758Y403543D02*
X459639D01*
X472758Y416662D01*
Y419942D01*
X469479Y423222D01*
X462919D01*
X459639Y419942D01*
X1023622Y398616D02*
Y382217D01*
X1026902Y378937D01*
X1033461D01*
X1036741Y382217D01*
Y398616D01*
X1043301Y378937D02*
X1049860D01*
X1046580D01*
Y398616D01*
X1043301Y395336D01*
X1442913Y460630D02*
Y480308D01*
X1452753D01*
X1456033Y477029D01*
Y470469D01*
X1452753Y467189D01*
X1442913D01*
X1449473D02*
X1456033Y460630D01*
X1475711Y473749D02*
X1465872D01*
X1462592Y470469D01*
Y463910D01*
X1465872Y460630D01*
X1475711D01*
X1495390Y477029D02*
X1492110Y480308D01*
X1485550D01*
X1482271Y477029D01*
Y473749D01*
X1485550Y470469D01*
X1492110D01*
X1495390Y467189D01*
Y463910D01*
X1492110Y460630D01*
X1485550D01*
X1482271Y463910D01*
X1521654Y414370D02*
Y434049D01*
X1531493D01*
X1534773Y430769D01*
Y424209D01*
X1531493Y420930D01*
X1521654D01*
X1528213D02*
X1534773Y414370D01*
X1541332Y407811D02*
Y427489D01*
X1551172D01*
X1554451Y424209D01*
Y417650D01*
X1551172Y414370D01*
X1541332D01*
X1574130D02*
X1561011D01*
X1574130Y427489D01*
Y430769D01*
X1570850Y434049D01*
X1564291D01*
X1561011Y430769D01*
X1609252Y433227D02*
Y452906D01*
X1619091D01*
X1622371Y449626D01*
Y443066D01*
X1619091Y439786D01*
X1609252D01*
X1615812D02*
X1622371Y433227D01*
X1628931Y426668D02*
Y446346D01*
X1638770D01*
X1642050Y443066D01*
Y436507D01*
X1638770Y433227D01*
X1628931D01*
X1648609D02*
X1655169D01*
X1651889D01*
Y452906D01*
X1648609Y449626D01*
X1435039Y448819D02*
X1454718D01*
Y438980D01*
X1451438Y435700D01*
X1444879D01*
X1441599Y438980D01*
Y448819D01*
Y442259D02*
X1435039Y435700D01*
Y425861D02*
X1451438D01*
X1444879D01*
Y429140D01*
Y422581D01*
Y425861D01*
X1451438D01*
X1454718Y422581D01*
X1435039Y399622D02*
Y412741D01*
X1448159Y399622D01*
X1451438D01*
X1454718Y402902D01*
Y409462D01*
X1451438Y412741D01*
X1380906Y566853D02*
Y586532D01*
X1390745D01*
X1394025Y583252D01*
Y576693D01*
X1390745Y573413D01*
X1380906D01*
X1387465D02*
X1394025Y566853D01*
X1403864D02*
Y583252D01*
Y576693D01*
X1400584D01*
X1407144D01*
X1403864D01*
Y583252D01*
X1407144Y586532D01*
X1416983Y566853D02*
X1423543D01*
X1420263D01*
Y586532D01*
X1416983Y583252D01*
X1171260Y469488D02*
X1190938D01*
Y459649D01*
X1187659Y456369D01*
X1181099D01*
X1177819Y459649D01*
Y469488D01*
Y462929D02*
X1171260Y456369D01*
X1184379Y446530D02*
Y439970D01*
X1181099Y436690D01*
X1171260D01*
Y446530D01*
X1174540Y449810D01*
X1177819Y446530D01*
Y436690D01*
X1190938Y417012D02*
Y430131D01*
X1181099D01*
X1184379Y423572D01*
Y420292D01*
X1181099Y417012D01*
X1174540D01*
X1171260Y420292D01*
Y426851D01*
X1174540Y430131D01*
X794882Y302165D02*
Y321844D01*
X804721D01*
X808001Y318564D01*
Y312005D01*
X804721Y308725D01*
X794882D01*
X801441D02*
X808001Y302165D01*
X817840Y315284D02*
X824400D01*
X827679Y312005D01*
Y302165D01*
X817840D01*
X814560Y305445D01*
X817840Y308725D01*
X827679D01*
X847358Y302165D02*
X834239D01*
X847358Y315284D01*
Y318564D01*
X844078Y321844D01*
X837519D01*
X834239Y318564D01*
X1086614Y40354D02*
X1066936D01*
Y50194D01*
X1070215Y53473D01*
X1076775D01*
X1080055Y50194D01*
Y40354D01*
Y46914D02*
X1086614Y53473D01*
X1073495Y63313D02*
Y69872D01*
X1076775Y73152D01*
X1086614D01*
Y63313D01*
X1083334Y60033D01*
X1080055Y63313D01*
Y73152D01*
X1086614Y79712D02*
Y86271D01*
Y82991D01*
X1066936D01*
X1070215Y79712D01*
X1435039Y361221D02*
X1454718D01*
Y351381D01*
X1451438Y348101D01*
X1444879D01*
X1441599Y351381D01*
Y361221D01*
Y354661D02*
X1435039Y348101D01*
Y338262D02*
Y331703D01*
X1438319Y328423D01*
X1444879D01*
X1448159Y331703D01*
Y338262D01*
X1444879Y341542D01*
X1438319D01*
X1435039Y338262D01*
Y308744D02*
Y321863D01*
X1448159Y308744D01*
X1451438D01*
X1454718Y312024D01*
Y318584D01*
X1451438Y321863D01*
X1265730Y433071D02*
Y452750D01*
X1275570D01*
X1278849Y449470D01*
Y442910D01*
X1275570Y439630D01*
X1265730D01*
X1272290D02*
X1278849Y433071D01*
X1288689D02*
X1295248D01*
X1298528Y436351D01*
Y442910D01*
X1295248Y446190D01*
X1288689D01*
X1285409Y442910D01*
Y436351D01*
X1288689Y433071D01*
X1305088D02*
X1311647D01*
X1308367D01*
Y452750D01*
X1305088Y449470D01*
X1068898Y724403D02*
Y704724D01*
X1082017D01*
X1091856D02*
Y721123D01*
Y714564D01*
X1088576D01*
X1095136D01*
X1091856D01*
Y721123D01*
X1095136Y724403D01*
X591535Y466529D02*
Y446850D01*
X604654D01*
X621053D02*
X614494D01*
X611214Y450130D01*
Y456690D01*
X614494Y459969D01*
X621053D01*
X624333Y456690D01*
Y453410D01*
X611214D01*
X847765Y771549D02*
X841205D01*
X844485D01*
Y755150D01*
X841205Y751870D01*
X837926D01*
X834646Y755150D01*
X854324Y748590D02*
X867443D01*
X874003Y771549D02*
Y755150D01*
X877283Y751870D01*
X883842D01*
X887122Y755150D01*
Y771549D01*
X906801Y768269D02*
X903521Y771549D01*
X896961D01*
X893682Y768269D01*
Y764989D01*
X896961Y761709D01*
X903521D01*
X906801Y758429D01*
Y755150D01*
X903521Y751870D01*
X896961D01*
X893682Y755150D01*
X913360Y771549D02*
Y751870D01*
X923199D01*
X926479Y755150D01*
Y758429D01*
X923199Y761709D01*
X913360D01*
X923199D01*
X926479Y764989D01*
Y768269D01*
X923199Y771549D01*
X913360D01*
X933039Y748590D02*
X946158D01*
X952717Y751870D02*
Y764989D01*
X959277Y771549D01*
X965836Y764989D01*
Y751870D01*
Y761709D01*
X952717D01*
X419615Y963616D02*
X413056D01*
X416335D01*
Y947217D01*
X413056Y943937D01*
X409776D01*
X406496Y947217D01*
X426175Y940657D02*
X439294D01*
X445853Y943937D02*
Y963616D01*
X452413Y957056D01*
X458972Y963616D01*
Y943937D01*
X465532Y963616D02*
X472091D01*
X468812D01*
Y943937D01*
X465532D01*
X472091D01*
X495050Y960336D02*
X491770Y963616D01*
X485211D01*
X481931Y960336D01*
Y947217D01*
X485211Y943937D01*
X491770D01*
X495050Y947217D01*
X501609Y943937D02*
Y963616D01*
X511449D01*
X514729Y960336D01*
Y953776D01*
X511449Y950496D01*
X501609D01*
X508169D02*
X514729Y943937D01*
X531127Y963616D02*
X524568D01*
X521288Y960336D01*
Y947217D01*
X524568Y943937D01*
X531127D01*
X534407Y947217D01*
Y960336D01*
X531127Y963616D01*
X540967D02*
Y947217D01*
X544246Y943937D01*
X550806D01*
X554086Y947217D01*
Y963616D01*
X573764Y960336D02*
X570485Y963616D01*
X563925D01*
X560645Y960336D01*
Y957056D01*
X563925Y953776D01*
X570485D01*
X573764Y950496D01*
Y947217D01*
X570485Y943937D01*
X563925D01*
X560645Y947217D01*
X580324Y963616D02*
Y943937D01*
X590163D01*
X593443Y947217D01*
Y950496D01*
X590163Y953776D01*
X580324D01*
X590163D01*
X593443Y957056D01*
Y960336D01*
X590163Y963616D01*
X580324D01*
X44288Y300191D02*
X38384D01*
X41336D01*
Y285432D01*
X38384Y282480D01*
X35432D01*
X32480Y285432D01*
X50191Y279529D02*
X61998D01*
X79709Y300191D02*
X73805D01*
X76757D01*
Y285432D01*
X73805Y282480D01*
X70854D01*
X67902Y285432D01*
X85613Y294288D02*
Y285432D01*
X88564Y282480D01*
X97420D01*
Y294288D01*
X103323Y282480D02*
Y294288D01*
X106275D01*
X109227Y291336D01*
Y282480D01*
Y291336D01*
X112179Y294288D01*
X115131Y291336D01*
Y282480D01*
X121034Y276577D02*
Y294288D01*
X129890D01*
X132841Y291336D01*
Y285432D01*
X129890Y282480D01*
X121034D01*
X147601D02*
X141697D01*
X138745Y285432D01*
Y291336D01*
X141697Y294288D01*
X147601D01*
X150552Y291336D01*
Y288384D01*
X138745D01*
X156456Y294288D02*
Y282480D01*
Y288384D01*
X159408Y291336D01*
X162359Y294288D01*
X165311D01*
X423228Y905505D02*
Y885827D01*
X433068D01*
X436347Y889107D01*
Y902226D01*
X433068Y905505D01*
X423228D01*
X442907Y882547D02*
X456026D01*
X462586Y905505D02*
X475705D01*
Y902226D01*
X462586Y889107D01*
Y885827D01*
X475705D01*
X492103D02*
X485544D01*
X482264Y889107D01*
Y895666D01*
X485544Y898946D01*
X492103D01*
X495383Y895666D01*
Y892386D01*
X482264D01*
X501943Y885827D02*
Y898946D01*
X511782D01*
X515062Y895666D01*
Y885827D01*
X939118Y164430D02*
X935838Y167710D01*
X929279D01*
X925999Y164430D01*
Y151311D01*
X929279Y148031D01*
X935838D01*
X939118Y151311D01*
X945678Y161151D02*
Y151311D01*
X948957Y148031D01*
X958797D01*
Y144752D01*
X955517Y141472D01*
X952237D01*
X958797Y148031D02*
Y161151D01*
X978475Y148031D02*
X965356D01*
X978475Y161151D01*
Y164430D01*
X975196Y167710D01*
X968636D01*
X965356Y164430D01*
X713907Y160493D02*
X710627Y163773D01*
X704067D01*
X700788Y160493D01*
Y147374D01*
X704067Y144095D01*
X710627D01*
X713907Y147374D01*
X720466Y157214D02*
Y147374D01*
X723746Y144095D01*
X733585D01*
Y140815D01*
X730305Y137535D01*
X727026D01*
X733585Y144095D02*
Y157214D01*
X740145Y144095D02*
X746704D01*
X743424D01*
Y163773D01*
X740145Y160493D01*
X1333011Y654851D02*
X1329731Y651572D01*
Y645012D01*
X1333011Y641732D01*
X1346130D01*
X1349409Y645012D01*
Y651572D01*
X1346130Y654851D01*
X1349409Y664691D02*
X1333011D01*
X1339570D01*
Y661411D01*
Y667970D01*
Y664691D01*
X1333011D01*
X1329731Y667970D01*
X1352689Y677810D02*
Y690929D01*
X1349409Y700768D02*
Y707328D01*
X1346130Y710607D01*
X1339570D01*
X1336290Y707328D01*
Y700768D01*
X1339570Y697488D01*
X1346130D01*
X1349409Y700768D01*
X1336290Y717167D02*
X1346130D01*
X1349409Y720447D01*
Y730286D01*
X1336290D01*
X1333011Y740125D02*
X1336290D01*
Y736846D01*
Y743405D01*
Y740125D01*
X1346130D01*
X1349409Y743405D01*
X818247Y625324D02*
X814967Y622044D01*
Y615485D01*
X818247Y612205D01*
X831366D01*
X834646Y615485D01*
Y622044D01*
X831366Y625324D01*
X834646Y641723D02*
Y635163D01*
X831366Y631883D01*
X824806D01*
X821527Y635163D01*
Y641723D01*
X824806Y645002D01*
X828086D01*
Y631883D01*
X814967Y664681D02*
Y651562D01*
X824806D01*
X821527Y658121D01*
Y661401D01*
X824806Y664681D01*
X831366D01*
X834646Y661401D01*
Y654842D01*
X831366Y651562D01*
X622371Y803801D02*
X619091Y807080D01*
X612532D01*
X609252Y803801D01*
Y790681D01*
X612532Y787402D01*
X619091D01*
X622371Y790681D01*
X638770Y787402D02*
X632210D01*
X628931Y790681D01*
Y797241D01*
X632210Y800521D01*
X638770D01*
X642050Y797241D01*
Y793961D01*
X628931D01*
X648609Y787402D02*
X655169D01*
X651889D01*
Y807080D01*
X648609Y803801D01*
X1281820Y97108D02*
X1278540Y100387D01*
X1271981D01*
X1268701Y97108D01*
Y83989D01*
X1271981Y80709D01*
X1278540D01*
X1281820Y83989D01*
X1291659Y93828D02*
X1298219D01*
X1301498Y90548D01*
Y80709D01*
X1291659D01*
X1288379Y83989D01*
X1291659Y87268D01*
X1301498D01*
X1317897Y80709D02*
Y100387D01*
X1308058Y90548D01*
X1321177D01*
X1267056Y245730D02*
X1263776Y249009D01*
X1257217D01*
X1253937Y245730D01*
Y232611D01*
X1257217Y229331D01*
X1263776D01*
X1267056Y232611D01*
X1276895Y242450D02*
X1283455D01*
X1286735Y239170D01*
Y229331D01*
X1276895D01*
X1273616Y232611D01*
X1276895Y235890D01*
X1286735D01*
X1293294Y245730D02*
X1296574Y249009D01*
X1303133D01*
X1306413Y245730D01*
Y242450D01*
X1303133Y239170D01*
X1299854D01*
X1303133D01*
X1306413Y235890D01*
Y232611D01*
X1303133Y229331D01*
X1296574D01*
X1293294Y232611D01*
X1380906Y188976D02*
Y202095D01*
X1387465Y208655D01*
X1394025Y202095D01*
Y188976D01*
Y198816D01*
X1380906D01*
X1400584Y188976D02*
Y202095D01*
X1410423D01*
X1413703Y198816D01*
Y188976D01*
X1423543Y205375D02*
Y202095D01*
X1420263D01*
X1426822D01*
X1423543D01*
Y192256D01*
X1426822Y188976D01*
X1446501D02*
X1439941D01*
X1436662Y192256D01*
Y198816D01*
X1439941Y202095D01*
X1446501D01*
X1449781Y198816D01*
Y195536D01*
X1436662D01*
X1456340Y188976D02*
Y202095D01*
X1466179D01*
X1469459Y198816D01*
Y188976D01*
X1476019D02*
Y202095D01*
X1485858D01*
X1489138Y198816D01*
Y188976D01*
X1498977Y202095D02*
X1505537D01*
X1508816Y198816D01*
Y188976D01*
X1498977D01*
X1495697Y192256D01*
X1498977Y195536D01*
X1508816D01*
D99*
X1225520Y148622D02*
G03*
X1225520Y148622I-8000J0D01*
G01*
D100*
X1897638Y539370D02*
G03*
X1897638Y539370I-3937J0D01*
G01*
D101*
X1355898Y570449D02*
G03*
X1355898Y570449I-1968J0D01*
G01*
X409449Y1195866D02*
X830709D01*
X409449Y973425D02*
Y1195866D01*
Y973425D02*
X830709D01*
Y1195866D01*
D102*
X1243626Y164370D02*
G03*
X1243626Y164370I-1500J0D01*
G01*
D103*
X1257873Y337372D02*
G03*
X1257428Y336814I-15686J12055D01*
G01*
X1207775Y112205D02*
G03*
X1207775Y112205I-19783J0D01*
G01*
X877367Y435039D02*
G03*
X877367Y435039I-29927J0D01*
G01*
X1609852Y692913D02*
G03*
X1609852Y692913I-29927J0D01*
G01*
X1661324Y753052D02*
G03*
X1661324Y753052I-29927J0D01*
G01*
X1639764Y354886D02*
X1652126Y367248D01*
X1639764D02*
X1652126D01*
X1639764Y354886D02*
Y367248D01*
X1720079Y269690D02*
X1732283D01*
X1639764D02*
X1651968D01*
X1720079Y367248D02*
X1732283D01*
X168701Y510809D02*
X154926D01*
Y517697D01*
X157222Y519992D01*
X161813D01*
X164109Y517697D01*
Y510809D01*
Y515401D02*
X168701Y519992D01*
Y531472D02*
Y526880D01*
X166405Y524584D01*
X161813D01*
X159517Y526880D01*
Y531472D01*
X161813Y533768D01*
X164109D01*
Y524584D01*
X154926Y547543D02*
Y538359D01*
X161813D01*
X159517Y542951D01*
Y545247D01*
X161813Y547543D01*
X166405D01*
X168701Y545247D01*
Y540655D01*
X166405Y538359D01*
X198819Y457642D02*
X185044D01*
Y464529D01*
X187340Y466825D01*
X191931D01*
X194227Y464529D01*
Y457642D01*
Y462233D02*
X198819Y466825D01*
Y478304D02*
Y473712D01*
X196523Y471417D01*
X191931D01*
X189636Y473712D01*
Y478304D01*
X191931Y480600D01*
X194227D01*
Y471417D01*
X198819Y492079D02*
X185044D01*
X191931Y485192D01*
Y494375D01*
X308071Y722441D02*
Y736216D01*
X314958D01*
X317254Y733920D01*
Y729328D01*
X314958Y727033D01*
X308071D01*
X312663D02*
X317254Y722441D01*
X328733D02*
X324142D01*
X321846Y724737D01*
Y729328D01*
X324142Y731624D01*
X328733D01*
X331029Y729328D01*
Y727033D01*
X321846D01*
X335621Y733920D02*
X337917Y736216D01*
X342508D01*
X344804Y733920D01*
Y731624D01*
X342508Y729328D01*
X340213D01*
X342508D01*
X344804Y727033D01*
Y724737D01*
X342508Y722441D01*
X337917D01*
X335621Y724737D01*
X224409Y629331D02*
X210634D01*
Y636218D01*
X212930Y638514D01*
X217522D01*
X219818Y636218D01*
Y629331D01*
Y633922D02*
X224409Y638514D01*
Y649993D02*
Y645402D01*
X222114Y643106D01*
X217522D01*
X215226Y645402D01*
Y649993D01*
X217522Y652289D01*
X219818D01*
Y643106D01*
X224409Y666064D02*
Y656881D01*
X215226Y666064D01*
X212930D01*
X210634Y663768D01*
Y659177D01*
X212930Y656881D01*
X168701Y564961D02*
X154926D01*
Y571848D01*
X157222Y574144D01*
X161813D01*
X164109Y571848D01*
Y564961D01*
Y569552D02*
X168701Y574144D01*
Y585623D02*
Y581031D01*
X166405Y578736D01*
X161813D01*
X159517Y581031D01*
Y585623D01*
X161813Y587919D01*
X164109D01*
Y578736D01*
X168701Y592511D02*
Y597102D01*
Y594806D01*
X154926D01*
X157222Y592511D01*
X1229851Y120079D02*
X1243626D01*
Y129262D01*
X1234443Y136149D02*
Y140741D01*
X1236739Y143037D01*
X1243626D01*
Y136149D01*
X1241330Y133854D01*
X1239034Y136149D01*
Y143037D01*
X1243626Y156812D02*
Y147629D01*
X1234443Y156812D01*
X1232147D01*
X1229851Y154516D01*
Y149924D01*
X1232147Y147629D01*
X633459Y137005D02*
Y142252D01*
Y139628D01*
X620340D01*
X617716Y142252D01*
Y144876D01*
X620340Y147500D01*
X615093Y131757D02*
Y121262D01*
X633459Y116014D02*
X620340D01*
X617716Y113390D01*
Y108143D01*
X620340Y105519D01*
X633459D01*
X617716Y100271D02*
X628212D01*
X633459Y95024D01*
X628212Y89776D01*
X617716D01*
X625588D01*
Y100271D01*
X617716Y84528D02*
X633459D01*
Y76657D01*
X630836Y74033D01*
X625588D01*
X622964Y76657D01*
Y84528D01*
Y79281D02*
X617716Y74033D01*
X633459Y68785D02*
Y58290D01*
Y63538D01*
X617716D01*
X877957Y478672D02*
Y474080D01*
Y476376D01*
X889437D01*
X891732Y474080D01*
Y471784D01*
X889437Y469488D01*
X894028Y483263D02*
Y492447D01*
X877957Y497038D02*
X891732D01*
Y503926D01*
X889437Y506222D01*
X887141D01*
X884845Y503926D01*
Y497038D01*
Y503926D01*
X882549Y506222D01*
X880253D01*
X877957Y503926D01*
Y497038D01*
X882549Y513109D02*
Y517701D01*
X884845Y519997D01*
X891732D01*
Y513109D01*
X889437Y510813D01*
X887141Y513109D01*
Y519997D01*
X880253Y526884D02*
X882549D01*
Y524588D01*
Y529180D01*
Y526884D01*
X889437D01*
X891732Y529180D01*
X880253Y538363D02*
X882549D01*
Y536067D01*
Y540659D01*
Y538363D01*
X889437D01*
X891732Y540659D01*
Y554434D02*
Y549842D01*
X889437Y547547D01*
X884845D01*
X882549Y549842D01*
Y554434D01*
X884845Y556730D01*
X887141D01*
Y547547D01*
X882549Y561322D02*
X891732D01*
X887141D01*
X884845Y563617D01*
X882549Y565913D01*
Y568209D01*
Y575097D02*
X889437D01*
X891732Y577392D01*
Y584280D01*
X894028D01*
X896324Y581984D01*
Y579688D01*
X891732Y584280D02*
X882549D01*
X1568245Y629262D02*
X1565949Y626966D01*
Y622375D01*
X1568245Y620079D01*
X1577429D01*
X1579724Y622375D01*
Y626966D01*
X1577429Y629262D01*
X1584316Y638445D02*
Y640741D01*
X1582020Y643037D01*
X1570541D01*
Y636149D01*
X1572837Y633854D01*
X1577429D01*
X1579724Y636149D01*
Y643037D01*
Y647629D02*
Y652220D01*
Y649924D01*
X1565949D01*
X1568245Y647629D01*
X509183Y798881D02*
X506887Y801177D01*
X502296D01*
X500000Y798881D01*
Y789697D01*
X502296Y787402D01*
X506887D01*
X509183Y789697D01*
X520663Y787402D02*
X516071D01*
X513775Y789697D01*
Y794289D01*
X516071Y796585D01*
X520663D01*
X522958Y794289D01*
Y791993D01*
X513775D01*
X527550Y798881D02*
X529846Y801177D01*
X534438D01*
X536733Y798881D01*
Y796585D01*
X534438Y794289D01*
X532142D01*
X534438D01*
X536733Y791993D01*
Y789697D01*
X534438Y787402D01*
X529846D01*
X527550Y789697D01*
X428435Y732936D02*
X426139Y735232D01*
X421548D01*
X419252Y732936D01*
Y723753D01*
X421548Y721457D01*
X426139D01*
X428435Y723753D01*
X439914Y721457D02*
X435323D01*
X433027Y723753D01*
Y728344D01*
X435323Y730640D01*
X439914D01*
X442210Y728344D01*
Y726048D01*
X433027D01*
X455985Y721457D02*
X446802D01*
X455985Y730640D01*
Y732936D01*
X453690Y735232D01*
X449098D01*
X446802Y732936D01*
X514105Y526243D02*
X511809Y528539D01*
X507217D01*
X504921Y526243D01*
Y517060D01*
X507217Y514764D01*
X511809D01*
X514105Y517060D01*
X525584Y514764D02*
X520992D01*
X518696Y517060D01*
Y521651D01*
X520992Y523947D01*
X525584D01*
X527880Y521651D01*
Y519356D01*
X518696D01*
X539359Y514764D02*
Y528539D01*
X532471Y521651D01*
X541655D01*
D104*
X1193898Y146496D02*
X1219646Y172244D01*
X1214646Y337599D02*
Y358346D01*
X1193898D02*
X1214646D01*
X1007795D02*
X1028543D01*
X1007795Y337599D02*
Y358346D01*
Y151496D02*
Y172244D01*
Y151496D02*
X1028543D01*
D105*
X1333661Y2953D02*
Y239173D01*
Y2953D02*
X1735236D01*
X1333661Y239173D02*
X1735236D01*
Y2953D02*
Y18701D01*
Y226378D02*
Y239173D01*
D106*
X436024Y876968D02*
X502953D01*
X436024Y827756D02*
X502953D01*
X126969Y341811D02*
Y359252D01*
X1679136Y750004D02*
X1687008D01*
Y755907D01*
X1683072Y753939D01*
X1681104D01*
X1679136Y755907D01*
Y759843D01*
X1681104Y761811D01*
X1685040D01*
X1687008Y759843D01*
X1675201Y750004D02*
Y757875D01*
X1671265Y761811D01*
X1667329Y757875D01*
Y750004D01*
X1814958Y386971D02*
X1812990Y388938D01*
X1809054D01*
X1807087Y386971D01*
Y379099D01*
X1809054Y377131D01*
X1812990D01*
X1814958Y379099D01*
X1822830Y373195D02*
X1824797D01*
X1826765Y375163D01*
Y385003D01*
X1820862D01*
X1818894Y383035D01*
Y379099D01*
X1820862Y377131D01*
X1826765D01*
X1838572D02*
X1830701D01*
X1838572Y385003D01*
Y386971D01*
X1836605Y388938D01*
X1832669D01*
X1830701Y386971D01*
X1750194Y374997D02*
X1748226Y376965D01*
X1744291D01*
X1742323Y374997D01*
Y367125D01*
X1744291Y365158D01*
X1748226D01*
X1750194Y367125D01*
X1762002Y376965D02*
Y365158D01*
X1756098D01*
X1754130Y367125D01*
Y371061D01*
X1756098Y373029D01*
X1762002D01*
X1765937Y365158D02*
X1769873D01*
X1767905D01*
Y376965D01*
X1765937Y374997D01*
D107*
X903740Y562008D02*
X1003740D01*
X903740Y662008D02*
X1003740D01*
Y462008D02*
Y662008D01*
X903740Y462008D02*
X1003740D01*
X903740D02*
Y662008D01*
D108*
X126969Y330906D02*
Y359252D01*
X32480Y331417D02*
Y359764D01*
D109*
X1248032Y145669D02*
Y183071D01*
Y145669D02*
X1322835D01*
Y183071D01*
X1248032D02*
X1322835D01*
X1241142Y224409D02*
X1315945D01*
Y187008D02*
Y224409D01*
X1241142Y187008D02*
X1315945D01*
X1241142D02*
Y224409D01*
X1276575Y217520D02*
X1280512D01*
X1276575Y193898D02*
X1280512D01*
X1254921Y104331D02*
X1329725D01*
X1254921D02*
Y141732D01*
X1329725D01*
Y104331D02*
Y141732D01*
X1290354Y111221D02*
X1294291D01*
X1290354Y134843D02*
X1294291D01*
D110*
X879134Y362293D02*
X871263D01*
X875198D01*
Y374101D01*
X861423D02*
X865359D01*
X867327Y372133D01*
Y368197D01*
X865359Y366229D01*
X861423D01*
X859455Y368197D01*
Y370165D01*
X867327D01*
X855520Y374101D02*
X849616D01*
X847648Y372133D01*
X849616Y370165D01*
X853552D01*
X855520Y368197D01*
X853552Y366229D01*
X847648D01*
X841745Y364261D02*
Y366229D01*
X843712D01*
X839777D01*
X841745D01*
Y372133D01*
X839777Y374101D01*
X879134Y383076D02*
Y394883D01*
X871263D01*
X861423D02*
X865359D01*
X867327Y392915D01*
Y388980D01*
X865359Y387012D01*
X861423D01*
X859455Y388980D01*
Y390948D01*
X867327D01*
X847648Y383076D02*
Y394883D01*
X853552D01*
X855520Y392915D01*
Y388980D01*
X853552Y387012D01*
X847648D01*
X843712Y383076D02*
Y394883D01*
X835841D01*
X829937D02*
X826002D01*
X824034Y392915D01*
Y388980D01*
X826002Y387012D01*
X829937D01*
X831905Y388980D01*
Y392915D01*
X829937Y394883D01*
X816162Y398819D02*
X814194D01*
X812226Y396851D01*
Y387012D01*
X818130D01*
X820098Y388980D01*
Y392915D01*
X818130Y394883D01*
X812226D01*
X806323D02*
X802387D01*
X800419Y392915D01*
Y388980D01*
X802387Y387012D01*
X806323D01*
X808291Y388980D01*
Y392915D01*
X806323Y394883D01*
X1655645Y673316D02*
X1647773D01*
X1651709D01*
Y685123D01*
X1637934D02*
X1641870D01*
X1643837Y683155D01*
Y679219D01*
X1641870Y677251D01*
X1637934D01*
X1635966Y679219D01*
Y681187D01*
X1643837D01*
X1632030Y685123D02*
X1626127D01*
X1624159Y683155D01*
X1626127Y681187D01*
X1630062D01*
X1632030Y679219D01*
X1630062Y677251D01*
X1624159D01*
X1618255Y675284D02*
Y677251D01*
X1620223D01*
X1616287D01*
X1618255D01*
Y683155D01*
X1616287Y685123D01*
X1655645Y694098D02*
Y705906D01*
X1647773D01*
X1637934D02*
X1641870D01*
X1643837Y703938D01*
Y700002D01*
X1641870Y698034D01*
X1637934D01*
X1635966Y700002D01*
Y701970D01*
X1643837D01*
X1624159Y694098D02*
Y705906D01*
X1630062D01*
X1632030Y703938D01*
Y700002D01*
X1630062Y698034D01*
X1624159D01*
X1620223Y705906D02*
X1616287D01*
X1618255D01*
Y694098D01*
X1620223Y696066D01*
D111*
X1028734Y472008D02*
Y445350D01*
Y672008D02*
Y645350D01*
X1042063Y658679D02*
X1015405D01*
D112*
X152161Y396788D02*
Y401248D01*
Y399018D01*
X141010D01*
X138780Y401248D01*
Y403478D01*
X141010Y405709D01*
X147701Y392327D02*
X141010D01*
X138780Y390097D01*
Y383406D01*
X147701D01*
X138780Y378946D02*
X147701D01*
Y376716D01*
X145470Y374485D01*
X138780D01*
X145470D01*
X147701Y372255D01*
X145470Y370025D01*
X138780D01*
X134319Y365564D02*
X147701D01*
Y358873D01*
X145470Y356643D01*
X141010D01*
X138780Y358873D01*
Y365564D01*
Y345492D02*
Y349952D01*
X141010Y352183D01*
X145470D01*
X147701Y349952D01*
Y345492D01*
X145470Y343262D01*
X143240D01*
Y352183D01*
X147701Y338801D02*
X138780D01*
X143240D01*
X145470Y336571D01*
X147701Y334341D01*
Y332111D01*
D113*
X1160435Y118112D02*
X1161418Y117128D01*
X1163386D01*
X1164370Y118112D01*
Y119096D01*
X1163386Y120080D01*
X1161418D01*
X1160435Y121064D01*
Y122048D01*
X1161418Y123031D01*
X1163386D01*
X1164370Y122048D01*
X1158467Y123031D02*
X1156499D01*
X1157483D01*
Y117128D01*
X1158467D01*
X1150595Y123031D02*
X1152563D01*
X1153547Y122048D01*
Y120080D01*
X1152563Y119096D01*
X1150595D01*
X1149611Y120080D01*
Y121064D01*
X1153547D01*
X1144691Y123031D02*
X1146659D01*
X1147643Y122048D01*
Y120080D01*
X1146659Y119096D01*
X1144691D01*
X1143708Y120080D01*
Y121064D01*
X1147643D01*
X1141740Y124999D02*
Y119096D01*
X1138788D01*
X1137804Y120080D01*
Y122048D01*
X1138788Y123031D01*
X1141740D01*
X1254923Y318899D02*
X1255907Y317915D01*
X1257874D01*
X1258858Y318899D01*
Y319883D01*
X1257874Y320867D01*
X1255907D01*
X1254923Y321851D01*
Y322835D01*
X1255907Y323819D01*
X1257874D01*
X1258858Y322835D01*
X1252955Y323819D02*
X1250987D01*
X1251971D01*
Y317915D01*
X1252955D01*
X1245083Y323819D02*
X1247051D01*
X1248035Y322835D01*
Y320867D01*
X1247051Y319883D01*
X1245083D01*
X1244099Y320867D01*
Y321851D01*
X1248035D01*
X1239180Y323819D02*
X1241148D01*
X1242131Y322835D01*
Y320867D01*
X1241148Y319883D01*
X1239180D01*
X1238196Y320867D01*
Y321851D01*
X1242131D01*
X1236228Y325787D02*
Y319883D01*
X1233276D01*
X1232292Y320867D01*
Y322835D01*
X1233276Y323819D01*
X1236228D01*
D114*
X48222Y565621D02*
Y578740D01*
X38383D01*
Y572181D01*
Y578740D01*
X28543D01*
X48222Y545942D02*
Y559062D01*
X38383D01*
X41662Y552502D01*
Y549222D01*
X38383Y545942D01*
X31823D01*
X28543Y549222D01*
Y555782D01*
X31823Y559062D01*
X28543Y539383D02*
X48222D01*
X35103D02*
X41662Y529544D01*
X35103Y539383D02*
X28543Y529544D01*
X38383Y519704D02*
Y506585D01*
X28543Y500026D02*
Y493466D01*
Y496746D01*
X48222D01*
X44942Y500026D01*
X28543Y483627D02*
X31823D01*
Y480347D01*
X28543D01*
Y483627D01*
X44942Y467228D02*
X48222Y463948D01*
Y457389D01*
X44942Y454109D01*
X41662D01*
X38383Y457389D01*
Y460668D01*
Y457389D01*
X35103Y454109D01*
X31823D01*
X28543Y457389D01*
Y463948D01*
X31823Y467228D01*
X48222Y447549D02*
X28543D01*
Y437710D01*
X31823Y434430D01*
X35103D01*
X38383D01*
X41662Y437710D01*
Y447549D01*
X263772Y422244D02*
X240157D01*
Y410437D01*
X244093Y406501D01*
X248029D01*
X251965Y410437D01*
Y422244D01*
Y410437D01*
X255900Y406501D01*
X259836D01*
X263772Y410437D01*
Y422244D01*
X240157Y394694D02*
Y386822D01*
X244093Y382887D01*
X251965D01*
X255900Y386822D01*
Y394694D01*
X251965Y398630D01*
X244093D01*
X240157Y394694D01*
X255900Y375015D02*
X240157Y359272D01*
X248029Y367144D01*
X255900Y359272D01*
X240157Y375015D01*
X259836Y312044D02*
X263772Y315979D01*
Y323851D01*
X259836Y327786D01*
X255900D01*
X251965Y323851D01*
Y315979D01*
X248029Y312044D01*
X244093D01*
X240157Y315979D01*
Y323851D01*
X244093Y327786D01*
X255900Y304172D02*
X244093D01*
X240157Y300236D01*
Y288429D01*
X236222D01*
X232286Y292365D01*
Y296301D01*
X240157Y288429D02*
X255900D01*
X240157Y280558D02*
X255900D01*
Y268750D01*
X251965Y264815D01*
X240157D01*
Y245136D02*
Y253008D01*
X244093Y256943D01*
X251965D01*
X255900Y253008D01*
Y245136D01*
X251965Y241200D01*
X248029D01*
Y256943D01*
X255900Y233329D02*
X240157D01*
X248029D01*
X251965Y229393D01*
X255900Y225457D01*
Y221522D01*
X232286Y201843D02*
Y197907D01*
X236222Y193972D01*
X255900D01*
Y205779D01*
X251965Y209714D01*
X244093D01*
X240157Y205779D01*
Y193972D01*
X255900Y186100D02*
X244093D01*
X240157Y182164D01*
Y170357D01*
X236222D01*
X232286Y174293D01*
Y178229D01*
X240157Y170357D02*
X255900D01*
D115*
X1369096Y72835D02*
D03*
D116*
X1469488Y121063D02*
D03*
%TF.MD5,82ee8baac8382b72fdac5f82133f0d15*%
M02*
