%TF.GenerationSoftware,Altium Limited,Altium Designer,19.0.11 (319)*%
G04 Layer_Color=0*
%FSLAX26Y26*%
%MOIN*%
%TF.FileFunction,Plated,1,2,PTH,Drill*%
%TF.Part,Single*%
G01*
G75*
%TA.AperFunction,ComponentDrill*%
%ADD140C,0.039370*%
%ADD141R,0.035433X0.059055*%
%ADD142C,0.039370*%
%ADD143C,0.023622*%
%ADD144C,0.023622*%
%ADD145O,0.023622X0.059055*%
%ADD146O,0.027559X0.043307*%
%TA.AperFunction,OtherDrill,Pad Free-H (1820.866mil,124.016mil)*%
%ADD147C,0.118110*%
%TA.AperFunction,OtherDrill,Pad Free-H (1820.866mil,714.567mil)*%
%ADD148C,0.118110*%
%TA.AperFunction,OtherDrill,Pad Free-H (88.583mil,124.016mil)*%
%ADD149C,0.118110*%
%TA.AperFunction,OtherDrill,Pad Free-H (88.583mil,714.567mil)*%
%ADD150C,0.118110*%
%TA.AperFunction,ViaDrill,NotFilled*%
%ADD151C,0.011811*%
D140*
X1309055Y863779D02*
D03*
X1210630D02*
D03*
X1131890D02*
D03*
X1033465D02*
D03*
D141*
X1423228Y838583D02*
D03*
X919291D02*
D03*
X889764Y1053543D02*
D03*
X1452756D02*
D03*
D142*
X953740Y512008D02*
D03*
Y612008D02*
D03*
D143*
X79724Y384252D02*
D03*
Y334252D02*
D03*
D144*
X583858Y93366D02*
D03*
X533858D02*
D03*
X483858D02*
D03*
X433858D02*
D03*
D145*
X448819Y1138780D02*
D03*
X791339D02*
D03*
D146*
X478346Y1019685D02*
D03*
X761811D02*
D03*
D147*
X1820866Y124016D02*
D03*
D148*
Y714567D02*
D03*
D149*
X88583Y124016D02*
D03*
D150*
Y714567D02*
D03*
D151*
X1654608Y370097D02*
D03*
X1589567Y398832D02*
D03*
X1185039Y437008D02*
D03*
X1188976Y467520D02*
D03*
X1236281Y414390D02*
D03*
X1373099Y425218D02*
D03*
X1361408Y478346D02*
D03*
X1388279Y578740D02*
D03*
X1505906Y397638D02*
D03*
X1187992Y112205D02*
D03*
X1539787Y781496D02*
D03*
X1618886Y338583D02*
D03*
X1500984Y366142D02*
D03*
X1873032Y288976D02*
D03*
X484105Y234765D02*
D03*
X1802165Y316929D02*
D03*
X644685Y774606D02*
D03*
X1584646Y285433D02*
D03*
X1541339D02*
D03*
X1501968Y288976D02*
D03*
X1350471Y288386D02*
D03*
X1873032Y263779D02*
D03*
X1745079Y629921D02*
D03*
X1705709Y740158D02*
D03*
X208661Y644685D02*
D03*
X881890Y67537D02*
D03*
X1183071Y639764D02*
D03*
X1056102Y641732D02*
D03*
X1222441Y716535D02*
D03*
X1024606Y508858D02*
D03*
X765748Y579724D02*
D03*
X748010Y701810D02*
D03*
X816929Y110433D02*
D03*
X658465Y100394D02*
D03*
X265748Y48894D02*
D03*
X322835Y105315D02*
D03*
X223425Y123031D02*
D03*
X126969Y251969D02*
D03*
X50197D02*
D03*
X257874Y348641D02*
D03*
X483268Y337402D02*
D03*
X166339Y582677D02*
D03*
X165354Y482284D02*
D03*
X69882D02*
D03*
X70866Y582677D02*
D03*
X808071Y865158D02*
D03*
Y832677D02*
D03*
Y927165D02*
D03*
Y894685D02*
D03*
X746251Y802165D02*
D03*
X778731D02*
D03*
X780512Y956693D02*
D03*
X748032D02*
D03*
X1510827Y781496D02*
D03*
X1479331Y783780D02*
D03*
X1568898Y652559D02*
D03*
X1514764Y619803D02*
D03*
X1545687Y632819D02*
D03*
X1474409D02*
D03*
X1176181Y602206D02*
D03*
X421260Y483268D02*
D03*
X433071Y651575D02*
D03*
Y625984D02*
D03*
Y573819D02*
D03*
Y599409D02*
D03*
X407284Y651575D02*
D03*
Y625984D02*
D03*
Y573819D02*
D03*
Y599409D02*
D03*
X381693D02*
D03*
Y573819D02*
D03*
Y625984D02*
D03*
Y651575D02*
D03*
X355315Y573819D02*
D03*
Y599409D02*
D03*
Y625984D02*
D03*
Y651575D02*
D03*
X1171260Y315493D02*
D03*
X1050748D02*
D03*
Y194882D02*
D03*
X1171260D02*
D03*
X393701Y40354D02*
D03*
X1003986Y69885D02*
D03*
X1089567Y26952D02*
D03*
X1249529Y136811D02*
D03*
X1249016Y106299D02*
D03*
X1296059Y94488D02*
D03*
X1271653Y98425D02*
D03*
X1323819Y240347D02*
D03*
X1302165Y235448D02*
D03*
X1321850Y192913D02*
D03*
X1322308Y217421D02*
D03*
X1275845Y236220D02*
D03*
X1219488Y67913D02*
D03*
X1126968Y117126D02*
D03*
X847441Y434055D02*
D03*
X1579926Y692913D02*
D03*
X1631398Y753052D02*
D03*
X234252Y752953D02*
D03*
X293307Y727362D02*
D03*
X1111220Y220472D02*
D03*
X192913Y396654D02*
D03*
X1242187Y349426D02*
D03*
X1246286Y311936D02*
D03*
X1850099Y569882D02*
D03*
X1749016Y38386D02*
D03*
Y63977D02*
D03*
Y12796D02*
D03*
X1745669Y115158D02*
D03*
Y140748D02*
D03*
X1749016Y89567D02*
D03*
Y191929D02*
D03*
Y217520D02*
D03*
Y166339D02*
D03*
X1624015Y252953D02*
D03*
X1598425D02*
D03*
X1649606Y251969D02*
D03*
X1547244Y252953D02*
D03*
X1521653D02*
D03*
X1572834D02*
D03*
X1470472D02*
D03*
X1444882D02*
D03*
X1496063D02*
D03*
X1419291D02*
D03*
X1368110D02*
D03*
X1342520D02*
D03*
X1393701D02*
D03*
X1319882Y40354D02*
D03*
Y91535D02*
D03*
Y65945D02*
D03*
Y14764D02*
D03*
X559055Y985236D02*
D03*
X773622Y363189D02*
D03*
X1273032Y528543D02*
D03*
X1480387Y342536D02*
D03*
X1245833Y251422D02*
D03*
X1510827Y476378D02*
D03*
X1442913Y436024D02*
D03*
X303150Y527559D02*
D03*
X575816Y641764D02*
D03*
X882874Y509646D02*
D03*
X597441Y959646D02*
D03*
X619095Y982284D02*
D03*
X382874Y725394D02*
D03*
X968504Y172244D02*
D03*
X1141051Y400591D02*
D03*
X1038386Y398622D02*
D03*
X1000984D02*
D03*
X1086614Y306103D02*
D03*
X1033465Y118110D02*
D03*
X1062008Y253937D02*
D03*
X1086614Y237205D02*
D03*
X1062008Y288386D02*
D03*
X1086614Y271654D02*
D03*
X1111220Y289370D02*
D03*
Y254921D02*
D03*
X1160433Y290354D02*
D03*
Y255906D02*
D03*
X339665Y217421D02*
D03*
X1086614Y202756D02*
D03*
X1062008Y219488D02*
D03*
X1160433Y221457D02*
D03*
X1135827Y203740D02*
D03*
Y238189D02*
D03*
Y272638D02*
D03*
Y307087D02*
D03*
X1848425Y444882D02*
D03*
Y472441D02*
D03*
Y500000D02*
D03*
X1818898Y444882D02*
D03*
Y472441D02*
D03*
Y500000D02*
D03*
X1789370D02*
D03*
Y472441D02*
D03*
Y444882D02*
D03*
X1759842D02*
D03*
Y472441D02*
D03*
Y500000D02*
D03*
X1615158Y507874D02*
D03*
Y476378D02*
D03*
X415354Y725394D02*
D03*
%TF.MD5,8b1ae756dd9305ace2ec2012baf24380*%
M02*
