%TF.GenerationSoftware,Altium Limited,Altium Designer,20.2.4 (192)*%
G04 Layer_Color=65535*
%FSLAX26Y26*%
%MOIN*%
%TF.SameCoordinates,588C5E66-93D0-4E9F-B3F3-82FDCAC5A583*%
%TF.FilePolarity,Positive*%
%TF.FileFunction,Legend,Top*%
%TF.Part,Single*%
G01*
G75*
%TA.AperFunction,NonConductor*%
%ADD38C,0.007874*%
%ADD60C,0.003937*%
%ADD61C,0.002500*%
%ADD62C,0.003000*%
%ADD63C,0.005906*%
%ADD64C,0.005000*%
%ADD65C,0.004000*%
%ADD66C,0.003150*%
%ADD88C,0.005512*%
%ADD89C,0.011811*%
%ADD90C,0.006299*%
%ADD91C,0.003543*%
%ADD92C,0.005118*%
%ADD93C,0.010000*%
%ADD94C,0.004016*%
%ADD95C,0.009842*%
%ADD96C,0.006000*%
%ADD97C,0.003228*%
G36*
X412402Y898622D02*
Y904528D01*
X437992D01*
Y898622D01*
X412402D01*
D02*
G37*
G36*
X1625256Y657550D02*
X1641004D01*
Y622117D01*
X1625256D01*
Y657550D01*
D02*
G37*
D38*
X1630906Y357466D02*
G03*
X1630906Y357466I-3937J0D01*
G01*
X1003228Y783779D02*
X1339291D01*
X844488Y942520D02*
Y1170866D01*
X1498032Y942520D02*
Y1170866D01*
D60*
X63540Y627756D02*
X277122D01*
X174760Y545079D02*
Y627756D01*
X277122Y592323D02*
Y627756D01*
X87162Y545079D02*
X256453D01*
X63540Y573622D02*
Y627756D01*
X1642723Y258854D02*
Y239176D01*
X1646659Y235240D01*
X1654530D01*
X1658466Y239176D01*
Y258854D01*
X1678145Y235240D02*
Y258854D01*
X1666337Y247047D01*
X1682080D01*
X21663Y404531D02*
Y428146D01*
X33470D01*
X37405Y424210D01*
Y416339D01*
X33470Y412403D01*
X21663D01*
X45277Y428146D02*
Y404531D01*
X57084D01*
X61020Y408467D01*
Y412403D01*
X57084Y416339D01*
X45277D01*
X57084D01*
X61020Y420274D01*
Y424210D01*
X57084Y428146D01*
X45277D01*
X68891Y404531D02*
X76763D01*
X72827D01*
Y428146D01*
X68891Y424210D01*
X307093Y562988D02*
Y543310D01*
X311029Y539374D01*
X318900D01*
X322836Y543310D01*
Y562988D01*
X346450D02*
X330707D01*
Y551181D01*
X338579Y555117D01*
X342515D01*
X346450Y551181D01*
Y543310D01*
X342515Y539374D01*
X334643D01*
X330707Y543310D01*
X1366147Y704721D02*
Y685042D01*
X1370083Y681106D01*
X1377954D01*
X1381890Y685042D01*
Y704721D01*
X1389761Y681106D02*
X1397633D01*
X1393697D01*
Y704721D01*
X1389761Y700785D01*
X179798Y645673D02*
Y665351D01*
X189637D01*
X192917Y662071D01*
Y655512D01*
X189637Y652232D01*
X179798D01*
X186357D02*
X192917Y645673D01*
X209315D02*
X202756D01*
X199476Y648952D01*
Y655512D01*
X202756Y658792D01*
X209315D01*
X212595Y655512D01*
Y652232D01*
X199476D01*
X219155Y645673D02*
X225714D01*
X222435D01*
Y665351D01*
X219155Y662071D01*
X544957Y139767D02*
Y161414D01*
X555780D01*
X559388Y157806D01*
Y150591D01*
X555780Y146983D01*
X544957D01*
X552172D02*
X559388Y139767D01*
X570211Y154198D02*
X577427D01*
X581034Y150591D01*
Y139767D01*
X570211D01*
X566603Y143375D01*
X570211Y146983D01*
X581034D01*
X588250Y157806D02*
X591858Y161414D01*
X599073D01*
X602681Y157806D01*
Y154198D01*
X599073Y150591D01*
X595465D01*
X599073D01*
X602681Y146983D01*
Y143375D01*
X599073Y139767D01*
X591858D01*
X588250Y143375D01*
X609387Y676548D02*
X629065D01*
Y689667D01*
X632345Y696227D02*
Y709346D01*
X609387Y715905D02*
Y722465D01*
Y719185D01*
X629065D01*
Y715905D01*
Y722465D01*
Y732304D02*
X615946D01*
Y742144D01*
X619226Y745423D01*
X629065D01*
X609387Y765102D02*
X629065D01*
Y755263D01*
X625786Y751983D01*
X619226D01*
X615946Y755263D01*
Y765102D01*
X1492243Y841676D02*
X1488307Y845612D01*
X1480436D01*
X1476500Y841676D01*
Y825933D01*
X1480436Y821997D01*
X1488307D01*
X1492243Y825933D01*
X1511922Y821997D02*
X1504050D01*
X1500114Y825933D01*
Y833804D01*
X1504050Y837740D01*
X1511922D01*
X1515857Y833804D01*
Y829869D01*
X1500114D01*
X1523729Y818062D02*
X1539472D01*
X1551279Y821997D02*
X1559150D01*
X1563086Y825933D01*
Y833804D01*
X1559150Y837740D01*
X1551279D01*
X1547343Y833804D01*
Y825933D01*
X1551279Y821997D01*
X1570958Y837740D02*
Y825933D01*
X1574893Y821997D01*
X1586700D01*
Y837740D01*
X1598508Y841676D02*
Y837740D01*
X1594572D01*
X1602444D01*
X1598508D01*
Y825933D01*
X1602444Y821997D01*
X1614251D02*
X1622122D01*
X1618186D01*
Y845612D01*
X1614251Y841676D01*
X1853346Y583035D02*
Y563357D01*
X1857282Y559421D01*
X1865153D01*
X1869089Y563357D01*
Y583035D01*
X1892704D02*
X1884832Y579100D01*
X1876961Y571228D01*
Y563357D01*
X1880896Y559421D01*
X1888768D01*
X1892704Y563357D01*
Y567293D01*
X1888768Y571228D01*
X1876961D01*
X1696389Y531496D02*
X1676710D01*
X1672775Y527560D01*
Y519689D01*
X1676710Y515753D01*
X1696389D01*
X1692453Y507882D02*
X1696389Y503946D01*
Y496075D01*
X1692453Y492139D01*
X1688518D01*
X1684582Y496075D01*
Y500010D01*
Y496075D01*
X1680646Y492139D01*
X1676710D01*
X1672775Y496075D01*
Y503946D01*
X1676710Y507882D01*
X1559567Y602432D02*
X1535953D01*
Y614239D01*
X1539888Y618175D01*
X1547760D01*
X1551695Y614239D01*
Y602432D01*
Y610303D02*
X1559567Y618175D01*
X1543824Y641789D02*
Y629982D01*
X1547760Y626046D01*
X1555631D01*
X1559567Y629982D01*
Y641789D01*
X1539888Y665403D02*
X1535953Y661468D01*
Y653596D01*
X1539888Y649660D01*
X1543824D01*
X1547760Y653596D01*
Y661468D01*
X1551695Y665403D01*
X1555631D01*
X1559567Y661468D01*
Y653596D01*
X1555631Y649660D01*
X1585169Y266139D02*
Y242525D01*
X1573361D01*
X1569426Y246461D01*
Y254332D01*
X1573361Y258268D01*
X1585169D01*
X1577297D02*
X1569426Y266139D01*
X1561554Y274011D02*
Y250397D01*
X1549747D01*
X1545811Y254332D01*
Y262204D01*
X1549747Y266139D01*
X1561554D01*
X1522197D02*
X1537940D01*
X1522197Y250397D01*
Y246461D01*
X1526133Y242525D01*
X1534004D01*
X1537940Y246461D01*
X1594488Y369094D02*
X1570874D01*
Y380901D01*
X1574810Y384837D01*
X1582681D01*
X1586617Y380901D01*
Y369094D01*
Y376966D02*
X1594488Y384837D01*
X1602360Y392709D02*
X1578745D01*
Y404516D01*
X1582681Y408452D01*
X1590553D01*
X1594488Y404516D01*
Y392709D01*
Y416323D02*
Y424195D01*
Y420259D01*
X1570874D01*
X1574810Y416323D01*
X905507Y771646D02*
X897635D01*
X901571D01*
Y751967D01*
X897635Y748032D01*
X893699D01*
X889764Y751967D01*
X913378Y744096D02*
X929121D01*
X936993Y771646D02*
Y751967D01*
X940928Y748032D01*
X948800D01*
X952736Y751967D01*
Y771646D01*
X976350Y767710D02*
X972414Y771646D01*
X964543D01*
X960607Y767710D01*
Y763774D01*
X964543Y759839D01*
X972414D01*
X976350Y755903D01*
Y751967D01*
X972414Y748032D01*
X964543D01*
X960607Y751967D01*
X984221Y771646D02*
Y748032D01*
X996029D01*
X999964Y751967D01*
Y755903D01*
X996029Y759839D01*
X984221D01*
X996029D01*
X999964Y763774D01*
Y767710D01*
X996029Y771646D01*
X984221D01*
X1007836Y744096D02*
X1023579D01*
X1031450Y748032D02*
Y763774D01*
X1039322Y771646D01*
X1047193Y763774D01*
Y748032D01*
Y759839D01*
X1031450D01*
X1671252Y184060D02*
Y191932D01*
Y187996D01*
X1651573D01*
X1647638Y191932D01*
Y195867D01*
X1651573Y199803D01*
X1643702Y176189D02*
Y160446D01*
X1671252Y152574D02*
X1651573D01*
X1647638Y148639D01*
Y140767D01*
X1651573Y136831D01*
X1671252D01*
X1647638Y128960D02*
X1663381D01*
X1671252Y121088D01*
X1663381Y113217D01*
X1647638D01*
X1659445D01*
Y128960D01*
X1647638Y105346D02*
X1671252D01*
Y93538D01*
X1667316Y89603D01*
X1659445D01*
X1655509Y93538D01*
Y105346D01*
Y97474D02*
X1647638Y89603D01*
X1671252Y81731D02*
Y65988D01*
Y73860D01*
X1647638D01*
X417318Y194874D02*
X409446D01*
X413382D01*
Y175196D01*
X409446Y171260D01*
X405510D01*
X401575Y175196D01*
X425189Y167324D02*
X440932D01*
X464546Y194874D02*
X456675D01*
X460611D01*
Y175196D01*
X456675Y171260D01*
X452739D01*
X448804Y175196D01*
X472418Y187003D02*
Y175196D01*
X476354Y171260D01*
X488161D01*
Y187003D01*
X496032Y171260D02*
Y187003D01*
X499968D01*
X503904Y183067D01*
Y171260D01*
Y183067D01*
X507840Y187003D01*
X511775Y183067D01*
Y171260D01*
X519647Y163388D02*
Y187003D01*
X531454D01*
X535390Y183067D01*
Y175196D01*
X531454Y171260D01*
X519647D01*
X555068D02*
X547197D01*
X543261Y175196D01*
Y183067D01*
X547197Y187003D01*
X555068D01*
X559004Y183067D01*
Y179131D01*
X543261D01*
X566876Y187003D02*
Y171260D01*
Y179131D01*
X570811Y183067D01*
X574747Y187003D01*
X578683D01*
X27095Y539166D02*
X19945D01*
X23520D01*
Y521292D01*
X19945Y517716D01*
X16370D01*
X12795Y521292D01*
X34245Y514141D02*
X48545D01*
X55695Y539166D02*
Y517716D01*
X66420D01*
X69995Y521292D01*
Y524866D01*
X66420Y528441D01*
X55695D01*
X66420D01*
X69995Y532016D01*
Y535591D01*
X66420Y539166D01*
X55695D01*
X80720Y532016D02*
X87870D01*
X91445Y528441D01*
Y517716D01*
X80720D01*
X77145Y521292D01*
X80720Y524866D01*
X91445D01*
X102169Y535591D02*
Y532016D01*
X98594D01*
X105744D01*
X102169D01*
Y521292D01*
X105744Y517716D01*
X120044Y535591D02*
Y532016D01*
X116469D01*
X123619D01*
X120044D01*
Y521292D01*
X123619Y517716D01*
X145069D02*
X137919D01*
X134344Y521292D01*
Y528441D01*
X137919Y532016D01*
X145069D01*
X148644Y528441D01*
Y524866D01*
X134344D01*
X155794Y532016D02*
Y517716D01*
Y524866D01*
X159369Y528441D01*
X162944Y532016D01*
X166519D01*
X177244D02*
Y521292D01*
X180819Y517716D01*
X191543D01*
Y514141D01*
X187969Y510567D01*
X184394D01*
X191543Y517716D02*
Y532016D01*
X1881425Y336455D02*
X1885032Y340063D01*
Y347278D01*
X1881425Y350886D01*
X1866994D01*
X1863386Y347278D01*
Y340063D01*
X1866994Y336455D01*
X1863386Y325632D02*
X1881425D01*
X1874209D01*
Y329239D01*
Y322024D01*
Y325632D01*
X1881425D01*
X1885032Y322024D01*
X1863386Y296769D02*
Y311200D01*
X1877817Y296769D01*
X1881425D01*
X1885032Y300377D01*
Y307593D01*
X1881425Y311200D01*
X1738775Y637789D02*
X1734839Y641725D01*
X1726967D01*
X1723032Y637789D01*
Y622046D01*
X1726967Y618110D01*
X1734839D01*
X1738775Y622046D01*
X1750582Y618110D02*
Y637789D01*
Y629917D01*
X1746646D01*
X1754518D01*
X1750582D01*
Y637789D01*
X1754518Y641725D01*
X1766325Y618110D02*
X1774196D01*
X1770260D01*
Y641725D01*
X1766325Y637789D01*
X1756754Y383196D02*
X1753146Y386804D01*
X1745931D01*
X1742323Y383196D01*
Y368765D01*
X1745931Y365158D01*
X1753146D01*
X1756754Y368765D01*
X1778400Y386804D02*
Y365158D01*
X1767577D01*
X1763969Y368765D01*
Y375981D01*
X1767577Y379589D01*
X1778400D01*
X1785616Y365158D02*
X1792831D01*
X1789224D01*
Y386804D01*
X1785616Y383196D01*
D61*
X513583Y776492D02*
X556102D01*
X515551Y849492D02*
X558071D01*
X625984Y771654D02*
Y854331D01*
X444882D02*
X625984D01*
X444882Y771654D02*
Y854331D01*
Y771654D02*
X625984D01*
X292323Y773342D02*
X334842D01*
X294291Y846342D02*
X336811D01*
X404724Y768504D02*
Y851182D01*
X223622D02*
X404724D01*
X223622Y768504D02*
Y851182D01*
Y768504D02*
X404724D01*
D62*
X1505965Y279752D02*
Y326996D01*
Y279752D02*
X1608327D01*
Y326996D01*
X1505965D02*
X1608327D01*
X1742126Y254921D02*
X1793307D01*
Y361221D01*
X1742126D02*
X1793307D01*
X1742126Y254921D02*
Y361221D01*
X1807087Y371816D02*
X1858268D01*
X1807087Y265517D02*
Y371816D01*
Y265517D02*
X1858268D01*
Y371816D01*
X1461134Y681895D02*
X1647134D01*
X1461134D02*
Y811895D01*
X1647134D01*
Y681895D02*
Y811895D01*
X542913Y134831D02*
X590158D01*
X542913Y32469D02*
Y134831D01*
Y32469D02*
X590158D01*
Y134831D01*
X456693Y860236D02*
Y966535D01*
X507874D01*
Y860236D02*
Y966535D01*
X456693Y860236D02*
X507874D01*
X229331Y659449D02*
X276575D01*
Y761811D01*
X229331D02*
X276575D01*
X229331Y659449D02*
Y761811D01*
X1711614Y375156D02*
Y422400D01*
X1609252D02*
X1711614D01*
X1609252Y375156D02*
Y422400D01*
Y375156D02*
X1711614D01*
X1730245Y610602D02*
X1836544D01*
Y559421D02*
Y610602D01*
X1730245Y559421D02*
X1836544D01*
X1730245D02*
Y610602D01*
X1619567Y9517D02*
Y22846D01*
X1616901Y25512D01*
X1611570D01*
X1608904Y22846D01*
Y9517D01*
X1603572Y25512D02*
Y14849D01*
X1598241Y9517D01*
X1592909Y14849D01*
Y25512D01*
Y17514D01*
X1603572D01*
X1587577Y25512D02*
Y9517D01*
X1579580D01*
X1576914Y12183D01*
Y17514D01*
X1579580Y20180D01*
X1587577D01*
X1582246D02*
X1576914Y25512D01*
X1571582Y9517D02*
X1560919D01*
X1566251D01*
Y25512D01*
X1528822Y40512D02*
X1526823Y42511D01*
Y46510D01*
X1528822Y48509D01*
X1530822D01*
X1532821Y46510D01*
Y44511D01*
Y46510D01*
X1534820Y48509D01*
X1536820D01*
X1538819Y46510D01*
Y42511D01*
X1536820Y40512D01*
X1526823Y52508D02*
X1534820D01*
X1538819Y56507D01*
X1534820Y60505D01*
X1526823D01*
X1528822Y64504D02*
X1526823Y66503D01*
Y70502D01*
X1528822Y72501D01*
X1530822D01*
X1532821Y70502D01*
Y68503D01*
Y70502D01*
X1534820Y72501D01*
X1536820D01*
X1538819Y70502D01*
Y66503D01*
X1536820Y64504D01*
X1526823Y95512D02*
Y103509D01*
Y99510D01*
X1538819D01*
X1530822Y107508D02*
X1538819Y115505D01*
X1534820Y111507D01*
X1530822Y115505D01*
X1538819Y107508D01*
Y145512D02*
X1526823D01*
Y151510D01*
X1528822Y153509D01*
X1532821D01*
X1534820Y151510D01*
Y145512D01*
Y149511D02*
X1538819Y153509D01*
X1530822Y157508D02*
X1538819Y165505D01*
X1534820Y161507D01*
X1530822Y165505D01*
X1538819Y157508D01*
X1528822Y198509D02*
X1526823Y196510D01*
Y192511D01*
X1528822Y190512D01*
X1536820D01*
X1538819Y192511D01*
Y196510D01*
X1536820Y198509D01*
X1532821D01*
Y194511D01*
X1538819Y202508D02*
X1526823D01*
X1538819Y210505D01*
X1526823D01*
Y214504D02*
X1538819D01*
Y220502D01*
X1536820Y222501D01*
X1528822D01*
X1526823Y220502D01*
Y214504D01*
D63*
X1724409Y393701D02*
X1736220D01*
X1724409Y551181D02*
X1736220D01*
X1870079Y393701D02*
X1881890D01*
X1870079Y551181D02*
X1881890D01*
Y393701D02*
Y551181D01*
X1724409Y393701D02*
Y551181D01*
D64*
X1751968Y299213D02*
Y316929D01*
X1783465Y299213D02*
Y316929D01*
X1848425Y309808D02*
Y327525D01*
X1816929Y309808D02*
Y327525D01*
X1532874Y691777D02*
X1575394D01*
X1532874Y802014D02*
X1575394D01*
X498031Y904528D02*
Y922244D01*
X466536Y904528D02*
Y922244D01*
X643701Y913386D02*
X840551D01*
Y901575D02*
Y913386D01*
X643701Y903543D02*
Y913386D01*
Y716535D02*
X840551D01*
X643701D02*
Y728346D01*
X840551Y716535D02*
Y726378D01*
X844488Y1170866D02*
X1498032D01*
X1695138Y602432D02*
Y677235D01*
X1571122Y602432D02*
X1695138D01*
X1571122D02*
Y677235D01*
X1695138D01*
X1774536Y569264D02*
X1792253D01*
X1774536Y600760D02*
X1792253D01*
D65*
X1666775Y522109D02*
G03*
X1666775Y498109I0J-12000D01*
G01*
Y493109D02*
Y498109D01*
Y522109D01*
Y527109D01*
X1547775Y478109D02*
Y542109D01*
X503740Y56102D02*
Y150591D01*
X453740Y56102D02*
X503740D01*
X453740D02*
Y150591D01*
X503740D01*
X403543Y56102D02*
X436299D01*
X403543Y150591D02*
X436811D01*
X403543Y56102D02*
Y150591D01*
X1559567Y30512D02*
Y80512D01*
Y30512D02*
X1619567D01*
Y230512D01*
X1559567D02*
X1619567D01*
X1559567Y30512D02*
Y230512D01*
Y80512D02*
X1619567D01*
X1559567Y130512D02*
X1619567D01*
X1559567Y180512D02*
X1619567D01*
D66*
X449803Y883858D02*
Y950787D01*
X400591Y883858D02*
Y950787D01*
X436299Y56102D02*
X453740D01*
X526095Y929624D02*
X523143Y932575D01*
X517239D01*
X514287Y929624D01*
Y917816D01*
X517239Y914865D01*
X523143D01*
X526095Y917816D01*
X540854Y914865D02*
X534950D01*
X531998Y917816D01*
Y923720D01*
X534950Y926672D01*
X540854D01*
X543805Y923720D01*
Y920768D01*
X531998D01*
X549709Y911913D02*
X561516D01*
X567420Y914865D02*
X573323D01*
X570372D01*
Y926672D01*
X567420D01*
X582179Y914865D02*
Y926672D01*
X591034D01*
X593986Y923720D01*
Y914865D01*
X611697D02*
X599890D01*
X611697Y926672D01*
Y929624D01*
X608745Y932575D01*
X602841D01*
X599890Y929624D01*
X514770Y955706D02*
Y937995D01*
X523626D01*
X526578Y940947D01*
Y952754D01*
X523626Y955706D01*
X514770D01*
X541337Y937995D02*
X535433D01*
X532481Y940947D01*
Y946850D01*
X535433Y949802D01*
X541337D01*
X544288Y946850D01*
Y943899D01*
X532481D01*
X550192Y937995D02*
X556096D01*
X553144D01*
Y955706D01*
X550192Y952754D01*
X529083Y876310D02*
X526197Y879196D01*
X520424D01*
X517538Y876310D01*
Y864765D01*
X520424Y861879D01*
X526197D01*
X529083Y864765D01*
X543514Y861879D02*
X537741D01*
X534855Y864765D01*
Y870538D01*
X537741Y873424D01*
X543514D01*
X546400Y870538D01*
Y867651D01*
X534855D01*
X552172Y858993D02*
X563717D01*
X572376Y861879D02*
X578148D01*
X581034Y864765D01*
Y870538D01*
X578148Y873424D01*
X572376D01*
X569490Y870538D01*
Y864765D01*
X572376Y861879D01*
X586807Y873424D02*
Y864765D01*
X589693Y861879D01*
X598352D01*
Y873424D01*
X607010Y876310D02*
Y873424D01*
X604124D01*
X609896D01*
X607010D01*
Y864765D01*
X609896Y861879D01*
X630100D02*
X618555D01*
X630100Y873424D01*
Y876310D01*
X627214Y879196D01*
X621441D01*
X618555Y876310D01*
X426900Y845195D02*
X429787Y848082D01*
Y853854D01*
X426900Y856740D01*
X415356D01*
X412469Y853854D01*
Y848082D01*
X415356Y845195D01*
X412469Y830764D02*
Y836537D01*
X415356Y839423D01*
X421128D01*
X424014Y836537D01*
Y830764D01*
X421128Y827878D01*
X418242D01*
Y839423D01*
X409583Y822106D02*
Y810561D01*
X412469Y804788D02*
Y799016D01*
Y801902D01*
X424014D01*
Y804788D01*
X412469Y790357D02*
X424014D01*
Y781699D01*
X421128Y778813D01*
X412469D01*
Y773040D02*
Y767268D01*
Y770154D01*
X429787D01*
X426900Y773040D01*
D88*
X422539Y761417D02*
G03*
X447539Y761417I12500J0D01*
G01*
X356299D02*
X422539D01*
X356299Y561417D02*
X513780D01*
X447539Y761417D02*
X513780D01*
X259432Y88894D02*
Y63312D01*
X272224D01*
X276487Y67576D01*
Y71839D01*
X272224Y76103D01*
X259432D01*
X272224D01*
X276487Y80367D01*
Y84630D01*
X272224Y88894D01*
X259432D01*
X289278Y63312D02*
X297806D01*
X302070Y67576D01*
Y76103D01*
X297806Y80367D01*
X289278D01*
X285015Y76103D01*
Y67576D01*
X289278Y63312D01*
X310597Y80367D02*
X327652Y63312D01*
X319124Y71839D01*
X327652Y80367D01*
X310597Y63312D01*
X225323Y40703D02*
X221059Y44967D01*
X212531D01*
X208268Y40703D01*
Y36440D01*
X212531Y32176D01*
X221059D01*
X225323Y27912D01*
Y23648D01*
X221059Y19385D01*
X212531D01*
X208268Y23648D01*
X233850Y36440D02*
Y23648D01*
X238114Y19385D01*
X250905D01*
Y15121D01*
X246641Y10857D01*
X242377D01*
X250905Y19385D02*
Y36440D01*
X259432Y19385D02*
Y36440D01*
X272224D01*
X276487Y32176D01*
Y19385D01*
X297806D02*
X289278D01*
X285015Y23648D01*
Y32176D01*
X289278Y36440D01*
X297806D01*
X302070Y32176D01*
Y27912D01*
X285015D01*
X310597Y36440D02*
Y19385D01*
Y27912D01*
X314861Y32176D01*
X319124Y36440D01*
X323388D01*
X344707Y10857D02*
X348970D01*
X353234Y15121D01*
Y36440D01*
X340443D01*
X336179Y32176D01*
Y23648D01*
X340443Y19385D01*
X353234D01*
X361762Y36440D02*
Y23648D01*
X366025Y19385D01*
X378816D01*
Y15121D01*
X374553Y10857D01*
X370289D01*
X378816Y19385D02*
Y36440D01*
D89*
X1897638Y539370D02*
G03*
X1897638Y539370I-3937J0D01*
G01*
D90*
X200850Y215748D02*
Y302362D01*
X7937D02*
X200850D01*
X7937Y440158D02*
X200850D01*
Y526772D01*
X7937Y302362D02*
Y440158D01*
X200850Y215748D02*
X614236D01*
X200850Y526772D02*
X614236D01*
Y215748D02*
Y526772D01*
D91*
X1639764Y354514D02*
X1652126Y366876D01*
X1639764D02*
X1652126D01*
X1639764Y354514D02*
Y366876D01*
X1720079Y269317D02*
X1732283D01*
X1639764D02*
X1651968D01*
X1720079Y366876D02*
X1732283D01*
X656820Y972434D02*
X650260D01*
X653540D01*
Y956036D01*
X650260Y952756D01*
X646981D01*
X643701Y956036D01*
X663379Y949476D02*
X676499D01*
X683058Y952756D02*
Y972434D01*
X689617Y965875D01*
X696177Y972434D01*
Y952756D01*
X702737Y972434D02*
X709296D01*
X706016D01*
Y952756D01*
X702737D01*
X709296D01*
X732255Y969155D02*
X728975Y972434D01*
X722415D01*
X719135Y969155D01*
Y956036D01*
X722415Y952756D01*
X728975D01*
X732255Y956036D01*
X738814Y952756D02*
Y972434D01*
X748653D01*
X751933Y969155D01*
Y962595D01*
X748653Y959315D01*
X738814D01*
X745374D02*
X751933Y952756D01*
X768332Y972434D02*
X761773D01*
X758493Y969155D01*
Y956036D01*
X761773Y952756D01*
X768332D01*
X771612Y956036D01*
Y969155D01*
X768332Y972434D01*
X778171D02*
Y956036D01*
X781451Y952756D01*
X788011D01*
X791290Y956036D01*
Y972434D01*
X810969Y969155D02*
X807689Y972434D01*
X801130D01*
X797850Y969155D01*
Y965875D01*
X801130Y962595D01*
X807689D01*
X810969Y959315D01*
Y956036D01*
X807689Y952756D01*
X801130D01*
X797850Y956036D01*
X817529Y972434D02*
Y952756D01*
X827368D01*
X830648Y956036D01*
Y959315D01*
X827368Y962595D01*
X817529D01*
X827368D01*
X830648Y965875D01*
Y969155D01*
X827368Y972434D01*
X817529D01*
D92*
X830709Y980315D02*
Y1195866D01*
X409449D02*
X830709D01*
X409449Y980315D02*
X830709D01*
X409449D02*
Y1195866D01*
D93*
X1296260Y35433D02*
X1497047D01*
X630906D02*
X650591D01*
X630906D02*
Y665354D01*
X650591D01*
X1296260D02*
X1497047D01*
Y35433D02*
Y665354D01*
D94*
X425394Y56102D02*
X453740D01*
X425906Y150591D02*
X454252D01*
D95*
X243759Y202535D02*
X221457D01*
Y185808D01*
X232608D01*
X221457D01*
Y169081D01*
X277213Y202535D02*
X254910D01*
Y185808D01*
X266062Y191384D01*
X271637D01*
X277213Y185808D01*
Y174657D01*
X271637Y169081D01*
X260486D01*
X254910Y174657D01*
X288364Y196959D02*
X293940Y202535D01*
X305091D01*
X310667Y196959D01*
Y174657D01*
X305091Y169081D01*
X293940D01*
X288364Y174657D01*
Y196959D01*
X321818D02*
X327394Y202535D01*
X338545D01*
X344120Y196959D01*
Y174657D01*
X338545Y169081D01*
X327394D01*
X321818Y174657D01*
Y196959D01*
X355272D02*
X360847Y202535D01*
X371999D01*
X377574Y196959D01*
Y174657D01*
X371999Y169081D01*
X360847D01*
X355272Y174657D01*
Y196959D01*
X254910Y105315D02*
Y138769D01*
X271637D01*
X277213Y133193D01*
Y122042D01*
X271637Y116466D01*
X254910D01*
X266062D02*
X277213Y105315D01*
X288364Y138769D02*
X310667D01*
X299515D01*
Y105315D01*
X321818D02*
Y138769D01*
X332969Y127617D01*
X344120Y138769D01*
Y105315D01*
D96*
X289918Y560518D02*
X263260D01*
X276589Y547189D02*
Y573847D01*
X77319Y560518D02*
X50661D01*
D97*
X491276Y30910D02*
X495736D01*
X493506D01*
Y42061D01*
X495736Y44291D01*
X497967D01*
X500197Y42061D01*
X486815Y35370D02*
Y42061D01*
X484585Y44291D01*
X477894D01*
Y35370D01*
X473434Y44291D02*
Y35370D01*
X471204D01*
X468973Y37601D01*
Y44291D01*
Y37601D01*
X466743Y35370D01*
X464513Y37601D01*
Y44291D01*
X460052Y48752D02*
Y35370D01*
X453362D01*
X451131Y37601D01*
Y42061D01*
X453362Y44291D01*
X460052D01*
X439980D02*
X444441D01*
X446671Y42061D01*
Y37601D01*
X444441Y35370D01*
X439980D01*
X437750Y37601D01*
Y39831D01*
X446671D01*
X433289Y35370D02*
Y44291D01*
Y39831D01*
X431059Y37601D01*
X428829Y35370D01*
X426599D01*
%TF.MD5,b6d74f211f0b0e7f58fb63e07952a824*%
M02*
