%TF.GenerationSoftware,Altium Limited,Altium Designer,20.2.4 (192)*%
G04 Layer_Color=32896*
%FSLAX26Y26*%
%MOIN*%
%TF.SameCoordinates,588C5E66-93D0-4E9F-B3F3-82FDCAC5A583*%
%TF.FilePolarity,Positive*%
%TF.FileFunction,Legend,Bot*%
%TF.Part,Single*%
G01*
G75*
%TA.AperFunction,NonConductor*%
%ADD60C,0.003937*%
%ADD61C,0.002500*%
%ADD62C,0.003000*%
%ADD63C,0.005906*%
%ADD64C,0.005000*%
%ADD65C,0.004000*%
%ADD66C,0.003150*%
G36*
X616142Y641732D02*
X600394Y625984D01*
X584646Y641732D01*
X616142D01*
D02*
G37*
G36*
X852362D02*
X836614Y625984D01*
X820866Y641732D01*
X852362D01*
D02*
G37*
G36*
X970472Y287402D02*
X954724Y271654D01*
X938976Y287402D01*
X970472D01*
D02*
G37*
G36*
X1088583Y641732D02*
X1072835Y625984D01*
X1057087Y641732D01*
X1088583D01*
D02*
G37*
G36*
X1324803D02*
X1309055Y625984D01*
X1293307Y641732D01*
X1324803D01*
D02*
G37*
D60*
X1626526Y629921D02*
G03*
X1646309Y629921I9892J0D01*
G01*
X1598032Y509842D02*
X1674803D01*
X1598032Y629921D02*
X1674803D01*
X1138449Y1042983D02*
X1141729Y1039704D01*
Y1033144D01*
X1138449Y1029864D01*
X1125330D01*
X1122051Y1033144D01*
Y1039704D01*
X1125330Y1042983D01*
X1135170Y1049543D02*
X1125330D01*
X1122051Y1052823D01*
Y1062662D01*
X1135170D01*
X1122051Y1082341D02*
Y1069222D01*
X1135170Y1082341D01*
X1138449D01*
X1141729Y1079061D01*
Y1072501D01*
X1138449Y1069222D01*
X912732Y977359D02*
X909452Y980639D01*
Y987198D01*
X912732Y990478D01*
X925851D01*
X929130Y987198D01*
Y980639D01*
X925851Y977359D01*
X916011Y970799D02*
X925851D01*
X929130Y967519D01*
Y957680D01*
X916011D01*
X929130Y951121D02*
Y944561D01*
Y947841D01*
X909452D01*
X912732Y951121D01*
X482601Y306433D02*
Y326111D01*
X472761D01*
X469482Y322832D01*
Y316272D01*
X472761Y312992D01*
X482601D01*
X476041D02*
X469482Y306433D01*
X462922Y299873D02*
Y319552D01*
X453083D01*
X449803Y316272D01*
Y309712D01*
X453083Y306433D01*
X462922D01*
X443243Y326111D02*
Y306433D01*
X433404D01*
X430124Y309712D01*
Y312992D01*
Y316272D01*
X433404Y319552D01*
X443243D01*
X423565Y306433D02*
X417005D01*
X420285D01*
Y326111D01*
X423565Y322832D01*
X219470Y425194D02*
X223406Y429129D01*
X231278D01*
X235213Y425194D01*
Y409451D01*
X231278Y405515D01*
X223406D01*
X219470Y409451D01*
X207663Y405515D02*
Y425194D01*
Y417322D01*
X211599D01*
X203727D01*
X207663D01*
Y425194D01*
X203727Y429129D01*
X191920Y401579D02*
X176177D01*
X168306Y429129D02*
Y405515D01*
X156499D01*
X152563Y409451D01*
Y413387D01*
Y417322D01*
X156499Y421258D01*
X168306D01*
X140756D02*
X132884D01*
X128948Y417322D01*
Y405515D01*
X140756D01*
X144691Y409451D01*
X140756Y413387D01*
X128948D01*
X117141Y425194D02*
Y421258D01*
X121077D01*
X113206D01*
X117141D01*
Y409451D01*
X113206Y405515D01*
X101398D02*
X93527D01*
X97463D01*
Y429129D01*
X101398Y425194D01*
X1110236Y509842D02*
X1086622D01*
Y498035D01*
X1090558Y494100D01*
X1098429D01*
X1102365Y498035D01*
Y509842D01*
Y501971D02*
X1110236Y494100D01*
X1118108Y470485D02*
X1094493D01*
Y482292D01*
X1098429Y486228D01*
X1106301D01*
X1110236Y482292D01*
Y470485D01*
X1090558Y462614D02*
X1086622Y458678D01*
Y450807D01*
X1090558Y446871D01*
X1094493D01*
X1098429Y450807D01*
Y454742D01*
Y450807D01*
X1102365Y446871D01*
X1106301D01*
X1110236Y450807D01*
Y458678D01*
X1106301Y462614D01*
X1086622Y438999D02*
X1110236D01*
Y427192D01*
X1106301Y423256D01*
X1102365D01*
X1098429D01*
X1094493Y427192D01*
Y438999D01*
X688957Y1154531D02*
Y1178145D01*
X677150D01*
X673214Y1174209D01*
Y1166338D01*
X677150Y1162402D01*
X688957D01*
X681086D02*
X673214Y1154531D01*
X661407D02*
Y1174209D01*
Y1166338D01*
X665343D01*
X657471D01*
X661407D01*
Y1174209D01*
X657471Y1178145D01*
X645664Y1150595D02*
X629921D01*
X622050Y1154531D02*
X614178D01*
X618114D01*
Y1170274D01*
X622050D01*
X602371Y1154531D02*
Y1170274D01*
X590564D01*
X586628Y1166338D01*
Y1154531D01*
X578757D02*
X570885D01*
X574821D01*
Y1178145D01*
X578757Y1174209D01*
X961605Y88890D02*
Y112504D01*
X949798D01*
X945862Y108568D01*
Y100697D01*
X949798Y96761D01*
X961605D01*
X953734D02*
X945862Y88890D01*
X934055Y104633D02*
X926184D01*
X922248Y100697D01*
Y88890D01*
X934055D01*
X937991Y92825D01*
X934055Y96761D01*
X922248D01*
X914376Y88890D02*
X906505D01*
X910441D01*
Y112504D01*
X914376Y108568D01*
X1095471Y148625D02*
Y164368D01*
X1099407Y168303D01*
X1107278D01*
X1111214Y164368D01*
Y148625D01*
X1107278Y144689D01*
X1099407D01*
X1103343Y152560D02*
X1095471Y144689D01*
X1099407D02*
X1095471Y148625D01*
X1071857Y168303D02*
X1087600D01*
Y156496D01*
X1079728Y160432D01*
X1075793D01*
X1071857Y156496D01*
Y148625D01*
X1075793Y144689D01*
X1083664D01*
X1087600Y148625D01*
X725392Y618113D02*
Y633856D01*
X729328Y637792D01*
X737199D01*
X741135Y633856D01*
Y618113D01*
X737199Y614177D01*
X729328D01*
X733264Y622049D02*
X725392Y614177D01*
X729328D02*
X725392Y618113D01*
X705714Y614177D02*
Y637792D01*
X717521Y625984D01*
X701778D01*
X959582Y618113D02*
Y633856D01*
X963518Y637792D01*
X971390D01*
X975325Y633856D01*
Y618113D01*
X971390Y614177D01*
X963518D01*
X967454Y622049D02*
X959582Y614177D01*
X963518D02*
X959582Y618113D01*
X951711Y633856D02*
X947775Y637792D01*
X939904D01*
X935968Y633856D01*
Y629920D01*
X939904Y625984D01*
X943840D01*
X939904D01*
X935968Y622049D01*
Y618113D01*
X939904Y614177D01*
X947775D01*
X951711Y618113D01*
X1196849D02*
Y633856D01*
X1200785Y637792D01*
X1208656D01*
X1212592Y633856D01*
Y618113D01*
X1208656Y614177D01*
X1200785D01*
X1204720Y622049D02*
X1196849Y614177D01*
X1200785D02*
X1196849Y618113D01*
X1173235Y614177D02*
X1188978D01*
X1173235Y629920D01*
Y633856D01*
X1177170Y637792D01*
X1185042D01*
X1188978Y633856D01*
X1429134Y618113D02*
Y633856D01*
X1433070Y637792D01*
X1440941D01*
X1444877Y633856D01*
Y618113D01*
X1440941Y614177D01*
X1433070D01*
X1437005Y622049D02*
X1429134Y614177D01*
X1433070D02*
X1429134Y618113D01*
X1421262Y614177D02*
X1413391D01*
X1417327D01*
Y637792D01*
X1421262Y633856D01*
X280493Y327753D02*
X284428Y331688D01*
X292300D01*
X296236Y327753D01*
Y312010D01*
X292300Y308074D01*
X284428D01*
X280493Y312010D01*
X268685Y308074D02*
Y327753D01*
Y319881D01*
X272621D01*
X264750D01*
X268685D01*
Y327753D01*
X264750Y331688D01*
X252942Y304138D02*
X237200D01*
X229328Y331688D02*
Y308074D01*
X217521D01*
X213585Y312010D01*
Y315946D01*
Y319881D01*
X217521Y323817D01*
X229328D01*
X201778D02*
X193906D01*
X189971Y319881D01*
Y308074D01*
X201778D01*
X205714Y312010D01*
X201778Y315946D01*
X189971D01*
X178164Y327753D02*
Y323817D01*
X182099D01*
X174228D01*
X178164D01*
Y312010D01*
X174228Y308074D01*
X146678D02*
X162421D01*
X146678Y323817D01*
Y327753D01*
X150613Y331688D01*
X158485D01*
X162421Y327753D01*
X350397Y631875D02*
X346461Y635810D01*
Y643682D01*
X350397Y647617D01*
X366140D01*
X370075Y643682D01*
Y635810D01*
X366140Y631875D01*
X370075Y612196D02*
Y620067D01*
X366140Y624003D01*
X358268D01*
X354333Y620067D01*
Y612196D01*
X358268Y608260D01*
X362204D01*
Y624003D01*
X374011Y600389D02*
Y584646D01*
X346461Y576774D02*
X370075D01*
Y564967D01*
X366140Y561031D01*
X362204D01*
X358268D01*
X354333Y564967D01*
Y576774D01*
Y549224D02*
Y541353D01*
X358268Y537417D01*
X370075D01*
Y549224D01*
X366140Y553160D01*
X362204Y549224D01*
Y537417D01*
X350397Y525610D02*
X354333D01*
Y529545D01*
Y521674D01*
Y525610D01*
X366140D01*
X370075Y521674D01*
X724404Y132674D02*
X728340Y136610D01*
X736212D01*
X740147Y132674D01*
Y116932D01*
X736212Y112996D01*
X728340D01*
X724404Y116932D01*
X712597Y128739D02*
X704726D01*
X700790Y124803D01*
Y112996D01*
X712597D01*
X716533Y116932D01*
X712597Y120867D01*
X700790D01*
X677176Y112996D02*
X692918D01*
X677176Y128739D01*
Y132674D01*
X681111Y136610D01*
X688983D01*
X692918Y132674D01*
X725068Y269091D02*
X721460Y272699D01*
Y279914D01*
X725068Y283522D01*
X739499D01*
X743106Y279914D01*
Y272699D01*
X739499Y269091D01*
X728676Y258268D02*
Y251052D01*
X732283Y247444D01*
X743106D01*
Y258268D01*
X739499Y261875D01*
X735891Y258268D01*
Y247444D01*
X743106Y240229D02*
Y233013D01*
Y236621D01*
X721460D01*
X725068Y240229D01*
X1192913Y981299D02*
Y1004914D01*
X1181106D01*
X1177170Y1000978D01*
Y993106D01*
X1181106Y989171D01*
X1192913D01*
X1185042D02*
X1177170Y981299D01*
X1169299Y997042D02*
Y985235D01*
X1165363Y981299D01*
X1153556D01*
Y997042D01*
X1654528Y663378D02*
Y643699D01*
X1650592Y639764D01*
X1642720D01*
X1638785Y643699D01*
Y663378D01*
X1615170Y639764D02*
X1630913D01*
X1615170Y655507D01*
Y659442D01*
X1619106Y663378D01*
X1626977D01*
X1630913Y659442D01*
X1842520Y331901D02*
Y355515D01*
X1830713D01*
X1826777Y351580D01*
Y343708D01*
X1830713Y339773D01*
X1842520D01*
X1834648D02*
X1826777Y331901D01*
X1803162Y355515D02*
Y331901D01*
X1814970D01*
X1818905Y335837D01*
Y343708D01*
X1814970Y347644D01*
X1803162D01*
X1795291Y331901D02*
X1787419D01*
X1791355D01*
Y355515D01*
X1795291Y351580D01*
X1121984Y378445D02*
Y402059D01*
X1110177D01*
X1106241Y398123D01*
Y390252D01*
X1110177Y386316D01*
X1121984D01*
X1114112D02*
X1106241Y378445D01*
X1082626Y370573D02*
Y394188D01*
X1094434D01*
X1098369Y390252D01*
Y382380D01*
X1094434Y378445D01*
X1082626D01*
X1059012Y402059D02*
X1074755D01*
Y390252D01*
X1066883Y394188D01*
X1062948D01*
X1059012Y390252D01*
Y382380D01*
X1062948Y378445D01*
X1070819D01*
X1074755Y382380D01*
X1035398Y394188D02*
X1047205D01*
X1051140Y390252D01*
Y382380D01*
X1047205Y378445D01*
X1035398D01*
X732284Y687992D02*
X755898D01*
Y699799D01*
X751962Y703735D01*
X744091D01*
X740155Y699799D01*
Y687992D01*
Y695864D02*
X732284Y703735D01*
X724412Y727349D02*
X748026D01*
Y715542D01*
X744091Y711606D01*
X736219D01*
X732284Y715542D01*
Y727349D01*
Y747028D02*
X755898D01*
X744091Y735221D01*
Y750964D01*
X748026Y774578D02*
Y762771D01*
X744091Y758835D01*
X736219D01*
X732284Y762771D01*
Y774578D01*
X970472Y687992D02*
X994087D01*
Y699799D01*
X990151Y703735D01*
X982280D01*
X978344Y699799D01*
Y687992D01*
Y695864D02*
X970472Y703735D01*
X962601Y727349D02*
X986215D01*
Y715542D01*
X982280Y711606D01*
X974408D01*
X970472Y715542D01*
Y727349D01*
X990151Y735221D02*
X994087Y739157D01*
Y747028D01*
X990151Y750964D01*
X986215D01*
X982280Y747028D01*
Y743092D01*
Y747028D01*
X978344Y750964D01*
X974408D01*
X970472Y747028D01*
Y739157D01*
X974408Y735221D01*
X986215Y774578D02*
Y762771D01*
X982280Y758835D01*
X974408D01*
X970472Y762771D01*
Y774578D01*
X1205709Y688976D02*
X1229323D01*
Y700784D01*
X1225387Y704719D01*
X1217516D01*
X1213580Y700784D01*
Y688976D01*
Y696848D02*
X1205709Y704719D01*
X1197837Y728334D02*
X1221452D01*
Y716527D01*
X1217516Y712591D01*
X1209644D01*
X1205709Y716527D01*
Y728334D01*
Y751948D02*
Y736205D01*
X1221452Y751948D01*
X1225387D01*
X1229323Y748012D01*
Y740141D01*
X1225387Y736205D01*
X1221452Y775562D02*
Y763755D01*
X1217516Y759820D01*
X1209644D01*
X1205709Y763755D01*
Y775562D01*
X1440945Y692716D02*
X1464559D01*
Y704524D01*
X1460623Y708459D01*
X1452752D01*
X1448816Y704524D01*
Y692716D01*
Y700588D02*
X1440945Y708459D01*
X1433073Y732074D02*
X1456688D01*
Y720267D01*
X1452752Y716331D01*
X1444881D01*
X1440945Y720267D01*
Y732074D01*
Y739945D02*
Y747817D01*
Y743881D01*
X1464559D01*
X1460623Y739945D01*
X1456688Y775367D02*
Y763560D01*
X1452752Y759624D01*
X1444881D01*
X1440945Y763560D01*
Y775367D01*
X1240158Y204724D02*
X1263772D01*
Y216532D01*
X1259836Y220467D01*
X1251965D01*
X1248029Y216532D01*
Y204724D01*
Y212596D02*
X1240158Y220467D01*
X1232286Y244082D02*
X1255900D01*
Y232274D01*
X1251965Y228339D01*
X1244093D01*
X1240158Y232274D01*
Y244082D01*
X1263772Y267696D02*
Y251953D01*
X1251965D01*
X1255900Y259825D01*
Y263760D01*
X1251965Y267696D01*
X1244093D01*
X1240158Y263760D01*
Y255889D01*
X1244093Y251953D01*
X1263772Y275568D02*
X1240158D01*
Y287375D01*
X1244093Y291310D01*
X1248029D01*
X1251965D01*
X1255900Y287375D01*
Y275568D01*
X871063Y509842D02*
X847449D01*
Y498035D01*
X851384Y494100D01*
X859256D01*
X863192Y498035D01*
Y509842D01*
Y501971D02*
X871063Y494100D01*
X878934Y470485D02*
X855320D01*
Y482292D01*
X859256Y486228D01*
X867127D01*
X871063Y482292D01*
Y470485D01*
Y450807D02*
X847449D01*
X859256Y462614D01*
Y446871D01*
X847449Y438999D02*
X871063D01*
Y427192D01*
X867127Y423256D01*
X863192D01*
X859256D01*
X855320Y427192D01*
Y438999D01*
X1345669Y509842D02*
X1322055D01*
Y498035D01*
X1325991Y494100D01*
X1333862D01*
X1337798Y498035D01*
Y509842D01*
Y501971D02*
X1345669Y494100D01*
X1353541Y470485D02*
X1329926D01*
Y482292D01*
X1333862Y486228D01*
X1341734D01*
X1345669Y482292D01*
Y470485D01*
Y446871D02*
Y462614D01*
X1329926Y446871D01*
X1325991D01*
X1322055Y450807D01*
Y458678D01*
X1325991Y462614D01*
X1322055Y438999D02*
X1345669D01*
Y427192D01*
X1341734Y423256D01*
X1337798D01*
X1333862D01*
X1329926Y427192D01*
Y438999D01*
X1474454Y377953D02*
Y401567D01*
X1462647D01*
X1458711Y397631D01*
Y389760D01*
X1462647Y385824D01*
X1474454D01*
X1466582D02*
X1458711Y377953D01*
X1435097Y370081D02*
Y393696D01*
X1446904D01*
X1450840Y389760D01*
Y381888D01*
X1446904Y377953D01*
X1435097D01*
X1427225D02*
X1419354D01*
X1423290D01*
Y401567D01*
X1427225Y397631D01*
X1407547Y401567D02*
Y377953D01*
X1395739D01*
X1391804Y381888D01*
Y385824D01*
Y389760D01*
X1395739Y393696D01*
X1407547D01*
X616732Y48228D02*
Y71843D01*
X604925D01*
X600989Y67907D01*
Y60035D01*
X604925Y56100D01*
X616732D01*
X608861D02*
X600989Y48228D01*
X589182Y63971D02*
X581311D01*
X577375Y60035D01*
Y48228D01*
X589182D01*
X593118Y52164D01*
X589182Y56100D01*
X577375D01*
X553761Y48228D02*
X569504D01*
X553761Y63971D01*
Y67907D01*
X557696Y71843D01*
X565568D01*
X569504Y67907D01*
X689961Y418218D02*
X666346D01*
Y406411D01*
X670282Y402475D01*
X678153D01*
X682089Y406411D01*
Y418218D01*
Y410347D02*
X689961Y402475D01*
Y390668D02*
Y382797D01*
X686025Y378861D01*
X678153D01*
X674218Y382797D01*
Y390668D01*
X678153Y394604D01*
X686025D01*
X689961Y390668D01*
Y370989D02*
Y363118D01*
Y367054D01*
X666346D01*
X670282Y370989D01*
X1013779Y416331D02*
Y392716D01*
X1001972D01*
X998037Y396652D01*
Y412395D01*
X1001972Y416331D01*
X1013779D01*
X990165Y388781D02*
X974422D01*
X966551Y416331D02*
Y392716D01*
X950808D01*
X927193Y416331D02*
X942936D01*
Y392716D01*
X927193D01*
X942936Y404524D02*
X935065D01*
X919322Y416331D02*
Y392716D01*
X907515D01*
X903579Y396652D01*
Y412395D01*
X907515Y416331D01*
X919322D01*
X879965D02*
X895707D01*
Y404524D01*
X887836Y408459D01*
X883900D01*
X879965Y404524D01*
Y396652D01*
X883900Y392716D01*
X891772D01*
X895707Y396652D01*
X663386Y776449D02*
Y752835D01*
X651579D01*
X647643Y756770D01*
Y772513D01*
X651579Y776449D01*
X663386D01*
X639771Y748899D02*
X624029D01*
X616157Y776449D02*
Y752835D01*
X600414D01*
X576800Y776449D02*
X592543D01*
Y752835D01*
X576800D01*
X592543Y764642D02*
X584671D01*
X568928Y776449D02*
Y752835D01*
X557121D01*
X553185Y756770D01*
Y772513D01*
X557121Y776449D01*
X568928D01*
X533507Y752835D02*
Y776449D01*
X545314Y764642D01*
X529571D01*
X901575Y776449D02*
Y752835D01*
X889768D01*
X885832Y756770D01*
Y772513D01*
X889768Y776449D01*
X901575D01*
X877960Y748899D02*
X862217D01*
X854346Y776449D02*
Y752835D01*
X838603D01*
X814989Y776449D02*
X830732D01*
Y752835D01*
X814989D01*
X830732Y764642D02*
X822860D01*
X807117Y776449D02*
Y752835D01*
X795310D01*
X791374Y756770D01*
Y772513D01*
X795310Y776449D01*
X807117D01*
X783503Y772513D02*
X779567Y776449D01*
X771696D01*
X767760Y772513D01*
Y768577D01*
X771696Y764642D01*
X775631D01*
X771696D01*
X767760Y760706D01*
Y756770D01*
X771696Y752835D01*
X779567D01*
X783503Y756770D01*
X1137795Y776449D02*
Y752835D01*
X1125988D01*
X1122052Y756770D01*
Y772513D01*
X1125988Y776449D01*
X1137795D01*
X1114181Y748899D02*
X1098438D01*
X1090566Y776449D02*
Y752835D01*
X1074824D01*
X1051209Y776449D02*
X1066952D01*
Y752835D01*
X1051209D01*
X1066952Y764642D02*
X1059081D01*
X1043338Y776449D02*
Y752835D01*
X1031531D01*
X1027595Y756770D01*
Y772513D01*
X1031531Y776449D01*
X1043338D01*
X1003980Y752835D02*
X1019723D01*
X1003980Y768577D01*
Y772513D01*
X1007916Y776449D01*
X1015788D01*
X1019723Y772513D01*
X1372047Y776469D02*
Y752854D01*
X1360240D01*
X1356304Y756790D01*
Y772533D01*
X1360240Y776469D01*
X1372047D01*
X1348433Y748919D02*
X1332690D01*
X1324818Y776469D02*
Y752854D01*
X1309075D01*
X1285461Y776469D02*
X1301204D01*
Y752854D01*
X1285461D01*
X1301204Y764662D02*
X1293332D01*
X1277590Y776469D02*
Y752854D01*
X1265782D01*
X1261847Y756790D01*
Y772533D01*
X1265782Y776469D01*
X1277590D01*
X1253975Y752854D02*
X1246104D01*
X1250040D01*
Y776469D01*
X1253975Y772533D01*
D61*
X934419Y1012205D02*
X1115521D01*
Y1094882D01*
X934419D02*
X1115521D01*
X934419Y1012205D02*
Y1094882D01*
X1002332Y1090043D02*
X1044852D01*
X1004301Y1017043D02*
X1046821D01*
X934419Y923228D02*
X1115521D01*
Y1005906D01*
X934419D02*
X1115521D01*
X934419Y923228D02*
Y1005906D01*
X1002332Y1001067D02*
X1044852D01*
X1004301Y928067D02*
X1046821D01*
X619094Y224415D02*
X800197D01*
X619094Y141738D02*
Y224415D01*
Y141738D02*
X800197D01*
Y224415D01*
X689764Y146577D02*
X732283D01*
X687795Y219577D02*
X730315D01*
X142067Y520161D02*
X184587D01*
X144035Y447161D02*
X186555D01*
X254468Y442322D02*
Y525000D01*
X73366Y442322D02*
X254468D01*
X73366D02*
Y525000D01*
X254468D01*
X473508Y463583D02*
Y506102D01*
X400508Y461614D02*
Y504134D01*
X395669Y393701D02*
X478346D01*
X395669D02*
Y574803D01*
X478346D01*
Y393701D02*
Y574803D01*
D62*
X422976Y193006D02*
Y295368D01*
Y193006D02*
X470220D01*
Y295368D01*
X422976D02*
X470220D01*
X1250000Y574795D02*
Y700795D01*
X1368110Y574795D02*
Y700795D01*
X1013779Y574795D02*
Y700795D01*
X1131890Y574795D02*
Y700795D01*
X777559Y574795D02*
Y700795D01*
X895669Y574795D02*
Y700795D01*
X541339Y574795D02*
Y700795D01*
X659449Y574795D02*
Y700795D01*
X895669Y220465D02*
Y346465D01*
X1013779Y220465D02*
Y346465D01*
X750155Y232492D02*
Y283673D01*
X856454D01*
Y232492D02*
Y283673D01*
X750155Y232492D02*
X856454D01*
X882874Y120877D02*
X985236D01*
Y168121D01*
X882874D02*
X985236D01*
X882874Y120877D02*
Y168121D01*
X373032Y341535D02*
Y392716D01*
X266732Y341535D02*
X373032D01*
X266732D02*
Y392716D01*
X373032D01*
X579724Y1141732D02*
X682087D01*
X579724Y1094488D02*
Y1141732D01*
Y1094488D02*
X682087D01*
Y1141732D01*
X793307Y516732D02*
X840551D01*
Y414370D02*
Y516732D01*
X793307Y414370D02*
X840551D01*
X793307D02*
Y516732D01*
X695275Y360058D02*
X797638D01*
Y407303D01*
X695275D02*
X797638D01*
X695275Y360058D02*
Y407303D01*
X812992Y300169D02*
X860236D01*
X812992D02*
Y402531D01*
X860236D01*
Y300169D02*
Y402531D01*
X1031496Y516732D02*
X1078740D01*
Y414370D02*
Y516732D01*
X1031496Y414370D02*
X1078740D01*
X1031496D02*
Y516732D01*
X1120079Y970472D02*
X1222441D01*
X1120079Y923228D02*
Y970472D01*
Y923228D02*
X1222441D01*
Y970472D01*
X1763780Y408620D02*
X1866142D01*
X1763780Y361376D02*
Y408620D01*
Y361376D02*
X1866142D01*
Y408620D01*
X531102Y79910D02*
X633465D01*
Y127154D01*
X531102D02*
X633465D01*
X531102Y79910D02*
Y127154D01*
X1482283Y407480D02*
Y454724D01*
X1379921Y407480D02*
X1482283D01*
X1379921D02*
Y454724D01*
X1482283D01*
X1267717Y414370D02*
Y516732D01*
Y414370D02*
X1314961D01*
Y516732D01*
X1267717D02*
X1314961D01*
X1178543Y297267D02*
X1225787D01*
Y194904D02*
Y297267D01*
X1178543Y194904D02*
X1225787D01*
X1178543D02*
Y297267D01*
X1429134Y672244D02*
Y774606D01*
X1381890D02*
X1429134D01*
X1381890Y672244D02*
Y774606D01*
Y672244D02*
X1429134D01*
X1147638Y669291D02*
X1194882D01*
X1147638D02*
Y771654D01*
X1194882D01*
Y669291D02*
Y771654D01*
X957677Y669291D02*
Y771654D01*
X910433D02*
X957677D01*
X910433Y669291D02*
Y771654D01*
Y669291D02*
X957677D01*
X674213Y670276D02*
X721457D01*
X674213D02*
Y772638D01*
X721457D01*
Y670276D02*
Y772638D01*
X1028937Y318898D02*
X1131299D01*
Y366142D01*
X1028937D02*
X1131299D01*
X1028937Y318898D02*
Y366142D01*
D63*
X1265748Y641732D02*
X1352362D01*
X1029527D02*
X1116142D01*
X793307D02*
X879921D01*
X557087D02*
X643701D01*
X911417Y287402D02*
X998032D01*
D64*
X794446Y242335D02*
X812163D01*
X794446Y273831D02*
X812163D01*
X311024Y382874D02*
X328740D01*
X311024Y351378D02*
X328740D01*
D65*
X1068898Y181032D02*
X1110236D01*
X1068898D02*
Y217450D01*
X1120079Y225323D02*
Y254851D01*
X1068898Y299142D02*
X1110236D01*
X1068898Y262725D02*
Y299142D01*
X1368898Y524606D02*
Y565945D01*
X1405315D01*
X1413189Y514764D02*
X1442717D01*
X1487008Y524606D02*
Y565945D01*
X1450591D02*
X1487008D01*
X1131890Y524606D02*
Y565945D01*
X1168307D01*
X1176181Y514764D02*
X1205709D01*
X1250000Y524606D02*
Y565945D01*
X1213583D02*
X1250000D01*
X895669Y524606D02*
Y565945D01*
X932087D01*
X939961Y514764D02*
X969488D01*
X1013779Y524606D02*
Y565945D01*
X977362D02*
X1013779D01*
X659646Y524606D02*
Y565945D01*
X696063D01*
X703937Y514764D02*
X733465D01*
X777756Y524606D02*
Y565945D01*
X741339D02*
X777756D01*
D66*
X807087Y350886D02*
X789376D01*
Y342030D01*
X792328Y339079D01*
X798231D01*
X801183Y342030D01*
Y350886D01*
Y344982D02*
X807087Y339079D01*
Y330223D02*
Y324320D01*
X804135Y321368D01*
X798231D01*
X795279Y324320D01*
Y330223D01*
X798231Y333175D01*
X804135D01*
X807087Y330223D01*
Y303657D02*
Y315464D01*
X795279Y303657D01*
X792328D01*
X789376Y306609D01*
Y312512D01*
X792328Y315464D01*
%TF.MD5,9c115802eb7596e0b9f930735e963a97*%
M02*
