G04*
G04 #@! TF.GenerationSoftware,Altium Limited,Altium Designer,20.2.4 (192)*
G04*
G04 Layer_Color=128*
%FSLAX25Y25*%
%MOIN*%
G70*
G04*
G04 #@! TF.SameCoordinates,81383B29-DD0C-412F-95FE-E9E56B5C578C*
G04*
G04*
G04 #@! TF.FilePolarity,Positive*
G04*
G01*
G75*
%ADD29R,0.02756X0.03543*%
%ADD38R,0.03543X0.02756*%
%ADD41R,0.04882X0.06800*%
%ADD46R,0.03000X0.03843*%
%ADD99R,0.09055X0.05906*%
%ADD100R,0.03937X0.03150*%
%ADD101R,0.03150X0.03937*%
%ADD102R,0.06800X0.04882*%
%ADD103R,0.04331X0.02362*%
D29*
X96496Y14450D02*
D03*
X90315D02*
D03*
X60000Y111811D02*
D03*
X66181D02*
D03*
X77736Y38368D02*
D03*
X71555D02*
D03*
X114035Y94685D02*
D03*
X120217D02*
D03*
X178405Y38500D02*
D03*
X184587D02*
D03*
X61319Y10353D02*
D03*
X55138D02*
D03*
X146201Y43110D02*
D03*
X140020D02*
D03*
X111102Y34252D02*
D03*
X104921D02*
D03*
D38*
X44660Y21328D02*
D03*
Y27509D02*
D03*
X81693Y49646D02*
D03*
Y43465D02*
D03*
X83661Y32045D02*
D03*
Y38226D02*
D03*
X105512Y49646D02*
D03*
Y43465D02*
D03*
X129134D02*
D03*
Y49646D02*
D03*
X120217Y27699D02*
D03*
Y21518D02*
D03*
X140551Y75433D02*
D03*
Y69252D02*
D03*
X117126Y68957D02*
D03*
Y75138D02*
D03*
X93405D02*
D03*
Y68957D02*
D03*
X69784Y69055D02*
D03*
Y75236D02*
D03*
D41*
X96651Y105354D02*
D03*
X108344D02*
D03*
X96651Y96457D02*
D03*
X108344D02*
D03*
X76811Y18308D02*
D03*
X65118D02*
D03*
X10545Y48366D02*
D03*
X22238D02*
D03*
D46*
X77140Y25808D02*
D03*
X83521D02*
D03*
X35179Y36713D02*
D03*
X28798D02*
D03*
D99*
X130905Y57874D02*
D03*
Y69685D02*
D03*
X107283Y57874D02*
D03*
Y69685D02*
D03*
X83661Y57874D02*
D03*
Y69685D02*
D03*
X60039Y57874D02*
D03*
Y69685D02*
D03*
X95472Y22441D02*
D03*
Y34252D02*
D03*
D100*
X105413Y24009D02*
D03*
X113681Y20269D02*
D03*
Y27749D02*
D03*
D101*
X142795Y58071D02*
D03*
X139055Y49803D02*
D03*
X146535D02*
D03*
X119095Y58071D02*
D03*
X115354Y49803D02*
D03*
X122835D02*
D03*
X95472Y58071D02*
D03*
X91732Y49803D02*
D03*
X99213D02*
D03*
X71870Y58071D02*
D03*
X68130Y49803D02*
D03*
X75610D02*
D03*
D102*
X43701Y54272D02*
D03*
Y42579D02*
D03*
D103*
X158130Y53248D02*
D03*
Y60728D02*
D03*
X169154Y53248D02*
D03*
Y56988D02*
D03*
Y60728D02*
D03*
M02*
