G04*
G04 #@! TF.GenerationSoftware,Altium Limited,Altium Designer,20.2.4 (192)*
G04*
G04 Layer_Color=65535*
%FSLAX25Y25*%
%MOIN*%
G70*
G04*
G04 #@! TF.SameCoordinates,81383B29-DD0C-412F-95FE-E9E56B5C578C*
G04*
G04*
G04 #@! TF.FilePolarity,Positive*
G04*
G01*
G75*
%ADD10C,0.00787*%
%ADD11C,0.00551*%
%ADD12C,0.01181*%
%ADD13C,0.00400*%
%ADD14C,0.00315*%
%ADD15C,0.00630*%
%ADD16C,0.00300*%
%ADD17C,0.00354*%
%ADD18C,0.00500*%
%ADD19C,0.00512*%
%ADD20C,0.01000*%
%ADD21C,0.00250*%
%ADD22C,0.00394*%
%ADD23C,0.00591*%
%ADD24C,0.00402*%
%ADD25C,0.00984*%
%ADD26C,0.00600*%
%ADD27C,0.00323*%
G36*
X41240Y89862D02*
Y90453D01*
X43799D01*
Y89862D01*
X41240D01*
D02*
G37*
G36*
X162526Y65755D02*
X164100D01*
Y62212D01*
X162526D01*
Y65755D01*
D02*
G37*
D10*
X163091Y35747D02*
G03*
X163091Y35747I-394J0D01*
G01*
X100323Y78378D02*
X133929D01*
X84449Y94252D02*
Y117087D01*
X149803Y94252D02*
Y117087D01*
D11*
X42254Y76142D02*
G03*
X44754Y76142I1250J0D01*
G01*
X35630D02*
X42254D01*
X35630Y56142D02*
X51378D01*
X44754Y76142D02*
X51378D01*
X25943Y8889D02*
Y6331D01*
X27222D01*
X27649Y6758D01*
Y7184D01*
X27222Y7610D01*
X25943D01*
X27222D01*
X27649Y8037D01*
Y8463D01*
X27222Y8889D01*
X25943D01*
X28928Y6331D02*
X29781D01*
X30207Y6758D01*
Y7610D01*
X29781Y8037D01*
X28928D01*
X28501Y7610D01*
Y6758D01*
X28928Y6331D01*
X31060Y8037D02*
X32765Y6331D01*
X31912Y7184D01*
X32765Y8037D01*
X31060Y6331D01*
X22532Y4070D02*
X22106Y4497D01*
X21253D01*
X20827Y4070D01*
Y3644D01*
X21253Y3218D01*
X22106D01*
X22532Y2791D01*
Y2365D01*
X22106Y1939D01*
X21253D01*
X20827Y2365D01*
X23385Y3644D02*
Y2365D01*
X23811Y1939D01*
X25091D01*
Y1512D01*
X24664Y1086D01*
X24238D01*
X25091Y1939D02*
Y3644D01*
X25943Y1939D02*
Y3644D01*
X27222D01*
X27649Y3218D01*
Y1939D01*
X29781D02*
X28928D01*
X28501Y2365D01*
Y3218D01*
X28928Y3644D01*
X29781D01*
X30207Y3218D01*
Y2791D01*
X28501D01*
X31060Y3644D02*
Y1939D01*
Y2791D01*
X31486Y3218D01*
X31912Y3644D01*
X32339D01*
X34471Y1086D02*
X34897D01*
X35323Y1512D01*
Y3644D01*
X34044D01*
X33618Y3218D01*
Y2365D01*
X34044Y1939D01*
X35323D01*
X36176Y3644D02*
Y2365D01*
X36603Y1939D01*
X37882D01*
Y1512D01*
X37455Y1086D01*
X37029D01*
X37882Y1939D02*
Y3644D01*
D12*
X189764Y53937D02*
G03*
X189764Y53937I-394J0D01*
G01*
D13*
X166677Y52211D02*
G03*
X166677Y49811I0J-1200D01*
G01*
Y49311D02*
Y49811D01*
Y52211D01*
Y52711D01*
X154778Y47811D02*
Y54211D01*
X50374Y5610D02*
Y15059D01*
X45374Y5610D02*
X50374D01*
X45374D02*
Y15059D01*
X50374D01*
X40354Y5610D02*
X43630D01*
X40354Y15059D02*
X43681D01*
X40354Y5610D02*
Y15059D01*
X155957Y3051D02*
Y8051D01*
Y3051D02*
X161957D01*
Y23051D01*
X155957D02*
X161957D01*
X155957Y3051D02*
Y23051D01*
Y8051D02*
X161957D01*
X155957Y13051D02*
X161957D01*
X155957Y18051D02*
X161957D01*
D14*
X44980Y88386D02*
Y95079D01*
X40059Y88386D02*
Y95079D01*
X43630Y5610D02*
X45374D01*
X52609Y92962D02*
X52314Y93257D01*
X51724D01*
X51429Y92962D01*
Y91782D01*
X51724Y91487D01*
X52314D01*
X52609Y91782D01*
X54085Y91487D02*
X53495D01*
X53200Y91782D01*
Y92372D01*
X53495Y92667D01*
X54085D01*
X54381Y92372D01*
Y92077D01*
X53200D01*
X54971Y91191D02*
X56152D01*
X56742Y91487D02*
X57332D01*
X57037D01*
Y92667D01*
X56742D01*
X58218Y91487D02*
Y92667D01*
X59103D01*
X59399Y92372D01*
Y91487D01*
X61170D02*
X59989D01*
X61170Y92667D01*
Y92962D01*
X60874Y93257D01*
X60284D01*
X59989Y92962D01*
X51477Y95571D02*
Y93800D01*
X52363D01*
X52658Y94095D01*
Y95275D01*
X52363Y95571D01*
X51477D01*
X54134Y93800D02*
X53543D01*
X53248Y94095D01*
Y94685D01*
X53543Y94980D01*
X54134D01*
X54429Y94685D01*
Y94390D01*
X53248D01*
X55019Y93800D02*
X55610D01*
X55314D01*
Y95571D01*
X55019Y95275D01*
X52908Y87631D02*
X52620Y87920D01*
X52042D01*
X51754Y87631D01*
Y86476D01*
X52042Y86188D01*
X52620D01*
X52908Y86476D01*
X54351Y86188D02*
X53774D01*
X53486Y86476D01*
Y87054D01*
X53774Y87342D01*
X54351D01*
X54640Y87054D01*
Y86765D01*
X53486D01*
X55217Y85899D02*
X56372D01*
X57238Y86188D02*
X57815D01*
X58103Y86476D01*
Y87054D01*
X57815Y87342D01*
X57238D01*
X56949Y87054D01*
Y86476D01*
X57238Y86188D01*
X58681Y87342D02*
Y86476D01*
X58969Y86188D01*
X59835D01*
Y87342D01*
X60701Y87631D02*
Y87342D01*
X60412D01*
X60990D01*
X60701D01*
Y86476D01*
X60990Y86188D01*
X63010D02*
X61856D01*
X63010Y87342D01*
Y87631D01*
X62721Y87920D01*
X62144D01*
X61856Y87631D01*
X42690Y84519D02*
X42979Y84808D01*
Y85385D01*
X42690Y85674D01*
X41536D01*
X41247Y85385D01*
Y84808D01*
X41536Y84519D01*
X41247Y83076D02*
Y83654D01*
X41536Y83942D01*
X42113D01*
X42401Y83654D01*
Y83076D01*
X42113Y82788D01*
X41824D01*
Y83942D01*
X40958Y82211D02*
Y81056D01*
X41247Y80479D02*
Y79902D01*
Y80190D01*
X42401D01*
Y80479D01*
X41247Y79036D02*
X42401D01*
Y78170D01*
X42113Y77881D01*
X41247D01*
Y77304D02*
Y76727D01*
Y77015D01*
X42979D01*
X42690Y77304D01*
D15*
X20085Y21575D02*
Y30236D01*
X794D02*
X20085D01*
X794Y44016D02*
X20085D01*
Y52677D01*
X794Y30236D02*
Y44016D01*
X20085Y21575D02*
X61424D01*
X20085Y52677D02*
X61424D01*
Y21575D02*
Y52677D01*
D16*
X150596Y27975D02*
Y32700D01*
Y27975D02*
X160833D01*
Y32700D01*
X150596D02*
X160833D01*
X174213Y25492D02*
X179331D01*
Y36122D01*
X174213D02*
X179331D01*
X174213Y25492D02*
Y36122D01*
X180709Y37182D02*
X185827D01*
X180709Y26552D02*
Y37182D01*
Y26552D02*
X185827D01*
Y37182D01*
X146113Y68190D02*
X164713D01*
X146113D02*
Y81190D01*
X164713D01*
Y68190D02*
Y81190D01*
X54291Y13483D02*
X59016D01*
X54291Y3247D02*
Y13483D01*
Y3247D02*
X59016D01*
Y13483D01*
X45669Y86024D02*
Y96653D01*
X50787D01*
Y86024D02*
Y96653D01*
X45669Y86024D02*
X50787D01*
X22933Y65945D02*
X27657D01*
Y76181D01*
X22933D02*
X27657D01*
X22933Y65945D02*
Y76181D01*
X171161Y37516D02*
Y42240D01*
X160925D02*
X171161D01*
X160925Y37516D02*
Y42240D01*
Y37516D02*
X171161D01*
X173024Y61060D02*
X183654D01*
Y55942D02*
Y61060D01*
X173024Y55942D02*
X183654D01*
X173024D02*
Y61060D01*
X161957Y952D02*
Y2285D01*
X161690Y2551D01*
X161157D01*
X160890Y2285D01*
Y952D01*
X160357Y2551D02*
Y1485D01*
X159824Y952D01*
X159291Y1485D01*
Y2551D01*
Y1751D01*
X160357D01*
X158758Y2551D02*
Y952D01*
X157958D01*
X157691Y1218D01*
Y1751D01*
X157958Y2018D01*
X158758D01*
X158225D02*
X157691Y2551D01*
X157158Y952D02*
X156092D01*
X156625D01*
Y2551D01*
X152882Y4051D02*
X152682Y4251D01*
Y4651D01*
X152882Y4851D01*
X153082D01*
X153282Y4651D01*
Y4451D01*
Y4651D01*
X153482Y4851D01*
X153682D01*
X153882Y4651D01*
Y4251D01*
X153682Y4051D01*
X152682Y5251D02*
X153482D01*
X153882Y5651D01*
X153482Y6050D01*
X152682D01*
X152882Y6450D02*
X152682Y6650D01*
Y7050D01*
X152882Y7250D01*
X153082D01*
X153282Y7050D01*
Y6850D01*
Y7050D01*
X153482Y7250D01*
X153682D01*
X153882Y7050D01*
Y6650D01*
X153682Y6450D01*
X152682Y9551D02*
Y10351D01*
Y9951D01*
X153882D01*
X153082Y10751D02*
X153882Y11551D01*
X153482Y11151D01*
X153082Y11551D01*
X153882Y10751D01*
Y14551D02*
X152682D01*
Y15151D01*
X152882Y15351D01*
X153282D01*
X153482Y15151D01*
Y14551D01*
Y14951D02*
X153882Y15351D01*
X153082Y15751D02*
X153882Y16551D01*
X153482Y16151D01*
X153082Y16551D01*
X153882Y15751D01*
X152882Y19851D02*
X152682Y19651D01*
Y19251D01*
X152882Y19051D01*
X153682D01*
X153882Y19251D01*
Y19651D01*
X153682Y19851D01*
X153282D01*
Y19451D01*
X153882Y20251D02*
X152682D01*
X153882Y21050D01*
X152682D01*
Y21450D02*
X153882D01*
Y22050D01*
X153682Y22250D01*
X152882D01*
X152682Y22050D01*
Y21450D01*
D17*
X163976Y35451D02*
X165213Y36688D01*
X163976D02*
X165213D01*
X163976Y35451D02*
Y36688D01*
X172008Y26932D02*
X173228D01*
X163976D02*
X165197D01*
X172008Y36688D02*
X173228D01*
X65682Y97243D02*
X65026D01*
X65354D01*
Y95604D01*
X65026Y95276D01*
X64698D01*
X64370Y95604D01*
X66338Y94948D02*
X67650D01*
X68306Y95276D02*
Y97243D01*
X68962Y96588D01*
X69618Y97243D01*
Y95276D01*
X70274Y97243D02*
X70930D01*
X70602D01*
Y95276D01*
X70274D01*
X70930D01*
X73225Y96916D02*
X72897Y97243D01*
X72241D01*
X71913Y96916D01*
Y95604D01*
X72241Y95276D01*
X72897D01*
X73225Y95604D01*
X73881Y95276D02*
Y97243D01*
X74865D01*
X75193Y96916D01*
Y96259D01*
X74865Y95932D01*
X73881D01*
X74537D02*
X75193Y95276D01*
X76833Y97243D02*
X76177D01*
X75849Y96916D01*
Y95604D01*
X76177Y95276D01*
X76833D01*
X77161Y95604D01*
Y96916D01*
X76833Y97243D01*
X77817D02*
Y95604D01*
X78145Y95276D01*
X78801D01*
X79129Y95604D01*
Y97243D01*
X81097Y96916D02*
X80769Y97243D01*
X80113D01*
X79785Y96916D01*
Y96588D01*
X80113Y96259D01*
X80769D01*
X81097Y95932D01*
Y95604D01*
X80769Y95276D01*
X80113D01*
X79785Y95604D01*
X81753Y97243D02*
Y95276D01*
X82737D01*
X83065Y95604D01*
Y95932D01*
X82737Y96259D01*
X81753D01*
X82737D01*
X83065Y96588D01*
Y96916D01*
X82737Y97243D01*
X81753D01*
D18*
X175197Y29921D02*
Y31693D01*
X178347Y29921D02*
Y31693D01*
X184843Y30981D02*
Y32752D01*
X181693Y30981D02*
Y32752D01*
X153287Y69178D02*
X157539D01*
X153287Y80201D02*
X157539D01*
X49803Y90453D02*
Y92224D01*
X46654Y90453D02*
Y92224D01*
X64370Y91339D02*
X84055D01*
Y90158D02*
Y91339D01*
X64370Y90354D02*
Y91339D01*
Y71653D02*
X84055D01*
X64370D02*
Y72835D01*
X84055Y71653D02*
Y72638D01*
X84449Y117087D02*
X149803D01*
X169514Y60243D02*
Y67724D01*
X157112Y60243D02*
X169514D01*
X157112D02*
Y67724D01*
X169514D01*
X177454Y56926D02*
X179225D01*
X177454Y60076D02*
X179225D01*
D19*
X83071Y98032D02*
Y119587D01*
X40945D02*
X83071D01*
X40945Y98032D02*
X83071D01*
X40945D02*
Y119587D01*
D20*
X129626Y3543D02*
X149705D01*
X63091D02*
X65059D01*
X63091D02*
Y66535D01*
X65059D01*
X129626D02*
X149705D01*
Y3543D02*
Y66535D01*
D21*
X51358Y77649D02*
X55610D01*
X51555Y84949D02*
X55807D01*
X62598Y77165D02*
Y85433D01*
X44488D02*
X62598D01*
X44488Y77165D02*
Y85433D01*
Y77165D02*
X62598D01*
X29232Y77334D02*
X33484D01*
X29429Y84634D02*
X33681D01*
X40472Y76850D02*
Y85118D01*
X22362D02*
X40472D01*
X22362Y76850D02*
Y85118D01*
Y76850D02*
X40472D01*
D22*
X6354Y62776D02*
X27712D01*
X17476Y54508D02*
Y62776D01*
X27712Y59232D02*
Y62776D01*
X8716Y54508D02*
X25645D01*
X6354Y57362D02*
Y62776D01*
X164272Y25885D02*
Y23918D01*
X164666Y23524D01*
X165453D01*
X165847Y23918D01*
Y25885D01*
X167815Y23524D02*
Y25885D01*
X166634Y24705D01*
X168208D01*
X2166Y40453D02*
Y42815D01*
X3347D01*
X3740Y42421D01*
Y41634D01*
X3347Y41240D01*
X2166D01*
X4528Y42815D02*
Y40453D01*
X5708D01*
X6102Y40847D01*
Y41240D01*
X5708Y41634D01*
X4528D01*
X5708D01*
X6102Y42027D01*
Y42421D01*
X5708Y42815D01*
X4528D01*
X6889Y40453D02*
X7676D01*
X7283D01*
Y42815D01*
X6889Y42421D01*
X30709Y56299D02*
Y54331D01*
X31103Y53937D01*
X31890D01*
X32284Y54331D01*
Y56299D01*
X34645D02*
X33071D01*
Y55118D01*
X33858Y55512D01*
X34251D01*
X34645Y55118D01*
Y54331D01*
X34251Y53937D01*
X33464D01*
X33071Y54331D01*
X136615Y70472D02*
Y68504D01*
X137008Y68111D01*
X137795D01*
X138189Y68504D01*
Y70472D01*
X138976Y68111D02*
X139763D01*
X139370D01*
Y70472D01*
X138976Y70078D01*
X17980Y64567D02*
Y66535D01*
X18964D01*
X19292Y66207D01*
Y65551D01*
X18964Y65223D01*
X17980D01*
X18636D02*
X19292Y64567D01*
X20932D02*
X20276D01*
X19948Y64895D01*
Y65551D01*
X20276Y65879D01*
X20932D01*
X21260Y65551D01*
Y65223D01*
X19948D01*
X21915Y64567D02*
X22571D01*
X22243D01*
Y66535D01*
X21915Y66207D01*
X54496Y13977D02*
Y16141D01*
X55578D01*
X55939Y15781D01*
Y15059D01*
X55578Y14698D01*
X54496D01*
X55217D02*
X55939Y13977D01*
X57021Y15420D02*
X57743D01*
X58103Y15059D01*
Y13977D01*
X57021D01*
X56660Y14337D01*
X57021Y14698D01*
X58103D01*
X58825Y15781D02*
X59186Y16141D01*
X59907D01*
X60268Y15781D01*
Y15420D01*
X59907Y15059D01*
X59547D01*
X59907D01*
X60268Y14698D01*
Y14337D01*
X59907Y13977D01*
X59186D01*
X58825Y14337D01*
X60939Y67655D02*
X62906D01*
Y68967D01*
X63235Y69623D02*
Y70935D01*
X60939Y71591D02*
Y72246D01*
Y71918D01*
X62906D01*
Y71591D01*
Y72246D01*
Y73230D02*
X61595D01*
Y74214D01*
X61923Y74542D01*
X62906D01*
X60939Y76510D02*
X62906D01*
Y75526D01*
X62579Y75198D01*
X61923D01*
X61595Y75526D01*
Y76510D01*
X149224Y84168D02*
X148831Y84561D01*
X148044D01*
X147650Y84168D01*
Y82593D01*
X148044Y82200D01*
X148831D01*
X149224Y82593D01*
X151192Y82200D02*
X150405D01*
X150011Y82593D01*
Y83380D01*
X150405Y83774D01*
X151192D01*
X151586Y83380D01*
Y82987D01*
X150011D01*
X152373Y81806D02*
X153947D01*
X155128Y82200D02*
X155915D01*
X156309Y82593D01*
Y83380D01*
X155915Y83774D01*
X155128D01*
X154734Y83380D01*
Y82593D01*
X155128Y82200D01*
X157096Y83774D02*
Y82593D01*
X157489Y82200D01*
X158670D01*
Y83774D01*
X159851Y84168D02*
Y83774D01*
X159457D01*
X160244D01*
X159851D01*
Y82593D01*
X160244Y82200D01*
X161425D02*
X162212D01*
X161819D01*
Y84561D01*
X161425Y84168D01*
X185335Y58303D02*
Y56336D01*
X185728Y55942D01*
X186515D01*
X186909Y56336D01*
Y58303D01*
X189270D02*
X188483Y57910D01*
X187696Y57123D01*
Y56336D01*
X188090Y55942D01*
X188877D01*
X189270Y56336D01*
Y56729D01*
X188877Y57123D01*
X187696D01*
X169639Y53150D02*
X167671D01*
X167278Y52756D01*
Y51969D01*
X167671Y51575D01*
X169639D01*
X169245Y50788D02*
X169639Y50395D01*
Y49608D01*
X169245Y49214D01*
X168852D01*
X168458Y49608D01*
Y50001D01*
Y49608D01*
X168065Y49214D01*
X167671D01*
X167278Y49608D01*
Y50395D01*
X167671Y50788D01*
X155957Y60243D02*
X153595D01*
Y61424D01*
X153989Y61818D01*
X154776D01*
X155169Y61424D01*
Y60243D01*
Y61030D02*
X155957Y61818D01*
X154382Y64179D02*
Y62998D01*
X154776Y62605D01*
X155563D01*
X155957Y62998D01*
Y64179D01*
X153989Y66540D02*
X153595Y66147D01*
Y65360D01*
X153989Y64966D01*
X154382D01*
X154776Y65360D01*
Y66147D01*
X155169Y66540D01*
X155563D01*
X155957Y66147D01*
Y65360D01*
X155563Y64966D01*
X158517Y26614D02*
Y24252D01*
X157336D01*
X156943Y24646D01*
Y25433D01*
X157336Y25827D01*
X158517D01*
X157730D02*
X156943Y26614D01*
X156155Y27401D02*
Y25040D01*
X154975D01*
X154581Y25433D01*
Y26220D01*
X154975Y26614D01*
X156155D01*
X152220D02*
X153794D01*
X152220Y25040D01*
Y24646D01*
X152613Y24252D01*
X153400D01*
X153794Y24646D01*
X159449Y36909D02*
X157087D01*
Y38090D01*
X157481Y38484D01*
X158268D01*
X158662Y38090D01*
Y36909D01*
Y37697D02*
X159449Y38484D01*
X160236Y39271D02*
X157875D01*
Y40452D01*
X158268Y40845D01*
X159055D01*
X159449Y40452D01*
Y39271D01*
Y41632D02*
Y42419D01*
Y42026D01*
X157087D01*
X157481Y41632D01*
X90551Y77165D02*
X89763D01*
X90157D01*
Y75197D01*
X89763Y74803D01*
X89370D01*
X88976Y75197D01*
X91338Y74410D02*
X92912D01*
X93699Y77165D02*
Y75197D01*
X94093Y74803D01*
X94880D01*
X95274Y75197D01*
Y77165D01*
X97635Y76771D02*
X97241Y77165D01*
X96454D01*
X96061Y76771D01*
Y76377D01*
X96454Y75984D01*
X97241D01*
X97635Y75590D01*
Y75197D01*
X97241Y74803D01*
X96454D01*
X96061Y75197D01*
X98422Y77165D02*
Y74803D01*
X99603D01*
X99996Y75197D01*
Y75590D01*
X99603Y75984D01*
X98422D01*
X99603D01*
X99996Y76377D01*
Y76771D01*
X99603Y77165D01*
X98422D01*
X100784Y74410D02*
X102358D01*
X103145Y74803D02*
Y76377D01*
X103932Y77165D01*
X104719Y76377D01*
Y74803D01*
Y75984D01*
X103145D01*
X167125Y18406D02*
Y19193D01*
Y18800D01*
X165157D01*
X164764Y19193D01*
Y19587D01*
X165157Y19980D01*
X164370Y17619D02*
Y16045D01*
X167125Y15257D02*
X165157D01*
X164764Y14864D01*
Y14077D01*
X165157Y13683D01*
X167125D01*
X164764Y12896D02*
X166338D01*
X167125Y12109D01*
X166338Y11322D01*
X164764D01*
X165945D01*
Y12896D01*
X164764Y10535D02*
X167125D01*
Y9354D01*
X166732Y8960D01*
X165945D01*
X165551Y9354D01*
Y10535D01*
Y9747D02*
X164764Y8960D01*
X167125Y8173D02*
Y6599D01*
Y7386D01*
X164764D01*
X41732Y19487D02*
X40945D01*
X41338D01*
Y17520D01*
X40945Y17126D01*
X40551D01*
X40157Y17520D01*
X42519Y16732D02*
X44093D01*
X46455Y19487D02*
X45667D01*
X46061D01*
Y17520D01*
X45667Y17126D01*
X45274D01*
X44880Y17520D01*
X47242Y18700D02*
Y17520D01*
X47635Y17126D01*
X48816D01*
Y18700D01*
X49603Y17126D02*
Y18700D01*
X49997D01*
X50390Y18307D01*
Y17126D01*
Y18307D01*
X50784Y18700D01*
X51178Y18307D01*
Y17126D01*
X51965Y16339D02*
Y18700D01*
X53145D01*
X53539Y18307D01*
Y17520D01*
X53145Y17126D01*
X51965D01*
X55507D02*
X54720D01*
X54326Y17520D01*
Y18307D01*
X54720Y18700D01*
X55507D01*
X55900Y18307D01*
Y17913D01*
X54326D01*
X56688Y18700D02*
Y17126D01*
Y17913D01*
X57081Y18307D01*
X57475Y18700D01*
X57868D01*
X2709Y53917D02*
X1994D01*
X2352D01*
Y52129D01*
X1994Y51772D01*
X1637D01*
X1280Y52129D01*
X3424Y51414D02*
X4854D01*
X5570Y53917D02*
Y51772D01*
X6642D01*
X7000Y52129D01*
Y52487D01*
X6642Y52844D01*
X5570D01*
X6642D01*
X7000Y53202D01*
Y53559D01*
X6642Y53917D01*
X5570D01*
X8072Y53202D02*
X8787D01*
X9144Y52844D01*
Y51772D01*
X8072D01*
X7715Y52129D01*
X8072Y52487D01*
X9144D01*
X10217Y53559D02*
Y53202D01*
X9859D01*
X10574D01*
X10217D01*
Y52129D01*
X10574Y51772D01*
X12004Y53559D02*
Y53202D01*
X11647D01*
X12362D01*
X12004D01*
Y52129D01*
X12362Y51772D01*
X14507D02*
X13792D01*
X13434Y52129D01*
Y52844D01*
X13792Y53202D01*
X14507D01*
X14864Y52844D01*
Y52487D01*
X13434D01*
X15579Y53202D02*
Y51772D01*
Y52487D01*
X15937Y52844D01*
X16294Y53202D01*
X16652D01*
X17724D02*
Y52129D01*
X18082Y51772D01*
X19154D01*
Y51414D01*
X18797Y51057D01*
X18439D01*
X19154Y51772D02*
Y53202D01*
X188143Y33645D02*
X188503Y34006D01*
Y34728D01*
X188143Y35089D01*
X186699D01*
X186339Y34728D01*
Y34006D01*
X186699Y33645D01*
X186339Y32563D02*
X188143D01*
X187421D01*
Y32924D01*
Y32202D01*
Y32563D01*
X188143D01*
X188503Y32202D01*
X186339Y29677D02*
Y31120D01*
X187782Y29677D01*
X188143D01*
X188503Y30038D01*
Y30759D01*
X188143Y31120D01*
X173878Y63779D02*
X173484Y64173D01*
X172697D01*
X172303Y63779D01*
Y62205D01*
X172697Y61811D01*
X173484D01*
X173878Y62205D01*
X175058Y61811D02*
Y63779D01*
Y62992D01*
X174665D01*
X175452D01*
X175058D01*
Y63779D01*
X175452Y64173D01*
X176632Y61811D02*
X177420D01*
X177026D01*
Y64173D01*
X176632Y63779D01*
X175675Y38320D02*
X175315Y38680D01*
X174593D01*
X174232Y38320D01*
Y36876D01*
X174593Y36516D01*
X175315D01*
X175675Y36876D01*
X177840Y38680D02*
Y36516D01*
X176758D01*
X176397Y36876D01*
Y37598D01*
X176758Y37959D01*
X177840D01*
X178562Y36516D02*
X179283D01*
X178922D01*
Y38680D01*
X178562Y38320D01*
D23*
X172441Y39370D02*
X173622D01*
X172441Y55118D02*
X173622D01*
X187008Y39370D02*
X188189D01*
X187008Y55118D02*
X188189D01*
Y39370D02*
Y55118D01*
X172441Y39370D02*
Y55118D01*
D24*
X42539Y5610D02*
X45374D01*
X42591Y15059D02*
X45425D01*
D25*
X24376Y20254D02*
X22146D01*
Y18581D01*
X23261D01*
X22146D01*
Y16908D01*
X27721Y20254D02*
X25491D01*
Y18581D01*
X26606Y19138D01*
X27164D01*
X27721Y18581D01*
Y17466D01*
X27164Y16908D01*
X26049D01*
X25491Y17466D01*
X28836Y19696D02*
X29394Y20254D01*
X30509D01*
X31067Y19696D01*
Y17466D01*
X30509Y16908D01*
X29394D01*
X28836Y17466D01*
Y19696D01*
X32182D02*
X32739Y20254D01*
X33854D01*
X34412Y19696D01*
Y17466D01*
X33854Y16908D01*
X32739D01*
X32182Y17466D01*
Y19696D01*
X35527D02*
X36085Y20254D01*
X37200D01*
X37757Y19696D01*
Y17466D01*
X37200Y16908D01*
X36085D01*
X35527Y17466D01*
Y19696D01*
X25491Y10531D02*
Y13877D01*
X27164D01*
X27721Y13319D01*
Y12204D01*
X27164Y11647D01*
X25491D01*
X26606D02*
X27721Y10531D01*
X28836Y13877D02*
X31067D01*
X29952D01*
Y10531D01*
X32182D02*
Y13877D01*
X33297Y12762D01*
X34412Y13877D01*
Y10531D01*
D26*
X28992Y56052D02*
X26326D01*
X27659Y54719D02*
Y57385D01*
X7732Y56052D02*
X5066D01*
D27*
X49128Y3091D02*
X49574D01*
X49351D01*
Y4206D01*
X49574Y4429D01*
X49797D01*
X50020Y4206D01*
X48682Y3537D02*
Y4206D01*
X48458Y4429D01*
X47789D01*
Y3537D01*
X47343Y4429D02*
Y3537D01*
X47120D01*
X46897Y3760D01*
Y4429D01*
Y3760D01*
X46674Y3537D01*
X46451Y3760D01*
Y4429D01*
X46005Y4875D02*
Y3537D01*
X45336D01*
X45113Y3760D01*
Y4206D01*
X45336Y4429D01*
X46005D01*
X43998D02*
X44444D01*
X44667Y4206D01*
Y3760D01*
X44444Y3537D01*
X43998D01*
X43775Y3760D01*
Y3983D01*
X44667D01*
X43329Y3537D02*
Y4429D01*
Y3983D01*
X43106Y3760D01*
X42883Y3537D01*
X42660D01*
M02*
