G04*
G04 #@! TF.GenerationSoftware,Altium Limited,Altium Designer,20.2.4 (192)*
G04*
G04 Layer_Color=32896*
%FSLAX25Y25*%
%MOIN*%
G70*
G04*
G04 #@! TF.SameCoordinates,AF803115-0C24-4DE3-BE5F-04C5706376D8*
G04*
G04*
G04 #@! TF.FilePolarity,Positive*
G04*
G01*
G75*
%ADD13C,0.00400*%
%ADD15C,0.00500*%
%ADD16C,0.00300*%
%ADD17C,0.00315*%
%ADD19C,0.00250*%
%ADD21C,0.00394*%
%ADD22C,0.00591*%
G36*
X61614Y64173D02*
X60039Y62598D01*
X58465Y64173D01*
X61614D01*
D02*
G37*
G36*
X85236D02*
X83661Y62598D01*
X82087Y64173D01*
X85236D01*
D02*
G37*
G36*
X97047Y28740D02*
X95472Y27165D01*
X93898Y28740D01*
X97047D01*
D02*
G37*
G36*
X108858Y64173D02*
X107283Y62598D01*
X105709Y64173D01*
X108858D01*
D02*
G37*
G36*
X132480D02*
X130905Y62598D01*
X129331Y64173D01*
X132480D01*
D02*
G37*
D13*
X106890Y18103D02*
X111024D01*
X106890D02*
Y21745D01*
X112008Y22532D02*
Y25485D01*
X106890Y29914D02*
X111024D01*
X106890Y26272D02*
Y29914D01*
X136890Y52461D02*
Y56595D01*
X140532D01*
X141319Y51476D02*
X144272D01*
X148701Y52461D02*
Y56595D01*
X145059D02*
X148701D01*
X113189Y52461D02*
Y56595D01*
X116831D01*
X117618Y51476D02*
X120571D01*
X125000Y52461D02*
Y56595D01*
X121358D02*
X125000D01*
X89567Y52461D02*
Y56595D01*
X93209D01*
X93996Y51476D02*
X96949D01*
X101378Y52461D02*
Y56595D01*
X97736D02*
X101378D01*
X65965Y52461D02*
Y56595D01*
X69606D01*
X70394Y51476D02*
X73347D01*
X77776Y52461D02*
Y56595D01*
X74134D02*
X77776D01*
D15*
X79445Y24234D02*
X81216D01*
X79445Y27383D02*
X81216D01*
X42126Y30906D02*
Y32677D01*
X45276Y30906D02*
Y32677D01*
X99843Y102362D02*
X104095D01*
X99843Y91339D02*
X104095D01*
D16*
X75015Y23249D02*
Y28367D01*
X85645D01*
Y23249D02*
Y28367D01*
X75015Y23249D02*
X85645D01*
X88287Y12088D02*
X98524D01*
Y16812D01*
X88287D02*
X98524D01*
X88287Y12088D02*
Y16812D01*
X41142Y37106D02*
X46260D01*
Y26476D02*
Y37106D01*
X41142Y26476D02*
X46260D01*
X41142D02*
Y37106D01*
X57972Y114173D02*
X68209D01*
X57972Y109449D02*
Y114173D01*
Y109449D02*
X68209D01*
Y114173D01*
X136811Y57480D02*
Y70079D01*
X125000Y57480D02*
Y70079D01*
X101378Y57480D02*
Y70079D01*
X113189Y57480D02*
Y70079D01*
X89567Y57480D02*
Y70079D01*
X77756Y57480D02*
Y70079D01*
X54134Y57480D02*
Y70079D01*
X65945Y57480D02*
Y70079D01*
X101378Y22047D02*
Y34646D01*
X89567Y22047D02*
Y34646D01*
X79331Y51673D02*
X84055D01*
Y41437D02*
Y51673D01*
X79331Y41437D02*
X84055D01*
X79331D02*
Y51673D01*
X69528Y36006D02*
X79764D01*
Y40730D01*
X69528D02*
X79764D01*
X69528Y36006D02*
Y40730D01*
X81299Y30017D02*
X86024D01*
X81299D02*
Y40253D01*
X86024D01*
Y30017D02*
Y40253D01*
X92668Y90350D02*
Y103350D01*
X111268D01*
Y90350D02*
Y103350D01*
X92668Y90350D02*
X111268D01*
X103150Y51673D02*
X107874D01*
Y41437D02*
Y51673D01*
X103150Y41437D02*
X107874D01*
X103150D02*
Y51673D01*
X112008Y97047D02*
X122244D01*
X112008Y92323D02*
Y97047D01*
Y92323D02*
X122244D01*
Y97047D01*
X176378Y40862D02*
X186614D01*
X176378Y36138D02*
Y40862D01*
Y36138D02*
X186614D01*
Y40862D01*
X53110Y7991D02*
X63346D01*
Y12715D01*
X53110D02*
X63346D01*
X53110Y7991D02*
Y12715D01*
X148228Y40748D02*
Y45472D01*
X137992Y40748D02*
X148228D01*
X137992D02*
Y45472D01*
X148228D01*
X126772Y41437D02*
Y51673D01*
Y41437D02*
X131496D01*
Y51673D01*
X126772D02*
X131496D01*
X117854Y29727D02*
X122579D01*
Y19490D02*
Y29727D01*
X117854Y19490D02*
X122579D01*
X117854D02*
Y29727D01*
X142913Y67224D02*
Y77461D01*
X138189D02*
X142913D01*
X138189Y67224D02*
Y77461D01*
Y67224D02*
X142913D01*
X114764Y66929D02*
X119488D01*
X114764D02*
Y77165D01*
X119488D01*
Y66929D02*
Y77165D01*
X95768Y66929D02*
Y77165D01*
X91043D02*
X95768D01*
X91043Y66929D02*
Y77165D01*
Y66929D02*
X95768D01*
X67421Y67028D02*
X72146D01*
X67421D02*
Y77264D01*
X72146D01*
Y67028D02*
Y77264D01*
X102894Y31890D02*
X113130D01*
Y36614D01*
X102894D02*
X113130D01*
X102894Y31890D02*
Y36614D01*
D17*
X80709Y35089D02*
X78938D01*
Y34203D01*
X79233Y33908D01*
X79823D01*
X80118Y34203D01*
Y35089D01*
Y34498D02*
X80709Y33908D01*
Y33022D02*
Y32432D01*
X80414Y32137D01*
X79823D01*
X79528Y32432D01*
Y33022D01*
X79823Y33318D01*
X80414D01*
X80709Y33022D01*
Y30366D02*
Y31546D01*
X79528Y30366D01*
X79233D01*
X78938Y30661D01*
Y31251D01*
X79233Y31546D01*
D19*
X61909Y22442D02*
X80020D01*
X61909Y14174D02*
Y22442D01*
Y14174D02*
X80020D01*
Y22442D01*
X68976Y14658D02*
X73228D01*
X68779Y21958D02*
X73032D01*
X14207Y52016D02*
X18459D01*
X14403Y44716D02*
X18655D01*
X25447Y44232D02*
Y52500D01*
X7337Y44232D02*
X25447D01*
X7337D02*
Y52500D01*
X25447D01*
X47351Y46358D02*
Y50610D01*
X40051Y46161D02*
Y50413D01*
X39567Y39370D02*
X47835D01*
X39567D02*
Y57480D01*
X47835D01*
Y39370D02*
Y57480D01*
D21*
X162653Y62992D02*
G03*
X164631Y62992I989J0D01*
G01*
X159803Y50984D02*
X167480D01*
X159803Y62992D02*
X167480D01*
X21947Y42519D02*
X22341Y42913D01*
X23128D01*
X23521Y42519D01*
Y40945D01*
X23128Y40551D01*
X22341D01*
X21947Y40945D01*
X20766Y40551D02*
Y42519D01*
Y41732D01*
X21160D01*
X20373D01*
X20766D01*
Y42519D01*
X20373Y42913D01*
X19192Y40158D02*
X17618D01*
X16831Y42913D02*
Y40551D01*
X15650D01*
X15256Y40945D01*
Y41339D01*
Y41732D01*
X15650Y42126D01*
X16831D01*
X14076D02*
X13288D01*
X12895Y41732D01*
Y40551D01*
X14076D01*
X14469Y40945D01*
X14076Y41339D01*
X12895D01*
X11714Y42519D02*
Y42126D01*
X12108D01*
X11321D01*
X11714D01*
Y40945D01*
X11321Y40551D01*
X10140D02*
X9353D01*
X9746D01*
Y42913D01*
X10140Y42519D01*
X111024Y50984D02*
X108662D01*
Y49804D01*
X109056Y49410D01*
X109843D01*
X110237Y49804D01*
Y50984D01*
Y50197D02*
X111024Y49410D01*
X111811Y47049D02*
X109449D01*
Y48229D01*
X109843Y48623D01*
X110630D01*
X111024Y48229D01*
Y47049D01*
X109056Y46261D02*
X108662Y45868D01*
Y45081D01*
X109056Y44687D01*
X109449D01*
X109843Y45081D01*
Y45474D01*
Y45081D01*
X110237Y44687D01*
X110630D01*
X111024Y45081D01*
Y45868D01*
X110630Y46261D01*
X108662Y43900D02*
X111024D01*
Y42719D01*
X110630Y42326D01*
X110237D01*
X109843D01*
X109449Y42719D01*
Y43900D01*
X68896Y115453D02*
Y117815D01*
X67715D01*
X67321Y117421D01*
Y116634D01*
X67715Y116240D01*
X68896D01*
X68109D02*
X67321Y115453D01*
X66141D02*
Y117421D01*
Y116634D01*
X66534D01*
X65747D01*
X66141D01*
Y117421D01*
X65747Y117815D01*
X64566Y115059D02*
X62992D01*
X62205Y115453D02*
X61418D01*
X61811D01*
Y117027D01*
X62205D01*
X60237Y115453D02*
Y117027D01*
X59056D01*
X58663Y116634D01*
Y115453D01*
X57876D02*
X57089D01*
X57482D01*
Y117815D01*
X57876Y117421D01*
X96161Y8889D02*
Y11250D01*
X94980D01*
X94586Y10857D01*
Y10070D01*
X94980Y9676D01*
X96161D01*
X95373D02*
X94586Y8889D01*
X93405Y10463D02*
X92618D01*
X92225Y10070D01*
Y8889D01*
X93405D01*
X93799Y9283D01*
X93405Y9676D01*
X92225D01*
X91438Y8889D02*
X90650D01*
X91044D01*
Y11250D01*
X91438Y10857D01*
X109547Y14863D02*
Y16437D01*
X109941Y16830D01*
X110728D01*
X111121Y16437D01*
Y14863D01*
X110728Y14469D01*
X109941D01*
X110334Y15256D02*
X109547Y14469D01*
X109941D02*
X109547Y14863D01*
X107186Y16830D02*
X108760D01*
Y15650D01*
X107973Y16043D01*
X107579D01*
X107186Y15650D01*
Y14863D01*
X107579Y14469D01*
X108366D01*
X108760Y14863D01*
X72539Y61811D02*
Y63386D01*
X72933Y63779D01*
X73720D01*
X74114Y63386D01*
Y61811D01*
X73720Y61418D01*
X72933D01*
X73326Y62205D02*
X72539Y61418D01*
X72933D02*
X72539Y61811D01*
X70571Y61418D02*
Y63779D01*
X71752Y62598D01*
X70178D01*
X95958Y61811D02*
Y63386D01*
X96352Y63779D01*
X97139D01*
X97532Y63386D01*
Y61811D01*
X97139Y61418D01*
X96352D01*
X96745Y62205D02*
X95958Y61418D01*
X96352D02*
X95958Y61811D01*
X95171Y63386D02*
X94778Y63779D01*
X93990D01*
X93597Y63386D01*
Y62992D01*
X93990Y62598D01*
X94384D01*
X93990D01*
X93597Y62205D01*
Y61811D01*
X93990Y61418D01*
X94778D01*
X95171Y61811D01*
X119685D02*
Y63386D01*
X120079Y63779D01*
X120866D01*
X121259Y63386D01*
Y61811D01*
X120866Y61418D01*
X120079D01*
X120472Y62205D02*
X119685Y61418D01*
X120079D02*
X119685Y61811D01*
X117324Y61418D02*
X118898D01*
X117324Y62992D01*
Y63386D01*
X117717Y63779D01*
X118504D01*
X118898Y63386D01*
X142913Y61811D02*
Y63386D01*
X143307Y63779D01*
X144094D01*
X144488Y63386D01*
Y61811D01*
X144094Y61418D01*
X143307D01*
X143701Y62205D02*
X142913Y61418D01*
X143307D02*
X142913Y61811D01*
X142126Y61418D02*
X141339D01*
X141733D01*
Y63779D01*
X142126Y63386D01*
X38150Y35818D02*
X37756Y36211D01*
Y36999D01*
X38150Y37392D01*
X39724D01*
X40118Y36999D01*
Y36211D01*
X39724Y35818D01*
X40118Y34637D02*
X38150D01*
X38937D01*
Y35031D01*
Y34244D01*
Y34637D01*
X38150D01*
X37756Y34244D01*
X40511Y33063D02*
Y31488D01*
X37756Y30701D02*
X40118D01*
Y29521D01*
X39724Y29127D01*
X39331D01*
X38937D01*
X38543Y29521D01*
Y30701D01*
Y27946D02*
Y27159D01*
X38937Y26766D01*
X40118D01*
Y27946D01*
X39724Y28340D01*
X39331Y27946D01*
Y26766D01*
X38150Y25585D02*
X38543D01*
Y25978D01*
Y25191D01*
Y25585D01*
X39724D01*
X40118Y25191D01*
Y22436D02*
Y24011D01*
X38543Y22436D01*
X38150D01*
X37756Y22830D01*
Y23617D01*
X38150Y24011D01*
X35040Y63187D02*
X34646Y63581D01*
Y64368D01*
X35040Y64762D01*
X36614D01*
X37007Y64368D01*
Y63581D01*
X36614Y63187D01*
X37007Y61220D02*
Y62007D01*
X36614Y62400D01*
X35827D01*
X35433Y62007D01*
Y61220D01*
X35827Y60826D01*
X36220D01*
Y62400D01*
X37401Y60039D02*
Y58465D01*
X34646Y57677D02*
X37007D01*
Y56497D01*
X36614Y56103D01*
X36220D01*
X35827D01*
X35433Y56497D01*
Y57677D01*
Y54922D02*
Y54135D01*
X35827Y53742D01*
X37007D01*
Y54922D01*
X36614Y55316D01*
X36220Y54922D01*
Y53742D01*
X35040Y52561D02*
X35433D01*
Y52955D01*
Y52167D01*
Y52561D01*
X36614D01*
X37007Y52167D01*
X72440Y13267D02*
X72834Y13661D01*
X73621D01*
X74015Y13267D01*
Y11693D01*
X73621Y11300D01*
X72834D01*
X72440Y11693D01*
X71260Y12874D02*
X70473D01*
X70079Y12480D01*
Y11300D01*
X71260D01*
X71653Y11693D01*
X71260Y12087D01*
X70079D01*
X67718Y11300D02*
X69292D01*
X67718Y12874D01*
Y13267D01*
X68111Y13661D01*
X68898D01*
X69292Y13267D01*
X72507Y26909D02*
X72146Y27270D01*
Y27991D01*
X72507Y28352D01*
X73950D01*
X74311Y27991D01*
Y27270D01*
X73950Y26909D01*
X72868Y25827D02*
Y25105D01*
X73228Y24744D01*
X74311D01*
Y25827D01*
X73950Y26188D01*
X73589Y25827D01*
Y24744D01*
X74311Y24023D02*
Y23301D01*
Y23662D01*
X72146D01*
X72507Y24023D01*
X119291Y98130D02*
Y100491D01*
X118111D01*
X117717Y100098D01*
Y99311D01*
X118111Y98917D01*
X119291D01*
X118504D02*
X117717Y98130D01*
X116930Y99704D02*
Y98523D01*
X116536Y98130D01*
X115356D01*
Y99704D01*
X165453Y66338D02*
Y64370D01*
X165059Y63976D01*
X164272D01*
X163879Y64370D01*
Y66338D01*
X161517Y63976D02*
X163091D01*
X161517Y65551D01*
Y65944D01*
X161911Y66338D01*
X162698D01*
X163091Y65944D01*
X184252Y33190D02*
Y35552D01*
X183071D01*
X182678Y35158D01*
Y34371D01*
X183071Y33977D01*
X184252D01*
X183465D02*
X182678Y33190D01*
X180316Y35552D02*
Y33190D01*
X181497D01*
X181890Y33584D01*
Y34371D01*
X181497Y34764D01*
X180316D01*
X179529Y33190D02*
X178742D01*
X179136D01*
Y35552D01*
X179529Y35158D01*
X112198Y37844D02*
Y40206D01*
X111018D01*
X110624Y39812D01*
Y39025D01*
X111018Y38632D01*
X112198D01*
X111411D02*
X110624Y37844D01*
X108263Y37057D02*
Y39419D01*
X109443D01*
X109837Y39025D01*
Y38238D01*
X109443Y37844D01*
X108263D01*
X105901Y40206D02*
X107475D01*
Y39025D01*
X106688Y39419D01*
X106295D01*
X105901Y39025D01*
Y38238D01*
X106295Y37844D01*
X107082D01*
X107475Y38238D01*
X103540Y39419D02*
X104720D01*
X105114Y39025D01*
Y38238D01*
X104720Y37844D01*
X103540D01*
X73228Y68799D02*
X75590D01*
Y69980D01*
X75196Y70373D01*
X74409D01*
X74015Y69980D01*
Y68799D01*
Y69586D02*
X73228Y70373D01*
X72441Y72735D02*
X74803D01*
Y71554D01*
X74409Y71161D01*
X73622D01*
X73228Y71554D01*
Y72735D01*
Y74703D02*
X75590D01*
X74409Y73522D01*
Y75096D01*
X74803Y77458D02*
Y76277D01*
X74409Y75884D01*
X73622D01*
X73228Y76277D01*
Y77458D01*
X97047Y68799D02*
X99409D01*
Y69980D01*
X99015Y70373D01*
X98228D01*
X97834Y69980D01*
Y68799D01*
Y69586D02*
X97047Y70373D01*
X96260Y72735D02*
X98621D01*
Y71554D01*
X98228Y71161D01*
X97441D01*
X97047Y71554D01*
Y72735D01*
X99015Y73522D02*
X99409Y73916D01*
Y74703D01*
X99015Y75096D01*
X98621D01*
X98228Y74703D01*
Y74309D01*
Y74703D01*
X97834Y75096D01*
X97441D01*
X97047Y74703D01*
Y73916D01*
X97441Y73522D01*
X98621Y77458D02*
Y76277D01*
X98228Y75884D01*
X97441D01*
X97047Y76277D01*
Y77458D01*
X120571Y68898D02*
X122932D01*
Y70078D01*
X122539Y70472D01*
X121752D01*
X121358Y70078D01*
Y68898D01*
Y69685D02*
X120571Y70472D01*
X119784Y72833D02*
X122145D01*
Y71653D01*
X121752Y71259D01*
X120964D01*
X120571Y71653D01*
Y72833D01*
Y75195D02*
Y73620D01*
X122145Y75195D01*
X122539D01*
X122932Y74801D01*
Y74014D01*
X122539Y73620D01*
X122145Y77556D02*
Y76376D01*
X121752Y75982D01*
X120964D01*
X120571Y76376D01*
Y77556D01*
X144095Y69272D02*
X146456D01*
Y70452D01*
X146062Y70846D01*
X145275D01*
X144882Y70452D01*
Y69272D01*
Y70059D02*
X144095Y70846D01*
X143307Y73207D02*
X145669D01*
Y72027D01*
X145275Y71633D01*
X144488D01*
X144095Y72027D01*
Y73207D01*
Y73994D02*
Y74782D01*
Y74388D01*
X146456D01*
X146062Y73994D01*
X145669Y77537D02*
Y76356D01*
X145275Y75962D01*
X144488D01*
X144095Y76356D01*
Y77537D01*
X124016Y20472D02*
X126377D01*
Y21653D01*
X125984Y22047D01*
X125197D01*
X124803Y21653D01*
Y20472D01*
Y21260D02*
X124016Y22047D01*
X123229Y24408D02*
X125590D01*
Y23227D01*
X125197Y22834D01*
X124409D01*
X124016Y23227D01*
Y24408D01*
X126377Y26770D02*
Y25195D01*
X125197D01*
X125590Y25982D01*
Y26376D01*
X125197Y26770D01*
X124409D01*
X124016Y26376D01*
Y25589D01*
X124409Y25195D01*
X126377Y27557D02*
X124016D01*
Y28738D01*
X124409Y29131D01*
X124803D01*
X125197D01*
X125590Y28738D01*
Y27557D01*
X87106Y50984D02*
X84745D01*
Y49804D01*
X85138Y49410D01*
X85926D01*
X86319Y49804D01*
Y50984D01*
Y50197D02*
X87106Y49410D01*
X87893Y47049D02*
X85532D01*
Y48229D01*
X85926Y48623D01*
X86713D01*
X87106Y48229D01*
Y47049D01*
Y45081D02*
X84745D01*
X85926Y46261D01*
Y44687D01*
X84745Y43900D02*
X87106D01*
Y42719D01*
X86713Y42326D01*
X86319D01*
X85926D01*
X85532Y42719D01*
Y43900D01*
X134567Y50984D02*
X132205D01*
Y49804D01*
X132599Y49410D01*
X133386D01*
X133780Y49804D01*
Y50984D01*
Y50197D02*
X134567Y49410D01*
X135354Y47049D02*
X132993D01*
Y48229D01*
X133386Y48623D01*
X134173D01*
X134567Y48229D01*
Y47049D01*
Y44687D02*
Y46261D01*
X132993Y44687D01*
X132599D01*
X132205Y45081D01*
Y45868D01*
X132599Y46261D01*
X132205Y43900D02*
X134567D01*
Y42719D01*
X134173Y42326D01*
X133780D01*
X133386D01*
X132993Y42719D01*
Y43900D01*
X147445Y37795D02*
Y40157D01*
X146265D01*
X145871Y39763D01*
Y38976D01*
X146265Y38582D01*
X147445D01*
X146658D02*
X145871Y37795D01*
X143510Y37008D02*
Y39370D01*
X144690D01*
X145084Y38976D01*
Y38189D01*
X144690Y37795D01*
X143510D01*
X142722D02*
X141935D01*
X142329D01*
Y40157D01*
X142722Y39763D01*
X140755Y40157D02*
Y37795D01*
X139574D01*
X139180Y38189D01*
Y38582D01*
Y38976D01*
X139574Y39370D01*
X140755D01*
X61673Y4823D02*
Y7184D01*
X60492D01*
X60099Y6791D01*
Y6004D01*
X60492Y5610D01*
X61673D01*
X60886D02*
X60099Y4823D01*
X58918Y6397D02*
X58131D01*
X57737Y6004D01*
Y4823D01*
X58918D01*
X59312Y5216D01*
X58918Y5610D01*
X57737D01*
X55376Y4823D02*
X56950D01*
X55376Y6397D01*
Y6791D01*
X55770Y7184D01*
X56557D01*
X56950Y6791D01*
X68996Y41822D02*
X66635D01*
Y40641D01*
X67028Y40247D01*
X67815D01*
X68209Y40641D01*
Y41822D01*
Y41035D02*
X68996Y40247D01*
Y39067D02*
Y38280D01*
X68603Y37886D01*
X67815D01*
X67422Y38280D01*
Y39067D01*
X67815Y39460D01*
X68603D01*
X68996Y39067D01*
Y37099D02*
Y36312D01*
Y36705D01*
X66635D01*
X67028Y37099D01*
X101378Y41633D02*
Y39272D01*
X100197D01*
X99804Y39665D01*
Y41240D01*
X100197Y41633D01*
X101378D01*
X99016Y38878D02*
X97442D01*
X96655Y41633D02*
Y39272D01*
X95081D01*
X92719Y41633D02*
X94294D01*
Y39272D01*
X92719D01*
X94294Y40452D02*
X93506D01*
X91932Y41633D02*
Y39272D01*
X90751D01*
X90358Y39665D01*
Y41240D01*
X90751Y41633D01*
X91932D01*
X87997D02*
X89571D01*
Y40452D01*
X88784Y40846D01*
X88390D01*
X87997Y40452D01*
Y39665D01*
X88390Y39272D01*
X89177D01*
X89571Y39665D01*
X66339Y77645D02*
Y75283D01*
X65158D01*
X64764Y75677D01*
Y77251D01*
X65158Y77645D01*
X66339D01*
X63977Y74890D02*
X62403D01*
X61616Y77645D02*
Y75283D01*
X60041D01*
X57680Y77645D02*
X59254D01*
Y75283D01*
X57680D01*
X59254Y76464D02*
X58467D01*
X56893Y77645D02*
Y75283D01*
X55712D01*
X55318Y75677D01*
Y77251D01*
X55712Y77645D01*
X56893D01*
X53351Y75283D02*
Y77645D01*
X54531Y76464D01*
X52957D01*
X90158Y77645D02*
Y75283D01*
X88977D01*
X88583Y75677D01*
Y77251D01*
X88977Y77645D01*
X90158D01*
X87796Y74890D02*
X86222D01*
X85435Y77645D02*
Y75283D01*
X83860D01*
X81499Y77645D02*
X83073D01*
Y75283D01*
X81499D01*
X83073Y76464D02*
X82286D01*
X80712Y77645D02*
Y75283D01*
X79531D01*
X79137Y75677D01*
Y77251D01*
X79531Y77645D01*
X80712D01*
X78350Y77251D02*
X77957Y77645D01*
X77170D01*
X76776Y77251D01*
Y76858D01*
X77170Y76464D01*
X77563D01*
X77170D01*
X76776Y76071D01*
Y75677D01*
X77170Y75283D01*
X77957D01*
X78350Y75677D01*
X113779Y77645D02*
Y75283D01*
X112599D01*
X112205Y75677D01*
Y77251D01*
X112599Y77645D01*
X113779D01*
X111418Y74890D02*
X109844D01*
X109057Y77645D02*
Y75283D01*
X107482D01*
X105121Y77645D02*
X106695D01*
Y75283D01*
X105121D01*
X106695Y76464D02*
X105908D01*
X104334Y77645D02*
Y75283D01*
X103153D01*
X102760Y75677D01*
Y77251D01*
X103153Y77645D01*
X104334D01*
X100398Y75283D02*
X101972D01*
X100398Y76858D01*
Y77251D01*
X100792Y77645D01*
X101579D01*
X101972Y77251D01*
X137205Y77647D02*
Y75285D01*
X136024D01*
X135630Y75679D01*
Y77253D01*
X136024Y77647D01*
X137205D01*
X134843Y74892D02*
X133269D01*
X132482Y77647D02*
Y75285D01*
X130907D01*
X128546Y77647D02*
X130120D01*
Y75285D01*
X128546D01*
X130120Y76466D02*
X129333D01*
X127759Y77647D02*
Y75285D01*
X126578D01*
X126185Y75679D01*
Y77253D01*
X126578Y77647D01*
X127759D01*
X125398Y75285D02*
X124610D01*
X125004D01*
Y77647D01*
X125398Y77253D01*
X106890Y106594D02*
X107284Y106987D01*
X108071D01*
X108465Y106594D01*
Y105020D01*
X108071Y104626D01*
X107284D01*
X106890Y105020D01*
X105710Y104626D02*
Y106594D01*
Y105807D01*
X106103D01*
X105316D01*
X105710D01*
Y106594D01*
X105316Y106987D01*
X104135Y104232D02*
X102561D01*
X101380Y104626D02*
X100593D01*
X100199Y105020D01*
Y105807D01*
X100593Y106200D01*
X101380D01*
X101774Y105807D01*
Y105020D01*
X101380Y104626D01*
X99412Y106200D02*
Y105020D01*
X99019Y104626D01*
X97838D01*
Y106200D01*
X96657Y106594D02*
Y106200D01*
X97051D01*
X96264D01*
X96657D01*
Y105020D01*
X96264Y104626D01*
D22*
X126575Y64173D02*
X135236D01*
X102953D02*
X111614D01*
X79331D02*
X87992D01*
X55709D02*
X64370D01*
X91142Y28740D02*
X99803D01*
M02*
