G04*
G04 #@! TF.GenerationSoftware,Altium Limited,Altium Designer,19.0.11 (319)*
G04*
G04 Layer_Color=8421504*
%FSLAX25Y25*%
%MOIN*%
G70*
G01*
G75*
%ADD34R,0.01693X0.01378*%
%ADD35R,0.01378X0.01693*%
%ADD36R,0.01121X0.03150*%
%ADD37R,0.03150X0.01121*%
%ADD38R,0.03937X0.07874*%
%ADD39R,0.11024X0.02756*%
%ADD40R,0.06000X0.02100*%
%ADD41R,0.04200X0.01654*%
%ADD42R,0.02795X0.01587*%
%ADD43R,0.11811X0.08661*%
%ADD44R,0.01181X0.01968*%
%ADD45R,0.01221X0.02598*%
%ADD46R,0.10630X0.10630*%
%ADD47R,0.02913X0.01024*%
%ADD48R,0.01024X0.02913*%
%ADD49R,0.04882X0.11063*%
%ADD50R,0.15748X0.05906*%
%ADD51R,0.05512X0.03937*%
%ADD52R,0.03543X0.02756*%
%ADD53R,0.02756X0.03543*%
G04:AMPARAMS|DCode=54|XSize=21.65mil|YSize=21.65mil|CornerRadius=5.41mil|HoleSize=0mil|Usage=FLASHONLY|Rotation=0.000|XOffset=0mil|YOffset=0mil|HoleType=Round|Shape=RoundedRectangle|*
%AMROUNDEDRECTD54*
21,1,0.02165,0.01083,0,0,0.0*
21,1,0.01083,0.02165,0,0,0.0*
1,1,0.01083,0.00541,-0.00541*
1,1,0.01083,-0.00541,-0.00541*
1,1,0.01083,-0.00541,0.00541*
1,1,0.01083,0.00541,0.00541*
%
%ADD54ROUNDEDRECTD54*%
%ADD55R,0.03843X0.03000*%
%ADD56R,0.03000X0.03843*%
%ADD57R,0.02165X0.02165*%
%ADD58R,0.04331X0.03858*%
%ADD59R,0.02362X0.04331*%
%ADD60R,0.01575X0.04331*%
G36*
X38957Y60707D02*
Y56929D01*
X35165D01*
Y60707D01*
X38957D01*
D02*
G37*
G36*
Y65519D02*
Y61732D01*
X35170D01*
Y65519D01*
X38957D01*
D02*
G37*
G36*
X43760Y60708D02*
Y56929D01*
X39981D01*
Y60708D01*
X43760D01*
D02*
G37*
G36*
Y65517D02*
Y61732D01*
X39981D01*
Y65517D01*
X43760D01*
D02*
G37*
G36*
X105413Y24902D02*
X110531D01*
Y19783D01*
X105413D01*
Y24902D01*
D02*
G37*
G36*
Y31201D02*
X110531D01*
Y26083D01*
X105413D01*
Y31201D01*
D02*
G37*
G36*
X111713Y24902D02*
X116831D01*
Y19783D01*
X111713D01*
Y24902D01*
D02*
G37*
G36*
Y31201D02*
X116831D01*
Y26083D01*
X111713D01*
Y31201D01*
D02*
G37*
D34*
X165669Y34800D02*
D03*
Y32831D02*
D03*
Y30863D02*
D03*
Y28894D02*
D03*
X171535D02*
D03*
Y30863D02*
D03*
Y32831D02*
D03*
Y34800D02*
D03*
D35*
X167618Y28914D02*
D03*
X169587D02*
D03*
Y34780D02*
D03*
X167618D02*
D03*
D36*
X118012Y15650D02*
D03*
X116043D02*
D03*
X114075D02*
D03*
X112106D02*
D03*
X110138D02*
D03*
X108169D02*
D03*
X106201D02*
D03*
X104232D02*
D03*
Y35335D02*
D03*
X106201D02*
D03*
X108169D02*
D03*
X110138D02*
D03*
X112106D02*
D03*
X114075D02*
D03*
X116043D02*
D03*
X118012D02*
D03*
D37*
X101279Y18602D02*
D03*
Y20571D02*
D03*
Y22539D02*
D03*
Y24508D02*
D03*
Y26476D02*
D03*
Y28445D02*
D03*
Y30413D02*
D03*
Y32382D02*
D03*
X120965D02*
D03*
Y30413D02*
D03*
Y28445D02*
D03*
Y26476D02*
D03*
Y24508D02*
D03*
Y22539D02*
D03*
Y20571D02*
D03*
Y18602D02*
D03*
D38*
X141634Y12303D02*
D03*
X162106D02*
D03*
D39*
X151870Y8760D02*
D03*
X151772Y15453D02*
D03*
D40*
X68813Y21142D02*
D03*
Y26142D02*
D03*
Y31142D02*
D03*
Y36142D02*
D03*
X38667D02*
D03*
Y31142D02*
D03*
Y26142D02*
D03*
Y21142D02*
D03*
D41*
X155709Y56122D02*
D03*
X155689Y53563D02*
D03*
X155709Y51004D02*
D03*
Y48445D02*
D03*
X165709D02*
D03*
Y51004D02*
D03*
Y53563D02*
D03*
Y56122D02*
D03*
D42*
X50886Y85236D02*
D03*
X43012D02*
D03*
D43*
X180315Y47244D02*
D03*
D44*
X175591Y40748D02*
D03*
X178740D02*
D03*
X181890D02*
D03*
X185039D02*
D03*
X175591Y53740D02*
D03*
X178740D02*
D03*
X181890D02*
D03*
X185039D02*
D03*
D45*
X133661Y56339D02*
D03*
X131693D02*
D03*
X129724D02*
D03*
Y50551D02*
D03*
X131693D02*
D03*
X133661D02*
D03*
D46*
X39469Y61221D02*
D03*
D47*
X47028Y66142D02*
D03*
Y64173D02*
D03*
Y62205D02*
D03*
Y60236D02*
D03*
Y58268D02*
D03*
Y56299D02*
D03*
X31909D02*
D03*
Y58268D02*
D03*
Y60236D02*
D03*
Y62205D02*
D03*
Y64173D02*
D03*
Y66142D02*
D03*
D48*
X44390Y53661D02*
D03*
X42421D02*
D03*
X40453D02*
D03*
X38484D02*
D03*
X36516D02*
D03*
X34547D02*
D03*
Y68779D02*
D03*
X36516D02*
D03*
X38484D02*
D03*
X40453D02*
D03*
X42421D02*
D03*
X44390D02*
D03*
D49*
X75925Y87894D02*
D03*
X64232D02*
D03*
X139232Y69193D02*
D03*
X150925D02*
D03*
D50*
X67421Y50295D02*
D03*
Y64862D02*
D03*
X115748Y52165D02*
D03*
Y66732D02*
D03*
D51*
X147051Y58091D02*
D03*
Y51555D02*
D03*
D52*
X128935Y40492D02*
D03*
Y34311D02*
D03*
X81988Y21024D02*
D03*
Y27205D02*
D03*
X25591Y64961D02*
D03*
Y71142D02*
D03*
X140059Y47789D02*
D03*
Y53971D02*
D03*
X154528Y38287D02*
D03*
Y32106D02*
D03*
D53*
X134606Y33760D02*
D03*
X140787D02*
D03*
X117756Y6103D02*
D03*
X111575D02*
D03*
X108130Y44291D02*
D03*
X114311D02*
D03*
X19744Y58858D02*
D03*
X25925D02*
D03*
X27126Y76575D02*
D03*
X33307D02*
D03*
X22756Y48028D02*
D03*
X28937D02*
D03*
X25925Y53443D02*
D03*
X19744D02*
D03*
X140689Y42618D02*
D03*
X134508D02*
D03*
X169134Y39878D02*
D03*
X162953D02*
D03*
D54*
X126672Y16437D02*
D03*
X130415D02*
D03*
X125983Y20571D02*
D03*
X131104Y12303D02*
D03*
D55*
X176772Y33998D02*
D03*
Y27617D02*
D03*
X53051Y55609D02*
D03*
Y61990D02*
D03*
X86614Y62754D02*
D03*
Y69135D02*
D03*
X52658Y69447D02*
D03*
Y75828D02*
D03*
X183268Y28676D02*
D03*
Y35057D02*
D03*
X72146Y11143D02*
D03*
Y4762D02*
D03*
X94962Y5116D02*
D03*
Y11498D02*
D03*
D56*
X44824Y76673D02*
D03*
X38443D02*
D03*
X160983Y63090D02*
D03*
X167364D02*
D03*
X65100Y73622D02*
D03*
X58719D02*
D03*
D57*
X129726Y20571D02*
D03*
X127361Y12303D02*
D03*
D58*
X79429Y5315D02*
D03*
X88090D02*
D03*
Y12008D02*
D03*
X79429D02*
D03*
D59*
X55905Y102559D02*
D03*
X68110D02*
D03*
D60*
X59449D02*
D03*
X62008D02*
D03*
X64567D02*
D03*
M02*
