G04*
G04 #@! TF.GenerationSoftware,Altium Limited,Altium Designer,19.0.11 (319)*
G04*
G04 Layer_Color=128*
%FSLAX25Y25*%
%MOIN*%
G70*
G01*
G75*
%ADD52R,0.03543X0.02756*%
%ADD53R,0.02756X0.03543*%
%ADD55R,0.03843X0.03000*%
%ADD56R,0.03000X0.03843*%
%ADD127R,0.04331X0.02362*%
%ADD128R,0.03150X0.03937*%
%ADD129R,0.03937X0.03150*%
%ADD130R,0.10236X0.05906*%
D52*
X19488Y25945D02*
D03*
Y32126D02*
D03*
X109547Y44104D02*
D03*
Y50285D02*
D03*
X67421Y20039D02*
D03*
Y26221D02*
D03*
X140551Y75433D02*
D03*
Y69252D02*
D03*
X117126Y68957D02*
D03*
Y75138D02*
D03*
X93405D02*
D03*
Y68957D02*
D03*
X69784Y69055D02*
D03*
Y75236D02*
D03*
D53*
X114035Y94685D02*
D03*
X120217D02*
D03*
X178405Y38500D02*
D03*
X184587D02*
D03*
X55256Y18701D02*
D03*
X49075D02*
D03*
X147382Y46457D02*
D03*
X141201D02*
D03*
X74941Y41339D02*
D03*
X68760D02*
D03*
X48189Y38287D02*
D03*
X54370D02*
D03*
X96693Y41437D02*
D03*
X90512D02*
D03*
D55*
X128445Y28207D02*
D03*
Y34588D02*
D03*
D56*
X140258Y41043D02*
D03*
X133876D02*
D03*
X140258Y35335D02*
D03*
X133876D02*
D03*
X26632Y15945D02*
D03*
X33013D02*
D03*
D127*
X155785Y52461D02*
D03*
Y59941D02*
D03*
X166809Y52461D02*
D03*
Y56201D02*
D03*
Y59941D02*
D03*
D128*
X147736Y51968D02*
D03*
X140256D02*
D03*
X143996Y60236D02*
D03*
X122835Y47047D02*
D03*
X115354D02*
D03*
X119095Y55315D02*
D03*
X75590Y47047D02*
D03*
X68110D02*
D03*
X71850Y55315D02*
D03*
X54921Y44094D02*
D03*
X47441D02*
D03*
X51181Y52362D02*
D03*
D129*
X76772Y19390D02*
D03*
Y26870D02*
D03*
X85039Y23130D02*
D03*
D130*
X130905Y57874D02*
D03*
Y69685D02*
D03*
X107283D02*
D03*
Y57874D02*
D03*
X83661D02*
D03*
Y69685D02*
D03*
X60039D02*
D03*
Y57874D02*
D03*
X95472Y22441D02*
D03*
Y34252D02*
D03*
M02*
