G04*
G04 #@! TF.GenerationSoftware,Altium Limited,Altium Designer,20.2.4 (192)*
G04*
G04 Layer_Color=8421504*
%FSLAX25Y25*%
%MOIN*%
G70*
G04*
G04 #@! TF.SameCoordinates,AF803115-0C24-4DE3-BE5F-04C5706376D8*
G04*
G04*
G04 #@! TF.FilePolarity,Positive*
G04*
G01*
G75*
%ADD27R,0.02362X0.04331*%
%ADD28R,0.01575X0.04331*%
%ADD29R,0.09055X0.12992*%
%ADD30R,0.05512X0.02165*%
%ADD31R,0.04882X0.11063*%
%ADD32R,0.03543X0.02756*%
%ADD33R,0.03843X0.03000*%
%ADD34R,0.01587X0.02795*%
%ADD35R,0.05906X0.15748*%
%ADD36R,0.04921X0.09449*%
%ADD37R,0.04882X0.06800*%
%ADD38R,0.01181X0.01968*%
%ADD39R,0.11811X0.08661*%
%ADD40R,0.01378X0.01693*%
%ADD41R,0.01693X0.01378*%
%ADD42R,0.01654X0.04200*%
%ADD43R,0.03937X0.05512*%
%ADD44R,0.02756X0.03543*%
%ADD45R,0.03000X0.03843*%
D27*
X55905Y102559D02*
D03*
X68110D02*
D03*
D28*
X59449D02*
D03*
X62008D02*
D03*
X64567D02*
D03*
D29*
X43504Y66142D02*
D03*
D30*
X32677Y73642D02*
D03*
Y68642D02*
D03*
Y63642D02*
D03*
Y58642D02*
D03*
X54331Y73642D02*
D03*
Y68642D02*
D03*
Y63642D02*
D03*
Y58642D02*
D03*
D31*
X161260Y74690D02*
D03*
X149567D02*
D03*
D32*
X56653Y11456D02*
D03*
Y5274D02*
D03*
X25295Y67972D02*
D03*
Y74154D02*
D03*
X155922Y32935D02*
D03*
Y26754D02*
D03*
D33*
X48228Y94529D02*
D03*
Y88148D02*
D03*
X176772Y33998D02*
D03*
Y27617D02*
D03*
X183268Y28676D02*
D03*
Y35057D02*
D03*
D34*
X42520Y95669D02*
D03*
Y87795D02*
D03*
D35*
X81496Y81496D02*
D03*
X66929D02*
D03*
D36*
X69784Y6299D02*
D03*
X77658D02*
D03*
X85532D02*
D03*
X93405D02*
D03*
X101279D02*
D03*
X109154D02*
D03*
X117028D02*
D03*
X124902D02*
D03*
X69784Y63779D02*
D03*
X77658D02*
D03*
X85532D02*
D03*
X93405D02*
D03*
X101279D02*
D03*
X109154D02*
D03*
X117028D02*
D03*
X124902D02*
D03*
D37*
X47697Y81299D02*
D03*
X59390D02*
D03*
X25571Y80984D02*
D03*
X37264D02*
D03*
D38*
X185039Y53740D02*
D03*
X181890D02*
D03*
X178740D02*
D03*
X175591D02*
D03*
X185039Y40748D02*
D03*
X181890D02*
D03*
X178740D02*
D03*
X175591D02*
D03*
D39*
X180315Y47244D02*
D03*
D40*
X167618Y34780D02*
D03*
X169587D02*
D03*
Y28914D02*
D03*
X167618D02*
D03*
D41*
X171535Y34800D02*
D03*
Y32831D02*
D03*
Y30863D02*
D03*
Y28894D02*
D03*
X165669D02*
D03*
Y30863D02*
D03*
Y32831D02*
D03*
Y34800D02*
D03*
D42*
X164616Y56011D02*
D03*
X162057Y56031D02*
D03*
X159498Y56011D02*
D03*
X156939D02*
D03*
Y46011D02*
D03*
X159498D02*
D03*
X162057D02*
D03*
X164616D02*
D03*
D43*
X166581Y63983D02*
D03*
X160045D02*
D03*
D44*
X169134Y39878D02*
D03*
X162953D02*
D03*
D45*
X181530Y58501D02*
D03*
X175149D02*
D03*
M02*
