G04*
G04 #@! TF.GenerationSoftware,Altium Limited,Altium Designer,20.2.4 (192)*
G04*
G04 Layer_Color=16711935*
%FSLAX25Y25*%
%MOIN*%
G70*
G04*
G04 #@! TF.SameCoordinates,AF803115-0C24-4DE3-BE5F-04C5706376D8*
G04*
G04*
G04 #@! TF.FilePolarity,Negative*
G04*
G01*
G75*
%ADD50R,0.05682X0.11863*%
%ADD51R,0.04343X0.03556*%
%ADD52R,0.04643X0.03800*%
%ADD56R,0.05682X0.07600*%
%ADD63R,0.03556X0.04343*%
%ADD64R,0.03800X0.04643*%
%ADD65C,0.02300*%
%ADD66O,0.04343X0.08477*%
%ADD67O,0.04934X0.06902*%
%ADD68O,0.09068X0.08674*%
%ADD69C,0.06706*%
%ADD70R,0.06706X0.06706*%
%ADD71O,0.06706X0.07099*%
%ADD72R,0.05918X0.07690*%
%ADD73C,0.16548*%
%ADD74R,0.03950X0.04800*%
%ADD75O,0.03950X0.04800*%
%ADD76O,0.04800X0.03950*%
%ADD77R,0.04800X0.03950*%
%ADD78C,0.03162*%
%ADD107R,0.04737X0.03950*%
%ADD108R,0.03950X0.04737*%
%ADD109R,0.07600X0.05682*%
%ADD110R,0.05131X0.03162*%
%ADD111R,0.09855X0.06706*%
G36*
X190453Y85932D02*
X190479Y85931D01*
X190505Y85929D01*
X190505Y85929D01*
X190506Y85929D01*
X190531Y85924D01*
X190557Y85919D01*
X190557Y85919D01*
X190557Y85918D01*
X190583Y85910D01*
X190606Y85902D01*
X190606Y85902D01*
X190607Y85902D01*
X190631Y85890D01*
X190653Y85879D01*
X190654Y85878D01*
X190654Y85878D01*
X190675Y85864D01*
X190697Y85849D01*
X190697Y85849D01*
X190697Y85849D01*
X190717Y85832D01*
X190736Y85815D01*
X190736Y85815D01*
X190737Y85814D01*
X190753Y85796D01*
X190771Y85776D01*
X190771Y85775D01*
X190771Y85775D01*
X190785Y85754D01*
X190800Y85732D01*
X190800Y85732D01*
X190800Y85731D01*
X190812Y85708D01*
X190823Y85685D01*
X190823Y85685D01*
X190823Y85684D01*
X190831Y85661D01*
X190840Y85635D01*
X190840Y85635D01*
X190840Y85635D01*
X190845Y85609D01*
X190850Y85584D01*
X190850Y85584D01*
X190850Y85583D01*
X190852Y85556D01*
X190854Y85532D01*
Y68996D01*
X190853Y68988D01*
X190853Y68981D01*
X190851Y68963D01*
X190850Y68944D01*
X190849Y68936D01*
X190848Y68929D01*
X190844Y68911D01*
X190840Y68892D01*
X190838Y68885D01*
X190836Y68878D01*
X190829Y68861D01*
X190823Y68843D01*
X190820Y68836D01*
X190817Y68829D01*
X190808Y68813D01*
X190800Y68796D01*
X190796Y68789D01*
X190792Y68783D01*
X190781Y68768D01*
X190771Y68752D01*
X190766Y68746D01*
X190761Y68740D01*
X190130Y67980D01*
X190126Y67975D01*
X190121Y67969D01*
X190108Y67956D01*
X190094Y67941D01*
X190089Y67937D01*
X190084Y67933D01*
X188591Y66638D01*
X188585Y66634D01*
X188580Y66629D01*
X188564Y66618D01*
X188549Y66606D01*
X188543Y66603D01*
X188538Y66599D01*
X186853Y65566D01*
X186847Y65563D01*
X186841Y65559D01*
X186823Y65551D01*
X186806Y65541D01*
X186800Y65539D01*
X186794Y65536D01*
X184963Y64792D01*
X184956Y64790D01*
X184950Y64787D01*
X184932Y64782D01*
X184913Y64776D01*
X184906Y64774D01*
X184900Y64772D01*
X182972Y64337D01*
X182965Y64336D01*
X182959Y64334D01*
X182940Y64332D01*
X182920Y64329D01*
X182913Y64329D01*
X182907Y64328D01*
X180934Y64214D01*
X180927Y64214D01*
X180920Y64213D01*
X180901Y64214D01*
X180881Y64214D01*
X180875Y64215D01*
X180868Y64215D01*
X178902Y64425D01*
X178896Y64426D01*
X178889Y64426D01*
X178870Y64430D01*
X178851Y64433D01*
X178844Y64435D01*
X178838Y64437D01*
X176933Y64964D01*
X176927Y64966D01*
X176920Y64968D01*
X176902Y64975D01*
X176883Y64982D01*
X176878Y64985D01*
X176871Y64987D01*
X175078Y65818D01*
X175072Y65822D01*
X175066Y65824D01*
X175049Y65834D01*
X175032Y65843D01*
X175027Y65847D01*
X175021Y65851D01*
X173388Y66964D01*
X173382Y66968D01*
X173377Y66972D01*
X173362Y66984D01*
X173346Y66996D01*
X173342Y67001D01*
X173337Y67005D01*
X171907Y68370D01*
X171903Y68375D01*
X171898Y68380D01*
X171885Y68395D01*
X171871Y68409D01*
X171868Y68414D01*
X171863Y68419D01*
X170676Y69999D01*
X170672Y70005D01*
X170668Y70010D01*
X170658Y70027D01*
X170647Y70043D01*
X170644Y70049D01*
X170641Y70055D01*
X169727Y71808D01*
X169725Y71814D01*
X169721Y71820D01*
X169714Y71838D01*
X169706Y71856D01*
X169704Y71862D01*
X169702Y71868D01*
X169087Y73747D01*
X169085Y73753D01*
X169083Y73760D01*
X169079Y73779D01*
X169074Y73798D01*
X169073Y73804D01*
X169071Y73811D01*
X168772Y75764D01*
X168771Y75771D01*
X168770Y75778D01*
X168769Y75797D01*
X168767Y75817D01*
X168767Y75823D01*
X168767Y75830D01*
X168790Y77806D01*
X168790Y77813D01*
X168790Y77820D01*
X168792Y77839D01*
X168794Y77859D01*
X168795Y77865D01*
X168796Y77872D01*
X169142Y79818D01*
X169143Y79825D01*
X169144Y79831D01*
X169149Y79850D01*
X169154Y79869D01*
X169157Y79875D01*
X169158Y79882D01*
X169817Y81745D01*
X169820Y81751D01*
X169822Y81758D01*
X169830Y81775D01*
X169838Y81793D01*
X169841Y81799D01*
X169844Y81805D01*
X170798Y83536D01*
X170802Y83542D01*
X170805Y83548D01*
X170816Y83564D01*
X170826Y83580D01*
X170831Y83585D01*
X170835Y83591D01*
X172058Y85143D01*
X172063Y85148D01*
X172067Y85153D01*
X172081Y85167D01*
X172094Y85182D01*
X172099Y85186D01*
X172103Y85191D01*
X172834Y85856D01*
X172847Y85867D01*
X172860Y85878D01*
X172868Y85883D01*
X172875Y85889D01*
X172890Y85898D01*
X172904Y85908D01*
X172912Y85912D01*
X172920Y85916D01*
X172936Y85923D01*
X172951Y85931D01*
X172960Y85934D01*
X172968Y85937D01*
X172984Y85942D01*
X173001Y85948D01*
X173010Y85949D01*
X173018Y85952D01*
X173035Y85954D01*
X173052Y85958D01*
X173061Y85958D01*
X173070Y85960D01*
X173087Y85960D01*
X173105Y85961D01*
X190453Y85932D01*
D02*
G37*
G36*
X17007Y85932D02*
X17014Y85932D01*
X17032Y85930D01*
X17051Y85929D01*
X17059Y85927D01*
X17066Y85927D01*
X17084Y85922D01*
X17103Y85919D01*
X17110Y85916D01*
X17117Y85914D01*
X17134Y85908D01*
X17152Y85902D01*
X17159Y85898D01*
X17166Y85896D01*
X17182Y85887D01*
X17199Y85879D01*
X17206Y85874D01*
X17212Y85871D01*
X17227Y85860D01*
X17243Y85849D01*
X17249Y85844D01*
X17255Y85840D01*
X18015Y85209D01*
X18020Y85204D01*
X18025Y85200D01*
X18039Y85186D01*
X18054Y85173D01*
X18058Y85168D01*
X18062Y85163D01*
X19357Y83669D01*
X19361Y83664D01*
X19365Y83659D01*
X19377Y83643D01*
X19389Y83627D01*
X19392Y83622D01*
X19396Y83616D01*
X20429Y81931D01*
X20432Y81925D01*
X20436Y81920D01*
X20444Y81902D01*
X20453Y81885D01*
X20456Y81879D01*
X20459Y81873D01*
X21203Y80041D01*
X21205Y80035D01*
X21208Y80029D01*
X21213Y80010D01*
X21219Y79992D01*
X21221Y79985D01*
X21223Y79979D01*
X21658Y78051D01*
X21659Y78044D01*
X21660Y78038D01*
X21663Y78018D01*
X21666Y77999D01*
X21666Y77992D01*
X21667Y77986D01*
X21781Y76012D01*
X21781Y76006D01*
X21782Y75999D01*
X21781Y75979D01*
X21781Y75960D01*
X21780Y75953D01*
X21780Y75947D01*
X21571Y73981D01*
X21569Y73975D01*
X21569Y73968D01*
X21565Y73949D01*
X21562Y73930D01*
X21560Y73923D01*
X21558Y73917D01*
X21031Y72012D01*
X21028Y72005D01*
X21027Y71999D01*
X21020Y71981D01*
X21013Y71962D01*
X21011Y71956D01*
X21008Y71950D01*
X20177Y70157D01*
X20173Y70151D01*
X20171Y70145D01*
X20161Y70128D01*
X20152Y70111D01*
X20148Y70105D01*
X20144Y70100D01*
X19031Y68466D01*
X19027Y68461D01*
X19023Y68456D01*
X19011Y68441D01*
X18999Y68425D01*
X18994Y68420D01*
X18990Y68415D01*
X17625Y66986D01*
X17620Y66981D01*
X17615Y66976D01*
X17601Y66963D01*
X17586Y66950D01*
X17581Y66947D01*
X17576Y66942D01*
X15995Y65755D01*
X15990Y65751D01*
X15985Y65747D01*
X15968Y65737D01*
X15952Y65726D01*
X15946Y65723D01*
X15940Y65720D01*
X14187Y64806D01*
X14181Y64803D01*
X14175Y64800D01*
X14157Y64793D01*
X14139Y64785D01*
X14133Y64783D01*
X14127Y64780D01*
X12248Y64166D01*
X12242Y64164D01*
X12235Y64162D01*
X12216Y64157D01*
X12197Y64152D01*
X12191Y64152D01*
X12184Y64150D01*
X10231Y63850D01*
X10224Y63850D01*
X10217Y63848D01*
X10198Y63847D01*
X10178Y63846D01*
X10172Y63846D01*
X10165Y63846D01*
X8189Y63869D01*
X8182Y63869D01*
X8175Y63869D01*
X8156Y63871D01*
X8136Y63873D01*
X8130Y63874D01*
X8123Y63875D01*
X6177Y64220D01*
X6171Y64222D01*
X6164Y64223D01*
X6145Y64228D01*
X6126Y64233D01*
X6120Y64235D01*
X6114Y64237D01*
X4250Y64896D01*
X4244Y64898D01*
X4237Y64900D01*
X4220Y64909D01*
X4202Y64916D01*
X4196Y64920D01*
X4190Y64923D01*
X2459Y65877D01*
X2453Y65881D01*
X2447Y65883D01*
X2431Y65895D01*
X2415Y65905D01*
X2410Y65909D01*
X2404Y65913D01*
X852Y67137D01*
X847Y67142D01*
X842Y67146D01*
X828Y67159D01*
X813Y67172D01*
X809Y67177D01*
X804Y67182D01*
X138Y67913D01*
X128Y67926D01*
X116Y67939D01*
X111Y67946D01*
X106Y67954D01*
X97Y67968D01*
X87Y67983D01*
X83Y67991D01*
X79Y67998D01*
X72Y68014D01*
X64Y68030D01*
X61Y68038D01*
X58Y68047D01*
X53Y68063D01*
X48Y68080D01*
X46Y68088D01*
X43Y68097D01*
X41Y68114D01*
X37Y68131D01*
X37Y68140D01*
X35Y68149D01*
X35Y68166D01*
X34Y68183D01*
X63Y85532D01*
X64Y85557D01*
X66Y85584D01*
X66Y85584D01*
X66Y85584D01*
X71Y85610D01*
X76Y85635D01*
X76Y85636D01*
X77Y85636D01*
X85Y85662D01*
X93Y85685D01*
X93Y85685D01*
X93Y85685D01*
X105Y85710D01*
X116Y85732D01*
X117Y85732D01*
X117Y85733D01*
X131Y85754D01*
X146Y85776D01*
X146Y85776D01*
X146Y85776D01*
X163Y85795D01*
X180Y85815D01*
X180Y85815D01*
X181Y85815D01*
X199Y85832D01*
X219Y85849D01*
X220Y85850D01*
X220Y85850D01*
X241Y85864D01*
X263Y85879D01*
X263Y85879D01*
X264Y85879D01*
X287Y85890D01*
X310Y85902D01*
X310Y85902D01*
X311Y85902D01*
X334Y85910D01*
X360Y85919D01*
X360Y85919D01*
X360Y85919D01*
X387Y85924D01*
X411Y85929D01*
X411Y85929D01*
X412Y85929D01*
X439Y85931D01*
X464Y85932D01*
X16999D01*
X17007Y85932D01*
D02*
G37*
G36*
X48720Y73135D02*
X48720Y59449D01*
X38386Y59449D01*
X38386Y73135D01*
X48720Y73135D01*
D02*
G37*
G36*
X186811Y42323D02*
X173819D01*
Y52067D01*
X186811D01*
Y42323D01*
D02*
G37*
G36*
X182356Y24818D02*
X182374Y24817D01*
X182382Y24816D01*
X182390Y24815D01*
X184432Y24516D01*
X184440Y24515D01*
X184448Y24514D01*
X184466Y24509D01*
X184483Y24505D01*
X184491Y24503D01*
X184499Y24501D01*
X186460Y23857D01*
X186467Y23854D01*
X186475Y23852D01*
X186491Y23845D01*
X186508Y23838D01*
X186515Y23834D01*
X186523Y23830D01*
X188345Y22862D01*
X188352Y22858D01*
X188359Y22854D01*
X188374Y22844D01*
X188390Y22834D01*
X188396Y22829D01*
X188402Y22824D01*
X190032Y21559D01*
X190039Y21553D01*
X190045Y21549D01*
X190058Y21536D01*
X190072Y21524D01*
X190077Y21518D01*
X190083Y21512D01*
X190778Y20750D01*
X190788Y20736D01*
X190799Y20724D01*
X190805Y20716D01*
X190810Y20708D01*
X190819Y20694D01*
X190829Y20680D01*
X190833Y20672D01*
X190838Y20664D01*
X190844Y20648D01*
X190852Y20633D01*
X190855Y20624D01*
X190858Y20616D01*
X190863Y20599D01*
X190869Y20583D01*
X190870Y20574D01*
X190873Y20565D01*
X190875Y20549D01*
X190879Y20532D01*
X190879Y20523D01*
X190881Y20513D01*
X190881Y20496D01*
X190882Y20480D01*
X190882Y4324D01*
X190881Y4307D01*
X190881Y4290D01*
X190879Y4281D01*
X190879Y4271D01*
X190875Y4255D01*
X190873Y4238D01*
X190870Y4229D01*
X190869Y4220D01*
X190863Y4204D01*
X190858Y4188D01*
X190855Y4179D01*
X190852Y4170D01*
X190844Y4155D01*
X190838Y4140D01*
X190833Y4132D01*
X190829Y4123D01*
X190819Y4109D01*
X190810Y4095D01*
X190805Y4087D01*
X190799Y4079D01*
X190788Y4067D01*
X190778Y4054D01*
X190083Y3291D01*
X190077Y3285D01*
X190072Y3279D01*
X190058Y3267D01*
X190045Y3255D01*
X190038Y3250D01*
X190032Y3244D01*
X188402Y1979D01*
X188396Y1974D01*
X188390Y1969D01*
X188374Y1959D01*
X188359Y1949D01*
X188352Y1946D01*
X188345Y1941D01*
X186523Y973D01*
X186515Y969D01*
X186508Y965D01*
X186492Y959D01*
X186475Y951D01*
X186467Y949D01*
X186460Y946D01*
X184499Y302D01*
X184491Y301D01*
X184483Y298D01*
X184466Y294D01*
X184448Y289D01*
X184440Y289D01*
X184432Y287D01*
X182390Y-12D01*
X182382Y-13D01*
X182374Y-14D01*
X182356Y-15D01*
X182338Y-16D01*
X182330Y-16D01*
X182322Y-16D01*
X180259Y38D01*
X180251Y38D01*
X180243Y39D01*
X180225Y41D01*
X180207Y43D01*
X180199Y44D01*
X180191Y46D01*
X178167Y451D01*
X178159Y453D01*
X178152Y455D01*
X178134Y460D01*
X178117Y465D01*
X178109Y468D01*
X178101Y470D01*
X176177Y1215D01*
X176170Y1219D01*
X176162Y1222D01*
X176146Y1230D01*
X176130Y1237D01*
X176123Y1242D01*
X176115Y1246D01*
X174347Y2308D01*
X174340Y2313D01*
X174333Y2317D01*
X174319Y2328D01*
X174304Y2338D01*
X174298Y2344D01*
X174291Y2349D01*
X172730Y3698D01*
X172724Y3704D01*
X172718Y3709D01*
X172705Y3722D01*
X172693Y3735D01*
X172687Y3741D01*
X172682Y3747D01*
X171374Y5343D01*
X171369Y5350D01*
X171364Y5356D01*
X171354Y5371D01*
X171344Y5386D01*
X171340Y5393D01*
X171335Y5400D01*
X170319Y7196D01*
X170316Y7203D01*
X170311Y7210D01*
X170304Y7227D01*
X170296Y7243D01*
X170294Y7251D01*
X170291Y7259D01*
X169596Y9202D01*
X169594Y9210D01*
X169591Y9217D01*
X169587Y9235D01*
X169582Y9252D01*
X169580Y9260D01*
X169579Y9268D01*
X169226Y11301D01*
X169225Y11310D01*
X169224Y11317D01*
X169222Y11336D01*
X169221Y11354D01*
X169221Y11362D01*
X169220Y11370D01*
X169220Y13433D01*
X169221Y13442D01*
X169220Y13450D01*
X169222Y13468D01*
X169224Y13486D01*
X169225Y13494D01*
X169226Y13502D01*
X169579Y15535D01*
X169580Y15543D01*
X169582Y15551D01*
X169587Y15568D01*
X169591Y15586D01*
X169594Y15594D01*
X169596Y15601D01*
X170291Y17545D01*
X170294Y17552D01*
X170296Y17560D01*
X170304Y17576D01*
X170311Y17593D01*
X170316Y17600D01*
X170319Y17607D01*
X171335Y19403D01*
X171340Y19410D01*
X171344Y19417D01*
X171354Y19432D01*
X171364Y19447D01*
X171369Y19453D01*
X171374Y19460D01*
X172682Y21056D01*
X172687Y21062D01*
X172693Y21068D01*
X172705Y21081D01*
X172718Y21094D01*
X172724Y21099D01*
X172730Y21105D01*
X174291Y22454D01*
X174298Y22459D01*
X174304Y22465D01*
X174318Y22475D01*
X174333Y22486D01*
X174340Y22490D01*
X174347Y22495D01*
X176115Y23558D01*
X176123Y23561D01*
X176130Y23566D01*
X176146Y23573D01*
X176162Y23582D01*
X176170Y23584D01*
X176177Y23588D01*
X178101Y24333D01*
X178109Y24335D01*
X178117Y24338D01*
X178134Y24343D01*
X178151Y24349D01*
X178159Y24350D01*
X178167Y24352D01*
X180191Y24758D01*
X180199Y24759D01*
X180207Y24760D01*
X180225Y24762D01*
X180243Y24765D01*
X180251Y24765D01*
X180259Y24765D01*
X182322Y24819D01*
X182330Y24819D01*
X182338Y24820D01*
X182356Y24818D01*
D02*
G37*
G36*
X8615Y24819D02*
X8623Y24819D01*
X10686Y24765D01*
X10694Y24765D01*
X10702Y24765D01*
X10720Y24762D01*
X10738Y24760D01*
X10746Y24759D01*
X10754Y24758D01*
X12777Y24352D01*
X12785Y24350D01*
X12793Y24349D01*
X12811Y24343D01*
X12828Y24338D01*
X12836Y24335D01*
X12844Y24333D01*
X14768Y23588D01*
X14775Y23584D01*
X14783Y23582D01*
X14799Y23573D01*
X14815Y23566D01*
X14822Y23561D01*
X14829Y23558D01*
X16598Y22495D01*
X16605Y22490D01*
X16612Y22486D01*
X16627Y22475D01*
X16641Y22465D01*
X16647Y22459D01*
X16654Y22454D01*
X18215Y21105D01*
X18221Y21099D01*
X18227Y21094D01*
X18240Y21081D01*
X18252Y21068D01*
X18257Y21062D01*
X18263Y21056D01*
X19571Y19460D01*
X19576Y19453D01*
X19581Y19447D01*
X19591Y19432D01*
X19601Y19417D01*
X19605Y19410D01*
X19610Y19403D01*
X20626Y17607D01*
X20629Y17600D01*
X20634Y17593D01*
X20641Y17576D01*
X20649Y17560D01*
X20651Y17552D01*
X20654Y17545D01*
X21349Y15601D01*
X21351Y15594D01*
X21354Y15586D01*
X21358Y15568D01*
X21363Y15551D01*
X21364Y15543D01*
X21366Y15535D01*
X21719Y13502D01*
X21720Y13494D01*
X21721Y13486D01*
X21722Y13468D01*
X21724Y13450D01*
X21724Y13442D01*
X21725Y13433D01*
X21725Y11370D01*
X21724Y11362D01*
X21724Y11354D01*
X21722Y11336D01*
X21721Y11317D01*
X21720Y11310D01*
X21719Y11301D01*
X21366Y9268D01*
X21364Y9260D01*
X21363Y9252D01*
X21358Y9235D01*
X21354Y9217D01*
X21351Y9210D01*
X21349Y9202D01*
X20654Y7259D01*
X20651Y7251D01*
X20649Y7243D01*
X20641Y7227D01*
X20634Y7210D01*
X20629Y7203D01*
X20626Y7196D01*
X19610Y5400D01*
X19605Y5393D01*
X19601Y5386D01*
X19591Y5371D01*
X19581Y5356D01*
X19576Y5350D01*
X19571Y5343D01*
X18263Y3747D01*
X18257Y3741D01*
X18252Y3735D01*
X18240Y3722D01*
X18227Y3709D01*
X18221Y3704D01*
X18215Y3698D01*
X16654Y2349D01*
X16647Y2344D01*
X16641Y2338D01*
X16626Y2328D01*
X16612Y2317D01*
X16605Y2313D01*
X16598Y2308D01*
X14829Y1246D01*
X14822Y1242D01*
X14815Y1237D01*
X14799Y1230D01*
X14783Y1222D01*
X14775Y1219D01*
X14768Y1215D01*
X12843Y470D01*
X12836Y468D01*
X12828Y465D01*
X12811Y460D01*
X12793Y455D01*
X12785Y453D01*
X12777Y451D01*
X10754Y46D01*
X10746Y44D01*
X10738Y43D01*
X10720Y41D01*
X10702Y39D01*
X10694Y38D01*
X10686Y38D01*
X8623Y-16D01*
X8615Y-16D01*
X8607Y-16D01*
X8589Y-15D01*
X8571Y-14D01*
X8563Y-13D01*
X8555Y-12D01*
X6513Y287D01*
X6505Y289D01*
X6497Y289D01*
X6479Y294D01*
X6461Y298D01*
X6454Y301D01*
X6446Y302D01*
X4485Y946D01*
X4478Y949D01*
X4470Y951D01*
X4453Y959D01*
X4437Y965D01*
X4430Y969D01*
X4422Y973D01*
X2600Y1941D01*
X2593Y1946D01*
X2586Y1949D01*
X2571Y1959D01*
X2555Y1969D01*
X2549Y1974D01*
X2542Y1979D01*
X912Y3244D01*
X906Y3250D01*
X900Y3255D01*
X887Y3267D01*
X873Y3279D01*
X868Y3285D01*
X862Y3291D01*
X167Y4054D01*
X157Y4067D01*
X146Y4079D01*
X140Y4087D01*
X134Y4095D01*
X126Y4109D01*
X116Y4123D01*
X112Y4132D01*
X107Y4140D01*
X101Y4155D01*
X93Y4170D01*
X90Y4179D01*
X86Y4188D01*
X82Y4204D01*
X76Y4220D01*
X75Y4229D01*
X72Y4238D01*
X69Y4255D01*
X66Y4271D01*
X65Y4281D01*
X64Y4290D01*
X64Y4307D01*
X63Y4324D01*
X63Y4324D01*
Y20480D01*
X64Y20496D01*
X64Y20513D01*
X65Y20523D01*
X66Y20532D01*
X69Y20549D01*
X72Y20565D01*
X75Y20574D01*
X76Y20583D01*
X82Y20599D01*
X86Y20616D01*
X90Y20624D01*
X93Y20633D01*
X101Y20648D01*
X107Y20664D01*
X112Y20672D01*
X116Y20680D01*
X126Y20694D01*
X134Y20708D01*
X140Y20716D01*
X146Y20724D01*
X157Y20736D01*
X167Y20750D01*
X862Y21512D01*
X868Y21518D01*
X873Y21524D01*
X887Y21536D01*
X900Y21549D01*
X906Y21553D01*
X912Y21559D01*
X2542Y22824D01*
X2549Y22829D01*
X2555Y22834D01*
X2571Y22844D01*
X2586Y22854D01*
X2593Y22858D01*
X2600Y22862D01*
X4422Y23830D01*
X4430Y23834D01*
X4437Y23838D01*
X4453Y23845D01*
X4470Y23852D01*
X4478Y23854D01*
X4485Y23857D01*
X6446Y24501D01*
X6454Y24503D01*
X6461Y24505D01*
X6479Y24509D01*
X6497Y24514D01*
X6505Y24515D01*
X6513Y24516D01*
X8555Y24815D01*
X8563Y24816D01*
X8571Y24817D01*
X8589Y24818D01*
X8607Y24820D01*
X8615Y24819D01*
D02*
G37*
D50*
X107815Y96850D02*
D03*
X96122D02*
D03*
D51*
X81693Y49646D02*
D03*
Y43465D02*
D03*
X83661Y32045D02*
D03*
Y38226D02*
D03*
X105512Y49646D02*
D03*
Y43465D02*
D03*
X129134D02*
D03*
Y49646D02*
D03*
X120217Y27699D02*
D03*
Y21518D02*
D03*
X140551Y75433D02*
D03*
Y69252D02*
D03*
X117126Y68957D02*
D03*
Y75138D02*
D03*
X93405D02*
D03*
Y68957D02*
D03*
X69784Y69055D02*
D03*
Y75236D02*
D03*
D52*
X43701Y34982D02*
D03*
Y28601D02*
D03*
D56*
X76811Y18308D02*
D03*
X65118D02*
D03*
X10545Y48366D02*
D03*
X22238D02*
D03*
D63*
X96496Y14450D02*
D03*
X90315D02*
D03*
X60000Y111811D02*
D03*
X66181D02*
D03*
X77736Y38368D02*
D03*
X71555D02*
D03*
X114035Y94685D02*
D03*
X120217D02*
D03*
X178405Y38500D02*
D03*
X184587D02*
D03*
X61319Y10353D02*
D03*
X55138D02*
D03*
X146201Y43110D02*
D03*
X140020D02*
D03*
X111102Y34252D02*
D03*
X104921D02*
D03*
D64*
X77140Y25808D02*
D03*
X83521D02*
D03*
D65*
X53543Y54803D02*
D03*
D66*
X44882Y113878D02*
D03*
X79134D02*
D03*
D67*
X47835Y101969D02*
D03*
X76181D02*
D03*
D68*
X33018Y27165D02*
D03*
Y47165D02*
D03*
X55518Y27165D02*
D03*
Y37165D02*
D03*
X55518Y47165D02*
D03*
D69*
X22476Y58642D02*
D03*
D70*
X12476D02*
D03*
D71*
X130905Y86378D02*
D03*
X121063D02*
D03*
X113189D02*
D03*
X103347D02*
D03*
D72*
X142323Y83858D02*
D03*
X91929D02*
D03*
X88976Y105354D02*
D03*
X145276D02*
D03*
D73*
X8858Y76772D02*
D03*
X182087Y12402D02*
D03*
Y76772D02*
D03*
X8858Y12402D02*
D03*
D74*
X47874Y10335D02*
D03*
D75*
X42874D02*
D03*
D76*
X158957Y20551D02*
D03*
Y15551D02*
D03*
Y10551D02*
D03*
D77*
Y5551D02*
D03*
D78*
X53543Y54567D02*
D03*
D107*
X105413Y24009D02*
D03*
X113681Y20269D02*
D03*
Y27749D02*
D03*
D108*
X142795Y58071D02*
D03*
X139055Y49803D02*
D03*
X146535D02*
D03*
X119095Y58071D02*
D03*
X115354Y49803D02*
D03*
X122835D02*
D03*
X95472Y58071D02*
D03*
X91732Y49803D02*
D03*
X99213D02*
D03*
X71870Y58071D02*
D03*
X68130Y49803D02*
D03*
X75610D02*
D03*
D109*
X43701Y54272D02*
D03*
Y42579D02*
D03*
D110*
X158130Y53248D02*
D03*
Y60728D02*
D03*
X169154Y53248D02*
D03*
Y56988D02*
D03*
Y60728D02*
D03*
D111*
X130905Y69685D02*
D03*
Y57874D02*
D03*
X107283D02*
D03*
Y69685D02*
D03*
X83661D02*
D03*
Y57874D02*
D03*
X60039D02*
D03*
Y69685D02*
D03*
X95472Y34252D02*
D03*
Y22441D02*
D03*
M02*
