G04*
G04 #@! TF.GenerationSoftware,Altium Limited,Altium Designer,19.0.11 (319)*
G04*
G04 Layer_Color=65535*
%FSLAX25Y25*%
%MOIN*%
G70*
G01*
G75*
%ADD11C,0.00500*%
%ADD12C,0.00400*%
%ADD15C,0.00787*%
%ADD21C,0.00591*%
%ADD22C,0.00300*%
%ADD31C,0.00433*%
G36*
X61614Y64173D02*
X60039Y62598D01*
X58465Y64173D01*
X61614D01*
D02*
G37*
G36*
X85236D02*
X83661Y62598D01*
X82087Y64173D01*
X85236D01*
D02*
G37*
G36*
X97047Y28740D02*
X95472Y27165D01*
X93898Y28740D01*
X97047D01*
D02*
G37*
G36*
X108858Y64173D02*
X107283Y62598D01*
X105709Y64173D01*
X108858D01*
D02*
G37*
G36*
X132480D02*
X130905Y62598D01*
X129331Y64173D01*
X132480D01*
D02*
G37*
D11*
X136181Y42618D02*
X137953D01*
X136181Y39469D02*
X137953D01*
X136181Y36909D02*
X137953D01*
X136181Y33760D02*
X137953D01*
X28937Y14370D02*
X30709D01*
X28937Y17520D02*
X30709D01*
D12*
X146260Y58760D02*
X149902D01*
Y54626D02*
Y58760D01*
X142520Y53642D02*
X145472D01*
X138091Y58760D02*
X141732D01*
X138091Y54626D02*
Y58760D01*
X121358Y53839D02*
X125000D01*
Y49705D02*
Y53839D01*
X117618Y48720D02*
X120571D01*
X113189Y53839D02*
X116831D01*
X113189Y49705D02*
Y53839D01*
X74114D02*
X77756D01*
Y49705D02*
Y53839D01*
X70374Y48720D02*
X73327D01*
X65945Y53839D02*
X69587D01*
X65945Y49705D02*
Y53839D01*
X53445Y50886D02*
X57087D01*
Y46752D02*
Y50886D01*
X49705Y45768D02*
X52658D01*
X45276Y50886D02*
X48917D01*
X45276Y46752D02*
Y50886D01*
X83563Y17224D02*
Y20866D01*
X79429Y17224D02*
X83563D01*
X78445Y21654D02*
Y24606D01*
X83563Y25394D02*
Y29035D01*
X79429D02*
X83563D01*
D15*
X128739Y37598D02*
G03*
X128739Y37598I-294J0D01*
G01*
D21*
X126575Y64173D02*
X135236D01*
X102953D02*
X111614D01*
X79331D02*
X87992D01*
X55709D02*
X64370D01*
X91142Y28740D02*
X99803D01*
D22*
X136811Y57480D02*
Y70079D01*
X125000Y57480D02*
Y70079D01*
X101378Y57480D02*
Y70079D01*
X113189Y57480D02*
Y70079D01*
X89567Y57480D02*
Y70079D01*
X77756Y57480D02*
Y70079D01*
X54134Y57480D02*
Y70079D01*
X65945Y57480D02*
Y70079D01*
X101378Y22047D02*
Y34646D01*
X89567Y22047D02*
Y34646D01*
X57284Y16339D02*
Y21063D01*
X47047Y16339D02*
X57284D01*
X47047D02*
Y21063D01*
X57284D01*
X17126Y23917D02*
Y34154D01*
Y23917D02*
X21850D01*
Y34154D01*
X17126D02*
X21850D01*
X149409Y44094D02*
Y48819D01*
X139173Y44094D02*
X149409D01*
X139173D02*
Y48819D01*
X149409D01*
X107185Y42077D02*
Y52313D01*
Y42077D02*
X111909D01*
Y52313D01*
X107185D02*
X111909D01*
X76968Y38976D02*
Y43701D01*
X66732Y38976D02*
X76968D01*
X66732D02*
Y43701D01*
X76968D01*
X46161Y40650D02*
X56398D01*
X46161Y35925D02*
Y40650D01*
Y35925D02*
X56398D01*
Y40650D01*
X65059Y18012D02*
X69784D01*
X65059D02*
Y28248D01*
X69784D01*
Y18012D02*
Y28248D01*
X142913Y67224D02*
Y77461D01*
X138189D02*
X142913D01*
X138189Y67224D02*
Y77461D01*
Y67224D02*
X142913D01*
X114764Y66929D02*
X119488D01*
X114764D02*
Y77165D01*
X119488D01*
Y66929D02*
Y77165D01*
X95768Y66929D02*
Y77165D01*
X91043D02*
X95768D01*
X91043Y66929D02*
Y77165D01*
Y66929D02*
X95768D01*
X67421Y67028D02*
X72146D01*
X67421D02*
Y77264D01*
X72146D01*
Y67028D02*
Y77264D01*
X88484Y39075D02*
X98721D01*
Y43799D01*
X88484D02*
X98721D01*
X88484Y39075D02*
Y43799D01*
X125886Y26083D02*
Y36713D01*
Y26083D02*
X131004D01*
Y36713D01*
X125886D02*
X131004D01*
X131752Y38484D02*
X142382D01*
Y43602D01*
X131752D02*
X142382D01*
X131752Y38484D02*
Y43602D01*
Y32776D02*
X142382D01*
Y37894D01*
X131752D02*
X142382D01*
X131752Y32776D02*
Y37894D01*
X24508Y18504D02*
X35138D01*
X24508Y13386D02*
Y18504D01*
Y13386D02*
X35138D01*
Y18504D01*
D31*
X97047Y44980D02*
Y46948D01*
X96063D01*
X95735Y46620D01*
Y45964D01*
X96063Y45636D01*
X97047D01*
X96391D02*
X95735Y44980D01*
X93767Y44324D02*
Y46292D01*
X94751D01*
X95079Y45964D01*
Y45308D01*
X94751Y44980D01*
X93767D01*
X91800Y46948D02*
X93111D01*
Y45964D01*
X92456Y46292D01*
X92128D01*
X91800Y45964D01*
Y45308D01*
X92128Y44980D01*
X92783D01*
X93111Y45308D01*
X89832Y46292D02*
X90816D01*
X91144Y45964D01*
Y45308D01*
X90816Y44980D01*
X89832D01*
X73228Y68799D02*
X75196D01*
Y69783D01*
X74868Y70111D01*
X74212D01*
X73884Y69783D01*
Y68799D01*
Y69455D02*
X73228Y70111D01*
X72572Y72079D02*
X74540D01*
Y71095D01*
X74212Y70767D01*
X73556D01*
X73228Y71095D01*
Y72079D01*
Y73719D02*
X75196D01*
X74212Y72735D01*
Y74047D01*
X74540Y76015D02*
Y75031D01*
X74212Y74703D01*
X73556D01*
X73228Y75031D01*
Y76015D01*
X97047Y68799D02*
X99015D01*
Y69783D01*
X98687Y70111D01*
X98031D01*
X97703Y69783D01*
Y68799D01*
Y69455D02*
X97047Y70111D01*
X96391Y72079D02*
X98359D01*
Y71095D01*
X98031Y70767D01*
X97375D01*
X97047Y71095D01*
Y72079D01*
X98687Y72735D02*
X99015Y73063D01*
Y73719D01*
X98687Y74047D01*
X98359D01*
X98031Y73719D01*
Y73391D01*
Y73719D01*
X97703Y74047D01*
X97375D01*
X97047Y73719D01*
Y73063D01*
X97375Y72735D01*
X98359Y76015D02*
Y75031D01*
X98031Y74703D01*
X97375D01*
X97047Y75031D01*
Y76015D01*
X120571Y68898D02*
X122539D01*
Y69882D01*
X122211Y70210D01*
X121555D01*
X121227Y69882D01*
Y68898D01*
Y69554D02*
X120571Y70210D01*
X119915Y72177D02*
X121883D01*
Y71193D01*
X121555Y70865D01*
X120899D01*
X120571Y71193D01*
Y72177D01*
Y74145D02*
Y72833D01*
X121883Y74145D01*
X122211D01*
X122539Y73817D01*
Y73161D01*
X122211Y72833D01*
X121883Y76113D02*
Y75129D01*
X121555Y74801D01*
X120899D01*
X120571Y75129D01*
Y76113D01*
X144095Y69272D02*
X146062D01*
Y70256D01*
X145734Y70584D01*
X145078D01*
X144750Y70256D01*
Y69272D01*
Y69928D02*
X144095Y70584D01*
X143438Y72551D02*
X145406D01*
Y71567D01*
X145078Y71240D01*
X144422D01*
X144095Y71567D01*
Y72551D01*
Y73207D02*
Y73863D01*
Y73535D01*
X146062D01*
X145734Y73207D01*
X145406Y76159D02*
Y75175D01*
X145078Y74847D01*
X144422D01*
X144095Y75175D01*
Y76159D01*
X69784Y29134D02*
Y31102D01*
X68800D01*
X68472Y30774D01*
Y30118D01*
X68800Y29790D01*
X69784D01*
X69128D02*
X68472Y29134D01*
X66504Y28478D02*
Y30446D01*
X67488D01*
X67816Y30118D01*
Y29462D01*
X67488Y29134D01*
X66504D01*
X64536Y31102D02*
X65848D01*
Y30118D01*
X65192Y30446D01*
X64864D01*
X64536Y30118D01*
Y29462D01*
X64864Y29134D01*
X65520D01*
X65848Y29462D01*
X63880Y31102D02*
Y29134D01*
X62896D01*
X62568Y29462D01*
Y29790D01*
Y30118D01*
X62896Y30446D01*
X63880D01*
X54626Y33366D02*
Y35334D01*
X53642D01*
X53314Y35006D01*
Y34350D01*
X53642Y34022D01*
X54626D01*
X53970D02*
X53314Y33366D01*
X51346Y32710D02*
Y34678D01*
X52330D01*
X52658Y34350D01*
Y33694D01*
X52330Y33366D01*
X51346D01*
X49706D02*
Y35334D01*
X50690Y34350D01*
X49378D01*
X48722Y35334D02*
Y33366D01*
X47739D01*
X47411Y33694D01*
Y34022D01*
Y34350D01*
X47739Y34678D01*
X48722D01*
X75295Y36220D02*
Y38188D01*
X74311D01*
X73983Y37860D01*
Y37204D01*
X74311Y36876D01*
X75295D01*
X74639D02*
X73983Y36220D01*
X72016Y35565D02*
Y37532D01*
X72999D01*
X73327Y37204D01*
Y36549D01*
X72999Y36220D01*
X72016D01*
X71360Y37860D02*
X71032Y38188D01*
X70376D01*
X70048Y37860D01*
Y37532D01*
X70376Y37204D01*
X70704D01*
X70376D01*
X70048Y36876D01*
Y36549D01*
X70376Y36220D01*
X71032D01*
X71360Y36549D01*
X69392Y38188D02*
Y36220D01*
X68408D01*
X68080Y36549D01*
Y36876D01*
Y37204D01*
X68408Y37532D01*
X69392D01*
X113091Y39370D02*
Y41338D01*
X112107D01*
X111779Y41010D01*
Y40354D01*
X112107Y40026D01*
X113091D01*
X112435D02*
X111779Y39370D01*
X109811Y38714D02*
Y40682D01*
X110795D01*
X111123Y40354D01*
Y39698D01*
X110795Y39370D01*
X109811D01*
X107843D02*
X109155D01*
X107843Y40682D01*
Y41010D01*
X108171Y41338D01*
X108827D01*
X109155Y41010D01*
X107187Y41338D02*
Y39370D01*
X106203D01*
X105875Y39698D01*
Y40026D01*
Y40354D01*
X106203Y40682D01*
X107187D01*
X150689Y43012D02*
X152657D01*
Y43996D01*
X152329Y44324D01*
X151673D01*
X151345Y43996D01*
Y43012D01*
Y43668D02*
X150689Y44324D01*
X150033Y46292D02*
X152001D01*
Y45308D01*
X151673Y44980D01*
X151017D01*
X150689Y45308D01*
Y46292D01*
Y46948D02*
Y47603D01*
Y47276D01*
X152657D01*
X152329Y46948D01*
X152657Y48587D02*
X150689D01*
Y49571D01*
X151017Y49899D01*
X151345D01*
X151673D01*
X152001Y49571D01*
Y48587D01*
X21850Y35138D02*
Y37106D01*
X20866D01*
X20538Y36778D01*
Y36122D01*
X20866Y35794D01*
X21850D01*
X21194D02*
X20538Y35138D01*
X19555Y36450D02*
X18899D01*
X18571Y36122D01*
Y35138D01*
X19555D01*
X19883Y35466D01*
X19555Y35794D01*
X18571D01*
X16931Y35138D02*
Y37106D01*
X17915Y36122D01*
X16603D01*
X57284Y21850D02*
Y23818D01*
X56300D01*
X55972Y23490D01*
Y22834D01*
X56300Y22506D01*
X57284D01*
X56628D02*
X55972Y21850D01*
X54988Y23162D02*
X54332D01*
X54004Y22834D01*
Y21850D01*
X54988D01*
X55316Y22178D01*
X54988Y22506D01*
X54004D01*
X53348Y23490D02*
X53020Y23818D01*
X52364D01*
X52036Y23490D01*
Y23162D01*
X52364Y22834D01*
X52692D01*
X52364D01*
X52036Y22506D01*
Y22178D01*
X52364Y21850D01*
X53020D01*
X53348Y22178D01*
X84678Y27591D02*
X85990D01*
X86318Y27264D01*
Y26607D01*
X85990Y26280D01*
X84678D01*
X84350Y26607D01*
Y27264D01*
X85006Y26935D02*
X84350Y27591D01*
Y27264D02*
X84678Y27591D01*
X86318Y29559D02*
Y28247D01*
X85334D01*
X85662Y28903D01*
Y29231D01*
X85334Y29559D01*
X84678D01*
X84350Y29231D01*
Y28575D01*
X84678Y28247D01*
X55873Y52001D02*
Y53313D01*
X56201Y53641D01*
X56857D01*
X57185Y53313D01*
Y52001D01*
X56857Y51673D01*
X56201D01*
X56529Y52329D02*
X55873Y51673D01*
X56201D02*
X55873Y52001D01*
X54233Y51673D02*
Y53641D01*
X55217Y52657D01*
X53905D01*
X76247Y55052D02*
Y56364D01*
X76575Y56692D01*
X77231D01*
X77559Y56364D01*
Y55052D01*
X77231Y54724D01*
X76575D01*
X76903Y55380D02*
X76247Y54724D01*
X76575D02*
X76247Y55052D01*
X75591Y56364D02*
X75263Y56692D01*
X74607D01*
X74279Y56364D01*
Y56036D01*
X74607Y55708D01*
X74935D01*
X74607D01*
X74279Y55380D01*
Y55052D01*
X74607Y54724D01*
X75263D01*
X75591Y55052D01*
X123491Y55120D02*
Y56432D01*
X123819Y56760D01*
X124475D01*
X124803Y56432D01*
Y55120D01*
X124475Y54792D01*
X123819D01*
X124147Y55448D02*
X123491Y54792D01*
X123819D02*
X123491Y55120D01*
X121523Y54792D02*
X122835D01*
X121523Y56104D01*
Y56432D01*
X121851Y56760D01*
X122507D01*
X122835Y56432D01*
X147901Y60367D02*
Y61679D01*
X148229Y62007D01*
X148885D01*
X149213Y61679D01*
Y60367D01*
X148885Y60039D01*
X148229D01*
X148557Y60695D02*
X147901Y60039D01*
X148229D02*
X147901Y60367D01*
X147245Y60039D02*
X146589D01*
X146917D01*
Y62007D01*
X147245Y61679D01*
X130905Y25393D02*
Y23425D01*
X129594D01*
X128610Y24737D02*
X127954D01*
X127626Y24409D01*
Y23425D01*
X128610D01*
X128938Y23753D01*
X128610Y24081D01*
X127626D01*
X126970Y23425D02*
X126314D01*
X126642D01*
Y25393D01*
X126970Y25065D01*
X100591Y17617D02*
Y15650D01*
X99607D01*
X99279Y15978D01*
Y17289D01*
X99607Y17617D01*
X100591D01*
X98623Y15322D02*
X97311D01*
X96655Y17617D02*
Y15650D01*
X95343D01*
X93375Y17617D02*
X94687D01*
Y15650D01*
X93375D01*
X94687Y16634D02*
X94031D01*
X92719Y17617D02*
Y15650D01*
X91735D01*
X91407Y15978D01*
Y17289D01*
X91735Y17617D01*
X92719D01*
X89439D02*
X90751D01*
Y16634D01*
X90095Y16962D01*
X89767D01*
X89439Y16634D01*
Y15978D01*
X89767Y15650D01*
X90423D01*
X90751Y15978D01*
X65551Y75885D02*
Y73917D01*
X64567D01*
X64239Y74245D01*
Y75557D01*
X64567Y75885D01*
X65551D01*
X63583Y73589D02*
X62271D01*
X61616Y75885D02*
Y73917D01*
X60303D01*
X58336Y75885D02*
X59648D01*
Y73917D01*
X58336D01*
X59648Y74901D02*
X58992D01*
X57680Y75885D02*
Y73917D01*
X56696D01*
X56368Y74245D01*
Y75557D01*
X56696Y75885D01*
X57680D01*
X54728Y73917D02*
Y75885D01*
X55712Y74901D01*
X54400D01*
X89075Y75885D02*
Y73917D01*
X88091D01*
X87763Y74245D01*
Y75557D01*
X88091Y75885D01*
X89075D01*
X87107Y73589D02*
X85795D01*
X85139Y75885D02*
Y73917D01*
X83827D01*
X81859Y75885D02*
X83171D01*
Y73917D01*
X81859D01*
X83171Y74901D02*
X82515D01*
X81203Y75885D02*
Y73917D01*
X80219D01*
X79891Y74245D01*
Y75557D01*
X80219Y75885D01*
X81203D01*
X79236Y75557D02*
X78908Y75885D01*
X78252D01*
X77924Y75557D01*
Y75229D01*
X78252Y74901D01*
X78579D01*
X78252D01*
X77924Y74573D01*
Y74245D01*
X78252Y73917D01*
X78908D01*
X79236Y74245D01*
X112697Y75885D02*
Y73917D01*
X111713D01*
X111385Y74245D01*
Y75557D01*
X111713Y75885D01*
X112697D01*
X110729Y73589D02*
X109417D01*
X108761Y75885D02*
Y73917D01*
X107449D01*
X105481Y75885D02*
X106793D01*
Y73917D01*
X105481D01*
X106793Y74901D02*
X106137D01*
X104825Y75885D02*
Y73917D01*
X103841D01*
X103514Y74245D01*
Y75557D01*
X103841Y75885D01*
X104825D01*
X101546Y73917D02*
X102857D01*
X101546Y75229D01*
Y75557D01*
X101874Y75885D01*
X102530D01*
X102857Y75557D01*
X136319Y75885D02*
Y73917D01*
X135335D01*
X135007Y74245D01*
Y75557D01*
X135335Y75885D01*
X136319D01*
X134351Y73589D02*
X133039D01*
X132383Y75885D02*
Y73917D01*
X131071D01*
X129103Y75885D02*
X130415D01*
Y73917D01*
X129103D01*
X130415Y74901D02*
X129759D01*
X128447Y75885D02*
Y73917D01*
X127463D01*
X127136Y74245D01*
Y75557D01*
X127463Y75885D01*
X128447D01*
X126480Y73917D02*
X125824D01*
X126152D01*
Y75885D01*
X126480Y75557D01*
X33826Y20931D02*
X34154Y21259D01*
X34810D01*
X35138Y20931D01*
Y19619D01*
X34810Y19291D01*
X34154D01*
X33826Y19619D01*
X33170Y21259D02*
Y19291D01*
X32186D01*
X31858Y19619D01*
Y19947D01*
Y20275D01*
X32186Y20603D01*
X33170D01*
X31202Y19291D02*
X30546D01*
X30874D01*
Y21259D01*
X31202Y20931D01*
X141011Y31856D02*
X141339Y32184D01*
X141995D01*
X142323Y31856D01*
Y30544D01*
X141995Y30217D01*
X141339D01*
X141011Y30544D01*
X140027Y31528D02*
X139371D01*
X139043Y31201D01*
Y30217D01*
X140027D01*
X140355Y30544D01*
X140027Y30872D01*
X139043D01*
X137075Y30217D02*
X138387D01*
X137075Y31528D01*
Y31856D01*
X137403Y32184D01*
X138059D01*
X138387Y31856D01*
X135105Y45833D02*
X135433Y46161D01*
X136089D01*
X136417Y45833D01*
Y44521D01*
X136089Y44193D01*
X135433D01*
X135105Y44521D01*
X134122Y45505D02*
X133466D01*
X133138Y45177D01*
Y44193D01*
X134122D01*
X134450Y44521D01*
X134122Y44849D01*
X133138D01*
X132482Y44193D02*
X131826D01*
X132154D01*
Y46161D01*
X132482Y45833D01*
M02*
