G04*
G04 #@! TF.GenerationSoftware,Altium Limited,Altium Designer,19.0.11 (319)*
G04*
G04 Layer_Color=16711935*
%FSLAX25Y25*%
%MOIN*%
G70*
G01*
G75*
%ADD80R,0.04343X0.03556*%
%ADD81R,0.03556X0.04343*%
%ADD83R,0.04643X0.03800*%
%ADD84R,0.03800X0.04643*%
%ADD89R,0.06706X0.06706*%
%ADD90C,0.06706*%
%ADD91R,0.04800X0.03950*%
%ADD92O,0.04800X0.03950*%
%ADD93C,0.02300*%
%ADD94O,0.06706X0.07099*%
%ADD95R,0.05918X0.07690*%
%ADD96O,0.03950X0.04800*%
%ADD97R,0.03950X0.04800*%
%ADD98O,0.04343X0.08477*%
%ADD99O,0.04934X0.06902*%
%ADD100C,0.16548*%
%ADD101C,0.03162*%
%ADD102C,0.04737*%
%ADD103C,0.02572*%
%ADD132R,0.03950X0.04737*%
%ADD133R,0.04737X0.03950*%
%ADD134R,0.11036X0.06706*%
G36*
X190453Y80617D02*
X190479Y80616D01*
X190505Y80614D01*
X190505Y80614D01*
X190506Y80614D01*
X190531Y80609D01*
X190557Y80604D01*
X190557Y80604D01*
X190557Y80604D01*
X190583Y80595D01*
X190606Y80587D01*
X190606Y80587D01*
X190607Y80587D01*
X190631Y80575D01*
X190653Y80564D01*
X190654Y80563D01*
X190654Y80563D01*
X190675Y80549D01*
X190697Y80535D01*
X190697Y80534D01*
X190697Y80534D01*
X190717Y80517D01*
X190736Y80500D01*
X190736Y80500D01*
X190737Y80500D01*
X190753Y80481D01*
X190771Y80461D01*
X190771Y80460D01*
X190771Y80460D01*
X190785Y80439D01*
X190800Y80417D01*
X190800Y80417D01*
X190800Y80416D01*
X190812Y80393D01*
X190823Y80370D01*
X190823Y80370D01*
X190823Y80369D01*
X190831Y80346D01*
X190840Y80320D01*
X190840Y80320D01*
X190840Y80320D01*
X190845Y80294D01*
X190850Y80269D01*
X190850Y80269D01*
X190850Y80268D01*
X190852Y80241D01*
X190854Y80216D01*
Y63681D01*
X190853Y63673D01*
X190853Y63666D01*
X190851Y63648D01*
X190850Y63629D01*
X190849Y63621D01*
X190848Y63614D01*
X190844Y63596D01*
X190840Y63577D01*
X190838Y63570D01*
X190836Y63563D01*
X190829Y63546D01*
X190823Y63528D01*
X190820Y63521D01*
X190817Y63514D01*
X190808Y63498D01*
X190800Y63481D01*
X190796Y63474D01*
X190792Y63468D01*
X190781Y63453D01*
X190771Y63437D01*
X190766Y63431D01*
X190761Y63425D01*
X190130Y62665D01*
X190126Y62660D01*
X190121Y62655D01*
X190108Y62641D01*
X190094Y62626D01*
X190089Y62622D01*
X190084Y62618D01*
X188591Y61323D01*
X188585Y61319D01*
X188580Y61314D01*
X188564Y61303D01*
X188549Y61291D01*
X188543Y61288D01*
X188538Y61284D01*
X186853Y60251D01*
X186847Y60248D01*
X186841Y60244D01*
X186823Y60236D01*
X186806Y60227D01*
X186800Y60224D01*
X186794Y60221D01*
X184963Y59477D01*
X184956Y59475D01*
X184950Y59472D01*
X184932Y59467D01*
X184913Y59461D01*
X184906Y59459D01*
X184900Y59457D01*
X182972Y59022D01*
X182965Y59021D01*
X182959Y59020D01*
X182940Y59017D01*
X182920Y59014D01*
X182913Y59014D01*
X182907Y59013D01*
X180934Y58899D01*
X180927Y58899D01*
X180920Y58898D01*
X180901Y58899D01*
X180881Y58899D01*
X180875Y58900D01*
X180868Y58900D01*
X178902Y59109D01*
X178896Y59111D01*
X178889Y59111D01*
X178870Y59115D01*
X178851Y59118D01*
X178844Y59121D01*
X178838Y59122D01*
X176933Y59649D01*
X176927Y59651D01*
X176920Y59653D01*
X176902Y59660D01*
X176883Y59667D01*
X176878Y59670D01*
X176871Y59672D01*
X175078Y60503D01*
X175072Y60507D01*
X175066Y60509D01*
X175049Y60519D01*
X175032Y60528D01*
X175027Y60532D01*
X175021Y60536D01*
X173388Y61649D01*
X173382Y61653D01*
X173377Y61657D01*
X173362Y61669D01*
X173346Y61681D01*
X173342Y61686D01*
X173337Y61690D01*
X171907Y63055D01*
X171903Y63060D01*
X171898Y63065D01*
X171885Y63080D01*
X171871Y63094D01*
X171868Y63099D01*
X171863Y63104D01*
X170676Y64684D01*
X170672Y64690D01*
X170668Y64695D01*
X170658Y64712D01*
X170647Y64728D01*
X170644Y64734D01*
X170641Y64740D01*
X169727Y66493D01*
X169725Y66499D01*
X169721Y66505D01*
X169714Y66523D01*
X169706Y66541D01*
X169704Y66547D01*
X169702Y66553D01*
X169087Y68432D01*
X169085Y68438D01*
X169083Y68445D01*
X169079Y68464D01*
X169074Y68483D01*
X169073Y68489D01*
X169071Y68496D01*
X168772Y70450D01*
X168771Y70456D01*
X168770Y70463D01*
X168769Y70482D01*
X168767Y70502D01*
X168767Y70508D01*
X168767Y70515D01*
X168790Y72492D01*
X168790Y72498D01*
X168790Y72505D01*
X168792Y72524D01*
X168794Y72544D01*
X168795Y72550D01*
X168796Y72557D01*
X169142Y74503D01*
X169143Y74510D01*
X169144Y74516D01*
X169149Y74535D01*
X169154Y74554D01*
X169157Y74560D01*
X169158Y74567D01*
X169817Y76430D01*
X169820Y76436D01*
X169822Y76443D01*
X169830Y76460D01*
X169838Y76478D01*
X169841Y76484D01*
X169844Y76490D01*
X170798Y78221D01*
X170802Y78227D01*
X170805Y78233D01*
X170816Y78249D01*
X170826Y78265D01*
X170831Y78270D01*
X170835Y78276D01*
X172058Y79828D01*
X172063Y79833D01*
X172067Y79838D01*
X172081Y79852D01*
X172094Y79867D01*
X172099Y79871D01*
X172103Y79876D01*
X172834Y80541D01*
X172847Y80552D01*
X172860Y80564D01*
X172868Y80568D01*
X172875Y80574D01*
X172890Y80583D01*
X172904Y80593D01*
X172912Y80597D01*
X172920Y80601D01*
X172936Y80608D01*
X172951Y80616D01*
X172960Y80619D01*
X172968Y80622D01*
X172984Y80627D01*
X173001Y80633D01*
X173010Y80634D01*
X173018Y80637D01*
X173035Y80639D01*
X173052Y80643D01*
X173061Y80643D01*
X173070Y80645D01*
X173087Y80645D01*
X173105Y80646D01*
X190453Y80617D01*
D02*
G37*
G36*
X17035Y80617D02*
X17043Y80617D01*
X17061Y80615D01*
X17080Y80614D01*
X17087Y80612D01*
X17095Y80612D01*
X17113Y80607D01*
X17131Y80604D01*
X17139Y80601D01*
X17146Y80599D01*
X17163Y80593D01*
X17181Y80587D01*
X17188Y80583D01*
X17195Y80581D01*
X17211Y80572D01*
X17228Y80564D01*
X17234Y80559D01*
X17241Y80556D01*
X17256Y80545D01*
X17272Y80535D01*
X17277Y80529D01*
X17284Y80525D01*
X18044Y79894D01*
X18049Y79889D01*
X18054Y79885D01*
X18068Y79871D01*
X18082Y79858D01*
X18086Y79853D01*
X18091Y79848D01*
X19386Y78354D01*
X19390Y78349D01*
X19394Y78344D01*
X19406Y78328D01*
X19417Y78312D01*
X19421Y78307D01*
X19424Y78301D01*
X20458Y76616D01*
X20461Y76610D01*
X20464Y76605D01*
X20473Y76587D01*
X20482Y76570D01*
X20484Y76564D01*
X20487Y76558D01*
X21231Y74726D01*
X21234Y74720D01*
X21236Y74714D01*
X21242Y74695D01*
X21248Y74677D01*
X21249Y74670D01*
X21251Y74664D01*
X21686Y72736D01*
X21687Y72729D01*
X21689Y72723D01*
X21691Y72703D01*
X21695Y72684D01*
X21695Y72677D01*
X21696Y72671D01*
X21810Y70697D01*
X21810Y70691D01*
X21811Y70684D01*
X21810Y70664D01*
X21810Y70645D01*
X21809Y70639D01*
X21808Y70632D01*
X21599Y68666D01*
X21598Y68660D01*
X21598Y68653D01*
X21594Y68634D01*
X21590Y68615D01*
X21588Y68608D01*
X21587Y68602D01*
X21059Y66697D01*
X21057Y66690D01*
X21056Y66684D01*
X21049Y66666D01*
X21042Y66647D01*
X21039Y66641D01*
X21037Y66635D01*
X20205Y64842D01*
X20202Y64836D01*
X20199Y64830D01*
X20189Y64813D01*
X20180Y64796D01*
X20176Y64791D01*
X20173Y64785D01*
X19060Y63152D01*
X19056Y63146D01*
X19052Y63141D01*
X19039Y63126D01*
X19027Y63110D01*
X19023Y63105D01*
X19018Y63100D01*
X17653Y61671D01*
X17649Y61666D01*
X17644Y61661D01*
X17629Y61648D01*
X17615Y61635D01*
X17609Y61632D01*
X17604Y61627D01*
X16024Y60440D01*
X16018Y60436D01*
X16013Y60432D01*
X15997Y60422D01*
X15980Y60411D01*
X15974Y60408D01*
X15969Y60405D01*
X14216Y59491D01*
X14210Y59488D01*
X14204Y59485D01*
X14186Y59478D01*
X14168Y59470D01*
X14161Y59468D01*
X14155Y59466D01*
X12277Y58851D01*
X12270Y58849D01*
X12264Y58847D01*
X12245Y58842D01*
X12226Y58837D01*
X12219Y58837D01*
X12213Y58835D01*
X10259Y58535D01*
X10253Y58535D01*
X10246Y58534D01*
X10227Y58532D01*
X10207Y58531D01*
X10200Y58531D01*
X10194Y58531D01*
X8217Y58554D01*
X8211Y58554D01*
X8204Y58554D01*
X8184Y58556D01*
X8165Y58558D01*
X8158Y58559D01*
X8152Y58560D01*
X6206Y58905D01*
X6199Y58907D01*
X6193Y58908D01*
X6174Y58913D01*
X6155Y58918D01*
X6148Y58920D01*
X6142Y58922D01*
X4279Y59581D01*
X4272Y59583D01*
X4266Y59585D01*
X4248Y59594D01*
X4230Y59601D01*
X4225Y59605D01*
X4219Y59608D01*
X2488Y60562D01*
X2482Y60566D01*
X2476Y60568D01*
X2460Y60580D01*
X2443Y60590D01*
X2438Y60594D01*
X2433Y60598D01*
X881Y61822D01*
X876Y61827D01*
X871Y61831D01*
X857Y61844D01*
X842Y61857D01*
X838Y61862D01*
X833Y61867D01*
X167Y62598D01*
X156Y62611D01*
X145Y62624D01*
X140Y62631D01*
X134Y62639D01*
X126Y62653D01*
X116Y62668D01*
X112Y62676D01*
X107Y62683D01*
X100Y62699D01*
X93Y62715D01*
X90Y62723D01*
X86Y62732D01*
X82Y62748D01*
X76Y62765D01*
X74Y62773D01*
X72Y62782D01*
X69Y62799D01*
X66Y62816D01*
X65Y62825D01*
X64Y62834D01*
X64Y62851D01*
X63Y62868D01*
X91Y80217D01*
X93Y80242D01*
X95Y80269D01*
X95Y80269D01*
X95Y80269D01*
X100Y80295D01*
X105Y80320D01*
X105Y80321D01*
X105Y80321D01*
X114Y80347D01*
X122Y80370D01*
X122Y80370D01*
X122Y80371D01*
X134Y80395D01*
X145Y80417D01*
X145Y80417D01*
X145Y80418D01*
X160Y80439D01*
X174Y80461D01*
X174Y80461D01*
X175Y80461D01*
X192Y80480D01*
X209Y80500D01*
X209Y80500D01*
X209Y80501D01*
X228Y80517D01*
X248Y80535D01*
X248Y80535D01*
X249Y80535D01*
X269Y80549D01*
X292Y80564D01*
X292Y80564D01*
X292Y80564D01*
X315Y80575D01*
X339Y80587D01*
X339Y80587D01*
X339Y80587D01*
X363Y80595D01*
X388Y80604D01*
X389Y80604D01*
X389Y80604D01*
X415Y80609D01*
X440Y80614D01*
X440Y80614D01*
X440Y80614D01*
X468Y80616D01*
X492Y80617D01*
X17028D01*
X17035Y80617D01*
D02*
G37*
G36*
X45079Y66831D02*
X45079Y55610D01*
X33858Y55610D01*
X33858Y66831D01*
X45079Y66831D01*
D02*
G37*
G36*
X186811Y42323D02*
X173819D01*
Y52067D01*
X186811D01*
Y42323D01*
D02*
G37*
G36*
X117717Y18878D02*
X104528D01*
Y32087D01*
X117717D01*
Y18878D01*
D02*
G37*
G36*
X181445Y25009D02*
X181445D01*
X181445Y25009D01*
X183004Y24929D01*
X183004D01*
X183004Y24929D01*
X183004Y24929D01*
X183028Y24927D01*
X183056Y24923D01*
X183056Y24923D01*
X183056Y24923D01*
X183056Y24923D01*
X184593Y24642D01*
X184618Y24636D01*
X184643Y24630D01*
X184644Y24629D01*
D01*
D01*
X186130Y24151D01*
X186154Y24142D01*
X186179Y24132D01*
X187591Y23465D01*
X187613Y23453D01*
X187637Y23439D01*
X188951Y22594D01*
X188974Y22577D01*
X188993Y22563D01*
X188993Y22563D01*
X188993Y22563D01*
X188993Y22563D01*
X190185Y21555D01*
X190185Y21555D01*
X190186Y21555D01*
X190186Y21555D01*
X190203Y21539D01*
X190223Y21519D01*
X190749Y20942D01*
X190760Y20929D01*
X190771Y20916D01*
X190777Y20908D01*
X190782Y20900D01*
X190790Y20887D01*
X190791Y20887D01*
X190800Y20872D01*
X190805Y20863D01*
X190809Y20856D01*
X190816Y20841D01*
X190823Y20825D01*
X190826Y20816D01*
X190830Y20808D01*
X190835Y20792D01*
X190840Y20775D01*
X190842Y20766D01*
X190845Y20757D01*
X190847Y20741D01*
X190850Y20724D01*
X190851Y20714D01*
X190852Y20705D01*
X190853Y20689D01*
X190854Y20672D01*
X190854Y4530D01*
X190853Y4513D01*
X190853Y4496D01*
X190851Y4487D01*
X190851Y4477D01*
X190848Y4461D01*
X190845Y4444D01*
X190842Y4435D01*
X190841Y4426D01*
X190835Y4410D01*
X190830Y4394D01*
X190827Y4385D01*
X190824Y4376D01*
X190816Y4361D01*
X190810Y4346D01*
X190805Y4338D01*
X190800Y4329D01*
X190791Y4315D01*
X190782Y4301D01*
X190777Y4293D01*
X190771Y4285D01*
X190760Y4273D01*
X190750Y4260D01*
X190224Y3683D01*
X190203Y3663D01*
X190187Y3647D01*
X190187Y3647D01*
X190187Y3647D01*
X190187Y3647D01*
X188996Y2640D01*
X188977Y2626D01*
X188954Y2609D01*
X187643Y1765D01*
X187643Y1765D01*
X187643Y1765D01*
X187642Y1765D01*
X187623Y1754D01*
X187597Y1739D01*
X187597Y1739D01*
X187597Y1739D01*
X187596Y1739D01*
X186187Y1072D01*
X186187Y1072D01*
X186187Y1072D01*
X186187Y1072D01*
X186168Y1065D01*
X186139Y1053D01*
X184654Y574D01*
X184629Y568D01*
X184604Y562D01*
X183070Y279D01*
X183042Y276D01*
X183018Y273D01*
X183018Y273D01*
X183018D01*
X183017D01*
X181460Y192D01*
X181434Y192D01*
X181408Y193D01*
X179853Y314D01*
X179853D01*
X179853D01*
X179853Y314D01*
X179831Y317D01*
X179801Y322D01*
X178275Y643D01*
X178246Y652D01*
X178225Y658D01*
X178225Y658D01*
X178225Y658D01*
X178225Y658D01*
X176754Y1174D01*
X176754Y1175D01*
X176754Y1175D01*
X176753Y1175D01*
X176732Y1184D01*
X176706Y1195D01*
X175314Y1898D01*
X175314Y1898D01*
X175314Y1898D01*
X175313Y1898D01*
X175287Y1914D01*
X175269Y1925D01*
X175268Y1925D01*
X175268Y1925D01*
X175268Y1925D01*
X173979Y2803D01*
X173958Y2820D01*
X173938Y2835D01*
X173938Y2835D01*
X173938D01*
D01*
X173356Y3354D01*
X173348Y3362D01*
X173339Y3369D01*
X173339Y3369D01*
X173339Y3370D01*
X173329Y3381D01*
X173319Y3391D01*
X173312Y3400D01*
X173305Y3409D01*
X173305Y3409D01*
X173305Y3409D01*
X173296Y3421D01*
X173288Y3433D01*
X173282Y3443D01*
X173276Y3452D01*
X173276Y3452D01*
X173275Y3452D01*
X173269Y3466D01*
X173262Y3478D01*
X173258Y3489D01*
X173252Y3499D01*
X173252Y3499D01*
X173252Y3500D01*
X173248Y3514D01*
X173242Y3527D01*
X173239Y3538D01*
X173235Y3549D01*
X173235Y3549D01*
X173235Y3549D01*
X173233Y3564D01*
X173229Y3578D01*
X173228Y3589D01*
X173225Y3600D01*
X173225Y3600D01*
X173225Y3601D01*
X173224Y3615D01*
X173222Y3630D01*
X173222Y3641D01*
X173222Y3652D01*
X173201Y21529D01*
X173202Y21540D01*
X173202Y21551D01*
X173203Y21566D01*
X173204Y21581D01*
X173206Y21592D01*
X173208Y21603D01*
X173212Y21618D01*
X173214Y21633D01*
X173218Y21643D01*
X173221Y21654D01*
X173226Y21668D01*
X173231Y21682D01*
X173236Y21692D01*
X173240Y21703D01*
X173248Y21716D01*
X173254Y21729D01*
X173261Y21739D01*
X173266Y21748D01*
X173275Y21760D01*
X173284Y21773D01*
X173291Y21781D01*
X173298Y21790D01*
X173308Y21801D01*
X173318Y21812D01*
X173327Y21820D01*
X173334Y21828D01*
X173916Y22349D01*
X173941Y22368D01*
X173957Y22381D01*
X173958Y22381D01*
X173958Y22381D01*
X173958Y22381D01*
X175247Y23263D01*
X175271Y23277D01*
X175292Y23290D01*
X176684Y23997D01*
X176710Y24008D01*
X176732Y24017D01*
X178205Y24538D01*
X178230Y24545D01*
X178255Y24552D01*
X179783Y24877D01*
X179809Y24881D01*
X179835Y24884D01*
X181392Y25008D01*
X181392Y25008D01*
X181392D01*
X181392Y25008D01*
X181420Y25008D01*
X181444Y25009D01*
X181445Y25009D01*
D02*
G37*
G36*
X8615Y24819D02*
X8623Y24819D01*
X10686Y24765D01*
X10694Y24765D01*
X10702Y24765D01*
X10720Y24762D01*
X10738Y24760D01*
X10746Y24759D01*
X10754Y24758D01*
X12777Y24352D01*
X12785Y24350D01*
X12793Y24349D01*
X12811Y24343D01*
X12828Y24338D01*
X12836Y24335D01*
X12844Y24333D01*
X14768Y23588D01*
X14775Y23584D01*
X14783Y23582D01*
X14799Y23573D01*
X14815Y23566D01*
X14822Y23561D01*
X14829Y23558D01*
X16598Y22495D01*
X16605Y22490D01*
X16612Y22486D01*
X16627Y22475D01*
X16641Y22465D01*
X16647Y22459D01*
X16654Y22454D01*
X18215Y21105D01*
X18221Y21099D01*
X18227Y21094D01*
X18240Y21081D01*
X18252Y21068D01*
X18257Y21062D01*
X18263Y21056D01*
X19571Y19460D01*
X19576Y19453D01*
X19581Y19447D01*
X19591Y19432D01*
X19601Y19417D01*
X19605Y19410D01*
X19610Y19403D01*
X20626Y17607D01*
X20629Y17600D01*
X20634Y17593D01*
X20641Y17576D01*
X20649Y17560D01*
X20651Y17552D01*
X20654Y17545D01*
X21349Y15601D01*
X21351Y15594D01*
X21354Y15586D01*
X21358Y15568D01*
X21363Y15551D01*
X21364Y15543D01*
X21366Y15535D01*
X21719Y13502D01*
X21720Y13494D01*
X21721Y13486D01*
X21722Y13468D01*
X21724Y13450D01*
X21724Y13442D01*
X21725Y13433D01*
X21725Y11370D01*
X21724Y11362D01*
X21724Y11354D01*
X21722Y11336D01*
X21721Y11317D01*
X21720Y11310D01*
X21719Y11301D01*
X21366Y9268D01*
X21364Y9260D01*
X21363Y9252D01*
X21358Y9235D01*
X21354Y9217D01*
X21351Y9210D01*
X21349Y9202D01*
X20654Y7259D01*
X20651Y7251D01*
X20649Y7243D01*
X20641Y7227D01*
X20634Y7210D01*
X20629Y7203D01*
X20626Y7196D01*
X19610Y5400D01*
X19605Y5393D01*
X19601Y5386D01*
X19591Y5371D01*
X19581Y5356D01*
X19576Y5350D01*
X19571Y5343D01*
X18263Y3747D01*
X18257Y3741D01*
X18252Y3735D01*
X18240Y3722D01*
X18227Y3709D01*
X18221Y3704D01*
X18215Y3698D01*
X16654Y2349D01*
X16647Y2344D01*
X16641Y2338D01*
X16626Y2328D01*
X16612Y2317D01*
X16605Y2313D01*
X16598Y2308D01*
X14829Y1246D01*
X14822Y1242D01*
X14815Y1237D01*
X14799Y1230D01*
X14783Y1222D01*
X14775Y1219D01*
X14768Y1215D01*
X12843Y470D01*
X12836Y468D01*
X12828Y465D01*
X12811Y460D01*
X12793Y455D01*
X12785Y453D01*
X12777Y451D01*
X10754Y46D01*
X10746Y44D01*
X10738Y43D01*
X10720Y41D01*
X10702Y39D01*
X10694Y38D01*
X10686Y38D01*
X8623Y-16D01*
X8615Y-16D01*
X8607Y-16D01*
X8589Y-15D01*
X8571Y-14D01*
X8563Y-13D01*
X8555Y-12D01*
X6513Y287D01*
X6505Y289D01*
X6497Y289D01*
X6479Y294D01*
X6461Y298D01*
X6454Y301D01*
X6446Y302D01*
X4485Y946D01*
X4478Y949D01*
X4470Y951D01*
X4453Y959D01*
X4437Y965D01*
X4430Y969D01*
X4422Y973D01*
X2600Y1941D01*
X2593Y1946D01*
X2586Y1949D01*
X2571Y1959D01*
X2555Y1969D01*
X2549Y1974D01*
X2542Y1979D01*
X912Y3244D01*
X906Y3250D01*
X900Y3255D01*
X887Y3267D01*
X873Y3279D01*
X868Y3285D01*
X862Y3291D01*
X167Y4054D01*
X157Y4067D01*
X146Y4079D01*
X140Y4087D01*
X134Y4095D01*
X126Y4109D01*
X116Y4123D01*
X112Y4132D01*
X107Y4140D01*
X101Y4155D01*
X93Y4170D01*
X90Y4179D01*
X86Y4188D01*
X82Y4204D01*
X76Y4220D01*
X75Y4229D01*
X72Y4238D01*
X69Y4255D01*
X66Y4271D01*
X65Y4281D01*
X64Y4290D01*
X64Y4307D01*
X63Y4324D01*
X63Y4324D01*
Y20480D01*
X64Y20496D01*
X64Y20513D01*
X65Y20523D01*
X66Y20532D01*
X69Y20549D01*
X72Y20565D01*
X75Y20574D01*
X76Y20583D01*
X82Y20599D01*
X86Y20616D01*
X90Y20624D01*
X93Y20633D01*
X101Y20648D01*
X107Y20664D01*
X112Y20672D01*
X116Y20680D01*
X126Y20694D01*
X134Y20708D01*
X140Y20716D01*
X146Y20724D01*
X157Y20736D01*
X167Y20750D01*
X862Y21512D01*
X868Y21518D01*
X873Y21524D01*
X887Y21536D01*
X900Y21549D01*
X906Y21553D01*
X912Y21559D01*
X2542Y22824D01*
X2549Y22829D01*
X2555Y22834D01*
X2571Y22844D01*
X2586Y22854D01*
X2593Y22858D01*
X2600Y22862D01*
X4422Y23830D01*
X4430Y23834D01*
X4437Y23838D01*
X4453Y23845D01*
X4470Y23852D01*
X4478Y23854D01*
X4485Y23857D01*
X6446Y24501D01*
X6454Y24503D01*
X6461Y24505D01*
X6479Y24509D01*
X6497Y24514D01*
X6505Y24515D01*
X6513Y24516D01*
X8555Y24815D01*
X8563Y24816D01*
X8571Y24817D01*
X8589Y24818D01*
X8607Y24820D01*
X8615Y24819D01*
D02*
G37*
D80*
X19488Y25945D02*
D03*
Y32126D02*
D03*
X109547Y44104D02*
D03*
Y50285D02*
D03*
X67421Y20039D02*
D03*
Y26221D02*
D03*
X140551Y75433D02*
D03*
Y69252D02*
D03*
X117126Y68957D02*
D03*
Y75138D02*
D03*
X93405D02*
D03*
Y68957D02*
D03*
X69784Y69055D02*
D03*
Y75236D02*
D03*
D81*
X178405Y38500D02*
D03*
X184587D02*
D03*
X55256Y18701D02*
D03*
X49075D02*
D03*
X147382Y46457D02*
D03*
X141201D02*
D03*
X74941Y41339D02*
D03*
X68760D02*
D03*
X48189Y38287D02*
D03*
X54370D02*
D03*
X96693Y41437D02*
D03*
X90512D02*
D03*
D83*
X128445Y28207D02*
D03*
Y34588D02*
D03*
D84*
X140258Y41043D02*
D03*
X133876D02*
D03*
X140258Y35335D02*
D03*
X133876D02*
D03*
X26632Y15945D02*
D03*
X33013D02*
D03*
D89*
X95374Y51201D02*
D03*
D90*
Y61201D02*
D03*
D91*
X7972Y38425D02*
D03*
D92*
Y33425D02*
D03*
D93*
X118799Y11220D02*
D03*
D94*
X130905Y86378D02*
D03*
X121063D02*
D03*
X113189D02*
D03*
X103347D02*
D03*
D95*
X142323Y83858D02*
D03*
X91929D02*
D03*
X88976Y105354D02*
D03*
X145276D02*
D03*
D96*
X58386Y9337D02*
D03*
X53386D02*
D03*
X48386D02*
D03*
D97*
X43386D02*
D03*
D98*
X44882Y113878D02*
D03*
X79134D02*
D03*
D99*
X47835Y101969D02*
D03*
X76181D02*
D03*
D100*
X182087Y12402D02*
D03*
Y71457D02*
D03*
X8858Y12402D02*
D03*
Y71457D02*
D03*
D101*
X118799Y11220D02*
D03*
X124219Y34943D02*
D03*
D102*
X84744Y43406D02*
D03*
X157993Y69291D02*
D03*
X163140Y75305D02*
D03*
D103*
X174567Y11516D02*
D03*
Y14075D02*
D03*
D132*
X147736Y51968D02*
D03*
X140256D02*
D03*
X143996Y60236D02*
D03*
X122835Y47047D02*
D03*
X115354D02*
D03*
X119095Y55315D02*
D03*
X75590Y47047D02*
D03*
X68110D02*
D03*
X71850Y55315D02*
D03*
X54921Y44094D02*
D03*
X47441D02*
D03*
X51181Y52362D02*
D03*
D133*
X76772Y19390D02*
D03*
Y26870D02*
D03*
X85039Y23130D02*
D03*
D134*
X130905Y57874D02*
D03*
Y69685D02*
D03*
X107283D02*
D03*
Y57874D02*
D03*
X83661D02*
D03*
Y69685D02*
D03*
X60039D02*
D03*
Y57874D02*
D03*
X95472Y22441D02*
D03*
Y34252D02*
D03*
M02*
