G04*
G04 #@! TF.GenerationSoftware,Altium Limited,Altium Designer,19.0.11 (319)*
G04*
G04 Layer_Color=65535*
%FSLAX25Y25*%
%MOIN*%
G70*
G01*
G75*
%ADD10C,0.00787*%
%ADD11C,0.00000*%
%ADD12C,0.00500*%
%ADD13C,0.00400*%
%ADD14C,0.01181*%
%ADD15C,0.00512*%
%ADD16C,0.00330*%
%ADD17C,0.00354*%
%ADD18C,0.00800*%
%ADD19C,0.00197*%
%ADD20C,0.00315*%
%ADD21C,0.00591*%
%ADD22C,0.00300*%
%ADD23C,0.01000*%
%ADD24C,0.00402*%
%ADD25C,0.00200*%
%ADD26C,0.00276*%
%ADD27C,0.00600*%
%ADD28C,0.00323*%
%ADD29C,0.00118*%
%ADD30C,0.00472*%
%ADD31C,0.00433*%
%ADD32R,0.00787X0.01772*%
%ADD33R,0.03937X0.01968*%
G36*
X48819Y83957D02*
X48228D01*
Y86516D01*
X48819D01*
Y83957D01*
D02*
G37*
G36*
X148822Y55610D02*
Y54035D01*
X145279D01*
Y55610D01*
X148822D01*
D02*
G37*
D10*
X163091Y35784D02*
G03*
X163091Y35784I-394J0D01*
G01*
X83406Y78378D02*
Y117087D01*
X150906Y78378D02*
Y117087D01*
X83406Y78378D02*
X150906D01*
X43996Y18209D02*
X63484D01*
X43996D02*
Y39075D01*
X63484D01*
Y18209D02*
Y39075D01*
D11*
X122552Y14862D02*
G03*
X122552Y14862I-800J0D01*
G01*
D12*
X62072Y21161D02*
G03*
X62072Y21161I-1245J0D01*
G01*
X61707D02*
G03*
X61707Y21161I-880J0D01*
G01*
X61383D02*
G03*
X61383Y21161I-557J0D01*
G01*
X61221D02*
G03*
X61221Y21161I-394J0D01*
G01*
Y21555D02*
G03*
X61221Y21555I-394J0D01*
G01*
X68794Y18406D02*
G03*
X68794Y18406I-880J0D01*
G01*
X67913D02*
G03*
X67913Y18406I-394J0D01*
G01*
X68307D02*
G03*
X68307Y18406I-394J0D01*
G01*
X76398Y2261D02*
G03*
X76398Y2261I-339J0D01*
G01*
X83406Y117087D02*
X150906D01*
X127854Y51083D02*
Y55807D01*
X135531Y51083D02*
Y55807D01*
X31594Y69095D02*
X33051D01*
X31594Y67638D02*
Y69095D01*
Y53347D02*
Y54803D01*
Y53347D02*
X33051D01*
X45886D02*
X47343D01*
Y54803D01*
Y67638D02*
Y69095D01*
X45886D02*
X47343D01*
X67953Y82382D02*
X72205D01*
X67953Y93405D02*
X72205D01*
X142953Y74705D02*
X147205D01*
X142953Y63681D02*
X147205D01*
X77264Y47736D02*
Y67421D01*
X76083Y47736D02*
X77264D01*
X76279Y67421D02*
X77264D01*
X57579Y47736D02*
Y67421D01*
X58760D01*
X57579Y47736D02*
X58563D01*
X125591Y49606D02*
Y69291D01*
X124409Y49606D02*
X125591D01*
X124606Y69291D02*
X125591D01*
X105905Y49606D02*
Y69291D01*
X107087D01*
X105905Y49606D02*
X106890D01*
X150791Y48622D02*
Y61024D01*
X143310D02*
X150791D01*
X143310Y48622D02*
Y61024D01*
Y48622D02*
X150791D01*
X178347Y29921D02*
Y31693D01*
X175197Y29921D02*
Y31693D01*
X51476Y57913D02*
Y59685D01*
X54626Y57913D02*
Y59685D01*
X40748Y75098D02*
X42520D01*
X40748Y78248D02*
X42520D01*
X85039Y65059D02*
Y66831D01*
X88189Y65059D02*
Y66831D01*
X51083Y71752D02*
Y73524D01*
X54232Y71752D02*
Y73524D01*
X163287Y64665D02*
X165059D01*
X163287Y61516D02*
X165059D01*
X181693Y30981D02*
Y32752D01*
X184843Y30981D02*
Y32752D01*
X73721Y7067D02*
Y8839D01*
X70571Y7067D02*
Y8839D01*
X93387Y7421D02*
Y9193D01*
X96537Y7421D02*
Y9193D01*
X61024Y72047D02*
X62795D01*
X61024Y75197D02*
X62795D01*
D13*
X159509Y58183D02*
G03*
X161909Y58183I1200J0D01*
G01*
X48142Y69095D02*
G03*
X48142Y69095I-800J0D01*
G01*
X165650Y6201D02*
Y18012D01*
X138091D02*
X165650D01*
X138091Y6201D02*
Y18012D01*
Y6201D02*
X165650D01*
X161909Y58183D02*
X162409D01*
X159509D02*
X161909D01*
X159009D02*
X159509D01*
X157509Y46284D02*
X163909D01*
X3248Y40925D02*
X12697D01*
Y35925D02*
Y40925D01*
X3248Y35925D02*
X12697D01*
X3248D02*
Y40925D01*
X12697Y30906D02*
Y34181D01*
X3248Y30906D02*
Y34232D01*
Y30906D02*
X12697D01*
X76060Y2261D02*
X91360D01*
Y15061D01*
X76060D02*
X91360D01*
X76060Y2261D02*
Y15061D01*
X40886Y12337D02*
X45886D01*
X40886Y6337D02*
Y12337D01*
Y6337D02*
X60886D01*
Y12337D01*
X40886D02*
X60886D01*
X45886Y6337D02*
Y12337D01*
X50886Y6337D02*
Y12337D01*
X55886Y6337D02*
Y12337D01*
X103862Y60335D02*
X102362D01*
Y59585D01*
X102612Y59335D01*
X102862D01*
X103112Y59585D01*
Y60335D01*
Y59585D01*
X103362Y59335D01*
X103612D01*
X103862Y59585D01*
Y60335D01*
X103362Y58585D02*
Y58085D01*
X103112Y57836D01*
X102362D01*
Y58585D01*
X102612Y58835D01*
X102862Y58585D01*
Y57836D01*
X103612Y57086D02*
X103362D01*
Y57336D01*
Y56836D01*
Y57086D01*
X102612D01*
X102362Y56836D01*
X103612Y55836D02*
X103362D01*
Y56086D01*
Y55586D01*
Y55836D01*
X102612D01*
X102362Y55586D01*
Y54087D02*
Y54586D01*
X102612Y54836D01*
X103112D01*
X103362Y54586D01*
Y54087D01*
X103112Y53837D01*
X102862D01*
Y54836D01*
X103362Y53337D02*
X102362D01*
X102862D01*
X103112Y53087D01*
X103362Y52837D01*
Y52587D01*
Y51837D02*
X102612D01*
X102362Y51587D01*
Y50838D01*
X102112D01*
X101862Y51088D01*
Y51337D01*
X102362Y50838D02*
X103362D01*
D14*
X189764Y53937D02*
G03*
X189764Y53937I-394J0D01*
G01*
D15*
X135590Y57045D02*
G03*
X135590Y57045I-197J0D01*
G01*
X40945Y119587D02*
X83071D01*
X40945Y97342D02*
Y119587D01*
Y97342D02*
X83071D01*
Y119587D01*
D16*
X124363Y16437D02*
G03*
X124363Y16437I-150J0D01*
G01*
D17*
X125787Y33737D02*
G03*
X125743Y33681I-1569J1206D01*
G01*
X120777Y11220D02*
G03*
X120777Y11220I-1978J0D01*
G01*
X87737Y43504D02*
G03*
X87737Y43504I-2993J0D01*
G01*
X160985Y69291D02*
G03*
X160985Y69291I-2993J0D01*
G01*
X166132Y75305D02*
G03*
X166132Y75305I-2993J0D01*
G01*
X163976Y35489D02*
X165213Y36725D01*
X163976D02*
X165213D01*
X163976Y35489D02*
Y36725D01*
X172008Y26969D02*
X173228D01*
X163976D02*
X165197D01*
X172008Y36725D02*
X173228D01*
X16870Y51081D02*
X15493D01*
Y51770D01*
X15722Y51999D01*
X16181D01*
X16411Y51770D01*
Y51081D01*
Y51540D02*
X16870Y51999D01*
Y53147D02*
Y52688D01*
X16641Y52458D01*
X16181D01*
X15952Y52688D01*
Y53147D01*
X16181Y53377D01*
X16411D01*
Y52458D01*
X15493Y54754D02*
Y53836D01*
X16181D01*
X15952Y54295D01*
Y54525D01*
X16181Y54754D01*
X16641D01*
X16870Y54525D01*
Y54066D01*
X16641Y53836D01*
X19882Y45764D02*
X18504D01*
Y46453D01*
X18734Y46683D01*
X19193D01*
X19423Y46453D01*
Y45764D01*
Y46223D02*
X19882Y46683D01*
Y47830D02*
Y47371D01*
X19652Y47142D01*
X19193D01*
X18964Y47371D01*
Y47830D01*
X19193Y48060D01*
X19423D01*
Y47142D01*
X19882Y49208D02*
X18504D01*
X19193Y48519D01*
Y49437D01*
X30807Y72244D02*
Y73622D01*
X31496D01*
X31725Y73392D01*
Y72933D01*
X31496Y72703D01*
X30807D01*
X31266D02*
X31725Y72244D01*
X32873D02*
X32414D01*
X32185Y72474D01*
Y72933D01*
X32414Y73162D01*
X32873D01*
X33103Y72933D01*
Y72703D01*
X32185D01*
X33562Y73392D02*
X33792Y73622D01*
X34251D01*
X34480Y73392D01*
Y73162D01*
X34251Y72933D01*
X34021D01*
X34251D01*
X34480Y72703D01*
Y72474D01*
X34251Y72244D01*
X33792D01*
X33562Y72474D01*
X22441Y62933D02*
X21063D01*
Y63622D01*
X21293Y63851D01*
X21752D01*
X21982Y63622D01*
Y62933D01*
Y63392D02*
X22441Y63851D01*
Y64999D02*
Y64540D01*
X22211Y64311D01*
X21752D01*
X21523Y64540D01*
Y64999D01*
X21752Y65229D01*
X21982D01*
Y64311D01*
X22441Y66606D02*
Y65688D01*
X21523Y66606D01*
X21293D01*
X21063Y66377D01*
Y65918D01*
X21293Y65688D01*
X16870Y56496D02*
X15493D01*
Y57185D01*
X15722Y57414D01*
X16181D01*
X16411Y57185D01*
Y56496D01*
Y56955D02*
X16870Y57414D01*
Y58562D02*
Y58103D01*
X16641Y57874D01*
X16181D01*
X15952Y58103D01*
Y58562D01*
X16181Y58792D01*
X16411D01*
Y57874D01*
X16870Y59251D02*
Y59710D01*
Y59481D01*
X15493D01*
X15722Y59251D01*
X122985Y12008D02*
X124363D01*
Y12926D01*
X123444Y13615D02*
Y14074D01*
X123674Y14304D01*
X124363D01*
Y13615D01*
X124133Y13385D01*
X123903Y13615D01*
Y14304D01*
X124363Y15681D02*
Y14763D01*
X123444Y15681D01*
X123215D01*
X122985Y15452D01*
Y14992D01*
X123215Y14763D01*
X63346Y13701D02*
Y14225D01*
Y13963D01*
X62034D01*
X61772Y14225D01*
Y14488D01*
X62034Y14750D01*
X61509Y13176D02*
Y12126D01*
X63346Y11601D02*
X62034D01*
X61772Y11339D01*
Y10814D01*
X62034Y10552D01*
X63346D01*
X61772Y10027D02*
X62821D01*
X63346Y9502D01*
X62821Y8978D01*
X61772D01*
X62559D01*
Y10027D01*
X61772Y8453D02*
X63346D01*
Y7666D01*
X63084Y7403D01*
X62559D01*
X62296Y7666D01*
Y8453D01*
Y7928D02*
X61772Y7403D01*
X63346Y6878D02*
Y5829D01*
Y6354D01*
X61772D01*
X87796Y47867D02*
Y47408D01*
Y47638D01*
X88944D01*
X89173Y47408D01*
Y47178D01*
X88944Y46949D01*
X89403Y48326D02*
Y49245D01*
X87796Y49704D02*
X89173D01*
Y50393D01*
X88944Y50622D01*
X88714D01*
X88485Y50393D01*
Y49704D01*
Y50393D01*
X88255Y50622D01*
X88025D01*
X87796Y50393D01*
Y49704D01*
X88255Y51311D02*
Y51770D01*
X88485Y52000D01*
X89173D01*
Y51311D01*
X88944Y51081D01*
X88714Y51311D01*
Y52000D01*
X88025Y52688D02*
X88255D01*
Y52459D01*
Y52918D01*
Y52688D01*
X88944D01*
X89173Y52918D01*
X88025Y53836D02*
X88255D01*
Y53607D01*
Y54066D01*
Y53836D01*
X88944D01*
X89173Y54066D01*
Y55443D02*
Y54984D01*
X88944Y54755D01*
X88485D01*
X88255Y54984D01*
Y55443D01*
X88485Y55673D01*
X88714D01*
Y54755D01*
X88255Y56132D02*
X89173D01*
X88714D01*
X88485Y56362D01*
X88255Y56591D01*
Y56821D01*
Y57510D02*
X88944D01*
X89173Y57739D01*
Y58428D01*
X89403D01*
X89632Y58198D01*
Y57969D01*
X89173Y58428D02*
X88255D01*
X156825Y62926D02*
X156595Y62697D01*
Y62238D01*
X156825Y62008D01*
X157743D01*
X157972Y62238D01*
Y62697D01*
X157743Y62926D01*
X158432Y63845D02*
Y64074D01*
X158202Y64304D01*
X157054D01*
Y63615D01*
X157284Y63385D01*
X157743D01*
X157972Y63615D01*
Y64304D01*
Y64763D02*
Y65222D01*
Y64992D01*
X156595D01*
X156825Y64763D01*
X50918Y79888D02*
X50689Y80118D01*
X50230D01*
X50000Y79888D01*
Y78970D01*
X50230Y78740D01*
X50689D01*
X50918Y78970D01*
X52066Y78740D02*
X51607D01*
X51377Y78970D01*
Y79429D01*
X51607Y79659D01*
X52066D01*
X52296Y79429D01*
Y79199D01*
X51377D01*
X52755Y79888D02*
X52985Y80118D01*
X53444D01*
X53673Y79888D01*
Y79659D01*
X53444Y79429D01*
X53214D01*
X53444D01*
X53673Y79199D01*
Y78970D01*
X53444Y78740D01*
X52985D01*
X52755Y78970D01*
X42843Y73294D02*
X42614Y73523D01*
X42155D01*
X41925Y73294D01*
Y72375D01*
X42155Y72146D01*
X42614D01*
X42843Y72375D01*
X43991Y72146D02*
X43532D01*
X43303Y72375D01*
Y72834D01*
X43532Y73064D01*
X43991D01*
X44221Y72834D01*
Y72605D01*
X43303D01*
X45599Y72146D02*
X44680D01*
X45599Y73064D01*
Y73294D01*
X45369Y73523D01*
X44910D01*
X44680Y73294D01*
X51411Y52624D02*
X51181Y52854D01*
X50722D01*
X50492Y52624D01*
Y51706D01*
X50722Y51476D01*
X51181D01*
X51411Y51706D01*
X52558Y51476D02*
X52099D01*
X51870Y51706D01*
Y52165D01*
X52099Y52395D01*
X52558D01*
X52788Y52165D01*
Y51936D01*
X51870D01*
X53936Y51476D02*
Y52854D01*
X53247Y52165D01*
X54166D01*
D18*
X119390Y14650D02*
X121965Y17224D01*
X121465Y33760D02*
Y35835D01*
X119390D02*
X121465D01*
X100779D02*
X102854D01*
X100779Y33760D02*
Y35835D01*
Y15150D02*
Y17224D01*
Y15150D02*
X102854D01*
D19*
X133366Y295D02*
Y23917D01*
Y295D02*
X173524D01*
X133366Y23917D02*
X173524D01*
Y295D02*
Y1870D01*
Y22638D02*
Y23917D01*
D20*
X43602Y87697D02*
X50295D01*
X43602Y82776D02*
X50295D01*
X12697Y34181D02*
Y35925D01*
X167914Y75000D02*
X168701D01*
Y75591D01*
X168307Y75394D01*
X168110D01*
X167914Y75591D01*
Y75984D01*
X168110Y76181D01*
X168504D01*
X168701Y75984D01*
X167520Y75000D02*
Y75788D01*
X167127Y76181D01*
X166733Y75788D01*
Y75000D01*
X181496Y38697D02*
X181299Y38894D01*
X180905D01*
X180709Y38697D01*
Y37910D01*
X180905Y37713D01*
X181299D01*
X181496Y37910D01*
X182283Y37319D02*
X182480D01*
X182676Y37516D01*
Y38500D01*
X182086D01*
X181889Y38304D01*
Y37910D01*
X182086Y37713D01*
X182676D01*
X183857D02*
X183070D01*
X183857Y38500D01*
Y38697D01*
X183660Y38894D01*
X183267D01*
X183070Y38697D01*
X175019Y37500D02*
X174823Y37696D01*
X174429D01*
X174232Y37500D01*
Y36713D01*
X174429Y36516D01*
X174823D01*
X175019Y36713D01*
X176200Y37696D02*
Y36516D01*
X175610D01*
X175413Y36713D01*
Y37106D01*
X175610Y37303D01*
X176200D01*
X176594Y36516D02*
X176987D01*
X176790D01*
Y37696D01*
X176594Y37500D01*
D21*
X172441Y39370D02*
Y55118D01*
X188189Y39370D02*
Y55118D01*
X187008D02*
X188189D01*
X187008Y39370D02*
X188189D01*
X172441Y55118D02*
X173622D01*
X172441Y39370D02*
X173622D01*
X30294Y40499D02*
Y42126D01*
X29074D01*
Y41313D01*
Y42126D01*
X27854D01*
Y39686D02*
X30294D01*
Y38466D01*
X29888Y38059D01*
X29074D01*
X28668Y38466D01*
Y39686D01*
Y38872D02*
X27854Y38059D01*
X30294Y36026D02*
Y36839D01*
X29888Y37246D01*
X28261D01*
X27854Y36839D01*
Y36026D01*
X28261Y35619D01*
X29888D01*
X30294Y36026D01*
X29888Y33179D02*
X30294Y33585D01*
Y34399D01*
X29888Y34806D01*
X29481D01*
X29074Y34399D01*
Y33585D01*
X28668Y33179D01*
X28261D01*
X27854Y33585D01*
Y34399D01*
X28261Y34806D01*
X30294Y32365D02*
Y30739D01*
Y31552D01*
X27854D01*
X30294Y28299D02*
Y29925D01*
X29074D01*
X29481Y29112D01*
Y28705D01*
X29074Y28299D01*
X28261D01*
X27854Y28705D01*
Y29518D01*
X28261Y29925D01*
X29888Y27485D02*
X30294Y27078D01*
Y26265D01*
X29888Y25858D01*
X28261D01*
X27854Y26265D01*
Y27078D01*
X28261Y27485D01*
X29888D01*
Y25045D02*
X30294Y24638D01*
Y23825D01*
X29888Y23418D01*
X28261D01*
X27854Y23825D01*
Y24638D01*
X28261Y25045D01*
X29888D01*
Y22605D02*
X30294Y22198D01*
Y21385D01*
X29888Y20978D01*
X28261D01*
X27854Y21385D01*
Y22198D01*
X28261Y22605D01*
X29888D01*
X27854Y17725D02*
Y16911D01*
Y17318D01*
X30294D01*
X29888Y17725D01*
X27854Y15691D02*
X28261D01*
Y15284D01*
X27854D01*
Y15691D01*
X29888Y13658D02*
X30294Y13251D01*
Y12438D01*
X29888Y12031D01*
X29481D01*
X29074Y12438D01*
Y12844D01*
Y12438D01*
X28668Y12031D01*
X28261D01*
X27854Y12438D01*
Y13251D01*
X28261Y13658D01*
X30294Y11217D02*
X27854D01*
Y9997D01*
X28261Y9591D01*
X28668D01*
X29074Y9997D01*
Y11217D01*
Y9997D01*
X29481Y9591D01*
X29888D01*
X30294Y9997D01*
Y11217D01*
X27854Y7557D02*
Y8371D01*
X28261Y8777D01*
X29074D01*
X29481Y8371D01*
Y7557D01*
X29074Y7151D01*
X28668D01*
Y8777D01*
X29888Y5930D02*
X29481D01*
Y6337D01*
Y5524D01*
Y5930D01*
X28261D01*
X27854Y5524D01*
X29481Y3897D02*
Y3084D01*
X29074Y2677D01*
X27854D01*
Y3897D01*
X28261Y4304D01*
X28668Y3897D01*
Y2677D01*
D22*
X60779Y81394D02*
Y94394D01*
Y81394D02*
X79379D01*
Y94394D01*
X60779D02*
X79379D01*
X135779Y75693D02*
X154379D01*
Y62693D02*
Y75693D01*
X135779Y62693D02*
X154379D01*
X135779D02*
Y75693D01*
X126573Y42520D02*
X131297D01*
X126573Y32283D02*
Y42520D01*
Y32283D02*
X131297D01*
Y42520D01*
X132579Y31398D02*
X142815D01*
X132579D02*
Y36122D01*
X142815D01*
Y31398D02*
Y36122D01*
X119783Y3741D02*
Y8465D01*
X109547D02*
X119783D01*
X109547Y3741D02*
Y8465D01*
Y3741D02*
X119783D01*
X84350Y18996D02*
Y29232D01*
X79626Y18996D02*
X84350D01*
X79626D02*
Y29232D01*
X84350D01*
X106102Y41929D02*
Y46654D01*
Y41929D02*
X116339D01*
Y46654D01*
X106102D02*
X116339D01*
X17717Y56496D02*
X27953D01*
X17717D02*
Y61221D01*
X27953D01*
Y56496D02*
Y61221D01*
X23228Y62933D02*
X27953D01*
Y73169D01*
X23228D02*
X27953D01*
X23228Y62933D02*
Y73169D01*
X25098Y74213D02*
X35335D01*
X25098D02*
Y78937D01*
X35335D01*
Y74213D02*
Y78937D01*
X20728Y45666D02*
Y50390D01*
Y45666D02*
X30965D01*
Y50390D01*
X20728D02*
X30965D01*
X17717Y55805D02*
X27953D01*
Y51081D02*
Y55805D01*
X17717Y51081D02*
X27953D01*
X17717D02*
Y55805D01*
X137697Y45762D02*
X142421D01*
Y55998D01*
X137697D02*
X142421D01*
X137697Y45762D02*
Y55998D01*
X132480Y44980D02*
X142717D01*
Y40256D02*
Y44980D01*
X132480Y40256D02*
X142717D01*
X132480D02*
Y44980D01*
X171161Y37516D02*
Y42240D01*
X160925D02*
X171161D01*
X160925Y37516D02*
Y42240D01*
Y37516D02*
X171161D01*
X152165Y30079D02*
Y40315D01*
X156890D01*
Y30079D02*
Y40315D01*
X152165Y30079D02*
X156890D01*
X174213Y25492D02*
Y36122D01*
X179331D01*
Y25492D02*
Y36122D01*
X174213Y25492D02*
X179331D01*
X55610Y53484D02*
Y64114D01*
X50492Y53484D02*
X55610D01*
X50492D02*
Y64114D01*
X55610D01*
X36319Y79232D02*
X46949D01*
Y74114D02*
Y79232D01*
X36319Y74114D02*
X46949D01*
X36319D02*
Y79232D01*
X89173Y60630D02*
Y71260D01*
X84055Y60630D02*
X89173D01*
X84055D02*
Y71260D01*
X89173D01*
X55216Y67323D02*
Y77953D01*
X50098Y67323D02*
X55216D01*
X50098D02*
Y77953D01*
X55216D01*
X158858Y60532D02*
X169488D01*
X158858D02*
Y65650D01*
X169488D01*
Y60532D02*
Y65650D01*
X185827Y26552D02*
Y37182D01*
X180709Y26552D02*
X185827D01*
X180709D02*
Y37182D01*
X185827D01*
X69587Y2638D02*
Y13268D01*
X74705D01*
Y2638D02*
Y13268D01*
X69587Y2638D02*
X74705D01*
X97521Y2992D02*
Y13622D01*
X92403Y2992D02*
X97521D01*
X92403D02*
Y13622D01*
X97521D01*
X56595Y76181D02*
X67224D01*
Y71063D02*
Y76181D01*
X56595Y71063D02*
X67224D01*
X56595D02*
Y76181D01*
X38786Y6337D02*
X40119D01*
X40386Y6603D01*
Y7136D01*
X40119Y7403D01*
X38786D01*
X40386Y7936D02*
X39320D01*
X38786Y8469D01*
X39320Y9002D01*
X40386D01*
X39586D01*
Y7936D01*
X40386Y9536D02*
X38786D01*
Y10335D01*
X39053Y10602D01*
X39586D01*
X39853Y10335D01*
Y9536D01*
Y10069D02*
X40386Y10602D01*
X38786Y11135D02*
Y12201D01*
Y11668D01*
X40386D01*
X41886Y15411D02*
X42086Y15611D01*
X42486D01*
X42686Y15411D01*
Y15211D01*
X42486Y15011D01*
X42286D01*
X42486D01*
X42686Y14811D01*
Y14611D01*
X42486Y14411D01*
X42086D01*
X41886Y14611D01*
X43085Y15611D02*
Y14811D01*
X43485Y14411D01*
X43885Y14811D01*
Y15611D01*
X44285Y15411D02*
X44485Y15611D01*
X44885D01*
X45085Y15411D01*
Y15211D01*
X44885Y15011D01*
X44685D01*
X44885D01*
X45085Y14811D01*
Y14611D01*
X44885Y14411D01*
X44485D01*
X44285Y14611D01*
X47386Y15611D02*
X48186D01*
X47786D01*
Y14411D01*
X48585Y15211D02*
X49385Y14411D01*
X48985Y14811D01*
X49385Y15211D01*
X48585Y14411D01*
X52386D02*
Y15611D01*
X52986D01*
X53186Y15411D01*
Y15011D01*
X52986Y14811D01*
X52386D01*
X52786D02*
X53186Y14411D01*
X53585Y15211D02*
X54385Y14411D01*
X53985Y14811D01*
X54385Y15211D01*
X53585Y14411D01*
X57686Y15411D02*
X57486Y15611D01*
X57086D01*
X56886Y15411D01*
Y14611D01*
X57086Y14411D01*
X57486D01*
X57686Y14611D01*
Y15011D01*
X57286D01*
X58085Y14411D02*
Y15611D01*
X58885Y14411D01*
Y15611D01*
X59285D02*
Y14411D01*
X59885D01*
X60085Y14611D01*
Y15411D01*
X59885Y15611D01*
X59285D01*
D23*
X90374Y56201D02*
X100374D01*
X90374Y66201D02*
X100374D01*
Y46201D02*
Y66201D01*
X90374Y46201D02*
X100374D01*
X90374D02*
Y66201D01*
D24*
X12697Y33091D02*
Y35925D01*
X3248Y33142D02*
Y35976D01*
D25*
X124803Y14567D02*
Y18307D01*
Y14567D02*
X132283D01*
Y18307D01*
X124803D02*
X132283D01*
X124114Y22441D02*
X131595D01*
Y18701D02*
Y22441D01*
X124114Y18701D02*
X131595D01*
X124114D02*
Y22441D01*
X127657Y21752D02*
X128051D01*
X127657Y19390D02*
X128051D01*
X125492Y10433D02*
X132973D01*
X125492D02*
Y14173D01*
X132973D01*
Y10433D02*
Y14173D01*
X129035Y11122D02*
X129429D01*
X129035Y13484D02*
X129429D01*
D26*
X87913Y36229D02*
X87126D01*
X87520D01*
Y37410D01*
X86142D02*
X86536D01*
X86733Y37213D01*
Y36820D01*
X86536Y36623D01*
X86142D01*
X85945Y36820D01*
Y37016D01*
X86733D01*
X85552Y37410D02*
X84962D01*
X84765Y37213D01*
X84962Y37016D01*
X85355D01*
X85552Y36820D01*
X85355Y36623D01*
X84765D01*
X84175Y36426D02*
Y36623D01*
X84371D01*
X83978D01*
X84175D01*
Y37213D01*
X83978Y37410D01*
X87913Y38308D02*
Y39488D01*
X87126D01*
X86142D02*
X86536D01*
X86733Y39292D01*
Y38898D01*
X86536Y38701D01*
X86142D01*
X85945Y38898D01*
Y39095D01*
X86733D01*
X84765Y38308D02*
Y39488D01*
X85355D01*
X85552Y39292D01*
Y38898D01*
X85355Y38701D01*
X84765D01*
X84371Y38308D02*
Y39488D01*
X83584D01*
X82994D02*
X82600D01*
X82403Y39292D01*
Y38898D01*
X82600Y38701D01*
X82994D01*
X83191Y38898D01*
Y39292D01*
X82994Y39488D01*
X81616Y39882D02*
X81419D01*
X81223Y39685D01*
Y38701D01*
X81813D01*
X82010Y38898D01*
Y39292D01*
X81813Y39488D01*
X81223D01*
X80632D02*
X80239D01*
X80042Y39292D01*
Y38898D01*
X80239Y38701D01*
X80632D01*
X80829Y38898D01*
Y39292D01*
X80632Y39488D01*
X165565Y67332D02*
X164777D01*
X165171D01*
Y68512D01*
X163793D02*
X164187D01*
X164384Y68316D01*
Y67922D01*
X164187Y67725D01*
X163793D01*
X163597Y67922D01*
Y68119D01*
X164384D01*
X163203Y68512D02*
X162613D01*
X162416Y68316D01*
X162613Y68119D01*
X163006D01*
X163203Y67922D01*
X163006Y67725D01*
X162416D01*
X161826Y67528D02*
Y67725D01*
X162022D01*
X161629D01*
X161826D01*
Y68316D01*
X161629Y68512D01*
X165565Y69410D02*
Y70591D01*
X164777D01*
X163793D02*
X164187D01*
X164384Y70394D01*
Y70000D01*
X164187Y69803D01*
X163793D01*
X163597Y70000D01*
Y70197D01*
X164384D01*
X162416Y69410D02*
Y70591D01*
X163006D01*
X163203Y70394D01*
Y70000D01*
X163006Y69803D01*
X162416D01*
X162022Y70591D02*
X161629D01*
X161826D01*
Y69410D01*
X162022Y69607D01*
D27*
X102873Y47201D02*
Y44535D01*
Y67201D02*
Y64535D01*
X104206Y65868D02*
X101541D01*
D28*
X15216Y39679D02*
Y40125D01*
Y39902D01*
X14101D01*
X13878Y40125D01*
Y40348D01*
X14101Y40571D01*
X14770Y39233D02*
X14101D01*
X13878Y39010D01*
Y38341D01*
X14770D01*
X13878Y37895D02*
X14770D01*
Y37672D01*
X14547Y37448D01*
X13878D01*
X14547D01*
X14770Y37225D01*
X14547Y37003D01*
X13878D01*
X13432Y36556D02*
X14770D01*
Y35887D01*
X14547Y35664D01*
X14101D01*
X13878Y35887D01*
Y36556D01*
Y34549D02*
Y34995D01*
X14101Y35218D01*
X14547D01*
X14770Y34995D01*
Y34549D01*
X14547Y34326D01*
X14324D01*
Y35218D01*
X14770Y33880D02*
X13878D01*
X14324D01*
X14547Y33657D01*
X14770Y33434D01*
Y33211D01*
D29*
X116043Y11811D02*
X116142Y11713D01*
X116339D01*
X116437Y11811D01*
Y11910D01*
X116339Y12008D01*
X116142D01*
X116043Y12106D01*
Y12205D01*
X116142Y12303D01*
X116339D01*
X116437Y12205D01*
X115847Y12303D02*
X115650D01*
X115748D01*
Y11713D01*
X115847D01*
X115059Y12303D02*
X115256D01*
X115355Y12205D01*
Y12008D01*
X115256Y11910D01*
X115059D01*
X114961Y12008D01*
Y12106D01*
X115355D01*
X114469Y12303D02*
X114666D01*
X114764Y12205D01*
Y12008D01*
X114666Y11910D01*
X114469D01*
X114371Y12008D01*
Y12106D01*
X114764D01*
X114174Y12500D02*
Y11910D01*
X113879D01*
X113780Y12008D01*
Y12205D01*
X113879Y12303D01*
X114174D01*
X125492Y31890D02*
X125591Y31791D01*
X125787D01*
X125886Y31890D01*
Y31988D01*
X125787Y32087D01*
X125591D01*
X125492Y32185D01*
Y32283D01*
X125591Y32382D01*
X125787D01*
X125886Y32283D01*
X125295Y32382D02*
X125099D01*
X125197D01*
Y31791D01*
X125295D01*
X124508Y32382D02*
X124705D01*
X124803Y32283D01*
Y32087D01*
X124705Y31988D01*
X124508D01*
X124410Y32087D01*
Y32185D01*
X124803D01*
X123918Y32382D02*
X124115D01*
X124213Y32283D01*
Y32087D01*
X124115Y31988D01*
X123918D01*
X123820Y32087D01*
Y32185D01*
X124213D01*
X123623Y32579D02*
Y31988D01*
X123328D01*
X123229Y32087D01*
Y32283D01*
X123328Y32382D01*
X123623D01*
D30*
X4822Y56562D02*
Y57874D01*
X3838D01*
Y57218D01*
Y57874D01*
X2854D01*
X4822Y54594D02*
Y55906D01*
X3838D01*
X4166Y55250D01*
Y54922D01*
X3838Y54594D01*
X3182D01*
X2854Y54922D01*
Y55578D01*
X3182Y55906D01*
X2854Y53938D02*
X4822D01*
X3510D02*
X4166Y52954D01*
X3510Y53938D02*
X2854Y52954D01*
X3838Y51970D02*
Y50659D01*
X2854Y50003D02*
Y49347D01*
Y49675D01*
X4822D01*
X4494Y50003D01*
X2854Y48363D02*
X3182D01*
Y48035D01*
X2854D01*
Y48363D01*
X4494Y46723D02*
X4822Y46395D01*
Y45739D01*
X4494Y45411D01*
X4166D01*
X3838Y45739D01*
Y46067D01*
Y45739D01*
X3510Y45411D01*
X3182D01*
X2854Y45739D01*
Y46395D01*
X3182Y46723D01*
X4822Y44755D02*
X2854D01*
Y43771D01*
X3182Y43443D01*
X3510D01*
X3838D01*
X4166Y43771D01*
Y44755D01*
X26377Y42224D02*
X24016D01*
Y41044D01*
X24409Y40650D01*
X24803D01*
X25196Y41044D01*
Y42224D01*
Y41044D01*
X25590Y40650D01*
X25984D01*
X26377Y41044D01*
Y42224D01*
X24016Y39469D02*
Y38682D01*
X24409Y38289D01*
X25196D01*
X25590Y38682D01*
Y39469D01*
X25196Y39863D01*
X24409D01*
X24016Y39469D01*
X25590Y37501D02*
X24016Y35927D01*
X24803Y36714D01*
X25590Y35927D01*
X24016Y37501D01*
X25984Y31204D02*
X26377Y31598D01*
Y32385D01*
X25984Y32779D01*
X25590D01*
X25196Y32385D01*
Y31598D01*
X24803Y31204D01*
X24409D01*
X24016Y31598D01*
Y32385D01*
X24409Y32779D01*
X25590Y30417D02*
X24409D01*
X24016Y30024D01*
Y28843D01*
X23622D01*
X23229Y29237D01*
Y29630D01*
X24016Y28843D02*
X25590D01*
X24016Y28056D02*
X25590D01*
Y26875D01*
X25196Y26482D01*
X24016D01*
Y24514D02*
Y25301D01*
X24409Y25694D01*
X25196D01*
X25590Y25301D01*
Y24514D01*
X25196Y24120D01*
X24803D01*
Y25694D01*
X25590Y23333D02*
X24016D01*
X24803D01*
X25196Y22939D01*
X25590Y22546D01*
Y22152D01*
X23229Y20184D02*
Y19791D01*
X23622Y19397D01*
X25590D01*
Y20578D01*
X25196Y20971D01*
X24409D01*
X24016Y20578D01*
Y19397D01*
X25590Y18610D02*
X24409D01*
X24016Y18216D01*
Y17036D01*
X23622D01*
X23229Y17429D01*
Y17823D01*
X24016Y17036D02*
X25590D01*
D31*
X69750Y75165D02*
X70078Y75492D01*
Y76148D01*
X69750Y76476D01*
X68438D01*
X68110Y76148D01*
Y75492D01*
X68438Y75165D01*
X68110Y73525D02*
Y74181D01*
X68438Y74509D01*
X69094D01*
X69422Y74181D01*
Y73525D01*
X69094Y73197D01*
X68766D01*
Y74509D01*
X70078Y71229D02*
X69750Y71885D01*
X69094Y72541D01*
X68438D01*
X68110Y72213D01*
Y71557D01*
X68438Y71229D01*
X68766D01*
X69094Y71557D01*
Y72541D01*
X88681Y17716D02*
Y17388D01*
X89337Y16732D01*
X89993Y17388D01*
Y17716D01*
X89337Y16732D02*
Y15748D01*
X173130Y58169D02*
Y56529D01*
X173458Y56201D01*
X174114D01*
X174442Y56529D01*
Y58169D01*
X175098D02*
X176410D01*
Y57841D01*
X175098Y56529D01*
Y56201D01*
X127756Y60432D02*
Y58793D01*
X128084Y58465D01*
X128740D01*
X129068Y58793D01*
Y60432D01*
X131036D02*
X130380Y60105D01*
X129724Y59448D01*
Y58793D01*
X130052Y58465D01*
X130708D01*
X131036Y58793D01*
Y59121D01*
X130708Y59448D01*
X129724D01*
X43898Y50885D02*
Y49245D01*
X44226Y48917D01*
X44882D01*
X45210Y49245D01*
Y50885D01*
X47177D02*
X45865D01*
Y49901D01*
X46521Y50229D01*
X46849D01*
X47177Y49901D01*
Y49245D01*
X46849Y48917D01*
X46194D01*
X45865Y49245D01*
X160532Y27516D02*
X162172D01*
X162500Y27844D01*
Y28500D01*
X162172Y28828D01*
X160532D01*
X162500Y30468D02*
X160532D01*
X161516Y29484D01*
Y30796D01*
X154035Y60039D02*
Y58399D01*
X154363Y58071D01*
X155019D01*
X155347Y58399D01*
Y60039D01*
X156003Y59711D02*
X156331Y60039D01*
X156987D01*
X157315Y59711D01*
Y59383D01*
X156987Y59055D01*
X156659D01*
X156987D01*
X157315Y58727D01*
Y58399D01*
X156987Y58071D01*
X156331D01*
X156003Y58399D01*
X43996Y42322D02*
Y40682D01*
X44324Y40354D01*
X44980D01*
X45308Y40682D01*
Y42322D01*
X47276Y40354D02*
X45964D01*
X47276Y41666D01*
Y41994D01*
X46948Y42322D01*
X46292D01*
X45964Y41994D01*
X102362Y39862D02*
Y38222D01*
X102690Y37894D01*
X103346D01*
X103674Y38222D01*
Y39862D01*
X104330Y37894D02*
X104986D01*
X104658D01*
Y39862D01*
X104330Y39534D01*
X144291Y46063D02*
Y48031D01*
X145275D01*
X145603Y47703D01*
Y47047D01*
X145275Y46719D01*
X144291D01*
X144947D02*
X145603Y46063D01*
X147571Y47375D02*
X146587D01*
X146259Y47047D01*
Y46391D01*
X146587Y46063D01*
X147571D01*
X149539Y47703D02*
X149211Y48031D01*
X148555D01*
X148227Y47703D01*
Y47375D01*
X148555Y47047D01*
X149211D01*
X149539Y46719D01*
Y46391D01*
X149211Y46063D01*
X148555D01*
X148227Y46391D01*
X152165Y41437D02*
Y43405D01*
X153149D01*
X153477Y43077D01*
Y42421D01*
X153149Y42093D01*
X152165D01*
X152821D02*
X153477Y41437D01*
X154133Y40781D02*
Y42749D01*
X155117D01*
X155445Y42421D01*
Y41765D01*
X155117Y41437D01*
X154133D01*
X157413D02*
X156101D01*
X157413Y42749D01*
Y43077D01*
X157085Y43405D01*
X156429D01*
X156101Y43077D01*
X160925Y43323D02*
Y45291D01*
X161909D01*
X162237Y44963D01*
Y44307D01*
X161909Y43979D01*
X160925D01*
X161581D02*
X162237Y43323D01*
X162893Y42667D02*
Y44635D01*
X163877D01*
X164205Y44307D01*
Y43651D01*
X163877Y43323D01*
X162893D01*
X164861D02*
X165517D01*
X165189D01*
Y45291D01*
X164861Y44963D01*
X143504Y44882D02*
X145472D01*
Y43898D01*
X145144Y43570D01*
X144488D01*
X144160Y43898D01*
Y44882D01*
Y44226D02*
X143504Y43570D01*
Y42586D02*
X145144D01*
X144488D01*
Y42914D01*
Y42258D01*
Y42586D01*
X145144D01*
X145472Y42258D01*
X143504Y39962D02*
Y41274D01*
X144816Y39962D01*
X145144D01*
X145472Y40290D01*
Y40946D01*
X145144Y41274D01*
X138091Y56685D02*
Y58653D01*
X139075D01*
X139402Y58325D01*
Y57669D01*
X139075Y57341D01*
X138091D01*
X138747D02*
X139402Y56685D01*
X140386D02*
Y58325D01*
Y57669D01*
X140058D01*
X140714D01*
X140386D01*
Y58325D01*
X140714Y58653D01*
X141698Y56685D02*
X142354D01*
X142026D01*
Y58653D01*
X141698Y58325D01*
X117126Y46949D02*
X119094D01*
Y45965D01*
X118766Y45637D01*
X118110D01*
X117782Y45965D01*
Y46949D01*
Y46293D02*
X117126Y45637D01*
X118438Y44653D02*
Y43997D01*
X118110Y43669D01*
X117126D01*
Y44653D01*
X117454Y44981D01*
X117782Y44653D01*
Y43669D01*
X119094Y41701D02*
Y43013D01*
X118110D01*
X118438Y42357D01*
Y42029D01*
X118110Y41701D01*
X117454D01*
X117126Y42029D01*
Y42685D01*
X117454Y43013D01*
X79488Y30217D02*
Y32184D01*
X80472D01*
X80800Y31856D01*
Y31201D01*
X80472Y30872D01*
X79488D01*
X80144D02*
X80800Y30217D01*
X81784Y31528D02*
X82440D01*
X82768Y31201D01*
Y30217D01*
X81784D01*
X81456Y30544D01*
X81784Y30872D01*
X82768D01*
X84736Y30217D02*
X83424D01*
X84736Y31528D01*
Y31856D01*
X84408Y32184D01*
X83752D01*
X83424Y31856D01*
X108661Y4035D02*
X106694D01*
Y5019D01*
X107021Y5347D01*
X107677D01*
X108005Y5019D01*
Y4035D01*
Y4691D02*
X108661Y5347D01*
X107350Y6331D02*
Y6987D01*
X107677Y7315D01*
X108661D01*
Y6331D01*
X108333Y6003D01*
X108005Y6331D01*
Y7315D01*
X108661Y7971D02*
Y8627D01*
Y8299D01*
X106694D01*
X107021Y7971D01*
X143504Y36122D02*
X145472D01*
Y35138D01*
X145144Y34810D01*
X144488D01*
X144160Y35138D01*
Y36122D01*
Y35466D02*
X143504Y34810D01*
Y33826D02*
Y33170D01*
X143832Y32842D01*
X144488D01*
X144816Y33170D01*
Y33826D01*
X144488Y34154D01*
X143832D01*
X143504Y33826D01*
Y30874D02*
Y32186D01*
X144816Y30874D01*
X145144D01*
X145472Y31202D01*
Y31858D01*
X145144Y32186D01*
X126573Y43307D02*
Y45275D01*
X127557D01*
X127885Y44947D01*
Y44291D01*
X127557Y43963D01*
X126573D01*
X127229D02*
X127885Y43307D01*
X128869D02*
X129525D01*
X129853Y43635D01*
Y44291D01*
X129525Y44619D01*
X128869D01*
X128541Y44291D01*
Y43635D01*
X128869Y43307D01*
X130509D02*
X131165D01*
X130837D01*
Y45275D01*
X130509Y44947D01*
X106890Y72440D02*
Y70472D01*
X108202D01*
X109186D02*
Y72112D01*
Y71456D01*
X108858D01*
X109514D01*
X109186D01*
Y72112D01*
X109514Y72440D01*
X59153Y46653D02*
Y44685D01*
X60465D01*
X62105D02*
X61449D01*
X61121Y45013D01*
Y45669D01*
X61449Y45997D01*
X62105D01*
X62433Y45669D01*
Y45341D01*
X61121D01*
X84777Y77155D02*
X84121D01*
X84448D01*
Y75515D01*
X84121Y75187D01*
X83793D01*
X83465Y75515D01*
X85432Y74859D02*
X86744D01*
X87400Y77155D02*
Y75515D01*
X87728Y75187D01*
X88384D01*
X88712Y75515D01*
Y77155D01*
X90680Y76827D02*
X90352Y77155D01*
X89696D01*
X89368Y76827D01*
Y76499D01*
X89696Y76171D01*
X90352D01*
X90680Y75843D01*
Y75515D01*
X90352Y75187D01*
X89696D01*
X89368Y75515D01*
X91336Y77155D02*
Y75187D01*
X92320D01*
X92648Y75515D01*
Y75843D01*
X92320Y76171D01*
X91336D01*
X92320D01*
X92648Y76499D01*
Y76827D01*
X92320Y77155D01*
X91336D01*
X93304Y74859D02*
X94616D01*
X95272Y75187D02*
Y76499D01*
X95928Y77155D01*
X96584Y76499D01*
Y75187D01*
Y76171D01*
X95272D01*
X41962Y96362D02*
X41306D01*
X41633D01*
Y94722D01*
X41306Y94394D01*
X40978D01*
X40650Y94722D01*
X42617Y94066D02*
X43929D01*
X44585Y94394D02*
Y96362D01*
X45241Y95706D01*
X45897Y96362D01*
Y94394D01*
X46553Y96362D02*
X47209D01*
X46881D01*
Y94394D01*
X46553D01*
X47209D01*
X49505Y96034D02*
X49177Y96362D01*
X48521D01*
X48193Y96034D01*
Y94722D01*
X48521Y94394D01*
X49177D01*
X49505Y94722D01*
X50161Y94394D02*
Y96362D01*
X51145D01*
X51473Y96034D01*
Y95378D01*
X51145Y95050D01*
X50161D01*
X50817D02*
X51473Y94394D01*
X53113Y96362D02*
X52457D01*
X52129Y96034D01*
Y94722D01*
X52457Y94394D01*
X53113D01*
X53441Y94722D01*
Y96034D01*
X53113Y96362D01*
X54097D02*
Y94722D01*
X54425Y94394D01*
X55081D01*
X55409Y94722D01*
Y96362D01*
X57376Y96034D02*
X57048Y96362D01*
X56393D01*
X56064Y96034D01*
Y95706D01*
X56393Y95378D01*
X57048D01*
X57376Y95050D01*
Y94722D01*
X57048Y94394D01*
X56393D01*
X56064Y94722D01*
X58032Y96362D02*
Y94394D01*
X59016D01*
X59344Y94722D01*
Y95050D01*
X59016Y95378D01*
X58032D01*
X59016D01*
X59344Y95706D01*
Y96034D01*
X59016Y96362D01*
X58032D01*
X4429Y30019D02*
X3838D01*
X4134D01*
Y28543D01*
X3838Y28248D01*
X3543D01*
X3248Y28543D01*
X5019Y27953D02*
X6200D01*
X7971Y30019D02*
X7380D01*
X7676D01*
Y28543D01*
X7380Y28248D01*
X7085D01*
X6790Y28543D01*
X8561Y29429D02*
Y28543D01*
X8856Y28248D01*
X9742D01*
Y29429D01*
X10332Y28248D02*
Y29429D01*
X10627D01*
X10923Y29134D01*
Y28248D01*
Y29134D01*
X11218Y29429D01*
X11513Y29134D01*
Y28248D01*
X12103Y27658D02*
Y29429D01*
X12989D01*
X13284Y29134D01*
Y28543D01*
X12989Y28248D01*
X12103D01*
X14760D02*
X14170D01*
X13874Y28543D01*
Y29134D01*
X14170Y29429D01*
X14760D01*
X15055Y29134D01*
Y28838D01*
X13874D01*
X15646Y29429D02*
Y28248D01*
Y28838D01*
X15941Y29134D01*
X16236Y29429D01*
X16531D01*
X42323Y90551D02*
Y88583D01*
X43307D01*
X43635Y88911D01*
Y90223D01*
X43307Y90551D01*
X42323D01*
X44291Y88255D02*
X45603D01*
X46259Y90551D02*
X47570D01*
Y90223D01*
X46259Y88911D01*
Y88583D01*
X47570D01*
X49210D02*
X48554D01*
X48226Y88911D01*
Y89567D01*
X48554Y89895D01*
X49210D01*
X49538Y89567D01*
Y89239D01*
X48226D01*
X50194Y88583D02*
Y89895D01*
X51178D01*
X51506Y89567D01*
Y88583D01*
X93912Y16443D02*
X93584Y16771D01*
X92928D01*
X92600Y16443D01*
Y15131D01*
X92928Y14803D01*
X93584D01*
X93912Y15131D01*
X94568Y16115D02*
Y15131D01*
X94896Y14803D01*
X95880D01*
Y14475D01*
X95552Y14147D01*
X95224D01*
X95880Y14803D02*
Y16115D01*
X97847Y14803D02*
X96536D01*
X97847Y16115D01*
Y16443D01*
X97520Y16771D01*
X96864D01*
X96536Y16443D01*
X71391Y16049D02*
X71063Y16377D01*
X70407D01*
X70079Y16049D01*
Y14737D01*
X70407Y14410D01*
X71063D01*
X71391Y14737D01*
X72047Y15721D02*
Y14737D01*
X72375Y14410D01*
X73359D01*
Y14082D01*
X73031Y13754D01*
X72703D01*
X73359Y14410D02*
Y15721D01*
X74015Y14410D02*
X74670D01*
X74342D01*
Y16377D01*
X74015Y16049D01*
X133301Y65485D02*
X132973Y65157D01*
Y64501D01*
X133301Y64173D01*
X134613D01*
X134941Y64501D01*
Y65157D01*
X134613Y65485D01*
X134941Y66469D02*
X133301D01*
X133957D01*
Y66141D01*
Y66797D01*
Y66469D01*
X133301D01*
X132973Y66797D01*
X135269Y67781D02*
Y69093D01*
X134941Y70077D02*
Y70733D01*
X134613Y71061D01*
X133957D01*
X133629Y70733D01*
Y70077D01*
X133957Y69749D01*
X134613D01*
X134941Y70077D01*
X133629Y71717D02*
X134613D01*
X134941Y72045D01*
Y73029D01*
X133629D01*
X133301Y74013D02*
X133629D01*
Y73685D01*
Y74340D01*
Y74013D01*
X134613D01*
X134941Y74340D01*
X81825Y62532D02*
X81497Y62204D01*
Y61549D01*
X81825Y61221D01*
X83137D01*
X83465Y61549D01*
Y62204D01*
X83137Y62532D01*
X83465Y64172D02*
Y63516D01*
X83137Y63188D01*
X82481D01*
X82153Y63516D01*
Y64172D01*
X82481Y64500D01*
X82809D01*
Y63188D01*
X81497Y66468D02*
Y65156D01*
X82481D01*
X82153Y65812D01*
Y66140D01*
X82481Y66468D01*
X83137D01*
X83465Y66140D01*
Y65484D01*
X83137Y65156D01*
X62237Y80380D02*
X61909Y80708D01*
X61253D01*
X60925Y80380D01*
Y79068D01*
X61253Y78740D01*
X61909D01*
X62237Y79068D01*
X63877Y78740D02*
X63221D01*
X62893Y79068D01*
Y79724D01*
X63221Y80052D01*
X63877D01*
X64205Y79724D01*
Y79396D01*
X62893D01*
X64861Y78740D02*
X65517D01*
X65189D01*
Y80708D01*
X64861Y80380D01*
X128182Y9711D02*
X127854Y10039D01*
X127198D01*
X126870Y9711D01*
Y8399D01*
X127198Y8071D01*
X127854D01*
X128182Y8399D01*
X129166Y9383D02*
X129822D01*
X130150Y9055D01*
Y8071D01*
X129166D01*
X128838Y8399D01*
X129166Y8727D01*
X130150D01*
X131790Y8071D02*
Y10039D01*
X130806Y9055D01*
X132118D01*
X126706Y24573D02*
X126378Y24901D01*
X125722D01*
X125394Y24573D01*
Y23261D01*
X125722Y22933D01*
X126378D01*
X126706Y23261D01*
X127690Y24245D02*
X128346D01*
X128674Y23917D01*
Y22933D01*
X127690D01*
X127362Y23261D01*
X127690Y23589D01*
X128674D01*
X129329Y24573D02*
X129657Y24901D01*
X130313D01*
X130641Y24573D01*
Y24245D01*
X130313Y23917D01*
X129985D01*
X130313D01*
X130641Y23589D01*
Y23261D01*
X130313Y22933D01*
X129657D01*
X129329Y23261D01*
X138091Y18898D02*
Y20210D01*
X138747Y20865D01*
X139402Y20210D01*
Y18898D01*
Y19882D01*
X138091D01*
X140058Y18898D02*
Y20210D01*
X141042D01*
X141370Y19882D01*
Y18898D01*
X142354Y20538D02*
Y20210D01*
X142026D01*
X142682D01*
X142354D01*
Y19226D01*
X142682Y18898D01*
X144650D02*
X143994D01*
X143666Y19226D01*
Y19882D01*
X143994Y20210D01*
X144650D01*
X144978Y19882D01*
Y19554D01*
X143666D01*
X145634Y18898D02*
Y20210D01*
X146618D01*
X146946Y19882D01*
Y18898D01*
X147602D02*
Y20210D01*
X148586D01*
X148914Y19882D01*
Y18898D01*
X149898Y20210D02*
X150554D01*
X150882Y19882D01*
Y18898D01*
X149898D01*
X149570Y19226D01*
X149898Y19554D01*
X150882D01*
D32*
X136910Y7283D02*
D03*
D33*
X146949Y12106D02*
D03*
M02*
