G04*
G04 #@! TF.GenerationSoftware,Altium Limited,Altium Designer,20.2.4 (192)*
G04*
G04 Layer_Physical_Order=1*
G04 Layer_Color=255*
%FSLAX25Y25*%
%MOIN*%
G70*
G04*
G04 #@! TF.SameCoordinates,A4C890F2-BA2B-4C22-B79F-40179FF621D5*
G04*
G04*
G04 #@! TF.FilePolarity,Positive*
G04*
G01*
G75*
%ADD10C,0.00787*%
%ADD12C,0.01181*%
%ADD27R,0.02756X0.03543*%
%ADD28R,0.01693X0.01378*%
%ADD29R,0.01378X0.01693*%
%ADD30R,0.03843X0.03000*%
%ADD31R,0.02362X0.04331*%
%ADD32R,0.01575X0.04331*%
%ADD33R,0.09055X0.12992*%
%ADD34R,0.05512X0.02165*%
%ADD35R,0.04882X0.11063*%
%ADD36R,0.03543X0.02756*%
%ADD37R,0.01587X0.02795*%
%ADD38R,0.05906X0.15748*%
%ADD39R,0.04921X0.09449*%
%ADD40R,0.04882X0.06800*%
%ADD41R,0.01181X0.01968*%
%ADD42R,0.11811X0.08661*%
%ADD43R,0.01654X0.04200*%
%ADD44R,0.03937X0.05512*%
%ADD45R,0.03000X0.03843*%
%ADD79C,0.01575*%
%ADD80C,0.01378*%
%ADD81C,0.00984*%
%ADD82C,0.01772*%
%ADD83C,0.02756*%
%ADD84C,0.02362*%
%ADD85C,0.01968*%
%ADD86C,0.03150*%
%ADD87C,0.03543*%
%ADD88C,0.01500*%
%ADD89O,0.03543X0.07677*%
%ADD90O,0.04134X0.06102*%
%ADD91O,0.08268X0.07874*%
%ADD92C,0.05906*%
%ADD93R,0.05906X0.05906*%
%ADD94O,0.05906X0.06299*%
%ADD95R,0.05118X0.06890*%
%ADD96C,0.15748*%
%ADD97R,0.03150X0.04000*%
%ADD98O,0.03150X0.04000*%
%ADD99O,0.04000X0.03150*%
%ADD100R,0.04000X0.03150*%
%ADD101C,0.02362*%
%ADD102C,0.01968*%
G36*
X83129Y117267D02*
X152027D01*
Y85420D01*
X152027Y85254D01*
X151665Y84920D01*
X151314D01*
X150946Y85289D01*
Y90609D01*
X150784Y91423D01*
X150323Y92114D01*
X146503Y95934D01*
X145813Y96395D01*
X144999Y96557D01*
X72146D01*
X71332Y96395D01*
X70641Y95934D01*
X69847Y95139D01*
X66128D01*
X66079Y95639D01*
X66682Y95759D01*
X67307Y96177D01*
X69473Y98342D01*
X69890Y98967D01*
X70037Y99705D01*
Y102559D01*
X70000Y102745D01*
Y105433D01*
X66615D01*
X66520Y105561D01*
X66393Y105933D01*
X66741Y106453D01*
X66887Y107190D01*
X66741Y107928D01*
X66323Y108553D01*
X65698Y108970D01*
X64961Y109117D01*
X64223Y108970D01*
X63598Y108553D01*
X63439Y108314D01*
X62939D01*
X62780Y108553D01*
X62155Y108970D01*
X61417Y109117D01*
X60680Y108970D01*
X60055Y108553D01*
X59637Y107928D01*
X59491Y107190D01*
X59637Y106453D01*
X59985Y105933D01*
X59858Y105561D01*
X59763Y105433D01*
X57953D01*
Y99685D01*
X57543Y99466D01*
X56653D01*
X55916Y99319D01*
X55291Y98902D01*
X52181Y95792D01*
X51763Y95166D01*
X51617Y94429D01*
Y91802D01*
X50171Y90357D01*
X45598D01*
Y89997D01*
X42598D01*
X42119Y89902D01*
X41018D01*
Y89195D01*
X40641Y88631D01*
X40494Y87894D01*
Y85620D01*
X39967Y85093D01*
X39271D01*
X38838Y85254D01*
X38838Y85593D01*
Y119629D01*
X83129D01*
Y117267D01*
D02*
G37*
G36*
X62070Y95113D02*
X61391Y94977D01*
X60700Y94516D01*
X57885Y91701D01*
X57424Y91011D01*
X57262Y90197D01*
Y85408D01*
X56240D01*
Y80483D01*
X53865Y78109D01*
X53361Y77353D01*
X53184Y76462D01*
X53184Y76462D01*
Y75571D01*
X53046Y75433D01*
X50866D01*
Y71850D01*
X53069D01*
X53637Y71471D01*
X54528Y71294D01*
X55418Y71471D01*
X55986Y71850D01*
X57297D01*
X57759Y71850D01*
X58088Y71472D01*
X57185Y70569D01*
X53543D01*
X52862Y70433D01*
X50866D01*
Y66850D01*
X52862D01*
X53543Y66715D01*
X57983D01*
X58720Y66862D01*
X59345Y67279D01*
X64971Y72905D01*
X65437Y72854D01*
X65579Y72408D01*
X65311Y72229D01*
X59052Y65970D01*
X53543D01*
X52652Y65793D01*
X52114Y65433D01*
X50866D01*
Y61850D01*
X52114D01*
X52652Y61491D01*
X53543Y61313D01*
X58484D01*
X59089Y60709D01*
Y54029D01*
X56772Y51712D01*
X55715Y51851D01*
X55321D01*
X54109Y51692D01*
X52978Y51223D01*
X52008Y50479D01*
X51263Y49508D01*
X51174Y49293D01*
X49490D01*
X48974Y49808D01*
Y51968D01*
X48827Y52706D01*
X48410Y53331D01*
X45063Y56677D01*
X44438Y57095D01*
X43701Y57242D01*
X37491D01*
X36142Y58591D01*
Y60433D01*
X35191D01*
Y61850D01*
X36142D01*
Y65433D01*
X29213D01*
Y61850D01*
X31738D01*
Y60433D01*
X29213D01*
Y56850D01*
X32433D01*
X35331Y53952D01*
X35956Y53535D01*
X36693Y53388D01*
X42903D01*
X45120Y51170D01*
Y49010D01*
X45267Y48273D01*
X45685Y47648D01*
X46913Y46420D01*
X46927Y46351D01*
X47388Y45661D01*
X48078Y45200D01*
X48892Y45038D01*
X51174D01*
X51263Y44822D01*
X52008Y43852D01*
X52978Y43107D01*
X54109Y42639D01*
X55321Y42480D01*
X55715D01*
X56928Y42639D01*
X58058Y43107D01*
X59028Y43852D01*
X59773Y44822D01*
X59945Y45239D01*
X62854D01*
X66787Y41306D01*
X67412Y40888D01*
X68150Y40742D01*
X68887Y40888D01*
X69512Y41306D01*
X69930Y41931D01*
X70076Y42668D01*
X69930Y43406D01*
X69512Y44031D01*
X65015Y48528D01*
X64390Y48946D01*
X63652Y49092D01*
X61391D01*
X61199Y49554D01*
X63064Y51418D01*
X63064Y51418D01*
X63568Y52174D01*
X63745Y53065D01*
X63745Y53065D01*
Y61673D01*
X63745Y61673D01*
X63568Y62564D01*
X63064Y63319D01*
X62458Y63926D01*
X66152Y67620D01*
X66614Y67429D01*
Y58346D01*
X67857D01*
Y53065D01*
X68003Y52327D01*
X68421Y51702D01*
X71400Y48723D01*
Y36832D01*
X71547Y36094D01*
X71964Y35469D01*
X74964Y32470D01*
Y31075D01*
X75111Y30337D01*
X75528Y29712D01*
X76153Y29295D01*
X76891Y29148D01*
X77628Y29295D01*
X78253Y29712D01*
X78671Y30337D01*
X78818Y31075D01*
Y33268D01*
X78671Y34005D01*
X78253Y34630D01*
X75253Y37630D01*
Y49521D01*
X75107Y50259D01*
X74689Y50884D01*
X71710Y53863D01*
Y58346D01*
X72953D01*
Y69133D01*
X73508Y69504D01*
X77335Y73330D01*
X77835Y73270D01*
Y72913D01*
X85158D01*
Y90079D01*
X77835D01*
Y77226D01*
X76579D01*
X75842Y77080D01*
X75217Y76662D01*
X71348Y72793D01*
X71041D01*
X70591Y72913D01*
X70591Y73293D01*
Y90079D01*
X63268D01*
Y76652D01*
X58174Y71558D01*
X57795Y71886D01*
X57795Y72336D01*
Y74381D01*
X57840Y74606D01*
X57840Y74606D01*
Y75498D01*
X59533Y77191D01*
X62539D01*
Y85408D01*
X61517D01*
Y89316D01*
X63086Y90884D01*
X70728D01*
X71543Y91046D01*
X72233Y91507D01*
X73027Y92302D01*
X144118D01*
X146691Y89728D01*
Y84407D01*
X146853Y83593D01*
X147315Y82903D01*
X148929Y81289D01*
X149619Y80827D01*
X150433Y80665D01*
X157701D01*
X158069Y80297D01*
Y75753D01*
X158110Y75547D01*
Y68449D01*
X162117D01*
X162323Y68409D01*
X164349D01*
X164802Y67956D01*
Y67448D01*
X163904D01*
Y62392D01*
X163679Y62168D01*
X163621Y62081D01*
X163094D01*
X162723Y62458D01*
Y67448D01*
X157368D01*
Y66312D01*
X147380D01*
X135682Y78010D01*
X134927Y78515D01*
X134036Y78692D01*
X134036Y78692D01*
X109706D01*
X105675Y82724D01*
Y83353D01*
X105958Y83570D01*
X106545Y84335D01*
X106914Y85225D01*
X107039Y86181D01*
Y86575D01*
X106914Y87531D01*
X106545Y88421D01*
X105958Y89186D01*
X105193Y89773D01*
X104302Y90142D01*
X103347Y90268D01*
X102391Y90142D01*
X101500Y89773D01*
X100735Y89186D01*
X100148Y88421D01*
X99779Y87531D01*
X99654Y86575D01*
Y86181D01*
X99779Y85225D01*
X100148Y84335D01*
X100735Y83570D01*
X101018Y83353D01*
Y81759D01*
X101018Y81759D01*
X101196Y80868D01*
X101700Y80113D01*
X107096Y74717D01*
X107096Y74717D01*
X107851Y74213D01*
X108742Y74036D01*
X108742Y74036D01*
X133071D01*
X144770Y62337D01*
X145525Y61832D01*
X146416Y61655D01*
X146416Y61655D01*
X157368D01*
Y60519D01*
X160732D01*
Y58839D01*
X160522D01*
Y53309D01*
X158474D01*
Y58820D01*
X155403D01*
Y53309D01*
X127029D01*
Y58346D01*
X128071D01*
Y69213D01*
X121732D01*
Y58346D01*
X122774D01*
Y53309D01*
X116694D01*
X116508Y53809D01*
X116842Y54309D01*
X116882Y54508D01*
X118390Y56017D01*
X118808Y56642D01*
X118954Y57379D01*
Y58346D01*
X120197D01*
Y69213D01*
X113858D01*
Y58346D01*
X114563D01*
X114770Y57846D01*
X113699Y56776D01*
X113282Y56151D01*
X113135Y55413D01*
Y55046D01*
X113282Y54309D01*
X113616Y53809D01*
X113430Y53309D01*
X112247D01*
X111281Y54274D01*
Y58346D01*
X112323D01*
Y69213D01*
X105984D01*
Y58346D01*
X107026D01*
Y54151D01*
X106564Y53959D01*
X103305Y57219D01*
Y58346D01*
X104449D01*
Y69213D01*
X98110D01*
Y58346D01*
X99451D01*
Y56988D01*
X99598Y56251D01*
X100015Y55626D01*
X100641Y55208D01*
X101090Y55119D01*
X108375Y47834D01*
X108184Y47372D01*
X104785D01*
X95332Y56825D01*
Y58346D01*
X96575D01*
Y69213D01*
X90236D01*
Y58346D01*
X91479D01*
Y56595D01*
X91625Y55857D01*
X92043Y55232D01*
X92668Y54814D01*
X93118Y54725D01*
X102018Y45825D01*
X101853Y45282D01*
X101773Y45266D01*
X98815Y48224D01*
X98320Y48555D01*
X97736Y48671D01*
X95415D01*
X87458Y56628D01*
Y58346D01*
X88701D01*
Y69213D01*
X82362D01*
Y58346D01*
X83605D01*
Y56398D01*
X83751Y55660D01*
X84169Y55035D01*
X84794Y54618D01*
X85244Y54528D01*
X93705Y46067D01*
X94200Y45736D01*
X94784Y45620D01*
X97104D01*
X100339Y42386D01*
X100834Y42055D01*
X101417Y41939D01*
X113483D01*
X113674Y41477D01*
X100992Y28795D01*
X100542Y28706D01*
X99917Y28288D01*
X99499Y27663D01*
X99353Y26926D01*
Y11732D01*
X98110D01*
Y1035D01*
X98110Y866D01*
X97748Y535D01*
X96938D01*
X96575Y866D01*
X96575Y1035D01*
Y11732D01*
X95332D01*
Y13840D01*
X95186Y14578D01*
X94768Y15203D01*
X90301Y19670D01*
X89675Y20088D01*
X88938Y20234D01*
X78738D01*
X78531Y20734D01*
X83614Y25818D01*
X83614Y25818D01*
X83901Y26247D01*
X84002Y26754D01*
X84002Y26754D01*
Y35809D01*
X83901Y36316D01*
X83614Y36746D01*
X83614Y36746D01*
X79081Y41279D01*
Y55023D01*
X79118Y55049D01*
X79138Y55068D01*
X79556Y55693D01*
X79702Y56431D01*
Y58346D01*
X80827D01*
Y69213D01*
X74488D01*
Y58346D01*
X75849D01*
Y56510D01*
X75829Y56411D01*
X75976Y55674D01*
X76394Y55049D01*
X76431Y55023D01*
Y40730D01*
X76431Y40730D01*
X76532Y40223D01*
X76819Y39794D01*
X81353Y35260D01*
Y27303D01*
X76616Y22567D01*
X58060D01*
X57960Y23067D01*
X58058Y23107D01*
X59028Y23852D01*
X59773Y24823D01*
X60241Y25953D01*
X60401Y27165D01*
X60241Y28378D01*
X59773Y29508D01*
X59028Y30479D01*
X58058Y31223D01*
X56928Y31692D01*
X55715Y31851D01*
X55321D01*
X54109Y31692D01*
X52978Y31223D01*
X52008Y30479D01*
X51263Y29508D01*
X50795Y28378D01*
X50635Y27165D01*
X50795Y25953D01*
X51263Y24823D01*
X52008Y23852D01*
X52978Y23107D01*
X53076Y23067D01*
X52977Y22567D01*
X27992D01*
X18801Y31759D01*
Y56519D01*
X19248Y56768D01*
X19301Y56765D01*
X19865Y56030D01*
X19947Y55967D01*
Y41500D01*
X20140Y40533D01*
X20688Y39712D01*
X25023Y35377D01*
X25843Y34829D01*
X26811Y34637D01*
X51406D01*
X52008Y33852D01*
X52978Y33107D01*
X54109Y32639D01*
X55321Y32480D01*
X55715D01*
X56928Y32639D01*
X58058Y33107D01*
X59028Y33852D01*
X59773Y34822D01*
X60241Y35953D01*
X60401Y37165D01*
X60241Y38378D01*
X59773Y39508D01*
X59028Y40479D01*
X58058Y41223D01*
X56928Y41691D01*
X55715Y41851D01*
X55321D01*
X54109Y41691D01*
X52978Y41223D01*
X52008Y40479D01*
X51406Y39694D01*
X27858D01*
X25005Y42548D01*
Y55967D01*
X25087Y56030D01*
X25674Y56795D01*
X26043Y57686D01*
X26169Y58642D01*
X26043Y59598D01*
X25674Y60488D01*
X25087Y61253D01*
X24322Y61840D01*
X23432Y62209D01*
X22476Y62335D01*
X21749Y62239D01*
X21515Y62713D01*
X24688Y65886D01*
X27776D01*
Y67405D01*
X29213D01*
Y66850D01*
X36142D01*
Y70433D01*
X29213D01*
Y70054D01*
X27776D01*
Y70059D01*
X22815D01*
Y67759D01*
X16539Y61484D01*
X16252Y61054D01*
X16151Y60547D01*
X16151Y60547D01*
Y31210D01*
X16151Y31210D01*
X16252Y30703D01*
X16539Y30273D01*
X26507Y20306D01*
X26507Y20305D01*
X26937Y20018D01*
X27444Y19918D01*
X27444Y19918D01*
X49949D01*
X50156Y19418D01*
X46512Y15773D01*
X46094Y15148D01*
X45947Y14411D01*
Y13043D01*
X45591D01*
Y7626D01*
X50157D01*
Y13043D01*
X49801D01*
Y13612D01*
X52569Y16381D01*
X62466D01*
X62618Y15881D01*
X62515Y15812D01*
X60086Y13382D01*
X59134D01*
Y13542D01*
X54173D01*
Y9369D01*
X59134D01*
Y9529D01*
X60884D01*
X61621Y9675D01*
X62246Y10093D01*
X64676Y12523D01*
X75476D01*
X75731Y12268D01*
Y11732D01*
X74488D01*
Y1035D01*
X74488Y866D01*
X74125Y535D01*
X11155D01*
X10675Y439D01*
X8613Y384D01*
X7587Y535D01*
X452D01*
Y85254D01*
X560D01*
X560Y85569D01*
X17096D01*
X17096Y85569D01*
X17476Y85254D01*
X33681D01*
X34114Y85093D01*
X34114Y84754D01*
Y79912D01*
X32212Y78010D01*
X31707Y77255D01*
X31530Y76364D01*
X31530Y76364D01*
Y75433D01*
X29213D01*
Y71850D01*
X33138D01*
X33858Y71707D01*
X34578Y71850D01*
X36142D01*
Y73810D01*
X36187Y74035D01*
Y75399D01*
X37663Y76876D01*
X40413D01*
Y80089D01*
X43784Y83460D01*
X44201Y84085D01*
X44348Y84822D01*
Y86143D01*
X45598D01*
Y85939D01*
X50859D01*
Y86335D01*
X51525Y86468D01*
X52150Y86886D01*
X54906Y89641D01*
X55323Y90267D01*
X55470Y91004D01*
Y93631D01*
X57452Y95613D01*
X62021D01*
X62070Y95113D01*
D02*
G37*
G36*
X169913Y57139D02*
X170538Y56721D01*
X171275Y56574D01*
X172940D01*
Y55871D01*
X173523D01*
Y54082D01*
X173654Y53421D01*
X174028Y52861D01*
X174106Y52784D01*
X173899Y52284D01*
X173701D01*
Y51202D01*
X172771D01*
X171288Y52685D01*
X170598Y53147D01*
X169783Y53309D01*
X166151D01*
Y58820D01*
X165941D01*
Y60519D01*
X166533D01*
X169913Y57139D01*
D02*
G37*
G36*
X155403Y48820D02*
Y47536D01*
X143314D01*
X142730Y47420D01*
X142235Y47089D01*
X138945Y43799D01*
X138401D01*
X138139Y44299D01*
X138269Y44951D01*
X138122Y45688D01*
X137705Y46313D01*
X137080Y46731D01*
X136630Y46820D01*
X134859Y48592D01*
X135050Y49054D01*
X155000D01*
X155403Y48820D01*
D02*
G37*
G36*
X170386Y47570D02*
X171076Y47109D01*
X171890Y46947D01*
X173701D01*
Y44803D01*
X173688Y44749D01*
X173690Y44733D01*
X173687Y44718D01*
X173687Y44000D01*
X172043Y42356D01*
X171221D01*
Y42358D01*
X167047D01*
Y42302D01*
X167046Y42301D01*
X166812Y42145D01*
X166655Y41910D01*
X166600Y41634D01*
Y39139D01*
X166100Y38729D01*
X166043Y38740D01*
X165428D01*
X165039Y39129D01*
Y42358D01*
X161278D01*
X160960Y42770D01*
X161033Y43202D01*
X161033Y43202D01*
Y48820D01*
X161436Y49054D01*
X168902D01*
X170386Y47570D01*
D02*
G37*
G36*
X155403Y43202D02*
X155715D01*
Y40923D01*
X155577Y40831D01*
X155159Y40206D01*
X155012Y39469D01*
X155159Y38731D01*
X155577Y38106D01*
X156202Y37688D01*
X156939Y37542D01*
X157676Y37688D01*
X158184Y38028D01*
X160866D01*
Y37398D01*
X163308D01*
X164056Y36650D01*
X164453Y36384D01*
X164921Y36291D01*
X165536D01*
X166220Y35607D01*
Y34192D01*
X164114D01*
Y34018D01*
X162953D01*
X162484Y33925D01*
X162087Y33660D01*
X161368Y32940D01*
X160892Y32818D01*
Y32818D01*
X160892Y32818D01*
X160220D01*
X160214Y32843D01*
X159884Y33338D01*
X158808Y34414D01*
X158665Y35130D01*
X158248Y35755D01*
X157623Y36173D01*
X156885Y36319D01*
X156148Y36173D01*
X155704Y35876D01*
X136518D01*
X128534Y43859D01*
X128726Y44321D01*
X130864D01*
X133990Y41195D01*
X134485Y40864D01*
X135069Y40748D01*
X139577D01*
X140161Y40864D01*
X140655Y41195D01*
X143946Y44486D01*
X155403D01*
Y43202D01*
D02*
G37*
G36*
X182480Y39764D02*
X183465Y38780D01*
X185335Y36909D01*
X185335Y33917D01*
X184981Y33563D01*
X181693Y33563D01*
X179402Y35854D01*
Y36206D01*
X179050D01*
X178642Y36614D01*
X174803D01*
X174395Y36206D01*
X174141D01*
Y35952D01*
X172539Y34350D01*
Y34192D01*
X170984D01*
Y36298D01*
X170592D01*
X170276Y36614D01*
X169209Y36614D01*
X167323Y38500D01*
Y41634D01*
X172343D01*
X174213Y43504D01*
X174409Y43701D01*
X174409Y44718D01*
X174909Y45177D01*
X182480D01*
Y39764D01*
D02*
G37*
G36*
X190398Y85373D02*
Y85254D01*
X190412D01*
Y20555D01*
X190481Y20480D01*
Y20480D01*
Y20480D01*
D01*
X190481Y4324D01*
X190412Y4248D01*
Y535D01*
X183358D01*
X182332Y384D01*
X180269Y439D01*
X179790Y535D01*
X128434D01*
X128071Y866D01*
X128071Y1035D01*
Y11732D01*
X126828D01*
Y29057D01*
X126682Y29794D01*
X126264Y30419D01*
X122636Y34048D01*
X122801Y34590D01*
X123066Y34643D01*
X123634Y35022D01*
X125199D01*
X136699Y23522D01*
X137097Y23257D01*
X137565Y23164D01*
X160695D01*
X162116Y21742D01*
X162514Y21477D01*
X162982Y21383D01*
X169721D01*
X169814Y21245D01*
X170439Y20828D01*
X171176Y20681D01*
X171913Y20828D01*
X172538Y21245D01*
X172956Y21870D01*
X173103Y22608D01*
X172956Y23345D01*
X172538Y23970D01*
X171913Y24388D01*
X171176Y24534D01*
X170439Y24388D01*
X169814Y23970D01*
X169721Y23832D01*
X168842D01*
Y27321D01*
X170984D01*
X170984Y27321D01*
Y27321D01*
X171347Y27030D01*
X171668Y26709D01*
X172130Y26400D01*
X172676Y26291D01*
X174141D01*
Y25408D01*
X179402D01*
Y27668D01*
X181145Y29411D01*
X181476Y29906D01*
X181592Y30490D01*
Y31646D01*
X182787Y32840D01*
X184981Y32840D01*
X185022Y32849D01*
X185898D01*
Y33484D01*
X186002Y33640D01*
X186057Y33917D01*
X186057Y36909D01*
X186002Y37186D01*
X185846Y37420D01*
X184673Y38593D01*
X184864Y39055D01*
X186339D01*
Y42205D01*
X186929D01*
Y52284D01*
X183491D01*
X183287Y52784D01*
X183484Y53080D01*
X183616Y53740D01*
X183484Y54401D01*
X183189Y54843D01*
Y55433D01*
X182056D01*
X181890Y55466D01*
X177588D01*
X177358Y55871D01*
Y61132D01*
X172940D01*
Y60428D01*
X172074D01*
X169258Y63244D01*
Y67448D01*
X169057D01*
Y68837D01*
X168895Y69651D01*
X168433Y70341D01*
X166735Y72040D01*
X166044Y72501D01*
X165230Y72663D01*
X164409D01*
Y80930D01*
X162324D01*
Y81178D01*
X162162Y81993D01*
X161701Y82683D01*
X160087Y84297D01*
X159397Y84759D01*
X159471Y85254D01*
X172887D01*
X173049Y85401D01*
X190398Y85373D01*
D02*
G37*
G36*
X178539Y35695D02*
X178750Y35554D01*
X178891Y35343D01*
X179933Y34301D01*
X178988Y33356D01*
X178657Y32861D01*
X178541Y32278D01*
Y31122D01*
X177245Y29825D01*
X174141D01*
Y29142D01*
X173266D01*
X173091Y29317D01*
Y29428D01*
Y32223D01*
X170512D01*
Y33188D01*
X170984D01*
Y33365D01*
X173091D01*
Y33741D01*
X173207Y33915D01*
X173227Y34016D01*
X174652Y35441D01*
X174754Y35594D01*
X174906Y35695D01*
X175102Y35892D01*
X178342D01*
X178539Y35695D01*
D02*
G37*
G36*
X134807Y33272D02*
X135302Y32941D01*
X135886Y32825D01*
X150040D01*
X150537Y32818D01*
X150537Y32116D01*
X150184Y31762D01*
X148476D01*
X147931Y31654D01*
X147552Y31401D01*
X147380Y31435D01*
X146643Y31288D01*
X146018Y30871D01*
X145600Y30246D01*
X145454Y29508D01*
X145600Y28771D01*
X146018Y28146D01*
X146643Y27728D01*
X147380Y27582D01*
X148118Y27728D01*
X148743Y28146D01*
X149161Y28771D01*
X149189Y28912D01*
X150537D01*
Y27857D01*
X154711D01*
X154711Y32818D01*
X155208Y32825D01*
X155830D01*
X156148Y32612D01*
X156332Y32576D01*
X156719Y32189D01*
Y27857D01*
X160892D01*
Y29192D01*
X160965Y29206D01*
X161362Y29472D01*
X163460Y31570D01*
X164114D01*
Y29428D01*
X166220D01*
Y27321D01*
X166394D01*
Y23832D01*
X163489D01*
X162068Y25253D01*
X161670Y25519D01*
X161202Y25612D01*
X138072D01*
X126572Y37112D01*
X126175Y37378D01*
X125707Y37471D01*
X123902D01*
X123692Y37786D01*
X123553Y37878D01*
Y39888D01*
X123437Y40472D01*
X123107Y40967D01*
X122596Y41477D01*
X122788Y41939D01*
X126140D01*
X134807Y33272D01*
D02*
G37*
G36*
X117586Y33829D02*
X117950Y33283D01*
X122975Y28259D01*
Y11732D01*
X121732D01*
Y1035D01*
X121732Y866D01*
X121370Y535D01*
X120560D01*
X120197Y866D01*
X120197Y1035D01*
Y11732D01*
X118954D01*
Y13423D01*
X121579Y16047D01*
X121997Y16672D01*
X122143Y17410D01*
X121997Y18147D01*
X121579Y18772D01*
X120954Y19190D01*
X120217Y19336D01*
X119479Y19190D01*
X118854Y18772D01*
X115665Y15583D01*
X115247Y14958D01*
X115101Y14221D01*
Y11732D01*
X113858D01*
Y1035D01*
X113858Y866D01*
X113496Y535D01*
X112686D01*
X112323Y866D01*
X112323Y1035D01*
Y11732D01*
X111080D01*
Y28031D01*
X117045Y33995D01*
X117586Y33829D01*
D02*
G37*
G36*
X116537Y39588D02*
X116721Y39121D01*
X107791Y30191D01*
X107373Y29566D01*
X107227Y28829D01*
Y11732D01*
X105984D01*
Y1035D01*
X105984Y866D01*
X105622Y535D01*
X104812D01*
X104449Y866D01*
X104449Y1035D01*
Y11732D01*
X103206D01*
Y26695D01*
X116140Y39629D01*
X116537Y39588D01*
D02*
G37*
G36*
X91479Y13042D02*
Y11732D01*
X90236D01*
Y1035D01*
X90236Y866D01*
X89874Y535D01*
X89064D01*
X88701Y866D01*
X88701Y1035D01*
Y11732D01*
X87674D01*
Y12724D01*
X87728Y12805D01*
X87875Y13542D01*
X87728Y14279D01*
X87311Y14905D01*
X86686Y15322D01*
X85948Y15469D01*
X85211Y15322D01*
X84586Y14905D01*
X84168Y14279D01*
X84022Y13542D01*
X84168Y12805D01*
X84222Y12724D01*
Y11732D01*
X82362D01*
Y1035D01*
X82362Y866D01*
X81999Y535D01*
X81189D01*
X80827Y866D01*
X80827Y1035D01*
Y11732D01*
X79584D01*
Y13066D01*
X79438Y13803D01*
X79020Y14429D01*
X77636Y15812D01*
X77534Y15881D01*
X77685Y16381D01*
X88140D01*
X91479Y13042D01*
D02*
G37*
%LPC*%
G36*
X121063Y90268D02*
X120107Y90142D01*
X119217Y89773D01*
X118452Y89186D01*
X117865Y88421D01*
X117496Y87531D01*
X117383Y86676D01*
X117370Y86575D01*
X116882D01*
X116869Y86676D01*
X116756Y87531D01*
X116387Y88421D01*
X115800Y89186D01*
X115035Y89773D01*
X114145Y90142D01*
X113189Y90268D01*
X112233Y90142D01*
X111343Y89773D01*
X110578Y89186D01*
X109991Y88421D01*
X109622Y87531D01*
X109496Y86575D01*
Y86181D01*
X109622Y85225D01*
X109991Y84335D01*
X110578Y83570D01*
X111343Y82983D01*
X112233Y82614D01*
X113189Y82488D01*
X114145Y82614D01*
X115035Y82983D01*
X115800Y83570D01*
X116387Y84335D01*
X116756Y85225D01*
X116869Y86080D01*
X116882Y86181D01*
X117370D01*
X117383Y86080D01*
X117496Y85225D01*
X117865Y84335D01*
X118452Y83570D01*
X119217Y82983D01*
X120107Y82614D01*
X121063Y82488D01*
X122019Y82614D01*
X122909Y82983D01*
X123674Y83570D01*
X124261Y84335D01*
X124630Y85225D01*
X124756Y86181D01*
Y86575D01*
X124630Y87531D01*
X124261Y88421D01*
X123674Y89186D01*
X122909Y89773D01*
X122019Y90142D01*
X121063Y90268D01*
D02*
G37*
G36*
X57795Y60433D02*
X50866D01*
Y56850D01*
X51817D01*
Y55385D01*
X51763Y55304D01*
X51617Y54567D01*
X51763Y53830D01*
X52181Y53205D01*
X52806Y52787D01*
X53543Y52640D01*
X54281Y52787D01*
X54906Y53205D01*
X55323Y53830D01*
X55470Y54567D01*
X55323Y55304D01*
X55269Y55385D01*
Y56850D01*
X57795D01*
Y60433D01*
D02*
G37*
G36*
X86024Y45391D02*
X85286Y45245D01*
X84661Y44827D01*
X84244Y44202D01*
X84097Y43465D01*
X84244Y42727D01*
X84661Y42102D01*
X85286Y41684D01*
X86024Y41538D01*
X86761Y41684D01*
X87142Y41939D01*
X94388D01*
X96078Y40250D01*
X96167Y39800D01*
X96585Y39175D01*
X97210Y38757D01*
X97947Y38610D01*
X98684Y38757D01*
X99309Y39175D01*
X99727Y39800D01*
X99874Y40537D01*
X99727Y41274D01*
X99309Y41900D01*
X98684Y42317D01*
X98235Y42407D01*
X96098Y44543D01*
X95603Y44874D01*
X95020Y44990D01*
X87142D01*
X86761Y45245D01*
X86024Y45391D01*
D02*
G37*
G36*
X159382Y17879D02*
X158531D01*
X157641Y17702D01*
X156885Y17198D01*
X156380Y16442D01*
X156203Y15551D01*
X156380Y14660D01*
X156885Y13905D01*
X157641Y13400D01*
X158114Y13306D01*
Y12796D01*
X157641Y12702D01*
X156885Y12197D01*
X156380Y11442D01*
X156203Y10551D01*
X156380Y9660D01*
X156885Y8905D01*
X157641Y8400D01*
X157970Y8335D01*
X157921Y7835D01*
X156248D01*
Y3268D01*
X161665D01*
Y7835D01*
X159993D01*
X159943Y8335D01*
X160273Y8400D01*
X161028Y8905D01*
X161533Y9660D01*
X161710Y10551D01*
X161533Y11442D01*
X161028Y12197D01*
X160273Y12702D01*
X159800Y12796D01*
Y13306D01*
X160273Y13400D01*
X161028Y13905D01*
X161533Y14660D01*
X161710Y15551D01*
X161533Y16442D01*
X161028Y17198D01*
X160273Y17702D01*
X159382Y17879D01*
D02*
G37*
%LPD*%
D10*
X169587Y28914D02*
X169882Y28618D01*
X61713Y102854D02*
X62008Y102559D01*
X61713Y102854D02*
Y106895D01*
X61417Y107190D02*
X61713Y106895D01*
X183353Y71457D02*
X187431Y67379D01*
Y56988D02*
Y67379D01*
Y56191D02*
Y56988D01*
X185010Y53770D02*
X187431Y56191D01*
X182087Y71457D02*
X183353D01*
X7599Y13661D02*
X17224Y4035D01*
X185010Y53770D02*
X185039Y53740D01*
D12*
X77756Y40730D02*
X82677Y35809D01*
X77756Y40730D02*
Y56411D01*
X82677Y26754D02*
Y35809D01*
X77165Y21242D02*
X82677Y26754D01*
X27444Y21242D02*
X77165D01*
X17476Y31210D02*
X27444Y21242D01*
X24902Y67972D02*
X25295D01*
X17476Y60547D02*
X24902Y67972D01*
X17476Y31210D02*
Y60547D01*
X33377Y68730D02*
X33465Y68642D01*
X25295Y67972D02*
X26053Y68730D01*
X33377D01*
X64567Y102559D02*
Y106477D01*
X64961Y106871D01*
Y107190D01*
X164616Y56011D02*
Y61231D01*
X166403Y63019D01*
X162057Y56031D02*
Y61184D01*
X160222Y63019D02*
X162057Y61184D01*
X160222Y63019D02*
Y63983D01*
D27*
X152624Y30337D02*
D03*
X158805D02*
D03*
X169134Y39878D02*
D03*
X162953D02*
D03*
D28*
X165669Y34762D02*
D03*
Y32794D02*
D03*
Y30825D02*
D03*
Y28857D02*
D03*
X171535D02*
D03*
Y30825D02*
D03*
Y32794D02*
D03*
Y34762D02*
D03*
D29*
X167618Y28877D02*
D03*
X169587D02*
D03*
Y34743D02*
D03*
X167618D02*
D03*
D30*
X176772Y27617D02*
D03*
Y33998D02*
D03*
X183268Y35057D02*
D03*
Y28676D02*
D03*
X48228Y94529D02*
D03*
Y88148D02*
D03*
D31*
X55905Y102559D02*
D03*
X68110D02*
D03*
D32*
X59449D02*
D03*
X62008D02*
D03*
X64567D02*
D03*
D33*
X43504Y66142D02*
D03*
D34*
X32677Y73642D02*
D03*
Y68642D02*
D03*
Y63642D02*
D03*
Y58642D02*
D03*
X54331Y73642D02*
D03*
Y68642D02*
D03*
Y63642D02*
D03*
Y58642D02*
D03*
D35*
X161260Y74690D02*
D03*
X149567D02*
D03*
D36*
X56653Y11456D02*
D03*
Y5274D02*
D03*
X25295Y67972D02*
D03*
Y74154D02*
D03*
D37*
X42520Y95669D02*
D03*
Y87795D02*
D03*
D38*
X81496Y81496D02*
D03*
X66929D02*
D03*
D39*
X69784Y6299D02*
D03*
X77658D02*
D03*
X85532D02*
D03*
X93405D02*
D03*
X101279D02*
D03*
X109154D02*
D03*
X117028D02*
D03*
X124902D02*
D03*
X69784Y63779D02*
D03*
X77658D02*
D03*
X85532D02*
D03*
X93405D02*
D03*
X101279D02*
D03*
X109154D02*
D03*
X117028D02*
D03*
X124902D02*
D03*
D40*
X47697Y81299D02*
D03*
X59390D02*
D03*
X25571Y80984D02*
D03*
X37264D02*
D03*
D41*
X185039Y53740D02*
D03*
X181890D02*
D03*
X178740D02*
D03*
X175591D02*
D03*
X185039Y40748D02*
D03*
X181890D02*
D03*
X178740D02*
D03*
X175591D02*
D03*
D42*
X180315Y47244D02*
D03*
D43*
X164616Y56011D02*
D03*
X162057Y56031D02*
D03*
X159498Y56011D02*
D03*
X156939D02*
D03*
Y46011D02*
D03*
X159498D02*
D03*
X162057D02*
D03*
X164616D02*
D03*
D44*
X166581Y63983D02*
D03*
X160045D02*
D03*
D45*
X181530Y58501D02*
D03*
X175149D02*
D03*
D79*
X158805Y30337D02*
Y32260D01*
X135886Y34350D02*
X156843D01*
X180067Y32278D02*
X182746Y34957D01*
X180067Y30490D02*
Y32278D01*
X177293Y27716D02*
X180067Y30490D01*
X156885Y34179D02*
X158805Y32260D01*
X156885Y34179D02*
Y34392D01*
X156843Y34350D02*
X156885Y34392D01*
X126772Y43465D02*
X135886Y34350D01*
X85532Y56398D02*
X94784Y47146D01*
X97736D02*
X101417Y43465D01*
X94784Y47146D02*
X97736D01*
X166403Y63019D02*
Y63373D01*
X156939Y51181D02*
Y56011D01*
X101279Y63779D02*
X101378Y63681D01*
X101417Y43465D02*
X126772D01*
X120735Y41181D02*
X122028Y39888D01*
X115535Y41181D02*
X120735D01*
X101279Y26926D02*
X115535Y41181D01*
X86024Y43465D02*
X95020D01*
X97947Y40537D01*
X98032Y40453D01*
X104154Y45847D02*
X131496D01*
X93405Y56595D02*
X104154Y45847D01*
X122028Y36724D02*
Y39888D01*
X101378Y56988D02*
X110236Y48130D01*
X133163D01*
X131496Y45847D02*
X135069Y42274D01*
X133163Y48130D02*
X136342Y44951D01*
X135069Y42274D02*
X139577D01*
X143314Y46011D01*
X156939D01*
X55905Y102559D02*
Y107190D01*
D80*
X148476Y30337D02*
X152624D01*
X171670Y28857D02*
X171693D01*
X171670Y28722D02*
X172676Y27716D01*
X176772D01*
X147647Y29508D02*
X148476Y30337D01*
X147380Y29508D02*
X147647D01*
D81*
X162982Y22608D02*
X167618D01*
X137565Y24388D02*
X161202D01*
X162982Y22608D01*
X125707Y36246D02*
X137565Y24388D01*
X167618Y22608D02*
X171176D01*
X167618D02*
Y28877D01*
X122028Y36724D02*
X122329Y36423D01*
X162953Y32794D02*
X165669D01*
X160496Y30337D02*
X162953Y32794D01*
X158805Y30337D02*
X160496D01*
X156939Y39252D02*
X162327D01*
X167615Y34745D02*
X167618Y34743D01*
X167615Y34745D02*
Y35943D01*
X166043Y37516D02*
X167615Y35943D01*
X162953Y39484D02*
Y39878D01*
Y39484D02*
X164921Y37516D01*
X166043D01*
X162768Y39252D02*
X163078Y38943D01*
X122329Y36423D02*
X122506Y36246D01*
X125707D01*
X156939Y40305D02*
Y46011D01*
Y40305D02*
X157202Y40042D01*
X159390Y41634D02*
X159444Y41688D01*
X159390Y46119D02*
X159444Y46065D01*
Y41688D02*
Y46065D01*
D82*
X182746Y34957D02*
X183268D01*
X176772Y27716D02*
X177293D01*
D83*
X166403Y63983D02*
X166929Y64509D01*
X165230Y70536D02*
X166929Y68837D01*
X162323Y70536D02*
X165230D01*
X161260Y71599D02*
X162323Y70536D01*
X166929Y64509D02*
Y68837D01*
X84449Y94429D02*
X144999D01*
X72146D02*
X84449D01*
X70728Y93012D02*
X72146Y94429D01*
X148819Y84407D02*
Y90609D01*
X160197Y75753D02*
Y81178D01*
X158582Y82793D02*
X160197Y81178D01*
X148819Y84407D02*
X150433Y82793D01*
X158582D01*
X161260Y71599D02*
Y74690D01*
X160197Y75753D02*
X161260Y74690D01*
X156939Y51181D02*
X169783D01*
X124902D02*
X156939D01*
X111365D02*
X124902D01*
X109154Y53393D02*
X111365Y51181D01*
X169783D02*
X171890Y49075D01*
X178484D01*
X109154Y53393D02*
Y63779D01*
X124902Y51181D02*
Y63779D01*
X178484Y49075D02*
X180315Y47244D01*
X144999Y94429D02*
X148819Y90609D01*
X62205Y93012D02*
X70728D01*
X59390Y90197D02*
X62205Y93012D01*
X59390Y81299D02*
Y90197D01*
X48892Y47165D02*
X55518D01*
D84*
X77756Y56411D02*
X77776Y56431D01*
Y63661D01*
X77658Y63779D02*
X77776Y63661D01*
X63878Y14450D02*
X76274D01*
X77658Y6299D02*
Y13066D01*
X63652Y47165D02*
X68150Y42668D01*
X55518Y47165D02*
X63652D01*
X73327Y36832D02*
X76891Y33268D01*
Y31075D02*
Y33268D01*
X73327Y36832D02*
Y49521D01*
X37264Y80984D02*
X38583D01*
X166403Y63373D02*
X171275Y58501D01*
X175249D01*
X69784Y53065D02*
Y63779D01*
Y53065D02*
X73327Y49521D01*
X101378Y56988D02*
Y63681D01*
X93405Y56595D02*
Y63779D01*
X85532Y56398D02*
Y63779D01*
X118828Y38504D02*
X119351D01*
X109154Y28829D02*
X118828Y38504D01*
X101279Y6299D02*
Y26926D01*
X109154Y6299D02*
Y28829D01*
X119313Y34646D02*
X124902Y29057D01*
Y6299D02*
Y29057D01*
X115062Y55046D02*
Y55413D01*
X117028Y57379D01*
Y63779D01*
X51771Y18308D02*
X88938D01*
X93405Y6299D02*
Y13840D01*
X88938Y18308D02*
X93405Y13840D01*
X117028Y6299D02*
Y14221D01*
X120217Y17410D01*
X47874Y14411D02*
X51771Y18308D01*
X47874Y10335D02*
Y14411D01*
X76274Y14450D02*
X77658Y13066D01*
X60884Y11456D02*
X63878Y14450D01*
X56653Y11456D02*
X60884D01*
X37835Y81299D02*
Y82184D01*
X42421Y87894D02*
X42520Y87992D01*
X38583Y80984D02*
X42421Y84822D01*
X42520Y87992D02*
X42598Y88070D01*
X42421Y84822D02*
Y87894D01*
X53543Y94429D02*
X56653Y97539D01*
X65945D01*
X68110Y99705D01*
Y102559D01*
X76579Y75300D02*
X79724D01*
X79769Y75345D01*
Y76364D01*
X72146Y70866D02*
X76579Y75300D01*
X66673Y70866D02*
X72146D01*
X57983Y68642D02*
X67323Y77982D01*
X53543Y68642D02*
X57983D01*
X59449Y63642D02*
X66673Y70866D01*
X33465Y58543D02*
X36693Y55315D01*
X43701D01*
X47047Y51968D01*
Y49010D02*
Y51968D01*
Y49010D02*
X48892Y47165D01*
X37835Y80340D02*
Y81299D01*
X48050Y88070D02*
X48228Y88248D01*
X42598Y88070D02*
X48050D01*
X50787Y88248D02*
X53543Y91004D01*
Y94429D01*
X48228Y88248D02*
X50787D01*
D85*
X53543Y54803D02*
Y58642D01*
X53642D02*
X53740Y58543D01*
X53543Y58642D02*
X53642D01*
X85948Y6716D02*
Y13542D01*
X166403Y63373D02*
Y63983D01*
X123622Y65059D02*
X124902Y63779D01*
X85532Y6299D02*
X85948Y6716D01*
X175249Y54082D02*
X175591Y53740D01*
X175249Y54082D02*
Y58501D01*
X67323Y77982D02*
Y80709D01*
X33465Y58543D02*
Y58642D01*
Y63642D01*
X175591Y53740D02*
Y53740D01*
X178740Y53740D02*
X181890D01*
X175591D02*
X178740D01*
D86*
X103347Y81759D02*
X108742Y76364D01*
X134036D02*
X146416Y63983D01*
X108742Y76364D02*
X134036D01*
X54528Y73622D02*
X55512Y74606D01*
Y76462D02*
X59390Y80340D01*
X55512Y74606D02*
Y76462D01*
X59390Y80340D02*
Y81299D01*
X33858Y74035D02*
Y76364D01*
X37835Y80340D01*
X103347Y81759D02*
Y86378D01*
X146416Y63983D02*
X160222D01*
X53543Y63642D02*
X59449D01*
X61417Y53065D02*
Y61673D01*
X59449Y63642D02*
X61417Y61673D01*
X55518Y47165D02*
Y47165D01*
X61417Y53065D01*
D87*
X22476Y41500D02*
Y58642D01*
Y41500D02*
X26811Y37165D01*
X55518D01*
D88*
X53543Y54803D02*
D03*
D89*
X44882Y113878D02*
D03*
X79134D02*
D03*
D90*
X47835Y101969D02*
D03*
X76181D02*
D03*
D91*
X33018Y27165D02*
D03*
Y47165D02*
D03*
X55518Y27165D02*
D03*
Y37165D02*
D03*
X55518Y47165D02*
D03*
D92*
X22476Y58642D02*
D03*
D93*
X12476D02*
D03*
D94*
X130905Y86378D02*
D03*
X121063D02*
D03*
X113189D02*
D03*
X103347D02*
D03*
D95*
X142323Y83858D02*
D03*
X91929D02*
D03*
X88976Y105354D02*
D03*
X145276D02*
D03*
D96*
X8858Y76772D02*
D03*
X182087Y12402D02*
D03*
Y76772D02*
D03*
X8858Y12402D02*
D03*
D97*
X47874Y10335D02*
D03*
D98*
X42874D02*
D03*
D99*
X158957Y20551D02*
D03*
Y15551D02*
D03*
Y10551D02*
D03*
D100*
Y5551D02*
D03*
D101*
X139577Y26770D02*
D03*
X142795Y21242D02*
D03*
X175197Y32437D02*
D03*
X147380Y29508D02*
D03*
X171176Y22608D02*
D03*
X165061Y25689D02*
D03*
X156885Y34392D02*
D03*
X84449Y94429D02*
D03*
X137933Y10335D02*
D03*
X53543Y54567D02*
D03*
X68150Y42668D02*
D03*
X65965Y52354D02*
D03*
X76891Y31075D02*
D03*
X16151Y3561D02*
D03*
X21148Y10353D02*
D03*
X16392Y22151D02*
D03*
X5591Y23798D02*
D03*
X144114Y78378D02*
D03*
X81598Y100984D02*
D03*
X87205Y112894D02*
D03*
X149401Y98342D02*
D03*
X149567Y111221D02*
D03*
X42406Y101969D02*
D03*
X41781Y107190D02*
D03*
X29134Y53122D02*
D03*
X24902Y31696D02*
D03*
X74263Y79600D02*
D03*
Y83858D02*
D03*
X74125Y87992D02*
D03*
X54906Y86378D02*
D03*
X13160Y65970D02*
D03*
X19353Y69547D02*
D03*
X21421Y77013D02*
D03*
X19151Y83444D02*
D03*
X168524Y2928D02*
D03*
X175908Y3825D02*
D03*
X171590Y9337D02*
D03*
X171176Y16160D02*
D03*
X180269Y24365D02*
D03*
X186198Y64614D02*
D03*
X176722D02*
D03*
X170083Y71993D02*
D03*
X168759Y81612D02*
D03*
X147202Y58071D02*
D03*
X140819Y63244D02*
D03*
X155012Y70081D02*
D03*
X98583Y71260D02*
D03*
X87205Y22416D02*
D03*
X69468Y28829D02*
D03*
X54291Y5598D02*
D03*
X35191Y14905D02*
D03*
Y5598D02*
D03*
X23432D02*
D03*
Y14905D02*
D03*
X12476Y28829D02*
D03*
X4480D02*
D03*
X12220Y40537D02*
D03*
X4480D02*
D03*
X3699Y50479D02*
D03*
Y57219D02*
D03*
Y63319D02*
D03*
X51525Y116142D02*
D03*
X62780D02*
D03*
X74125D02*
D03*
X72103Y107190D02*
D03*
X138139Y111221D02*
D03*
X132840Y101260D02*
D03*
X125707Y111221D02*
D03*
X119313Y101260D02*
D03*
X111080Y111221D02*
D03*
X102497Y101260D02*
D03*
X98622Y111221D02*
D03*
X170195Y45480D02*
D03*
X85948Y13542D02*
D03*
X139577Y47638D02*
D03*
X147202Y13840D02*
D03*
X168022Y57087D02*
D03*
X81598Y13306D02*
D03*
X105158Y18308D02*
D03*
X114469Y20219D02*
D03*
X143314Y39508D02*
D03*
X136342D02*
D03*
X142323Y28829D02*
D03*
X187805Y31693D02*
D03*
X175955Y50000D02*
D03*
Y47244D02*
D03*
X178937Y50000D02*
D03*
X156939Y39469D02*
D03*
X159390Y41634D02*
D03*
X119351Y38504D02*
D03*
X136342Y44951D02*
D03*
X122329Y36423D02*
D03*
X119313Y34646D02*
D03*
X115062Y55046D02*
D03*
X124902Y13840D02*
D03*
X120217Y17410D02*
D03*
X97947Y40537D02*
D03*
X86024Y43465D02*
D03*
X55905Y107190D02*
D03*
X64961D02*
D03*
X61417D02*
D03*
X187431Y56988D02*
D03*
X40354Y64653D02*
D03*
X46654D02*
D03*
X43504Y64653D02*
D03*
X40354Y61248D02*
D03*
X43504D02*
D03*
X46654Y61247D02*
D03*
Y67854D02*
D03*
X43504Y67855D02*
D03*
X40354D02*
D03*
X43504Y71260D02*
D03*
X46654Y71260D02*
D03*
X40354D02*
D03*
X187805Y25689D02*
D03*
X184843Y44488D02*
D03*
Y47244D02*
D03*
Y50000D02*
D03*
X181890Y44488D02*
D03*
Y47244D02*
D03*
Y50000D02*
D03*
X178937Y47244D02*
D03*
Y44488D02*
D03*
X175984D02*
D03*
D102*
X121732Y54309D02*
D03*
M02*
