G04*
G04 #@! TF.GenerationSoftware,Altium Limited,Altium Designer,20.2.4 (192)*
G04*
G04 Layer_Color=128*
%FSLAX25Y25*%
%MOIN*%
G70*
G04*
G04 #@! TF.SameCoordinates,A4C890F2-BA2B-4C22-B79F-40179FF621D5*
G04*
G04*
G04 #@! TF.FilePolarity,Positive*
G04*
G01*
G75*
%ADD27R,0.02756X0.03543*%
%ADD30R,0.03843X0.03000*%
%ADD35R,0.04882X0.11063*%
%ADD36R,0.03543X0.02756*%
%ADD40R,0.04882X0.06800*%
%ADD45R,0.03000X0.03843*%
%ADD103R,0.03937X0.03150*%
%ADD104R,0.03150X0.03937*%
%ADD105R,0.06800X0.04882*%
%ADD106R,0.04331X0.02362*%
%ADD107R,0.09055X0.05906*%
D27*
X96496Y14450D02*
D03*
X90315D02*
D03*
X60000Y111811D02*
D03*
X66181D02*
D03*
X77736Y38368D02*
D03*
X71555D02*
D03*
X114035Y94685D02*
D03*
X120217D02*
D03*
X178405Y38500D02*
D03*
X184587D02*
D03*
X61319Y10353D02*
D03*
X55138D02*
D03*
X146201Y43110D02*
D03*
X140020D02*
D03*
X111102Y34252D02*
D03*
X104921D02*
D03*
D30*
X43701Y34982D02*
D03*
Y28601D02*
D03*
D35*
X107815Y96850D02*
D03*
X96122D02*
D03*
D36*
X81693Y49646D02*
D03*
Y43465D02*
D03*
X83661Y32045D02*
D03*
Y38226D02*
D03*
X105512Y49646D02*
D03*
Y43465D02*
D03*
X129134D02*
D03*
Y49646D02*
D03*
X120217Y27699D02*
D03*
Y21518D02*
D03*
X140551Y75433D02*
D03*
Y69252D02*
D03*
X117126Y68957D02*
D03*
Y75138D02*
D03*
X93405D02*
D03*
Y68957D02*
D03*
X69784Y69055D02*
D03*
Y75236D02*
D03*
D40*
X76811Y18308D02*
D03*
X65118D02*
D03*
X10545Y48366D02*
D03*
X22238D02*
D03*
D45*
X77140Y25808D02*
D03*
X83521D02*
D03*
D103*
X105413Y24009D02*
D03*
X113681Y20269D02*
D03*
Y27749D02*
D03*
D104*
X142795Y58071D02*
D03*
X139055Y49803D02*
D03*
X146535D02*
D03*
X119095Y58071D02*
D03*
X115354Y49803D02*
D03*
X122835D02*
D03*
X95472Y58071D02*
D03*
X91732Y49803D02*
D03*
X99213D02*
D03*
X71870Y58071D02*
D03*
X68130Y49803D02*
D03*
X75610D02*
D03*
D105*
X43701Y54272D02*
D03*
Y42579D02*
D03*
D106*
X158130Y53248D02*
D03*
Y60728D02*
D03*
X169154Y53248D02*
D03*
Y56988D02*
D03*
Y60728D02*
D03*
D107*
X130905Y69685D02*
D03*
Y57874D02*
D03*
X107283D02*
D03*
Y69685D02*
D03*
X83661D02*
D03*
Y57874D02*
D03*
X60039D02*
D03*
Y69685D02*
D03*
X95472Y34252D02*
D03*
Y22441D02*
D03*
M02*
