M48
;Layer_Color=9474304
;FILE_FORMAT=2:5
INCH,LZ
;TYPE=PLATED
T1F00S00C0.01181
T2F00S00C0.02362
T6F00S00C0.03937
T7F00S00C0.11811
%
T01
X0174902Y000128
Y0003839
Y0006398
Y0008957
X0174567Y0011516
Y0014075
X0174902Y0016634
Y0019193
Y0021752
X0164961Y0025197
X0162401Y0025295
X0159843
X0157283
X0158465Y0028543
X0161889Y0033858
X0165461Y003701
X0158957Y0039883
X0161516Y0047638
Y0050787
X0175984Y005
Y0047244
Y0044488
X0178937
Y0047244
Y005
X018189
Y0047244
Y0044488
X0184843
Y0047244
Y005
X018501Y0056988
X0174508Y0062992
X0170571Y0074016
X016314Y0075305
X0157993Y0069291
X015689Y0065256
X0180217Y0031693
X0187303Y0028898
Y0026378
X0154724Y0025295
X0152165
X0149606
X0147047
X0144488
X0141929
X013937
X0136811
X0134252
X0132382Y0024035
X0132231Y0021742
X0132185Y0019291
X0130217Y0023545
X0127585Y0023622
X0124583Y0025142
X0124629Y0031194
X0124219Y0034943
X0123628Y0041439
X0118504Y0043701
X0118898Y0046752
X0114105Y0040059
X0113583Y0030709
Y0027264
Y0023819
Y0020374
X0111122Y0022047
Y0025492
Y0028937
X0108661Y003061
Y0027165
Y002372
Y0020276
X0106201Y0021949
Y0025394
Y0028839
X0105075Y0031549
X0103839Y0039862
X0100098
X0102461Y0050886
X0088287Y0050965
X0084744Y0043406
X0077362Y0036319
X0076575Y0057972
X0074801Y0070181
X0074625Y0080216
X0077873
X0080807Y0083268
Y0086516
Y0089468
Y0092716
X0078051Y0095669
X0074803
X0059744Y0095965
X006191Y0098228
X0055905Y0098524
X0064468Y0077461
X0057582Y0064176
X0043307Y0065158
Y0062598
X0040728
Y0065158
X0038169
Y0062598
X0035531
Y0065158
Y0059941
Y0057382
X0038169
X0040728
Y0059941
X0038169
X0043307
Y0057382
X0042126Y0048327
X0030315Y0052756
X0016535Y0048228
X0006988
X0007087Y0058268
X0016634
X0020866Y0064468
X0023425Y0075295
X0029331Y0072736
X0038287Y0072539
X0041535
X0048327Y003374
X004841Y0023476
X0033966Y0021742
X0032283Y0010531
X0026575Y0004889
X0022343Y0012303
X0012697Y0025197
X000502
X0019291Y0039665
X0025787Y0034864
X003937Y0004035
X0065847Y0010039
X0081693Y0011043
X0088189Y0006754
X0100399Y0006989
X0103347Y0011811
X0105075Y0019488
X009685Y0017224
X0112697Y0011713
X0118799Y001122
X0124902Y001063
X0127165Y0009843
X0129606Y0009449
X0131988Y0009154
Y0006594
Y0004035
Y0001476
X0121949Y0006791
X0124953Y0013681
X0117126Y0019488
X0116043Y0022146
Y0025591
Y0029035
X0117126Y0031549
X0135047Y0028839
X0150197Y0028898
X0154134Y0028543
X0148039Y0034254
X0150098Y0036614
X0150591Y0039764
X0151083Y0047638
X0144291Y0043602
X013731Y0042522
X0136141Y0047835
X0138828Y0057874
X0147441Y0063282
X0151476Y006198
X0154569Y0063282
X0153979Y007815
X0151083
X0147933Y0078378
X0122244Y0071653
X0118307Y0063976
X0117618Y0060221
X010561Y0064173
X0127303Y0052854
X0108957Y0002695
T02
X0007972Y0033425
Y0038425
X0043386Y0009337
X0048386
X0053386
X0058386
T06
X0095374Y0051201
Y0061201
X0103347Y0086378
X0113189
X0121063
X0130905
T07
X0182087Y0012402
Y0071457
X0008858
Y0012402
M30
