M48
;Layer_Color=9474304
;FILE_FORMAT=2:5
INCH,LZ
;TYPE=PLATED
T1F00S00C0.01181
T2F00S00C0.02362
T6F00S00C0.03937
T7F00S00C0.04724
T8F00S00C0.11811
%
T01
X0168524Y0002928
X0175908Y0003825
X017159Y0009337
X0171176Y001616
X017117Y0021753
X0180269Y0024365
X0180217Y0031693
X0187805
Y0025689
X0184843Y0044488
Y0047244
Y005
X018189
Y0047244
Y0044488
X0178937
Y0047244
Y005
X0175955
Y0047244
X0175984Y0044488
X0170195Y004548
X0165855Y0037403
X0161889Y0033858
X0158661Y0036789
X0156939Y0039469
X015939Y0041634
X0161889Y0026362
X0168022Y0057087
X0176722Y0064614
X0186198
X0187431Y0056988
X0170083Y0071993
X0168759Y0081612
X0155012Y0070081
X0144114Y0078378
X0140819Y0063244
X0147202Y0058071
X0139577Y0047638
X0136342Y0044951
Y0039508
X0143314
X0150492Y0030292
X0139577Y0026754
X0142795Y0021242
X0147202Y001384
X0137933Y0010335
X0124902Y001384
X0120217Y001741
X0114469Y0020219
X0105158Y0018308
X0087205Y0022416
X0085948Y0013542
X0081598Y0013306
X0076891Y0031075
X0069468Y0028829
X006815Y0042668
X0065965Y0052354
X0053543Y0054567
X0046654Y0061247
X0043504Y0061248
X0040354
Y0064653
X0043504Y0064653
X0046654Y0064653
Y0067854
X0043504Y0067855
X0040354
Y007126
X0043504Y007126
X0046654Y007126
X0054906Y0086378
X0074125Y0087992
X0074263Y0083858
Y00796
X0084449Y0094429
X0081598Y0100984
X0072103Y010719
X0064961
X0061417
X0055905
X0051525Y0116142
X006278
X0074125
X0087205Y0112894
X0098622Y0111221
X011108
X0125707
X0138139
X0149567
X0149401Y0098342
X013284Y010126
X0119313
X0102497
X0098583Y007126
X0097947Y0040537
X0086024Y0043465
X0119351Y0038504
X0119313Y0034646
X0122329Y0036423
X0121732Y0054309
X0115062Y0055046
X0029134Y0053122
X0024902Y0031696
X0012476Y0028829
X000448
X0005591Y0023798
X0016392Y0022151
X0023432Y0014905
X0021148Y0010353
X0023432Y0005598
X0016151Y0003561
X0035191Y0005598
Y0014905
X0054291Y0005598
X001222Y0040537
X000448
X0003699Y0050479
Y0057219
Y0063319
X001316Y006597
X0019353Y0069547
X0021421Y0077013
X0019151Y0083444
X0042406Y0101969
X0041781Y010719
T02
X0158957Y0005551
Y0010551
Y0015551
Y0020551
X0047874Y0010335
X0042874
T06
X0012476Y0058642
X0022476
X0103347Y0086378
X0113189
X0121063
X0130905
T07
X0033018Y0027165
Y0047165
X0055518
X0055518Y0037165
Y0027165
T08
X0182087Y0012402
Y0076772
X0008858
Y0012402
M30
